<svg width="48" height="48" viewBox="0 0 48 48" fill="none" xmlns="http://www.w3.org/2000/svg" xmlns:xlink="http://www.w3.org/1999/xlink">
<path d="M9.328,27.759L8.671,25.81L8.669,25.811L9.328,27.759ZM5.857,39.429L3.8,39.429L3.8,41.486L5.857,41.486L5.857,39.429ZM21.286,23.657C16.149,23.657 11.624,24.814 8.671,25.81L9.986,29.709C12.676,28.802 16.739,27.771 21.286,27.771L21.286,23.657ZM8.669,25.811C5.739,26.802 3.8,29.558 3.8,32.626L7.914,32.626C7.914,31.296 8.753,30.126 9.988,29.708L8.669,25.811ZM3.8,32.626L3.8,39.429L7.914,39.429L7.914,32.626L3.8,32.626ZM5.857,39.429C5.857,41.486 5.857,41.486 5.857,41.486C5.857,41.486 5.857,41.486 5.858,41.486C5.858,41.486 5.858,41.486 5.859,41.486C5.859,41.486 5.86,41.486 5.86,41.486C5.861,41.486 5.861,41.486 5.862,41.486C5.862,41.486 5.863,41.486 5.864,41.486C5.865,41.486 5.866,41.486 5.866,41.486C5.867,41.486 5.868,41.486 5.869,41.486C5.87,41.486 5.871,41.486 5.873,41.486C5.874,41.486 5.875,41.486 5.876,41.486C5.877,41.486 5.879,41.486 5.88,41.486C5.882,41.486 5.883,41.486 5.885,41.486C5.886,41.486 5.888,41.486 5.889,41.486C5.891,41.486 5.893,41.486 5.895,41.486C5.896,41.486 5.898,41.486 5.9,41.486C5.902,41.486 5.904,41.486 5.906,41.486C5.908,41.486 5.91,41.486 5.912,41.486C5.914,41.486 5.916,41.486 5.919,41.486C5.921,41.486 5.923,41.486 5.926,41.486C5.928,41.486 5.931,41.486 5.933,41.486C5.936,41.486 5.938,41.486 5.941,41.486C5.943,41.486 5.946,41.486 5.949,41.486C5.952,41.486 5.954,41.486 5.957,41.486C5.96,41.486 5.963,41.486 5.966,41.486C5.969,41.486 5.972,41.486 5.975,41.486C5.978,41.486 5.981,41.486 5.985,41.486C5.988,41.486 5.991,41.486 5.994,41.486C5.998,41.486 6.001,41.486 6.005,41.486C6.008,41.486 6.011,41.486 6.015,41.486C6.019,41.486 6.022,41.486 6.026,41.486C6.03,41.486 6.033,41.486 6.037,41.486C6.041,41.486 6.045,41.486 6.049,41.486C6.053,41.486 6.057,41.486 6.061,41.486C6.065,41.486 6.069,41.486 6.073,41.486C6.077,41.486 6.081,41.486 6.085,41.486C6.09,41.486 6.094,41.486 6.098,41.486C6.103,41.486 6.107,41.486 6.112,41.486C6.116,41.486 6.121,41.486 6.125,41.486C6.13,41.486 6.134,41.486 6.139,41.486C6.144,41.486 6.148,41.486 6.153,41.486C6.158,41.486 6.163,41.486 6.168,41.486C6.173,41.486 6.178,41.486 6.183,41.486C6.188,41.486 6.193,41.486 6.198,41.486C6.203,41.486 6.208,41.486 6.214,41.486C6.219,41.486 6.224,41.486 6.229,41.486C6.235,41.486 6.24,41.486 6.246,41.486C6.251,41.486 6.257,41.486 6.262,41.486C6.268,41.486 6.273,41.486 6.279,41.486C6.285,41.486 6.29,41.486 6.296,41.486C6.302,41.486 6.308,41.486 6.314,41.486C6.319,41.486 6.325,41.486 6.331,41.486C6.337,41.486 6.343,41.486 6.349,41.486C6.356,41.486 6.362,41.486 6.368,41.486C6.374,41.486 6.38,41.486 6.387,41.486C6.393,41.486 6.399,41.486 6.406,41.486C6.412,41.486 6.419,41.486 6.425,41.486C6.432,41.486 6.438,41.486 6.445,41.486C6.451,41.486 6.458,41.486 6.465,41.486C6.471,41.486 6.478,41.486 6.485,41.486C6.492,41.486 6.499,41.486 6.505,41.486C6.512,41.486 6.519,41.486 6.526,41.486C6.533,41.486 6.54,41.486 6.547,41.486C6.555,41.486 6.562,41.486 6.569,41.486C6.576,41.486 6.583,41.486 6.591,41.486C6.598,41.486 6.605,41.486 6.613,41.486C6.62,41.486 6.627,41.486 6.635,41.486C6.642,41.486 6.65,41.486 6.658,41.486C6.665,41.486 6.673,41.486 6.68,41.486C6.688,41.486 6.696,41.486 6.704,41.486C6.711,41.486 6.719,41.486 6.727,41.486C6.735,41.486 6.743,41.486 6.751,41.486C6.759,41.486 6.767,41.486 6.775,41.486C6.783,41.486 6.791,41.486 6.799,41.486C6.807,41.486 6.816,41.486 6.824,41.486C6.832,41.486 6.84,41.486 6.849,41.486C6.857,41.486 6.865,41.486 6.874,41.486C6.882,41.486 6.891,41.486 6.899,41.486C6.908,41.486 6.916,41.486 6.925,41.486C6.934,41.486 6.942,41.486 6.951,41.486C6.96,41.486 6.968,41.486 6.977,41.486C6.986,41.486 6.995,41.486 7.004,41.486C7.013,41.486 7.022,41.486 7.031,41.486C7.04,41.486 7.049,41.486 7.058,41.486C7.067,41.486 7.076,41.486 7.085,41.486C7.094,41.486 7.103,41.486 7.113,41.486C7.122,41.486 7.131,41.486 7.14,41.486C7.15,41.486 7.159,41.486 7.168,41.486C7.178,41.486 7.187,41.486 7.197,41.486C7.206,41.486 7.216,41.486 7.225,41.486C7.235,41.486 7.245,41.486 7.254,41.486C7.264,41.486 7.274,41.486 7.283,41.486C7.293,41.486 7.303,41.486 7.313,41.486C7.323,41.486 7.333,41.486 7.342,41.486C7.352,41.486 7.362,41.486 7.372,41.486C7.382,41.486 7.392,41.486 7.402,41.486C7.413,41.486 7.423,41.486 7.433,41.486C7.443,41.486 7.453,41.486 7.463,41.486C7.474,41.486 7.484,41.486 7.494,41.486C7.505,41.486 7.515,41.486 7.525,41.486C7.536,41.486 7.546,41.486 7.557,41.486C7.567,41.486 7.578,41.486 7.588,41.486C7.599,41.486 7.609,41.486 7.62,41.486C7.631,41.486 7.641,41.486 7.652,41.486C7.663,41.486 7.674,41.486 7.684,41.486C7.695,41.486 7.706,41.486 7.717,41.486C7.728,41.486 7.739,41.486 7.75,41.486C7.761,41.486 7.772,41.486 7.783,41.486C7.794,41.486 7.805,41.486 7.816,41.486C7.827,41.486 7.838,41.486 7.849,41.486C7.86,41.486 7.872,41.486 7.883,41.486C7.894,41.486 7.905,41.486 7.917,41.486C7.928,41.486 7.94,41.486 7.951,41.486C7.962,41.486 7.974,41.486 7.985,41.486C7.997,41.486 8.008,41.486 8.02,41.486C8.031,41.486 8.043,41.486 8.055,41.486C8.066,41.486 8.078,41.486 8.089,41.486C8.101,41.486 8.113,41.486 8.125,41.486C8.136,41.486 8.148,41.486 8.16,41.486C8.172,41.486 8.184,41.486 8.196,41.486C8.208,41.486 8.22,41.486 8.231,41.486C8.243,41.486 8.255,41.486 8.268,41.486C8.28,41.486 8.292,41.486 8.304,41.486C8.316,41.486 8.328,41.486 8.34,41.486C8.352,41.486 8.365,41.486 8.377,41.486C8.389,41.486 8.401,41.486 8.414,41.486C8.426,41.486 8.438,41.486 8.451,41.486C8.463,41.486 8.475,41.486 8.488,41.486C8.5,41.486 8.513,41.486 8.525,41.486C8.538,41.486 8.55,41.486 8.563,41.486C8.576,41.486 8.588,41.486 8.601,41.486C8.613,41.486 8.626,41.486 8.639,41.486C8.652,41.486 8.664,41.486 8.677,41.486C8.69,41.486 8.703,41.486 8.715,41.486C8.728,41.486 8.741,41.486 8.754,41.486C8.767,41.486 8.78,41.486 8.793,41.486C8.806,41.486 8.819,41.486 8.832,41.486C8.845,41.486 8.858,41.486 8.871,41.486C8.884,41.486 8.897,41.486 8.91,41.486C8.923,41.486 8.937,41.486 8.95,41.486C8.963,41.486 8.976,41.486 8.989,41.486C9.003,41.486 9.016,41.486 9.029,41.486C9.043,41.486 9.056,41.486 9.069,41.486C9.083,41.486 9.096,41.486 9.11,41.486C9.123,41.486 9.136,41.486 9.15,41.486C9.163,41.486 9.177,41.486 9.191,41.486C9.204,41.486 9.218,41.486 9.231,41.486C9.245,41.486 9.258,41.486 9.272,41.486C9.286,41.486 9.299,41.486 9.313,41.486C9.327,41.486 9.341,41.486 9.354,41.486C9.368,41.486 9.382,41.486 9.396,41.486C9.41,41.486 9.424,41.486 9.437,41.486C9.451,41.486 9.465,41.486 9.479,41.486C9.493,41.486 9.507,41.486 9.521,41.486C9.535,41.486 9.549,41.486 9.563,41.486C9.577,41.486 9.591,41.486 9.605,41.486C9.619,41.486 9.633,41.486 9.648,41.486C9.662,41.486 9.676,41.486 9.69,41.486C9.704,41.486 9.718,41.486 9.733,41.486C9.747,41.486 9.761,41.486 9.775,41.486C9.79,41.486 9.804,41.486 9.818,41.486C9.833,41.486 9.847,41.486 9.862,41.486C9.876,41.486 9.89,41.486 9.905,41.486C9.919,41.486 9.934,41.486 9.948,41.486C9.963,41.486 9.977,41.486 9.992,41.486C10.006,41.486 10.021,41.486 10.035,41.486C10.05,41.486 10.065,41.486 10.079,41.486C10.094,41.486 10.108,41.486 10.123,41.486C10.138,41.486 10.152,41.486 10.167,41.486C10.182,41.486 10.197,41.486 10.211,41.486C10.226,41.486 10.241,41.486 10.256,41.486C10.271,41.486 10.285,41.486 10.3,41.486C10.315,41.486 10.33,41.486 10.345,41.486C10.36,41.486 10.375,41.486 10.39,41.486C10.404,41.486 10.419,41.486 10.434,41.486C10.449,41.486 10.464,41.486 10.479,41.486C10.494,41.486 10.509,41.486 10.525,41.486C10.54,41.486 10.555,41.486 10.57,41.486C10.585,41.486 10.6,41.486 10.615,41.486C10.63,41.486 10.645,41.486 10.661,41.486C10.676,41.486 10.691,41.486 10.706,41.486C10.721,41.486 10.737,41.486 10.752,41.486C10.767,41.486 10.782,41.486 10.798,41.486C10.813,41.486 10.828,41.486 10.844,41.486C10.859,41.486 10.874,41.486 10.89,41.486C10.905,41.486 10.921,41.486 10.936,41.486C10.951,41.486 10.967,41.486 10.982,41.486C10.998,41.486 11.013,41.486 11.029,41.486C11.044,41.486 11.06,41.486 11.075,41.486C11.091,41.486 11.106,41.486 11.122,41.486C11.137,41.486 11.153,41.486 11.168,41.486C11.184,41.486 11.2,41.486 11.215,41.486C11.231,41.486 11.246,41.486 11.262,41.486C11.278,41.486 11.293,41.486 11.309,41.486C11.325,41.486 11.34,41.486 11.356,41.486C11.372,41.486 11.388,41.486 11.403,41.486C11.419,41.486 11.435,41.486 11.451,41.486C11.466,41.486 11.482,41.486 11.498,41.486C11.514,41.486 11.53,41.486 11.545,41.486C11.561,41.486 11.577,41.486 11.593,41.486C11.609,41.486 11.625,41.486 11.641,41.486C11.657,41.486 11.672,41.486 11.688,41.486C11.704,41.486 11.72,41.486 11.736,41.486C11.752,41.486 11.768,41.486 11.784,41.486C11.8,41.486 11.816,41.486 11.832,41.486C11.848,41.486 11.864,41.486 11.88,41.486C11.896,41.486 11.912,41.486 11.928,41.486C11.944,41.486 11.96,41.486 11.976,41.486C11.993,41.486 12.009,41.486 12.025,41.486C12.041,41.486 12.057,41.486 12.073,41.486C12.089,41.486 12.105,41.486 12.122,41.486C12.138,41.486 12.154,41.486 12.17,41.486C12.186,41.486 12.202,41.486 12.219,41.486C12.235,41.486 12.251,41.486 12.267,41.486C12.283,41.486 12.3,41.486 12.316,41.486C12.332,41.486 12.348,41.486 12.365,41.486C12.381,41.486 12.397,41.486 12.414,41.486C12.43,41.486 12.446,41.486 12.462,41.486C12.479,41.486 12.495,41.486 12.511,41.486C12.528,41.486 12.544,41.486 12.56,41.486C12.577,41.486 12.593,41.486 12.609,41.486C12.626,41.486 12.642,41.486 12.659,41.486C12.675,41.486 12.691,41.486 12.708,41.486C12.724,41.486 12.741,41.486 12.757,41.486C12.773,41.486 12.79,41.486 12.806,41.486C12.823,41.486 12.839,41.486 12.856,41.486C12.872,41.486 12.889,41.486 12.905,41.486C12.922,41.486 12.938,41.486 12.954,41.486C12.971,41.486 12.987,41.486 13.004,41.486C13.02,41.486 13.037,41.486 13.053,41.486C13.07,41.486 13.087,41.486 13.103,41.486C13.12,41.486 13.136,41.486 13.153,41.486C13.169,41.486 13.186,41.486 13.202,41.486C13.219,41.486 13.235,41.486 13.252,41.486C13.269,41.486 13.285,41.486 13.302,41.486C13.318,41.486 13.335,41.486 13.351,41.486C13.368,41.486 13.385,41.486 13.401,41.486C13.418,41.486 13.434,41.486 13.451,41.486C13.468,41.486 13.484,41.486 13.501,41.486C13.517,41.486 13.534,41.486 13.551,41.486C13.567,41.486 13.584,41.486 13.601,41.486C13.617,41.486 13.634,41.486 13.651,41.486C13.667,41.486 13.684,41.486 13.7,41.486C13.717,41.486 13.734,41.486 13.75,41.486C13.767,41.486 13.784,41.486 13.8,41.486C13.817,41.486 13.834,41.486 13.85,41.486C13.867,41.486 13.884,41.486 13.9,41.486C13.917,41.486 13.934,41.486 13.951,41.486C13.967,41.486 13.984,41.486 14.001,41.486C14.017,41.486 14.034,41.486 14.051,41.486C14.067,41.486 14.084,41.486 14.101,41.486C14.117,41.486 14.134,41.486 14.151,41.486C14.168,41.486 14.184,41.486 14.201,41.486C14.218,41.486 14.234,41.486 14.251,41.486C14.268,41.486 14.284,41.486 14.301,41.486C14.318,41.486 14.335,41.486 14.351,41.486C14.368,41.486 14.385,41.486 14.401,41.486C14.418,41.486 14.435,41.486 14.451,41.486C14.468,41.486 14.485,41.486 14.502,41.486C14.518,41.486 14.535,41.486 14.552,41.486C14.568,41.486 14.585,41.486 14.602,41.486C14.619,41.486 14.635,41.486 14.652,41.486C14.669,41.486 14.685,41.486 14.702,41.486C14.719,41.486 14.735,41.486 14.752,41.486C14.769,41.486 14.786,41.486 14.802,41.486C14.819,41.486 14.836,41.486 14.852,41.486C14.869,41.486 14.886,41.486 14.902,41.486C14.919,41.486 14.936,41.486 14.952,41.486C14.969,41.486 14.986,41.486 15.002,41.486C15.019,41.486 15.036,41.486 15.052,41.486C15.069,41.486 15.086,41.486 15.102,41.486C15.119,41.486 15.136,41.486 15.152,41.486C15.169,41.486 15.186,41.486 15.202,41.486C15.219,41.486 15.236,41.486 15.252,41.486C15.269,41.486 15.286,41.486 15.302,41.486C15.319,41.486 15.335,41.486 15.352,41.486C15.369,41.486 15.385,41.486 15.402,41.486C15.418,41.486 15.435,41.486 15.452,41.486C15.468,41.486 15.485,41.486 15.501,41.486C15.518,41.486 15.535,41.486 15.551,41.486C15.568,41.486 15.584,41.486 15.601,41.486C15.617,41.486 15.634,41.486 15.651,41.486C15.667,41.486 15.684,41.486 15.7,41.486C15.717,41.486 15.733,41.486 15.75,41.486C15.766,41.486 15.783,41.486 15.799,41.486C15.816,41.486 15.832,41.486 15.849,41.486C15.865,41.486 15.882,41.486 15.898,41.486C15.915,41.486 15.931,41.486 15.948,41.486C15.964,41.486 15.981,41.486 15.997,41.486C16.014,41.486 16.03,41.486 16.047,41.486C16.063,41.486 16.079,41.486 16.096,41.486C16.112,41.486 16.129,41.486 16.145,41.486C16.162,41.486 16.178,41.486 16.194,41.486C16.211,41.486 16.227,41.486 16.243,41.486C16.26,41.486 16.276,41.486 16.292,41.486C16.309,41.486 16.325,41.486 16.342,41.486C16.358,41.486 16.374,41.486 16.39,41.486C16.407,41.486 16.423,41.486 16.439,41.486C16.456,41.486 16.472,41.486 16.488,41.486C16.504,41.486 16.521,41.486 16.537,41.486C16.553,41.486 16.569,41.486 16.586,41.486C16.602,41.486 16.618,41.486 16.634,41.486C16.651,41.486 16.667,41.486 16.683,41.486C16.699,41.486 16.715,41.486 16.731,41.486C16.748,41.486 16.764,41.486 16.78,41.486C16.796,41.486 16.812,41.486 16.828,41.486C16.844,41.486 16.86,41.486 16.877,41.486C16.893,41.486 16.909,41.486 16.925,41.486C16.941,41.486 16.957,41.486 16.973,41.486C16.989,41.486 17.005,41.486 17.021,41.486C17.037,41.486 17.053,41.486 17.069,41.486C17.085,41.486 17.101,41.486 17.117,41.486C17.133,41.486 17.149,41.486 17.165,41.486C17.181,41.486 17.197,41.486 17.212,41.486C17.228,41.486 17.244,41.486 17.26,41.486C17.276,41.486 17.292,41.486 17.308,41.486C17.323,41.486 17.339,41.486 17.355,41.486C17.371,41.486 17.387,41.486 17.402,41.486C17.418,41.486 17.434,41.486 17.45,41.486C17.465,41.486 17.481,41.486 17.497,41.486C17.513,41.486 17.528,41.486 17.544,41.486C17.56,41.486 17.575,41.486 17.591,41.486C17.607,41.486 17.622,41.486 17.638,41.486C17.654,41.486 17.669,41.486 17.685,41.486C17.7,41.486 17.716,41.486 17.731,41.486C17.747,41.486 17.763,41.486 17.778,41.486C17.794,41.486 17.809,41.486 17.825,41.486C17.84,41.486 17.855,41.486 17.871,41.486C17.886,41.486 17.902,41.486 17.917,41.486C17.933,41.486 17.948,41.486 17.963,41.486C17.979,41.486 17.994,41.486 18.009,41.486C18.025,41.486 18.04,41.486 18.055,41.486C18.071,41.486 18.086,41.486 18.101,41.486C18.117,41.486 18.132,41.486 18.147,41.486C18.162,41.486 18.177,41.486 18.193,41.486C18.208,41.486 18.223,41.486 18.238,41.486C18.253,41.486 18.268,41.486 18.283,41.486C18.299,41.486 18.314,41.486 18.329,41.486C18.344,41.486 18.359,41.486 18.374,41.486C18.389,41.486 18.404,41.486 18.419,41.486C18.434,41.486 18.449,41.486 18.464,41.486C18.479,41.486 18.494,41.486 18.508,41.486C18.523,41.486 18.538,41.486 18.553,41.486C18.568,41.486 18.583,41.486 18.598,41.486C18.612,41.486 18.627,41.486 18.642,41.486C18.657,41.486 18.671,41.486 18.686,41.486C18.701,41.486 18.716,41.486 18.73,41.486C18.745,41.486 18.76,41.486 18.774,41.486C18.789,41.486 18.803,41.486 18.818,41.486C18.833,41.486 18.847,41.486 18.862,41.486C18.876,41.486 18.891,41.486 18.905,41.486C18.92,41.486 18.934,41.486 18.949,41.486C18.963,41.486 18.977,41.486 18.992,41.486C19.006,41.486 19.021,41.486 19.035,41.486C19.049,41.486 19.064,41.486 19.078,41.486C19.092,41.486 19.107,41.486 19.121,41.486C19.135,41.486 19.149,41.486 19.163,41.486C19.178,41.486 19.192,41.486 19.206,41.486C19.22,41.486 19.234,41.486 19.248,41.486C19.262,41.486 19.276,41.486 19.29,41.486C19.305,41.486 19.319,41.486 19.333,41.486C19.347,41.486 19.36,41.486 19.374,41.486C19.388,41.486 19.402,41.486 19.416,41.486C19.43,41.486 19.444,41.486 19.458,41.486C19.472,41.486 19.485,41.486 19.499,41.486C19.513,41.486 19.527,41.486 19.54,41.486C19.554,41.486 19.568,41.486 19.581,41.486C19.595,41.486 19.609,41.486 19.622,41.486C19.636,41.486 19.65,41.486 19.663,41.486C19.677,41.486 19.69,41.486 19.704,41.486C19.717,41.486 19.731,41.486 19.744,41.486C19.757,41.486 19.771,41.486 19.784,41.486C19.798,41.486 19.811,41.486 19.824,41.486C19.838,41.486 19.851,41.486 19.864,41.486C19.877,41.486 19.891,41.486 19.904,41.486C19.917,41.486 19.93,41.486 19.943,41.486C19.957,41.486 19.97,41.486 19.983,41.486C19.996,41.486 20.009,41.486 20.022,41.486C20.035,41.486 20.048,41.486 20.061,41.486C20.074,41.486 20.087,41.486 20.1,41.486C20.113,41.486 20.125,41.486 20.138,41.486C20.151,41.486 20.164,41.486 20.177,41.486C20.19,41.486 20.202,41.486 20.215,41.486C20.228,41.486 20.24,41.486 20.253,41.486C20.266,41.486 20.278,41.486 20.291,41.486C20.303,41.486 20.316,41.486 20.328,41.486C20.341,41.486 20.353,41.486 20.366,41.486C20.378,41.486 20.391,41.486 20.403,41.486C20.416,41.486 20.428,41.486 20.44,41.486C20.453,41.486 20.465,41.486 20.477,41.486C20.489,41.486 20.502,41.486 20.514,41.486C20.526,41.486 20.538,41.486 20.55,41.486C20.562,41.486 20.574,41.486 20.586,41.486C20.599,41.486 20.611,41.486 20.623,41.486C20.634,41.486 20.646,41.486 20.658,41.486C20.67,41.486 20.682,41.486 20.694,41.486C20.706,41.486 20.718,41.486 20.729,41.486C20.741,41.486 20.753,41.486 20.765,41.486C20.776,41.486 20.788,41.486 20.8,41.486C20.811,41.486 20.823,41.486 20.834,41.486C20.846,41.486 20.857,41.486 20.869,41.486C20.88,41.486 20.892,41.486 20.903,41.486C20.915,41.486 20.926,41.486 20.937,41.486C20.949,41.486 20.96,41.486 20.971,41.486C20.983,41.486 20.994,41.486 21.005,41.486C21.016,41.486 21.027,41.486 21.038,41.486C21.049,41.486 21.061,41.486 21.072,41.486C21.083,41.486 21.094,41.486 21.105,41.486C21.116,41.486 21.126,41.486 21.137,41.486C21.148,41.486 21.159,41.486 21.17,41.486C21.181,41.486 21.191,41.486 21.202,41.486C21.213,41.486 21.224,41.486 21.234,41.486C21.245,41.486 21.256,41.486 21.266,41.486C21.277,41.486 21.287,41.486 21.298,41.486C21.308,41.486 21.319,41.486 21.329,41.486C21.339,41.486 21.35,41.486 21.36,41.486C21.37,41.486 21.381,41.486 21.391,41.486C21.401,41.486 21.411,41.486 21.422,41.486C21.432,41.486 21.442,41.486 21.452,41.486C21.462,41.486 21.472,41.486 21.482,41.486C21.492,41.486 21.502,41.486 21.512,41.486C21.522,41.486 21.532,41.486 21.542,41.486C21.552,41.486 21.561,41.486 21.571,41.486C21.581,41.486 21.591,41.486 21.6,41.486C21.61,41.486 21.62,41.486 21.629,41.486C21.639,41.486 21.648,41.486 21.658,41.486C21.667,41.486 21.677,41.486 21.686,41.486C21.696,41.486 21.705,41.486 21.714,41.486C21.724,41.486 21.733,41.486 21.742,41.486C21.751,41.486 21.761,41.486 21.77,41.486C21.779,41.486 21.788,41.486 21.797,41.486C21.806,41.486 21.815,41.486 21.824,41.486C21.833,41.486 21.842,41.486 21.851,41.486C21.86,41.486 21.869,41.486 21.878,41.486C21.886,41.486 21.895,41.486 21.904,41.486C21.912,41.486 21.921,41.486 21.93,41.486C21.938,41.486 21.947,41.486 21.956,41.486C21.964,41.486 21.973,41.486 21.981,41.486C21.989,41.486 21.998,41.486 22.006,41.486C22.014,41.486 22.023,41.486 22.031,41.486C22.039,41.486 22.048,41.486 22.056,41.486C22.064,41.486 22.072,41.486 22.08,41.486C22.088,41.486 22.096,41.486 22.104,41.486C22.112,41.486 22.12,41.486 22.128,41.486C22.136,41.486 22.144,41.486 22.151,41.486C22.159,41.486 22.167,41.486 22.175,41.486C22.182,41.486 22.19,41.486 22.198,41.486C22.205,41.486 22.213,41.486 22.22,41.486C22.228,41.486 22.235,41.486 22.243,41.486C22.25,41.486 22.257,41.486 22.265,41.486C22.272,41.486 22.279,41.486 22.286,41.486C22.294,41.486 22.301,41.486 22.308,41.486C22.315,41.486 22.322,41.486 22.329,41.486C22.336,41.486 22.343,41.486 22.35,41.486C22.357,41.486 22.364,41.486 22.37,41.486C22.377,41.486 22.384,41.486 22.391,41.486C22.397,41.486 22.404,41.486 22.411,41.486C22.417,41.486 22.424,41.486 22.43,41.486C22.437,41.486 22.443,41.486 22.45,41.486C22.456,41.486 22.462,41.486 22.469,41.486C22.475,41.486 22.481,41.486 22.488,41.486C22.494,41.486 22.5,41.486 22.506,41.486C22.512,41.486 22.518,41.486 22.524,41.486C22.53,41.486 22.536,41.486 22.542,41.486C22.548,41.486 22.554,41.486 22.559,41.486C22.565,41.486 22.571,41.486 22.577,41.486C22.582,41.486 22.588,41.486 22.593,41.486C22.599,41.486 22.605,41.486 22.61,41.486C22.615,41.486 22.621,41.486 22.626,41.486C22.632,41.486 22.637,41.486 22.642,41.486C22.647,41.486 22.653,41.486 22.658,41.486C22.663,41.486 22.668,41.486 22.673,41.486C22.678,41.486 22.683,41.486 22.688,41.486C22.693,41.486 22.698,41.486 22.702,41.486C22.707,41.486 22.712,41.486 22.717,41.486C22.721,41.486 22.726,41.486 22.731,41.486C22.735,41.486 22.74,41.486 22.744,41.486C22.749,41.486 22.753,41.486 22.758,41.486C22.762,41.486 22.766,41.486 22.771,41.486C22.775,41.486 22.779,41.486 22.783,41.486C22.787,41.486 22.791,41.486 22.795,41.486C22.799,41.486 22.803,41.486 22.807,41.486C22.811,41.486 22.815,41.486 22.819,41.486C22.823,41.486 22.826,41.486 22.83,41.486C22.834,41.486 22.837,41.486 22.841,41.486C22.845,41.486 22.848,41.486 22.852,41.486C22.855,41.486 22.858,41.486 22.862,41.486C22.865,41.486 22.868,41.486 22.872,41.486C22.875,41.486 22.878,41.486 22.881,41.486C22.884,41.486 22.887,41.486 22.89,41.486C22.893,41.486 22.896,41.486 22.899,41.486C22.902,41.486 22.905,41.486 22.907,41.486C22.91,41.486 22.913,41.486 22.916,41.486C22.918,41.486 22.921,41.486 22.923,41.486C22.926,41.486 22.928,41.486 22.931,41.486C22.933,41.486 22.935,41.486 22.938,41.486C22.94,41.486 22.942,41.486 22.944,41.486C22.946,41.486 22.949,41.486 22.951,41.486C22.953,41.486 22.955,41.486 22.956,41.486C22.958,41.486 22.96,41.486 22.962,41.486C22.964,41.486 22.965,41.486 22.967,41.486C22.969,41.486 22.97,41.486 22.972,41.486C22.973,41.486 22.975,41.486 22.976,41.486C22.978,41.486 22.979,41.486 22.98,41.486C22.982,41.486 22.983,41.486 22.984,41.486C22.985,41.486 22.986,41.486 22.987,41.486C22.988,41.486 22.989,41.486 22.99,41.486C22.991,41.486 22.992,41.486 22.993,41.486C22.994,41.486 22.994,41.486 22.995,41.486C22.996,41.486 22.996,41.486 22.997,41.486C22.997,41.486 22.998,41.486 22.998,41.486C22.999,41.486 22.999,41.486 22.999,41.486C22.999,41.486 23,41.486 23,41.486L23,37.371C23,37.371 22.999,37.371 22.999,37.371C22.999,37.371 22.999,37.371 22.998,37.371C22.998,37.371 22.997,37.371 22.997,37.371C22.996,37.371 22.996,37.371 22.995,37.371C22.994,37.371 22.994,37.371 22.993,37.371C22.992,37.371 22.991,37.371 22.99,37.371C22.989,37.371 22.988,37.371 22.987,37.371C22.986,37.371 22.985,37.371 22.984,37.371C22.983,37.371 22.982,37.371 22.98,37.371C22.979,37.371 22.978,37.371 22.976,37.371C22.975,37.371 22.973,37.371 22.972,37.371C22.97,37.371 22.969,37.371 22.967,37.371C22.965,37.371 22.964,37.371 22.962,37.371C22.96,37.371 22.958,37.371 22.956,37.371C22.955,37.371 22.953,37.371 22.951,37.371C22.949,37.371 22.946,37.371 22.944,37.371C22.942,37.371 22.94,37.371 22.938,37.371C22.935,37.371 22.933,37.371 22.931,37.371C22.928,37.371 22.926,37.371 22.923,37.371C22.921,37.371 22.918,37.371 22.916,37.371C22.913,37.371 22.91,37.371 22.907,37.371C22.905,37.371 22.902,37.371 22.899,37.371C22.896,37.371 22.893,37.371 22.89,37.371C22.887,37.371 22.884,37.371 22.881,37.371C22.878,37.371 22.875,37.371 22.872,37.371C22.868,37.371 22.865,37.371 22.862,37.371C22.858,37.371 22.855,37.371 22.852,37.371C22.848,37.371 22.845,37.371 22.841,37.371C22.837,37.371 22.834,37.371 22.83,37.371C22.826,37.371 22.823,37.371 22.819,37.371C22.815,37.371 22.811,37.371 22.807,37.371C22.803,37.371 22.799,37.371 22.795,37.371C22.791,37.371 22.787,37.371 22.783,37.371C22.779,37.371 22.775,37.371 22.771,37.371C22.766,37.371 22.762,37.371 22.758,37.371C22.753,37.371 22.749,37.371 22.744,37.371C22.74,37.371 22.735,37.371 22.731,37.371C22.726,37.371 22.721,37.371 22.717,37.371C22.712,37.371 22.707,37.371 22.702,37.371C22.698,37.371 22.693,37.371 22.688,37.371C22.683,37.371 22.678,37.371 22.673,37.371C22.668,37.371 22.663,37.371 22.658,37.371C22.653,37.371 22.647,37.371 22.642,37.371C22.637,37.371 22.632,37.371 22.626,37.371C22.621,37.371 22.615,37.371 22.61,37.371C22.605,37.371 22.599,37.371 22.593,37.371C22.588,37.371 22.582,37.371 22.577,37.371C22.571,37.371 22.565,37.371 22.559,37.371C22.554,37.371 22.548,37.371 22.542,37.371C22.536,37.371 22.53,37.371 22.524,37.371C22.518,37.371 22.512,37.371 22.506,37.371C22.5,37.371 22.494,37.371 22.488,37.371C22.481,37.371 22.475,37.371 22.469,37.371C22.462,37.371 22.456,37.371 22.45,37.371C22.443,37.371 22.437,37.371 22.43,37.371C22.424,37.371 22.417,37.371 22.411,37.371C22.404,37.371 22.397,37.371 22.391,37.371C22.384,37.371 22.377,37.371 22.37,37.371C22.364,37.371 22.357,37.371 22.35,37.371C22.343,37.371 22.336,37.371 22.329,37.371C22.322,37.371 22.315,37.371 22.308,37.371C22.301,37.371 22.294,37.371 22.286,37.371C22.279,37.371 22.272,37.371 22.265,37.371C22.257,37.371 22.25,37.371 22.243,37.371C22.235,37.371 22.228,37.371 22.22,37.371C22.213,37.371 22.205,37.371 22.198,37.371C22.19,37.371 22.182,37.371 22.175,37.371C22.167,37.371 22.159,37.371 22.151,37.371C22.144,37.371 22.136,37.371 22.128,37.371C22.12,37.371 22.112,37.371 22.104,37.371C22.096,37.371 22.088,37.371 22.08,37.371C22.072,37.371 22.064,37.371 22.056,37.371C22.048,37.371 22.039,37.371 22.031,37.371C22.023,37.371 22.014,37.371 22.006,37.371C21.998,37.371 21.989,37.371 21.981,37.371C21.973,37.371 21.964,37.371 21.956,37.371C21.947,37.371 21.938,37.371 21.93,37.371C21.921,37.371 21.912,37.371 21.904,37.371C21.895,37.371 21.886,37.371 21.878,37.371C21.869,37.371 21.86,37.371 21.851,37.371C21.842,37.371 21.833,37.371 21.824,37.371C21.815,37.371 21.806,37.371 21.797,37.371C21.788,37.371 21.779,37.371 21.77,37.371C21.761,37.371 21.751,37.371 21.742,37.371C21.733,37.371 21.724,37.371 21.714,37.371C21.705,37.371 21.696,37.371 21.686,37.371C21.677,37.371 21.667,37.371 21.658,37.371C21.648,37.371 21.639,37.371 21.629,37.371C21.62,37.371 21.61,37.371 21.6,37.371C21.591,37.371 21.581,37.371 21.571,37.371C21.561,37.371 21.552,37.371 21.542,37.371C21.532,37.371 21.522,37.371 21.512,37.371C21.502,37.371 21.492,37.371 21.482,37.371C21.472,37.371 21.462,37.371 21.452,37.371C21.442,37.371 21.432,37.371 21.422,37.371C21.411,37.371 21.401,37.371 21.391,37.371C21.381,37.371 21.37,37.371 21.36,37.371C21.35,37.371 21.339,37.371 21.329,37.371C21.319,37.371 21.308,37.371 21.298,37.371C21.287,37.371 21.277,37.371 21.266,37.371C21.256,37.371 21.245,37.371 21.234,37.371C21.224,37.371 21.213,37.371 21.202,37.371C21.191,37.371 21.181,37.371 21.17,37.371C21.159,37.371 21.148,37.371 21.137,37.371C21.126,37.371 21.116,37.371 21.105,37.371C21.094,37.371 21.083,37.371 21.072,37.371C21.061,37.371 21.049,37.371 21.038,37.371C21.027,37.371 21.016,37.371 21.005,37.371C20.994,37.371 20.983,37.371 20.971,37.371C20.96,37.371 20.949,37.371 20.937,37.371C20.926,37.371 20.915,37.371 20.903,37.371C20.892,37.371 20.88,37.371 20.869,37.371C20.857,37.371 20.846,37.371 20.834,37.371C20.823,37.371 20.811,37.371 20.8,37.371C20.788,37.371 20.776,37.371 20.765,37.371C20.753,37.371 20.741,37.371 20.729,37.371C20.718,37.371 20.706,37.371 20.694,37.371C20.682,37.371 20.67,37.371 20.658,37.371C20.646,37.371 20.634,37.371 20.623,37.371C20.611,37.371 20.599,37.371 20.586,37.371C20.574,37.371 20.562,37.371 20.55,37.371C20.538,37.371 20.526,37.371 20.514,37.371C20.502,37.371 20.489,37.371 20.477,37.371C20.465,37.371 20.453,37.371 20.44,37.371C20.428,37.371 20.416,37.371 20.403,37.371C20.391,37.371 20.378,37.371 20.366,37.371C20.353,37.371 20.341,37.371 20.328,37.371C20.316,37.371 20.303,37.371 20.291,37.371C20.278,37.371 20.266,37.371 20.253,37.371C20.24,37.371 20.228,37.371 20.215,37.371C20.202,37.371 20.19,37.371 20.177,37.371C20.164,37.371 20.151,37.371 20.138,37.371C20.125,37.371 20.113,37.371 20.1,37.371C20.087,37.371 20.074,37.371 20.061,37.371C20.048,37.371 20.035,37.371 20.022,37.371C20.009,37.371 19.996,37.371 19.983,37.371C19.97,37.371 19.957,37.371 19.943,37.371C19.93,37.371 19.917,37.371 19.904,37.371C19.891,37.371 19.877,37.371 19.864,37.371C19.851,37.371 19.838,37.371 19.824,37.371C19.811,37.371 19.798,37.371 19.784,37.371C19.771,37.371 19.757,37.371 19.744,37.371C19.731,37.371 19.717,37.371 19.704,37.371C19.69,37.371 19.677,37.371 19.663,37.371C19.65,37.371 19.636,37.371 19.622,37.371C19.609,37.371 19.595,37.371 19.581,37.371C19.568,37.371 19.554,37.371 19.54,37.371C19.527,37.371 19.513,37.371 19.499,37.371C19.485,37.371 19.472,37.371 19.458,37.371C19.444,37.371 19.43,37.371 19.416,37.371C19.402,37.371 19.388,37.371 19.374,37.371C19.36,37.371 19.347,37.371 19.333,37.371C19.319,37.371 19.305,37.371 19.29,37.371C19.276,37.371 19.262,37.371 19.248,37.371C19.234,37.371 19.22,37.371 19.206,37.371C19.192,37.371 19.178,37.371 19.163,37.371C19.149,37.371 19.135,37.371 19.121,37.371C19.107,37.371 19.092,37.371 19.078,37.371C19.064,37.371 19.049,37.371 19.035,37.371C19.021,37.371 19.006,37.371 18.992,37.371C18.977,37.371 18.963,37.371 18.949,37.371C18.934,37.371 18.92,37.371 18.905,37.371C18.891,37.371 18.876,37.371 18.862,37.371C18.847,37.371 18.833,37.371 18.818,37.371C18.803,37.371 18.789,37.371 18.774,37.371C18.76,37.371 18.745,37.371 18.73,37.371C18.716,37.371 18.701,37.371 18.686,37.371C18.671,37.371 18.657,37.371 18.642,37.371C18.627,37.371 18.612,37.371 18.598,37.371C18.583,37.371 18.568,37.371 18.553,37.371C18.538,37.371 18.523,37.371 18.508,37.371C18.494,37.371 18.479,37.371 18.464,37.371C18.449,37.371 18.434,37.371 18.419,37.371C18.404,37.371 18.389,37.371 18.374,37.371C18.359,37.371 18.344,37.371 18.329,37.371C18.314,37.371 18.299,37.371 18.283,37.371C18.268,37.371 18.253,37.371 18.238,37.371C18.223,37.371 18.208,37.371 18.193,37.371C18.177,37.371 18.162,37.371 18.147,37.371C18.132,37.371 18.117,37.371 18.101,37.371C18.086,37.371 18.071,37.371 18.055,37.371C18.04,37.371 18.025,37.371 18.009,37.371C17.994,37.371 17.979,37.371 17.963,37.371C17.948,37.371 17.933,37.371 17.917,37.371C17.902,37.371 17.886,37.371 17.871,37.371C17.855,37.371 17.84,37.371 17.825,37.371C17.809,37.371 17.794,37.371 17.778,37.371C17.763,37.371 17.747,37.371 17.731,37.371C17.716,37.371 17.7,37.371 17.685,37.371C17.669,37.371 17.654,37.371 17.638,37.371C17.622,37.371 17.607,37.371 17.591,37.371C17.575,37.371 17.56,37.371 17.544,37.371C17.528,37.371 17.513,37.371 17.497,37.371C17.481,37.371 17.465,37.371 17.45,37.371C17.434,37.371 17.418,37.371 17.402,37.371C17.387,37.371 17.371,37.371 17.355,37.371C17.339,37.371 17.323,37.371 17.308,37.371C17.292,37.371 17.276,37.371 17.26,37.371C17.244,37.371 17.228,37.371 17.212,37.371C17.197,37.371 17.181,37.371 17.165,37.371C17.149,37.371 17.133,37.371 17.117,37.371C17.101,37.371 17.085,37.371 17.069,37.371C17.053,37.371 17.037,37.371 17.021,37.371C17.005,37.371 16.989,37.371 16.973,37.371C16.957,37.371 16.941,37.371 16.925,37.371C16.909,37.371 16.893,37.371 16.877,37.371C16.86,37.371 16.844,37.371 16.828,37.371C16.812,37.371 16.796,37.371 16.78,37.371C16.764,37.371 16.748,37.371 16.731,37.371C16.715,37.371 16.699,37.371 16.683,37.371C16.667,37.371 16.651,37.371 16.634,37.371C16.618,37.371 16.602,37.371 16.586,37.371C16.569,37.371 16.553,37.371 16.537,37.371C16.521,37.371 16.504,37.371 16.488,37.371C16.472,37.371 16.456,37.371 16.439,37.371C16.423,37.371 16.407,37.371 16.39,37.371C16.374,37.371 16.358,37.371 16.342,37.371C16.325,37.371 16.309,37.371 16.292,37.371C16.276,37.371 16.26,37.371 16.243,37.371C16.227,37.371 16.211,37.371 16.194,37.371C16.178,37.371 16.162,37.371 16.145,37.371C16.129,37.371 16.112,37.371 16.096,37.371C16.079,37.371 16.063,37.371 16.047,37.371C16.03,37.371 16.014,37.371 15.997,37.371C15.981,37.371 15.964,37.371 15.948,37.371C15.931,37.371 15.915,37.371 15.898,37.371C15.882,37.371 15.865,37.371 15.849,37.371C15.832,37.371 15.816,37.371 15.799,37.371C15.783,37.371 15.766,37.371 15.75,37.371C15.733,37.371 15.717,37.371 15.7,37.371C15.684,37.371 15.667,37.371 15.651,37.371C15.634,37.371 15.617,37.371 15.601,37.371C15.584,37.371 15.568,37.371 15.551,37.371C15.535,37.371 15.518,37.371 15.501,37.371C15.485,37.371 15.468,37.371 15.452,37.371C15.435,37.371 15.418,37.371 15.402,37.371C15.385,37.371 15.369,37.371 15.352,37.371C15.335,37.371 15.319,37.371 15.302,37.371C15.286,37.371 15.269,37.371 15.252,37.371C15.236,37.371 15.219,37.371 15.202,37.371C15.186,37.371 15.169,37.371 15.152,37.371C15.136,37.371 15.119,37.371 15.102,37.371C15.086,37.371 15.069,37.371 15.052,37.371C15.036,37.371 15.019,37.371 15.002,37.371C14.986,37.371 14.969,37.371 14.952,37.371C14.936,37.371 14.919,37.371 14.902,37.371C14.886,37.371 14.869,37.371 14.852,37.371C14.836,37.371 14.819,37.371 14.802,37.371C14.786,37.371 14.769,37.371 14.752,37.371C14.735,37.371 14.719,37.371 14.702,37.371C14.685,37.371 14.669,37.371 14.652,37.371C14.635,37.371 14.619,37.371 14.602,37.371C14.585,37.371 14.568,37.371 14.552,37.371C14.535,37.371 14.518,37.371 14.502,37.371C14.485,37.371 14.468,37.371 14.451,37.371C14.435,37.371 14.418,37.371 14.401,37.371C14.385,37.371 14.368,37.371 14.351,37.371C14.335,37.371 14.318,37.371 14.301,37.371C14.284,37.371 14.268,37.371 14.251,37.371C14.234,37.371 14.218,37.371 14.201,37.371C14.184,37.371 14.168,37.371 14.151,37.371C14.134,37.371 14.117,37.371 14.101,37.371C14.084,37.371 14.067,37.371 14.051,37.371C14.034,37.371 14.017,37.371 14.001,37.371C13.984,37.371 13.967,37.371 13.951,37.371C13.934,37.371 13.917,37.371 13.9,37.371C13.884,37.371 13.867,37.371 13.85,37.371C13.834,37.371 13.817,37.371 13.8,37.371C13.784,37.371 13.767,37.371 13.75,37.371C13.734,37.371 13.717,37.371 13.7,37.371C13.684,37.371 13.667,37.371 13.651,37.371C13.634,37.371 13.617,37.371 13.601,37.371C13.584,37.371 13.567,37.371 13.551,37.371C13.534,37.371 13.517,37.371 13.501,37.371C13.484,37.371 13.468,37.371 13.451,37.371C13.434,37.371 13.418,37.371 13.401,37.371C13.385,37.371 13.368,37.371 13.351,37.371C13.335,37.371 13.318,37.371 13.302,37.371C13.285,37.371 13.269,37.371 13.252,37.371C13.235,37.371 13.219,37.371 13.202,37.371C13.186,37.371 13.169,37.371 13.153,37.371C13.136,37.371 13.12,37.371 13.103,37.371C13.087,37.371 13.07,37.371 13.053,37.371C13.037,37.371 13.02,37.371 13.004,37.371C12.987,37.371 12.971,37.371 12.954,37.371C12.938,37.371 12.922,37.371 12.905,37.371C12.889,37.371 12.872,37.371 12.856,37.371C12.839,37.371 12.823,37.371 12.806,37.371C12.79,37.371 12.773,37.371 12.757,37.371C12.741,37.371 12.724,37.371 12.708,37.371C12.691,37.371 12.675,37.371 12.659,37.371C12.642,37.371 12.626,37.371 12.609,37.371C12.593,37.371 12.577,37.371 12.56,37.371C12.544,37.371 12.528,37.371 12.511,37.371C12.495,37.371 12.479,37.371 12.462,37.371C12.446,37.371 12.43,37.371 12.414,37.371C12.397,37.371 12.381,37.371 12.365,37.371C12.348,37.371 12.332,37.371 12.316,37.371C12.3,37.371 12.283,37.371 12.267,37.371C12.251,37.371 12.235,37.371 12.219,37.371C12.202,37.371 12.186,37.371 12.17,37.371C12.154,37.371 12.138,37.371 12.122,37.371C12.105,37.371 12.089,37.371 12.073,37.371C12.057,37.371 12.041,37.371 12.025,37.371C12.009,37.371 11.993,37.371 11.976,37.371C11.96,37.371 11.944,37.371 11.928,37.371C11.912,37.371 11.896,37.371 11.88,37.371C11.864,37.371 11.848,37.371 11.832,37.371C11.816,37.371 11.8,37.371 11.784,37.371C11.768,37.371 11.752,37.371 11.736,37.371C11.72,37.371 11.704,37.371 11.688,37.371C11.672,37.371 11.657,37.371 11.641,37.371C11.625,37.371 11.609,37.371 11.593,37.371C11.577,37.371 11.561,37.371 11.545,37.371C11.53,37.371 11.514,37.371 11.498,37.371C11.482,37.371 11.466,37.371 11.451,37.371C11.435,37.371 11.419,37.371 11.403,37.371C11.388,37.371 11.372,37.371 11.356,37.371C11.34,37.371 11.325,37.371 11.309,37.371C11.293,37.371 11.278,37.371 11.262,37.371C11.246,37.371 11.231,37.371 11.215,37.371C11.2,37.371 11.184,37.371 11.168,37.371C11.153,37.371 11.137,37.371 11.122,37.371C11.106,37.371 11.091,37.371 11.075,37.371C11.06,37.371 11.044,37.371 11.029,37.371C11.013,37.371 10.998,37.371 10.982,37.371C10.967,37.371 10.951,37.371 10.936,37.371C10.921,37.371 10.905,37.371 10.89,37.371C10.874,37.371 10.859,37.371 10.844,37.371C10.828,37.371 10.813,37.371 10.798,37.371C10.782,37.371 10.767,37.371 10.752,37.371C10.737,37.371 10.721,37.371 10.706,37.371C10.691,37.371 10.676,37.371 10.661,37.371C10.645,37.371 10.63,37.371 10.615,37.371C10.6,37.371 10.585,37.371 10.57,37.371C10.555,37.371 10.54,37.371 10.525,37.371C10.509,37.371 10.494,37.371 10.479,37.371C10.464,37.371 10.449,37.371 10.434,37.371C10.419,37.371 10.404,37.371 10.39,37.371C10.375,37.371 10.36,37.371 10.345,37.371C10.33,37.371 10.315,37.371 10.3,37.371C10.285,37.371 10.271,37.371 10.256,37.371C10.241,37.371 10.226,37.371 10.211,37.371C10.197,37.371 10.182,37.371 10.167,37.371C10.152,37.371 10.138,37.371 10.123,37.371C10.108,37.371 10.094,37.371 10.079,37.371C10.065,37.371 10.05,37.371 10.035,37.371C10.021,37.371 10.006,37.371 9.992,37.371C9.977,37.371 9.963,37.371 9.948,37.371C9.934,37.371 9.919,37.371 9.905,37.371C9.89,37.371 9.876,37.371 9.862,37.371C9.847,37.371 9.833,37.371 9.818,37.371C9.804,37.371 9.79,37.371 9.775,37.371C9.761,37.371 9.747,37.371 9.733,37.371C9.718,37.371 9.704,37.371 9.69,37.371C9.676,37.371 9.662,37.371 9.648,37.371C9.633,37.371 9.619,37.371 9.605,37.371C9.591,37.371 9.577,37.371 9.563,37.371C9.549,37.371 9.535,37.371 9.521,37.371C9.507,37.371 9.493,37.371 9.479,37.371C9.465,37.371 9.451,37.371 9.437,37.371C9.424,37.371 9.41,37.371 9.396,37.371C9.382,37.371 9.368,37.371 9.354,37.371C9.341,37.371 9.327,37.371 9.313,37.371C9.299,37.371 9.286,37.371 9.272,37.371C9.258,37.371 9.245,37.371 9.231,37.371C9.218,37.371 9.204,37.371 9.191,37.371C9.177,37.371 9.163,37.371 9.15,37.371C9.136,37.371 9.123,37.371 9.11,37.371C9.096,37.371 9.083,37.371 9.069,37.371C9.056,37.371 9.043,37.371 9.029,37.371C9.016,37.371 9.003,37.371 8.989,37.371C8.976,37.371 8.963,37.371 8.95,37.371C8.937,37.371 8.923,37.371 8.91,37.371C8.897,37.371 8.884,37.371 8.871,37.371C8.858,37.371 8.845,37.371 8.832,37.371C8.819,37.371 8.806,37.371 8.793,37.371C8.78,37.371 8.767,37.371 8.754,37.371C8.741,37.371 8.728,37.371 8.715,37.371C8.703,37.371 8.69,37.371 8.677,37.371C8.664,37.371 8.652,37.371 8.639,37.371C8.626,37.371 8.613,37.371 8.601,37.371C8.588,37.371 8.576,37.371 8.563,37.371C8.55,37.371 8.538,37.371 8.525,37.371C8.513,37.371 8.5,37.371 8.488,37.371C8.475,37.371 8.463,37.371 8.451,37.371C8.438,37.371 8.426,37.371 8.414,37.371C8.401,37.371 8.389,37.371 8.377,37.371C8.365,37.371 8.352,37.371 8.34,37.371C8.328,37.371 8.316,37.371 8.304,37.371C8.292,37.371 8.28,37.371 8.268,37.371C8.255,37.371 8.243,37.371 8.231,37.371C8.22,37.371 8.208,37.371 8.196,37.371C8.184,37.371 8.172,37.371 8.16,37.371C8.148,37.371 8.136,37.371 8.125,37.371C8.113,37.371 8.101,37.371 8.089,37.371C8.078,37.371 8.066,37.371 8.055,37.371C8.043,37.371 8.031,37.371 8.02,37.371C8.008,37.371 7.997,37.371 7.985,37.371C7.974,37.371 7.962,37.371 7.951,37.371C7.94,37.371 7.928,37.371 7.917,37.371C7.905,37.371 7.894,37.371 7.883,37.371C7.872,37.371 7.86,37.371 7.849,37.371C7.838,37.371 7.827,37.371 7.816,37.371C7.805,37.371 7.794,37.371 7.783,37.371C7.772,37.371 7.761,37.371 7.75,37.371C7.739,37.371 7.728,37.371 7.717,37.371C7.706,37.371 7.695,37.371 7.684,37.371C7.674,37.371 7.663,37.371 7.652,37.371C7.641,37.371 7.631,37.371 7.62,37.371C7.609,37.371 7.599,37.371 7.588,37.371C7.578,37.371 7.567,37.371 7.557,37.371C7.546,37.371 7.536,37.371 7.525,37.371C7.515,37.371 7.505,37.371 7.494,37.371C7.484,37.371 7.474,37.371 7.463,37.371C7.453,37.371 7.443,37.371 7.433,37.371C7.423,37.371 7.413,37.371 7.402,37.371C7.392,37.371 7.382,37.371 7.372,37.371C7.362,37.371 7.352,37.371 7.342,37.371C7.333,37.371 7.323,37.371 7.313,37.371C7.303,37.371 7.293,37.371 7.283,37.371C7.274,37.371 7.264,37.371 7.254,37.371C7.245,37.371 7.235,37.371 7.225,37.371C7.216,37.371 7.206,37.371 7.197,37.371C7.187,37.371 7.178,37.371 7.168,37.371C7.159,37.371 7.15,37.371 7.14,37.371C7.131,37.371 7.122,37.371 7.113,37.371C7.103,37.371 7.094,37.371 7.085,37.371C7.076,37.371 7.067,37.371 7.058,37.371C7.049,37.371 7.04,37.371 7.031,37.371C7.022,37.371 7.013,37.371 7.004,37.371C6.995,37.371 6.986,37.371 6.977,37.371C6.968,37.371 6.96,37.371 6.951,37.371C6.942,37.371 6.934,37.371 6.925,37.371C6.916,37.371 6.908,37.371 6.899,37.371C6.891,37.371 6.882,37.371 6.874,37.371C6.865,37.371 6.857,37.371 6.849,37.371C6.84,37.371 6.832,37.371 6.824,37.371C6.816,37.371 6.807,37.371 6.799,37.371C6.791,37.371 6.783,37.371 6.775,37.371C6.767,37.371 6.759,37.371 6.751,37.371C6.743,37.371 6.735,37.371 6.727,37.371C6.719,37.371 6.711,37.371 6.704,37.371C6.696,37.371 6.688,37.371 6.68,37.371C6.673,37.371 6.665,37.371 6.658,37.371C6.65,37.371 6.642,37.371 6.635,37.371C6.627,37.371 6.62,37.371 6.613,37.371C6.605,37.371 6.598,37.371 6.591,37.371C6.583,37.371 6.576,37.371 6.569,37.371C6.562,37.371 6.555,37.371 6.547,37.371C6.54,37.371 6.533,37.371 6.526,37.371C6.519,37.371 6.512,37.371 6.505,37.371C6.499,37.371 6.492,37.371 6.485,37.371C6.478,37.371 6.471,37.371 6.465,37.371C6.458,37.371 6.451,37.371 6.445,37.371C6.438,37.371 6.432,37.371 6.425,37.371C6.419,37.371 6.412,37.371 6.406,37.371C6.399,37.371 6.393,37.371 6.387,37.371C6.38,37.371 6.374,37.371 6.368,37.371C6.362,37.371 6.356,37.371 6.349,37.371C6.343,37.371 6.337,37.371 6.331,37.371C6.325,37.371 6.319,37.371 6.314,37.371C6.308,37.371 6.302,37.371 6.296,37.371C6.29,37.371 6.285,37.371 6.279,37.371C6.273,37.371 6.268,37.371 6.262,37.371C6.257,37.371 6.251,37.371 6.246,37.371C6.24,37.371 6.235,37.371 6.229,37.371C6.224,37.371 6.219,37.371 6.214,37.371C6.208,37.371 6.203,37.371 6.198,37.371C6.193,37.371 6.188,37.371 6.183,37.371C6.178,37.371 6.173,37.371 6.168,37.371C6.163,37.371 6.158,37.371 6.153,37.371C6.148,37.371 6.144,37.371 6.139,37.371C6.134,37.371 6.13,37.371 6.125,37.371C6.121,37.371 6.116,37.371 6.112,37.371C6.107,37.371 6.103,37.371 6.098,37.371C6.094,37.371 6.09,37.371 6.085,37.371C6.081,37.371 6.077,37.371 6.073,37.371C6.069,37.371 6.065,37.371 6.061,37.371C6.057,37.371 6.053,37.371 6.049,37.371C6.045,37.371 6.041,37.371 6.037,37.371C6.033,37.371 6.03,37.371 6.026,37.371C6.022,37.371 6.019,37.371 6.015,37.371C6.011,37.371 6.008,37.371 6.005,37.371C6.001,37.371 5.998,37.371 5.994,37.371C5.991,37.371 5.988,37.371 5.985,37.371C5.981,37.371 5.978,37.371 5.975,37.371C5.972,37.371 5.969,37.371 5.966,37.371C5.963,37.371 5.96,37.371 5.957,37.371C5.954,37.371 5.952,37.371 5.949,37.371C5.946,37.371 5.943,37.371 5.941,37.371C5.938,37.371 5.936,37.371 5.933,37.371C5.931,37.371 5.928,37.371 5.926,37.371C5.923,37.371 5.921,37.371 5.919,37.371C5.916,37.371 5.914,37.371 5.912,37.371C5.91,37.371 5.908,37.371 5.906,37.371C5.904,37.371 5.902,37.371 5.9,37.371C5.898,37.371 5.896,37.371 5.895,37.371C5.893,37.371 5.891,37.371 5.889,37.371C5.888,37.371 5.886,37.371 5.885,37.371C5.883,37.371 5.882,37.371 5.88,37.371C5.879,37.371 5.877,37.371 5.876,37.371C5.875,37.371 5.874,37.371 5.873,37.371C5.871,37.371 5.87,37.371 5.869,37.371C5.868,37.371 5.867,37.371 5.866,37.371C5.866,37.371 5.865,37.371 5.864,37.371C5.863,37.371 5.862,37.371 5.862,37.371C5.861,37.371 5.861,37.371 5.86,37.371C5.86,37.371 5.859,37.371 5.859,37.371C5.858,37.371 5.858,37.371 5.858,37.371C5.857,37.371 5.857,37.371 5.857,37.371C5.857,37.371 5.857,37.371 5.857,39.429Z" transform="rotate(0 14.428 32.571)" fill="#FFFFFF"/>
<path d="M21.286,23.657C19.755,23.657 18.152,22.746 16.844,21.078C15.543,19.417 14.771,17.284 14.771,15.429L10.657,15.429C10.657,18.307 11.805,21.316 13.606,23.615C15.401,25.906 18.083,27.771 21.286,27.771L21.286,23.657ZM14.771,15.429L14.771,13.714L10.657,13.714L10.657,15.429L14.771,15.429ZM14.771,13.714C14.771,10.117 17.689,7.2 21.286,7.2L21.286,3.086C15.417,3.086 10.657,7.845 10.657,13.714L14.771,13.714ZM21.286,7.2C24.883,7.2 27.8,10.117 27.8,13.714L31.914,13.714C31.914,7.845 27.155,3.086 21.286,3.086L21.286,7.2ZM27.8,13.714L27.8,15.429L31.914,15.429L31.914,13.714L27.8,13.714ZM27.8,15.429C27.8,17.284 27.028,19.417 25.727,21.078C24.42,22.746 22.816,23.657 21.286,23.657L21.286,27.771C24.489,27.771 27.171,25.906 28.966,23.615C30.767,21.316 31.914,18.307 31.914,15.429L27.8,15.429Z" transform="rotate(0 21.286 15.429)" fill="#FFFFFF"/>
<line x1="32.943" y1="30.857" x2="32.943" y2="41.143" stroke="#FFFFFF" stroke-width="2.057" stroke-miterlimit="10" stroke-linecap="square"/>
<line x1="29.857" y1="33.943" x2="40.143" y2="33.943" stroke="#FFFFFF" stroke-width="2.057" stroke-miterlimit="10" stroke-linecap="square"/>
</svg>
