<svg width="32" height="32" viewBox="0 0 32 32" fill="none" xmlns="http://www.w3.org/2000/svg" xmlns:xlink="http://www.w3.org/1999/xlink">
<path d="M5.886,18.506L5.447,17.207L5.446,17.207L5.886,18.506ZM3.571,26.286L2.2,26.286L2.2,27.657L3.571,27.657L3.571,26.286ZM13.857,15.771C10.433,15.771 7.416,16.543 5.447,17.207L6.324,19.806C8.117,19.201 10.826,18.514 13.857,18.514L13.857,15.771ZM5.446,17.207C3.492,17.868 2.2,19.705 2.2,21.751L4.943,21.751C4.943,20.864 5.502,20.084 6.325,19.805L5.446,17.207ZM2.2,21.751L2.2,26.286L4.943,26.286L4.943,21.751L2.2,21.751ZM3.571,26.286C3.571,27.657 3.571,27.657 3.571,27.657C3.572,27.657 3.572,27.657 3.572,27.657C3.572,27.657 3.572,27.657 3.572,27.657C3.573,27.657 3.573,27.657 3.573,27.657C3.574,27.657 3.574,27.657 3.575,27.657C3.575,27.657 3.575,27.657 3.576,27.657C3.576,27.657 3.577,27.657 3.578,27.657C3.578,27.657 3.579,27.657 3.58,27.657C3.58,27.657 3.581,27.657 3.582,27.657C3.582,27.657 3.583,27.657 3.584,27.657C3.585,27.657 3.586,27.657 3.587,27.657C3.588,27.657 3.589,27.657 3.59,27.657C3.591,27.657 3.592,27.657 3.593,27.657C3.594,27.657 3.595,27.657 3.596,27.657C3.598,27.657 3.599,27.657 3.6,27.657C3.601,27.657 3.603,27.657 3.604,27.657C3.605,27.657 3.607,27.657 3.608,27.657C3.61,27.657 3.611,27.657 3.613,27.657C3.614,27.657 3.616,27.657 3.617,27.657C3.619,27.657 3.62,27.657 3.622,27.657C3.624,27.657 3.625,27.657 3.627,27.657C3.629,27.657 3.631,27.657 3.633,27.657C3.634,27.657 3.636,27.657 3.638,27.657C3.64,27.657 3.642,27.657 3.644,27.657C3.646,27.657 3.648,27.657 3.65,27.657C3.652,27.657 3.654,27.657 3.656,27.657C3.659,27.657 3.661,27.657 3.663,27.657C3.665,27.657 3.667,27.657 3.67,27.657C3.672,27.657 3.674,27.657 3.677,27.657C3.679,27.657 3.681,27.657 3.684,27.657C3.686,27.657 3.689,27.657 3.691,27.657C3.694,27.657 3.697,27.657 3.699,27.657C3.702,27.657 3.704,27.657 3.707,27.657C3.71,27.657 3.712,27.657 3.715,27.657C3.718,27.657 3.721,27.657 3.724,27.657C3.726,27.657 3.729,27.657 3.732,27.657C3.735,27.657 3.738,27.657 3.741,27.657C3.744,27.657 3.747,27.657 3.75,27.657C3.753,27.657 3.756,27.657 3.759,27.657C3.762,27.657 3.766,27.657 3.769,27.657C3.772,27.657 3.775,27.657 3.779,27.657C3.782,27.657 3.785,27.657 3.788,27.657C3.792,27.657 3.795,27.657 3.799,27.657C3.802,27.657 3.806,27.657 3.809,27.657C3.813,27.657 3.816,27.657 3.82,27.657C3.823,27.657 3.827,27.657 3.83,27.657C3.834,27.657 3.838,27.657 3.841,27.657C3.845,27.657 3.849,27.657 3.853,27.657C3.856,27.657 3.86,27.657 3.864,27.657C3.868,27.657 3.872,27.657 3.876,27.657C3.88,27.657 3.884,27.657 3.888,27.657C3.892,27.657 3.896,27.657 3.9,27.657C3.904,27.657 3.908,27.657 3.912,27.657C3.916,27.657 3.92,27.657 3.924,27.657C3.929,27.657 3.933,27.657 3.937,27.657C3.941,27.657 3.946,27.657 3.95,27.657C3.954,27.657 3.959,27.657 3.963,27.657C3.967,27.657 3.972,27.657 3.976,27.657C3.981,27.657 3.985,27.657 3.99,27.657C3.994,27.657 3.999,27.657 4.004,27.657C4.008,27.657 4.013,27.657 4.018,27.657C4.022,27.657 4.027,27.657 4.032,27.657C4.036,27.657 4.041,27.657 4.046,27.657C4.051,27.657 4.056,27.657 4.06,27.657C4.065,27.657 4.07,27.657 4.075,27.657C4.08,27.657 4.085,27.657 4.09,27.657C4.095,27.657 4.1,27.657 4.105,27.657C4.11,27.657 4.115,27.657 4.12,27.657C4.125,27.657 4.131,27.657 4.136,27.657C4.141,27.657 4.146,27.657 4.151,27.657C4.157,27.657 4.162,27.657 4.167,27.657C4.173,27.657 4.178,27.657 4.183,27.657C4.189,27.657 4.194,27.657 4.2,27.657C4.205,27.657 4.21,27.657 4.216,27.657C4.221,27.657 4.227,27.657 4.232,27.657C4.238,27.657 4.244,27.657 4.249,27.657C4.255,27.657 4.261,27.657 4.266,27.657C4.272,27.657 4.278,27.657 4.283,27.657C4.289,27.657 4.295,27.657 4.301,27.657C4.306,27.657 4.312,27.657 4.318,27.657C4.324,27.657 4.33,27.657 4.336,27.657C4.342,27.657 4.348,27.657 4.354,27.657C4.36,27.657 4.366,27.657 4.372,27.657C4.378,27.657 4.384,27.657 4.39,27.657C4.396,27.657 4.402,27.657 4.408,27.657C4.415,27.657 4.421,27.657 4.427,27.657C4.433,27.657 4.439,27.657 4.446,27.657C4.452,27.657 4.458,27.657 4.465,27.657C4.471,27.657 4.477,27.657 4.484,27.657C4.49,27.657 4.496,27.657 4.503,27.657C4.509,27.657 4.516,27.657 4.522,27.657C4.529,27.657 4.535,27.657 4.542,27.657C4.548,27.657 4.555,27.657 4.562,27.657C4.568,27.657 4.575,27.657 4.582,27.657C4.588,27.657 4.595,27.657 4.602,27.657C4.608,27.657 4.615,27.657 4.622,27.657C4.629,27.657 4.635,27.657 4.642,27.657C4.649,27.657 4.656,27.657 4.663,27.657C4.67,27.657 4.677,27.657 4.684,27.657C4.691,27.657 4.697,27.657 4.704,27.657C4.711,27.657 4.718,27.657 4.726,27.657C4.733,27.657 4.74,27.657 4.747,27.657C4.754,27.657 4.761,27.657 4.768,27.657C4.775,27.657 4.782,27.657 4.79,27.657C4.797,27.657 4.804,27.657 4.811,27.657C4.819,27.657 4.826,27.657 4.833,27.657C4.84,27.657 4.848,27.657 4.855,27.657C4.862,27.657 4.87,27.657 4.877,27.657C4.885,27.657 4.892,27.657 4.9,27.657C4.907,27.657 4.914,27.657 4.922,27.657C4.929,27.657 4.937,27.657 4.945,27.657C4.952,27.657 4.96,27.657 4.967,27.657C4.975,27.657 4.983,27.657 4.99,27.657C4.998,27.657 5.005,27.657 5.013,27.657C5.021,27.657 5.029,27.657 5.036,27.657C5.044,27.657 5.052,27.657 5.06,27.657C5.067,27.657 5.075,27.657 5.083,27.657C5.091,27.657 5.099,27.657 5.107,27.657C5.115,27.657 5.123,27.657 5.13,27.657C5.138,27.657 5.146,27.657 5.154,27.657C5.162,27.657 5.17,27.657 5.178,27.657C5.186,27.657 5.194,27.657 5.202,27.657C5.211,27.657 5.219,27.657 5.227,27.657C5.235,27.657 5.243,27.657 5.251,27.657C5.259,27.657 5.268,27.657 5.276,27.657C5.284,27.657 5.292,27.657 5.3,27.657C5.309,27.657 5.317,27.657 5.325,27.657C5.334,27.657 5.342,27.657 5.35,27.657C5.359,27.657 5.367,27.657 5.375,27.657C5.384,27.657 5.392,27.657 5.401,27.657C5.409,27.657 5.417,27.657 5.426,27.657C5.434,27.657 5.443,27.657 5.451,27.657C5.46,27.657 5.468,27.657 5.477,27.657C5.486,27.657 5.494,27.657 5.503,27.657C5.511,27.657 5.52,27.657 5.529,27.657C5.537,27.657 5.546,27.657 5.555,27.657C5.563,27.657 5.572,27.657 5.581,27.657C5.589,27.657 5.598,27.657 5.607,27.657C5.616,27.657 5.624,27.657 5.633,27.657C5.642,27.657 5.651,27.657 5.66,27.657C5.668,27.657 5.677,27.657 5.686,27.657C5.695,27.657 5.704,27.657 5.713,27.657C5.722,27.657 5.731,27.657 5.74,27.657C5.749,27.657 5.758,27.657 5.767,27.657C5.776,27.657 5.785,27.657 5.794,27.657C5.803,27.657 5.812,27.657 5.821,27.657C5.83,27.657 5.839,27.657 5.848,27.657C5.857,27.657 5.866,27.657 5.875,27.657C5.885,27.657 5.894,27.657 5.903,27.657C5.912,27.657 5.921,27.657 5.931,27.657C5.94,27.657 5.949,27.657 5.958,27.657C5.968,27.657 5.977,27.657 5.986,27.657C5.995,27.657 6.005,27.657 6.014,27.657C6.023,27.657 6.033,27.657 6.042,27.657C6.051,27.657 6.061,27.657 6.07,27.657C6.08,27.657 6.089,27.657 6.098,27.657C6.108,27.657 6.117,27.657 6.127,27.657C6.136,27.657 6.146,27.657 6.155,27.657C6.165,27.657 6.174,27.657 6.184,27.657C6.193,27.657 6.203,27.657 6.212,27.657C6.222,27.657 6.231,27.657 6.241,27.657C6.251,27.657 6.26,27.657 6.27,27.657C6.279,27.657 6.289,27.657 6.299,27.657C6.308,27.657 6.318,27.657 6.328,27.657C6.337,27.657 6.347,27.657 6.357,27.657C6.367,27.657 6.376,27.657 6.386,27.657C6.396,27.657 6.406,27.657 6.415,27.657C6.425,27.657 6.435,27.657 6.445,27.657C6.455,27.657 6.464,27.657 6.474,27.657C6.484,27.657 6.494,27.657 6.504,27.657C6.514,27.657 6.524,27.657 6.533,27.657C6.543,27.657 6.553,27.657 6.563,27.657C6.573,27.657 6.583,27.657 6.593,27.657C6.603,27.657 6.613,27.657 6.623,27.657C6.633,27.657 6.643,27.657 6.653,27.657C6.663,27.657 6.673,27.657 6.683,27.657C6.693,27.657 6.703,27.657 6.713,27.657C6.723,27.657 6.733,27.657 6.743,27.657C6.754,27.657 6.764,27.657 6.774,27.657C6.784,27.657 6.794,27.657 6.804,27.657C6.814,27.657 6.824,27.657 6.835,27.657C6.845,27.657 6.855,27.657 6.865,27.657C6.875,27.657 6.886,27.657 6.896,27.657C6.906,27.657 6.916,27.657 6.927,27.657C6.937,27.657 6.947,27.657 6.957,27.657C6.968,27.657 6.978,27.657 6.988,27.657C6.998,27.657 7.009,27.657 7.019,27.657C7.029,27.657 7.04,27.657 7.05,27.657C7.06,27.657 7.071,27.657 7.081,27.657C7.091,27.657 7.102,27.657 7.112,27.657C7.123,27.657 7.133,27.657 7.143,27.657C7.154,27.657 7.164,27.657 7.175,27.657C7.185,27.657 7.196,27.657 7.206,27.657C7.216,27.657 7.227,27.657 7.237,27.657C7.248,27.657 7.258,27.657 7.269,27.657C7.279,27.657 7.29,27.657 7.3,27.657C7.311,27.657 7.321,27.657 7.332,27.657C7.343,27.657 7.353,27.657 7.364,27.657C7.374,27.657 7.385,27.657 7.395,27.657C7.406,27.657 7.416,27.657 7.427,27.657C7.438,27.657 7.448,27.657 7.459,27.657C7.47,27.657 7.48,27.657 7.491,27.657C7.501,27.657 7.512,27.657 7.523,27.657C7.533,27.657 7.544,27.657 7.555,27.657C7.565,27.657 7.576,27.657 7.587,27.657C7.597,27.657 7.608,27.657 7.619,27.657C7.63,27.657 7.64,27.657 7.651,27.657C7.662,27.657 7.672,27.657 7.683,27.657C7.694,27.657 7.705,27.657 7.715,27.657C7.726,27.657 7.737,27.657 7.748,27.657C7.758,27.657 7.769,27.657 7.78,27.657C7.791,27.657 7.802,27.657 7.812,27.657C7.823,27.657 7.834,27.657 7.845,27.657C7.856,27.657 7.866,27.657 7.877,27.657C7.888,27.657 7.899,27.657 7.91,27.657C7.921,27.657 7.932,27.657 7.942,27.657C7.953,27.657 7.964,27.657 7.975,27.657C7.986,27.657 7.997,27.657 8.008,27.657C8.018,27.657 8.029,27.657 8.04,27.657C8.051,27.657 8.062,27.657 8.073,27.657C8.084,27.657 8.095,27.657 8.106,27.657C8.117,27.657 8.128,27.657 8.139,27.657C8.149,27.657 8.16,27.657 8.171,27.657C8.182,27.657 8.193,27.657 8.204,27.657C8.215,27.657 8.226,27.657 8.237,27.657C8.248,27.657 8.259,27.657 8.27,27.657C8.281,27.657 8.292,27.657 8.303,27.657C8.314,27.657 8.325,27.657 8.336,27.657C8.347,27.657 8.358,27.657 8.369,27.657C8.38,27.657 8.391,27.657 8.402,27.657C8.413,27.657 8.424,27.657 8.435,27.657C8.446,27.657 8.457,27.657 8.468,27.657C8.479,27.657 8.49,27.657 8.501,27.657C8.512,27.657 8.523,27.657 8.534,27.657C8.546,27.657 8.557,27.657 8.568,27.657C8.579,27.657 8.59,27.657 8.601,27.657C8.612,27.657 8.623,27.657 8.634,27.657C8.645,27.657 8.656,27.657 8.667,27.657C8.678,27.657 8.689,27.657 8.7,27.657C8.712,27.657 8.723,27.657 8.734,27.657C8.745,27.657 8.756,27.657 8.767,27.657C8.778,27.657 8.789,27.657 8.8,27.657C8.811,27.657 8.823,27.657 8.834,27.657C8.845,27.657 8.856,27.657 8.867,27.657C8.878,27.657 8.889,27.657 8.9,27.657C8.911,27.657 8.923,27.657 8.934,27.657C8.945,27.657 8.956,27.657 8.967,27.657C8.978,27.657 8.989,27.657 9,27.657C9.012,27.657 9.023,27.657 9.034,27.657C9.045,27.657 9.056,27.657 9.067,27.657C9.078,27.657 9.089,27.657 9.101,27.657C9.112,27.657 9.123,27.657 9.134,27.657C9.145,27.657 9.156,27.657 9.167,27.657C9.178,27.657 9.19,27.657 9.201,27.657C9.212,27.657 9.223,27.657 9.234,27.657C9.245,27.657 9.256,27.657 9.268,27.657C9.279,27.657 9.29,27.657 9.301,27.657C9.312,27.657 9.323,27.657 9.334,27.657C9.346,27.657 9.357,27.657 9.368,27.657C9.379,27.657 9.39,27.657 9.401,27.657C9.412,27.657 9.423,27.657 9.435,27.657C9.446,27.657 9.457,27.657 9.468,27.657C9.479,27.657 9.49,27.657 9.501,27.657C9.513,27.657 9.524,27.657 9.535,27.657C9.546,27.657 9.557,27.657 9.568,27.657C9.579,27.657 9.59,27.657 9.602,27.657C9.613,27.657 9.624,27.657 9.635,27.657C9.646,27.657 9.657,27.657 9.668,27.657C9.679,27.657 9.69,27.657 9.702,27.657C9.713,27.657 9.724,27.657 9.735,27.657C9.746,27.657 9.757,27.657 9.768,27.657C9.779,27.657 9.79,27.657 9.802,27.657C9.813,27.657 9.824,27.657 9.835,27.657C9.846,27.657 9.857,27.657 9.868,27.657C9.879,27.657 9.89,27.657 9.901,27.657C9.912,27.657 9.923,27.657 9.935,27.657C9.946,27.657 9.957,27.657 9.968,27.657C9.979,27.657 9.99,27.657 10.001,27.657C10.012,27.657 10.023,27.657 10.034,27.657C10.045,27.657 10.056,27.657 10.067,27.657C10.078,27.657 10.089,27.657 10.1,27.657C10.111,27.657 10.122,27.657 10.133,27.657C10.145,27.657 10.156,27.657 10.167,27.657C10.178,27.657 10.189,27.657 10.2,27.657C10.211,27.657 10.222,27.657 10.233,27.657C10.244,27.657 10.255,27.657 10.266,27.657C10.277,27.657 10.288,27.657 10.299,27.657C10.31,27.657 10.321,27.657 10.331,27.657C10.342,27.657 10.353,27.657 10.364,27.657C10.375,27.657 10.386,27.657 10.397,27.657C10.408,27.657 10.419,27.657 10.43,27.657C10.441,27.657 10.452,27.657 10.463,27.657C10.474,27.657 10.485,27.657 10.496,27.657C10.507,27.657 10.517,27.657 10.528,27.657C10.539,27.657 10.55,27.657 10.561,27.657C10.572,27.657 10.583,27.657 10.594,27.657C10.605,27.657 10.615,27.657 10.626,27.657C10.637,27.657 10.648,27.657 10.659,27.657C10.67,27.657 10.681,27.657 10.691,27.657C10.702,27.657 10.713,27.657 10.724,27.657C10.735,27.657 10.745,27.657 10.756,27.657C10.767,27.657 10.778,27.657 10.789,27.657C10.799,27.657 10.81,27.657 10.821,27.657C10.832,27.657 10.843,27.657 10.853,27.657C10.864,27.657 10.875,27.657 10.886,27.657C10.896,27.657 10.907,27.657 10.918,27.657C10.928,27.657 10.939,27.657 10.95,27.657C10.961,27.657 10.971,27.657 10.982,27.657C10.993,27.657 11.003,27.657 11.014,27.657C11.025,27.657 11.035,27.657 11.046,27.657C11.057,27.657 11.067,27.657 11.078,27.657C11.089,27.657 11.099,27.657 11.11,27.657C11.12,27.657 11.131,27.657 11.142,27.657C11.152,27.657 11.163,27.657 11.173,27.657C11.184,27.657 11.195,27.657 11.205,27.657C11.216,27.657 11.226,27.657 11.237,27.657C11.247,27.657 11.258,27.657 11.268,27.657C11.279,27.657 11.289,27.657 11.3,27.657C11.31,27.657 11.321,27.657 11.331,27.657C11.342,27.657 11.352,27.657 11.363,27.657C11.373,27.657 11.384,27.657 11.394,27.657C11.404,27.657 11.415,27.657 11.425,27.657C11.436,27.657 11.446,27.657 11.457,27.657C11.467,27.657 11.477,27.657 11.488,27.657C11.498,27.657 11.508,27.657 11.519,27.657C11.529,27.657 11.539,27.657 11.55,27.657C11.56,27.657 11.57,27.657 11.581,27.657C11.591,27.657 11.601,27.657 11.611,27.657C11.622,27.657 11.632,27.657 11.642,27.657C11.653,27.657 11.663,27.657 11.673,27.657C11.683,27.657 11.693,27.657 11.704,27.657C11.714,27.657 11.724,27.657 11.734,27.657C11.744,27.657 11.755,27.657 11.765,27.657C11.775,27.657 11.785,27.657 11.795,27.657C11.805,27.657 11.815,27.657 11.825,27.657C11.835,27.657 11.846,27.657 11.856,27.657C11.866,27.657 11.876,27.657 11.886,27.657C11.896,27.657 11.906,27.657 11.916,27.657C11.926,27.657 11.936,27.657 11.946,27.657C11.956,27.657 11.966,27.657 11.976,27.657C11.986,27.657 11.996,27.657 12.006,27.657C12.016,27.657 12.025,27.657 12.035,27.657C12.045,27.657 12.055,27.657 12.065,27.657C12.075,27.657 12.085,27.657 12.095,27.657C12.104,27.657 12.114,27.657 12.124,27.657C12.134,27.657 12.144,27.657 12.153,27.657C12.163,27.657 12.173,27.657 12.183,27.657C12.193,27.657 12.202,27.657 12.212,27.657C12.222,27.657 12.231,27.657 12.241,27.657C12.251,27.657 12.26,27.657 12.27,27.657C12.28,27.657 12.289,27.657 12.299,27.657C12.309,27.657 12.318,27.657 12.328,27.657C12.338,27.657 12.347,27.657 12.357,27.657C12.366,27.657 12.376,27.657 12.385,27.657C12.395,27.657 12.404,27.657 12.414,27.657C12.423,27.657 12.433,27.657 12.442,27.657C12.452,27.657 12.461,27.657 12.471,27.657C12.48,27.657 12.489,27.657 12.499,27.657C12.508,27.657 12.518,27.657 12.527,27.657C12.536,27.657 12.546,27.657 12.555,27.657C12.564,27.657 12.574,27.657 12.583,27.657C12.592,27.657 12.602,27.657 12.611,27.657C12.62,27.657 12.629,27.657 12.638,27.657C12.648,27.657 12.657,27.657 12.666,27.657C12.675,27.657 12.684,27.657 12.694,27.657C12.703,27.657 12.712,27.657 12.721,27.657C12.73,27.657 12.739,27.657 12.748,27.657C12.757,27.657 12.766,27.657 12.775,27.657C12.784,27.657 12.793,27.657 12.802,27.657C12.811,27.657 12.82,27.657 12.829,27.657C12.838,27.657 12.847,27.657 12.856,27.657C12.865,27.657 12.874,27.657 12.883,27.657C12.892,27.657 12.901,27.657 12.909,27.657C12.918,27.657 12.927,27.657 12.936,27.657C12.945,27.657 12.954,27.657 12.962,27.657C12.971,27.657 12.98,27.657 12.989,27.657C12.997,27.657 13.006,27.657 13.015,27.657C13.023,27.657 13.032,27.657 13.041,27.657C13.049,27.657 13.058,27.657 13.066,27.657C13.075,27.657 13.084,27.657 13.092,27.657C13.101,27.657 13.109,27.657 13.118,27.657C13.126,27.657 13.135,27.657 13.143,27.657C13.152,27.657 13.16,27.657 13.169,27.657C13.177,27.657 13.186,27.657 13.194,27.657C13.202,27.657 13.211,27.657 13.219,27.657C13.227,27.657 13.236,27.657 13.244,27.657C13.252,27.657 13.261,27.657 13.269,27.657C13.277,27.657 13.285,27.657 13.294,27.657C13.302,27.657 13.31,27.657 13.318,27.657C13.326,27.657 13.334,27.657 13.343,27.657C13.351,27.657 13.359,27.657 13.367,27.657C13.375,27.657 13.383,27.657 13.391,27.657C13.399,27.657 13.407,27.657 13.415,27.657C13.423,27.657 13.431,27.657 13.439,27.657C13.447,27.657 13.455,27.657 13.463,27.657C13.471,27.657 13.478,27.657 13.486,27.657C13.494,27.657 13.502,27.657 13.51,27.657C13.518,27.657 13.525,27.657 13.533,27.657C13.541,27.657 13.549,27.657 13.556,27.657C13.564,27.657 13.572,27.657 13.579,27.657C13.587,27.657 13.595,27.657 13.602,27.657C13.61,27.657 13.617,27.657 13.625,27.657C13.632,27.657 13.64,27.657 13.648,27.657C13.655,27.657 13.662,27.657 13.67,27.657C13.677,27.657 13.685,27.657 13.692,27.657C13.7,27.657 13.707,27.657 13.714,27.657C13.722,27.657 13.729,27.657 13.736,27.657C13.744,27.657 13.751,27.657 13.758,27.657C13.765,27.657 13.773,27.657 13.78,27.657C13.787,27.657 13.794,27.657 13.801,27.657C13.809,27.657 13.816,27.657 13.823,27.657C13.83,27.657 13.837,27.657 13.844,27.657C13.851,27.657 13.858,27.657 13.865,27.657C13.872,27.657 13.879,27.657 13.886,27.657C13.893,27.657 13.9,27.657 13.907,27.657C13.914,27.657 13.921,27.657 13.927,27.657C13.934,27.657 13.941,27.657 13.948,27.657C13.955,27.657 13.961,27.657 13.968,27.657C13.975,27.657 13.981,27.657 13.988,27.657C13.995,27.657 14.001,27.657 14.008,27.657C14.015,27.657 14.021,27.657 14.028,27.657C14.034,27.657 14.041,27.657 14.047,27.657C14.054,27.657 14.06,27.657 14.067,27.657C14.073,27.657 14.08,27.657 14.086,27.657C14.092,27.657 14.099,27.657 14.105,27.657C14.112,27.657 14.118,27.657 14.124,27.657C14.13,27.657 14.137,27.657 14.143,27.657C14.149,27.657 14.155,27.657 14.161,27.657C14.168,27.657 14.174,27.657 14.18,27.657C14.186,27.657 14.192,27.657 14.198,27.657C14.204,27.657 14.21,27.657 14.216,27.657C14.222,27.657 14.228,27.657 14.234,27.657C14.24,27.657 14.246,27.657 14.252,27.657C14.258,27.657 14.263,27.657 14.269,27.657C14.275,27.657 14.281,27.657 14.287,27.657C14.292,27.657 14.298,27.657 14.304,27.657C14.309,27.657 14.315,27.657 14.321,27.657C14.326,27.657 14.332,27.657 14.337,27.657C14.343,27.657 14.349,27.657 14.354,27.657C14.36,27.657 14.365,27.657 14.37,27.657C14.376,27.657 14.381,27.657 14.387,27.657C14.392,27.657 14.397,27.657 14.403,27.657C14.408,27.657 14.413,27.657 14.419,27.657C14.424,27.657 14.429,27.657 14.434,27.657C14.439,27.657 14.445,27.657 14.45,27.657C14.455,27.657 14.46,27.657 14.465,27.657C14.47,27.657 14.475,27.657 14.48,27.657C14.485,27.657 14.49,27.657 14.495,27.657C14.5,27.657 14.505,27.657 14.51,27.657C14.515,27.657 14.519,27.657 14.524,27.657C14.529,27.657 14.534,27.657 14.539,27.657C14.543,27.657 14.548,27.657 14.553,27.657C14.557,27.657 14.562,27.657 14.567,27.657C14.571,27.657 14.576,27.657 14.58,27.657C14.585,27.657 14.589,27.657 14.594,27.657C14.598,27.657 14.603,27.657 14.607,27.657C14.612,27.657 14.616,27.657 14.62,27.657C14.625,27.657 14.629,27.657 14.633,27.657C14.637,27.657 14.642,27.657 14.646,27.657C14.65,27.657 14.654,27.657 14.658,27.657C14.662,27.657 14.667,27.657 14.671,27.657C14.675,27.657 14.679,27.657 14.683,27.657C14.687,27.657 14.691,27.657 14.695,27.657C14.699,27.657 14.702,27.657 14.706,27.657C14.71,27.657 14.714,27.657 14.718,27.657C14.722,27.657 14.725,27.657 14.729,27.657C14.733,27.657 14.736,27.657 14.74,27.657C14.744,27.657 14.747,27.657 14.751,27.657C14.754,27.657 14.758,27.657 14.761,27.657C14.765,27.657 14.768,27.657 14.772,27.657C14.775,27.657 14.779,27.657 14.782,27.657C14.785,27.657 14.789,27.657 14.792,27.657C14.795,27.657 14.798,27.657 14.802,27.657C14.805,27.657 14.808,27.657 14.811,27.657C14.814,27.657 14.817,27.657 14.82,27.657C14.824,27.657 14.827,27.657 14.83,27.657C14.833,27.657 14.835,27.657 14.838,27.657C14.841,27.657 14.844,27.657 14.847,27.657C14.85,27.657 14.853,27.657 14.855,27.657C14.858,27.657 14.861,27.657 14.864,27.657C14.866,27.657 14.869,27.657 14.872,27.657C14.874,27.657 14.877,27.657 14.879,27.657C14.882,27.657 14.884,27.657 14.887,27.657C14.889,27.657 14.892,27.657 14.894,27.657C14.896,27.657 14.899,27.657 14.901,27.657C14.903,27.657 14.906,27.657 14.908,27.657C14.91,27.657 14.912,27.657 14.914,27.657C14.917,27.657 14.919,27.657 14.921,27.657C14.923,27.657 14.925,27.657 14.927,27.657C14.929,27.657 14.931,27.657 14.933,27.657C14.935,27.657 14.936,27.657 14.938,27.657C14.94,27.657 14.942,27.657 14.944,27.657C14.945,27.657 14.947,27.657 14.949,27.657C14.951,27.657 14.952,27.657 14.954,27.657C14.955,27.657 14.957,27.657 14.958,27.657C14.96,27.657 14.961,27.657 14.963,27.657C14.964,27.657 14.966,27.657 14.967,27.657C14.968,27.657 14.97,27.657 14.971,27.657C14.972,27.657 14.973,27.657 14.975,27.657C14.976,27.657 14.977,27.657 14.978,27.657C14.979,27.657 14.98,27.657 14.981,27.657C14.982,27.657 14.983,27.657 14.984,27.657C14.985,27.657 14.986,27.657 14.987,27.657C14.988,27.657 14.989,27.657 14.989,27.657C14.99,27.657 14.991,27.657 14.992,27.657C14.992,27.657 14.993,27.657 14.994,27.657C14.994,27.657 14.995,27.657 14.995,27.657C14.996,27.657 14.996,27.657 14.997,27.657C14.997,27.657 14.998,27.657 14.998,27.657C14.998,27.657 14.999,27.657 14.999,27.657C14.999,27.657 14.999,27.657 14.999,27.657C15,27.657 15,27.657 15,27.657L15,24.914C15,24.914 15,24.914 14.999,24.914C14.999,24.914 14.999,24.914 14.999,24.914C14.999,24.914 14.998,24.914 14.998,24.914C14.998,24.914 14.997,24.914 14.997,24.914C14.996,24.914 14.996,24.914 14.995,24.914C14.995,24.914 14.994,24.914 14.994,24.914C14.993,24.914 14.992,24.914 14.992,24.914C14.991,24.914 14.99,24.914 14.989,24.914C14.989,24.914 14.988,24.914 14.987,24.914C14.986,24.914 14.985,24.914 14.984,24.914C14.983,24.914 14.982,24.914 14.981,24.914C14.98,24.914 14.979,24.914 14.978,24.914C14.977,24.914 14.976,24.914 14.975,24.914C14.973,24.914 14.972,24.914 14.971,24.914C14.97,24.914 14.968,24.914 14.967,24.914C14.966,24.914 14.964,24.914 14.963,24.914C14.961,24.914 14.96,24.914 14.958,24.914C14.957,24.914 14.955,24.914 14.954,24.914C14.952,24.914 14.951,24.914 14.949,24.914C14.947,24.914 14.945,24.914 14.944,24.914C14.942,24.914 14.94,24.914 14.938,24.914C14.936,24.914 14.935,24.914 14.933,24.914C14.931,24.914 14.929,24.914 14.927,24.914C14.925,24.914 14.923,24.914 14.921,24.914C14.919,24.914 14.917,24.914 14.914,24.914C14.912,24.914 14.91,24.914 14.908,24.914C14.906,24.914 14.903,24.914 14.901,24.914C14.899,24.914 14.896,24.914 14.894,24.914C14.892,24.914 14.889,24.914 14.887,24.914C14.884,24.914 14.882,24.914 14.879,24.914C14.877,24.914 14.874,24.914 14.872,24.914C14.869,24.914 14.866,24.914 14.864,24.914C14.861,24.914 14.858,24.914 14.855,24.914C14.853,24.914 14.85,24.914 14.847,24.914C14.844,24.914 14.841,24.914 14.838,24.914C14.835,24.914 14.833,24.914 14.83,24.914C14.827,24.914 14.824,24.914 14.82,24.914C14.817,24.914 14.814,24.914 14.811,24.914C14.808,24.914 14.805,24.914 14.802,24.914C14.798,24.914 14.795,24.914 14.792,24.914C14.789,24.914 14.785,24.914 14.782,24.914C14.779,24.914 14.775,24.914 14.772,24.914C14.768,24.914 14.765,24.914 14.761,24.914C14.758,24.914 14.754,24.914 14.751,24.914C14.747,24.914 14.744,24.914 14.74,24.914C14.736,24.914 14.733,24.914 14.729,24.914C14.725,24.914 14.722,24.914 14.718,24.914C14.714,24.914 14.71,24.914 14.706,24.914C14.702,24.914 14.699,24.914 14.695,24.914C14.691,24.914 14.687,24.914 14.683,24.914C14.679,24.914 14.675,24.914 14.671,24.914C14.667,24.914 14.662,24.914 14.658,24.914C14.654,24.914 14.65,24.914 14.646,24.914C14.642,24.914 14.637,24.914 14.633,24.914C14.629,24.914 14.625,24.914 14.62,24.914C14.616,24.914 14.612,24.914 14.607,24.914C14.603,24.914 14.598,24.914 14.594,24.914C14.589,24.914 14.585,24.914 14.58,24.914C14.576,24.914 14.571,24.914 14.567,24.914C14.562,24.914 14.557,24.914 14.553,24.914C14.548,24.914 14.543,24.914 14.539,24.914C14.534,24.914 14.529,24.914 14.524,24.914C14.519,24.914 14.515,24.914 14.51,24.914C14.505,24.914 14.5,24.914 14.495,24.914C14.49,24.914 14.485,24.914 14.48,24.914C14.475,24.914 14.47,24.914 14.465,24.914C14.46,24.914 14.455,24.914 14.45,24.914C14.445,24.914 14.439,24.914 14.434,24.914C14.429,24.914 14.424,24.914 14.419,24.914C14.413,24.914 14.408,24.914 14.403,24.914C14.397,24.914 14.392,24.914 14.387,24.914C14.381,24.914 14.376,24.914 14.37,24.914C14.365,24.914 14.36,24.914 14.354,24.914C14.349,24.914 14.343,24.914 14.337,24.914C14.332,24.914 14.326,24.914 14.321,24.914C14.315,24.914 14.309,24.914 14.304,24.914C14.298,24.914 14.292,24.914 14.287,24.914C14.281,24.914 14.275,24.914 14.269,24.914C14.263,24.914 14.258,24.914 14.252,24.914C14.246,24.914 14.24,24.914 14.234,24.914C14.228,24.914 14.222,24.914 14.216,24.914C14.21,24.914 14.204,24.914 14.198,24.914C14.192,24.914 14.186,24.914 14.18,24.914C14.174,24.914 14.168,24.914 14.161,24.914C14.155,24.914 14.149,24.914 14.143,24.914C14.137,24.914 14.13,24.914 14.124,24.914C14.118,24.914 14.112,24.914 14.105,24.914C14.099,24.914 14.092,24.914 14.086,24.914C14.08,24.914 14.073,24.914 14.067,24.914C14.06,24.914 14.054,24.914 14.047,24.914C14.041,24.914 14.034,24.914 14.028,24.914C14.021,24.914 14.015,24.914 14.008,24.914C14.001,24.914 13.995,24.914 13.988,24.914C13.981,24.914 13.975,24.914 13.968,24.914C13.961,24.914 13.955,24.914 13.948,24.914C13.941,24.914 13.934,24.914 13.927,24.914C13.921,24.914 13.914,24.914 13.907,24.914C13.9,24.914 13.893,24.914 13.886,24.914C13.879,24.914 13.872,24.914 13.865,24.914C13.858,24.914 13.851,24.914 13.844,24.914C13.837,24.914 13.83,24.914 13.823,24.914C13.816,24.914 13.809,24.914 13.801,24.914C13.794,24.914 13.787,24.914 13.78,24.914C13.773,24.914 13.765,24.914 13.758,24.914C13.751,24.914 13.744,24.914 13.736,24.914C13.729,24.914 13.722,24.914 13.714,24.914C13.707,24.914 13.7,24.914 13.692,24.914C13.685,24.914 13.677,24.914 13.67,24.914C13.662,24.914 13.655,24.914 13.648,24.914C13.64,24.914 13.632,24.914 13.625,24.914C13.617,24.914 13.61,24.914 13.602,24.914C13.595,24.914 13.587,24.914 13.579,24.914C13.572,24.914 13.564,24.914 13.556,24.914C13.549,24.914 13.541,24.914 13.533,24.914C13.525,24.914 13.518,24.914 13.51,24.914C13.502,24.914 13.494,24.914 13.486,24.914C13.478,24.914 13.471,24.914 13.463,24.914C13.455,24.914 13.447,24.914 13.439,24.914C13.431,24.914 13.423,24.914 13.415,24.914C13.407,24.914 13.399,24.914 13.391,24.914C13.383,24.914 13.375,24.914 13.367,24.914C13.359,24.914 13.351,24.914 13.343,24.914C13.334,24.914 13.326,24.914 13.318,24.914C13.31,24.914 13.302,24.914 13.294,24.914C13.285,24.914 13.277,24.914 13.269,24.914C13.261,24.914 13.252,24.914 13.244,24.914C13.236,24.914 13.227,24.914 13.219,24.914C13.211,24.914 13.202,24.914 13.194,24.914C13.186,24.914 13.177,24.914 13.169,24.914C13.16,24.914 13.152,24.914 13.143,24.914C13.135,24.914 13.126,24.914 13.118,24.914C13.109,24.914 13.101,24.914 13.092,24.914C13.084,24.914 13.075,24.914 13.066,24.914C13.058,24.914 13.049,24.914 13.041,24.914C13.032,24.914 13.023,24.914 13.015,24.914C13.006,24.914 12.997,24.914 12.989,24.914C12.98,24.914 12.971,24.914 12.962,24.914C12.954,24.914 12.945,24.914 12.936,24.914C12.927,24.914 12.918,24.914 12.909,24.914C12.901,24.914 12.892,24.914 12.883,24.914C12.874,24.914 12.865,24.914 12.856,24.914C12.847,24.914 12.838,24.914 12.829,24.914C12.82,24.914 12.811,24.914 12.802,24.914C12.793,24.914 12.784,24.914 12.775,24.914C12.766,24.914 12.757,24.914 12.748,24.914C12.739,24.914 12.73,24.914 12.721,24.914C12.712,24.914 12.703,24.914 12.694,24.914C12.684,24.914 12.675,24.914 12.666,24.914C12.657,24.914 12.648,24.914 12.638,24.914C12.629,24.914 12.62,24.914 12.611,24.914C12.602,24.914 12.592,24.914 12.583,24.914C12.574,24.914 12.564,24.914 12.555,24.914C12.546,24.914 12.536,24.914 12.527,24.914C12.518,24.914 12.508,24.914 12.499,24.914C12.489,24.914 12.48,24.914 12.471,24.914C12.461,24.914 12.452,24.914 12.442,24.914C12.433,24.914 12.423,24.914 12.414,24.914C12.404,24.914 12.395,24.914 12.385,24.914C12.376,24.914 12.366,24.914 12.357,24.914C12.347,24.914 12.338,24.914 12.328,24.914C12.318,24.914 12.309,24.914 12.299,24.914C12.289,24.914 12.28,24.914 12.27,24.914C12.26,24.914 12.251,24.914 12.241,24.914C12.231,24.914 12.222,24.914 12.212,24.914C12.202,24.914 12.193,24.914 12.183,24.914C12.173,24.914 12.163,24.914 12.153,24.914C12.144,24.914 12.134,24.914 12.124,24.914C12.114,24.914 12.104,24.914 12.095,24.914C12.085,24.914 12.075,24.914 12.065,24.914C12.055,24.914 12.045,24.914 12.035,24.914C12.025,24.914 12.016,24.914 12.006,24.914C11.996,24.914 11.986,24.914 11.976,24.914C11.966,24.914 11.956,24.914 11.946,24.914C11.936,24.914 11.926,24.914 11.916,24.914C11.906,24.914 11.896,24.914 11.886,24.914C11.876,24.914 11.866,24.914 11.856,24.914C11.846,24.914 11.835,24.914 11.825,24.914C11.815,24.914 11.805,24.914 11.795,24.914C11.785,24.914 11.775,24.914 11.765,24.914C11.755,24.914 11.744,24.914 11.734,24.914C11.724,24.914 11.714,24.914 11.704,24.914C11.693,24.914 11.683,24.914 11.673,24.914C11.663,24.914 11.653,24.914 11.642,24.914C11.632,24.914 11.622,24.914 11.611,24.914C11.601,24.914 11.591,24.914 11.581,24.914C11.57,24.914 11.56,24.914 11.55,24.914C11.539,24.914 11.529,24.914 11.519,24.914C11.508,24.914 11.498,24.914 11.488,24.914C11.477,24.914 11.467,24.914 11.457,24.914C11.446,24.914 11.436,24.914 11.425,24.914C11.415,24.914 11.404,24.914 11.394,24.914C11.384,24.914 11.373,24.914 11.363,24.914C11.352,24.914 11.342,24.914 11.331,24.914C11.321,24.914 11.31,24.914 11.3,24.914C11.289,24.914 11.279,24.914 11.268,24.914C11.258,24.914 11.247,24.914 11.237,24.914C11.226,24.914 11.216,24.914 11.205,24.914C11.195,24.914 11.184,24.914 11.173,24.914C11.163,24.914 11.152,24.914 11.142,24.914C11.131,24.914 11.12,24.914 11.11,24.914C11.099,24.914 11.089,24.914 11.078,24.914C11.067,24.914 11.057,24.914 11.046,24.914C11.035,24.914 11.025,24.914 11.014,24.914C11.003,24.914 10.993,24.914 10.982,24.914C10.971,24.914 10.961,24.914 10.95,24.914C10.939,24.914 10.928,24.914 10.918,24.914C10.907,24.914 10.896,24.914 10.886,24.914C10.875,24.914 10.864,24.914 10.853,24.914C10.843,24.914 10.832,24.914 10.821,24.914C10.81,24.914 10.799,24.914 10.789,24.914C10.778,24.914 10.767,24.914 10.756,24.914C10.745,24.914 10.735,24.914 10.724,24.914C10.713,24.914 10.702,24.914 10.691,24.914C10.681,24.914 10.67,24.914 10.659,24.914C10.648,24.914 10.637,24.914 10.626,24.914C10.615,24.914 10.605,24.914 10.594,24.914C10.583,24.914 10.572,24.914 10.561,24.914C10.55,24.914 10.539,24.914 10.528,24.914C10.517,24.914 10.507,24.914 10.496,24.914C10.485,24.914 10.474,24.914 10.463,24.914C10.452,24.914 10.441,24.914 10.43,24.914C10.419,24.914 10.408,24.914 10.397,24.914C10.386,24.914 10.375,24.914 10.364,24.914C10.353,24.914 10.342,24.914 10.331,24.914C10.321,24.914 10.31,24.914 10.299,24.914C10.288,24.914 10.277,24.914 10.266,24.914C10.255,24.914 10.244,24.914 10.233,24.914C10.222,24.914 10.211,24.914 10.2,24.914C10.189,24.914 10.178,24.914 10.167,24.914C10.156,24.914 10.145,24.914 10.133,24.914C10.122,24.914 10.111,24.914 10.1,24.914C10.089,24.914 10.078,24.914 10.067,24.914C10.056,24.914 10.045,24.914 10.034,24.914C10.023,24.914 10.012,24.914 10.001,24.914C9.99,24.914 9.979,24.914 9.968,24.914C9.957,24.914 9.946,24.914 9.935,24.914C9.923,24.914 9.912,24.914 9.901,24.914C9.89,24.914 9.879,24.914 9.868,24.914C9.857,24.914 9.846,24.914 9.835,24.914C9.824,24.914 9.813,24.914 9.802,24.914C9.79,24.914 9.779,24.914 9.768,24.914C9.757,24.914 9.746,24.914 9.735,24.914C9.724,24.914 9.713,24.914 9.702,24.914C9.69,24.914 9.679,24.914 9.668,24.914C9.657,24.914 9.646,24.914 9.635,24.914C9.624,24.914 9.613,24.914 9.602,24.914C9.59,24.914 9.579,24.914 9.568,24.914C9.557,24.914 9.546,24.914 9.535,24.914C9.524,24.914 9.513,24.914 9.501,24.914C9.49,24.914 9.479,24.914 9.468,24.914C9.457,24.914 9.446,24.914 9.435,24.914C9.423,24.914 9.412,24.914 9.401,24.914C9.39,24.914 9.379,24.914 9.368,24.914C9.357,24.914 9.346,24.914 9.334,24.914C9.323,24.914 9.312,24.914 9.301,24.914C9.29,24.914 9.279,24.914 9.268,24.914C9.256,24.914 9.245,24.914 9.234,24.914C9.223,24.914 9.212,24.914 9.201,24.914C9.19,24.914 9.178,24.914 9.167,24.914C9.156,24.914 9.145,24.914 9.134,24.914C9.123,24.914 9.112,24.914 9.101,24.914C9.089,24.914 9.078,24.914 9.067,24.914C9.056,24.914 9.045,24.914 9.034,24.914C9.023,24.914 9.012,24.914 9,24.914C8.989,24.914 8.978,24.914 8.967,24.914C8.956,24.914 8.945,24.914 8.934,24.914C8.923,24.914 8.911,24.914 8.9,24.914C8.889,24.914 8.878,24.914 8.867,24.914C8.856,24.914 8.845,24.914 8.834,24.914C8.823,24.914 8.811,24.914 8.8,24.914C8.789,24.914 8.778,24.914 8.767,24.914C8.756,24.914 8.745,24.914 8.734,24.914C8.723,24.914 8.712,24.914 8.7,24.914C8.689,24.914 8.678,24.914 8.667,24.914C8.656,24.914 8.645,24.914 8.634,24.914C8.623,24.914 8.612,24.914 8.601,24.914C8.59,24.914 8.579,24.914 8.568,24.914C8.557,24.914 8.546,24.914 8.534,24.914C8.523,24.914 8.512,24.914 8.501,24.914C8.49,24.914 8.479,24.914 8.468,24.914C8.457,24.914 8.446,24.914 8.435,24.914C8.424,24.914 8.413,24.914 8.402,24.914C8.391,24.914 8.38,24.914 8.369,24.914C8.358,24.914 8.347,24.914 8.336,24.914C8.325,24.914 8.314,24.914 8.303,24.914C8.292,24.914 8.281,24.914 8.27,24.914C8.259,24.914 8.248,24.914 8.237,24.914C8.226,24.914 8.215,24.914 8.204,24.914C8.193,24.914 8.182,24.914 8.171,24.914C8.16,24.914 8.149,24.914 8.139,24.914C8.128,24.914 8.117,24.914 8.106,24.914C8.095,24.914 8.084,24.914 8.073,24.914C8.062,24.914 8.051,24.914 8.04,24.914C8.029,24.914 8.018,24.914 8.008,24.914C7.997,24.914 7.986,24.914 7.975,24.914C7.964,24.914 7.953,24.914 7.942,24.914C7.932,24.914 7.921,24.914 7.91,24.914C7.899,24.914 7.888,24.914 7.877,24.914C7.866,24.914 7.856,24.914 7.845,24.914C7.834,24.914 7.823,24.914 7.812,24.914C7.802,24.914 7.791,24.914 7.78,24.914C7.769,24.914 7.758,24.914 7.748,24.914C7.737,24.914 7.726,24.914 7.715,24.914C7.705,24.914 7.694,24.914 7.683,24.914C7.672,24.914 7.662,24.914 7.651,24.914C7.64,24.914 7.63,24.914 7.619,24.914C7.608,24.914 7.597,24.914 7.587,24.914C7.576,24.914 7.565,24.914 7.555,24.914C7.544,24.914 7.533,24.914 7.523,24.914C7.512,24.914 7.501,24.914 7.491,24.914C7.48,24.914 7.47,24.914 7.459,24.914C7.448,24.914 7.438,24.914 7.427,24.914C7.416,24.914 7.406,24.914 7.395,24.914C7.385,24.914 7.374,24.914 7.364,24.914C7.353,24.914 7.343,24.914 7.332,24.914C7.321,24.914 7.311,24.914 7.3,24.914C7.29,24.914 7.279,24.914 7.269,24.914C7.258,24.914 7.248,24.914 7.237,24.914C7.227,24.914 7.216,24.914 7.206,24.914C7.196,24.914 7.185,24.914 7.175,24.914C7.164,24.914 7.154,24.914 7.143,24.914C7.133,24.914 7.123,24.914 7.112,24.914C7.102,24.914 7.091,24.914 7.081,24.914C7.071,24.914 7.06,24.914 7.05,24.914C7.04,24.914 7.029,24.914 7.019,24.914C7.009,24.914 6.998,24.914 6.988,24.914C6.978,24.914 6.968,24.914 6.957,24.914C6.947,24.914 6.937,24.914 6.927,24.914C6.916,24.914 6.906,24.914 6.896,24.914C6.886,24.914 6.875,24.914 6.865,24.914C6.855,24.914 6.845,24.914 6.835,24.914C6.824,24.914 6.814,24.914 6.804,24.914C6.794,24.914 6.784,24.914 6.774,24.914C6.764,24.914 6.754,24.914 6.743,24.914C6.733,24.914 6.723,24.914 6.713,24.914C6.703,24.914 6.693,24.914 6.683,24.914C6.673,24.914 6.663,24.914 6.653,24.914C6.643,24.914 6.633,24.914 6.623,24.914C6.613,24.914 6.603,24.914 6.593,24.914C6.583,24.914 6.573,24.914 6.563,24.914C6.553,24.914 6.543,24.914 6.533,24.914C6.524,24.914 6.514,24.914 6.504,24.914C6.494,24.914 6.484,24.914 6.474,24.914C6.464,24.914 6.455,24.914 6.445,24.914C6.435,24.914 6.425,24.914 6.415,24.914C6.406,24.914 6.396,24.914 6.386,24.914C6.376,24.914 6.367,24.914 6.357,24.914C6.347,24.914 6.337,24.914 6.328,24.914C6.318,24.914 6.308,24.914 6.299,24.914C6.289,24.914 6.279,24.914 6.27,24.914C6.26,24.914 6.251,24.914 6.241,24.914C6.231,24.914 6.222,24.914 6.212,24.914C6.203,24.914 6.193,24.914 6.184,24.914C6.174,24.914 6.165,24.914 6.155,24.914C6.146,24.914 6.136,24.914 6.127,24.914C6.117,24.914 6.108,24.914 6.098,24.914C6.089,24.914 6.08,24.914 6.07,24.914C6.061,24.914 6.051,24.914 6.042,24.914C6.033,24.914 6.023,24.914 6.014,24.914C6.005,24.914 5.995,24.914 5.986,24.914C5.977,24.914 5.968,24.914 5.958,24.914C5.949,24.914 5.94,24.914 5.931,24.914C5.921,24.914 5.912,24.914 5.903,24.914C5.894,24.914 5.885,24.914 5.875,24.914C5.866,24.914 5.857,24.914 5.848,24.914C5.839,24.914 5.83,24.914 5.821,24.914C5.812,24.914 5.803,24.914 5.794,24.914C5.785,24.914 5.776,24.914 5.767,24.914C5.758,24.914 5.749,24.914 5.74,24.914C5.731,24.914 5.722,24.914 5.713,24.914C5.704,24.914 5.695,24.914 5.686,24.914C5.677,24.914 5.668,24.914 5.66,24.914C5.651,24.914 5.642,24.914 5.633,24.914C5.624,24.914 5.616,24.914 5.607,24.914C5.598,24.914 5.589,24.914 5.581,24.914C5.572,24.914 5.563,24.914 5.555,24.914C5.546,24.914 5.537,24.914 5.529,24.914C5.52,24.914 5.511,24.914 5.503,24.914C5.494,24.914 5.486,24.914 5.477,24.914C5.468,24.914 5.46,24.914 5.451,24.914C5.443,24.914 5.434,24.914 5.426,24.914C5.417,24.914 5.409,24.914 5.401,24.914C5.392,24.914 5.384,24.914 5.375,24.914C5.367,24.914 5.359,24.914 5.35,24.914C5.342,24.914 5.334,24.914 5.325,24.914C5.317,24.914 5.309,24.914 5.3,24.914C5.292,24.914 5.284,24.914 5.276,24.914C5.268,24.914 5.259,24.914 5.251,24.914C5.243,24.914 5.235,24.914 5.227,24.914C5.219,24.914 5.211,24.914 5.202,24.914C5.194,24.914 5.186,24.914 5.178,24.914C5.17,24.914 5.162,24.914 5.154,24.914C5.146,24.914 5.138,24.914 5.13,24.914C5.123,24.914 5.115,24.914 5.107,24.914C5.099,24.914 5.091,24.914 5.083,24.914C5.075,24.914 5.067,24.914 5.06,24.914C5.052,24.914 5.044,24.914 5.036,24.914C5.029,24.914 5.021,24.914 5.013,24.914C5.005,24.914 4.998,24.914 4.99,24.914C4.983,24.914 4.975,24.914 4.967,24.914C4.96,24.914 4.952,24.914 4.945,24.914C4.937,24.914 4.929,24.914 4.922,24.914C4.914,24.914 4.907,24.914 4.9,24.914C4.892,24.914 4.885,24.914 4.877,24.914C4.87,24.914 4.862,24.914 4.855,24.914C4.848,24.914 4.84,24.914 4.833,24.914C4.826,24.914 4.819,24.914 4.811,24.914C4.804,24.914 4.797,24.914 4.79,24.914C4.782,24.914 4.775,24.914 4.768,24.914C4.761,24.914 4.754,24.914 4.747,24.914C4.74,24.914 4.733,24.914 4.726,24.914C4.718,24.914 4.711,24.914 4.704,24.914C4.697,24.914 4.691,24.914 4.684,24.914C4.677,24.914 4.67,24.914 4.663,24.914C4.656,24.914 4.649,24.914 4.642,24.914C4.635,24.914 4.629,24.914 4.622,24.914C4.615,24.914 4.608,24.914 4.602,24.914C4.595,24.914 4.588,24.914 4.582,24.914C4.575,24.914 4.568,24.914 4.562,24.914C4.555,24.914 4.548,24.914 4.542,24.914C4.535,24.914 4.529,24.914 4.522,24.914C4.516,24.914 4.509,24.914 4.503,24.914C4.496,24.914 4.49,24.914 4.484,24.914C4.477,24.914 4.471,24.914 4.465,24.914C4.458,24.914 4.452,24.914 4.446,24.914C4.439,24.914 4.433,24.914 4.427,24.914C4.421,24.914 4.415,24.914 4.408,24.914C4.402,24.914 4.396,24.914 4.39,24.914C4.384,24.914 4.378,24.914 4.372,24.914C4.366,24.914 4.36,24.914 4.354,24.914C4.348,24.914 4.342,24.914 4.336,24.914C4.33,24.914 4.324,24.914 4.318,24.914C4.312,24.914 4.306,24.914 4.301,24.914C4.295,24.914 4.289,24.914 4.283,24.914C4.278,24.914 4.272,24.914 4.266,24.914C4.261,24.914 4.255,24.914 4.249,24.914C4.244,24.914 4.238,24.914 4.232,24.914C4.227,24.914 4.221,24.914 4.216,24.914C4.21,24.914 4.205,24.914 4.2,24.914C4.194,24.914 4.189,24.914 4.183,24.914C4.178,24.914 4.173,24.914 4.167,24.914C4.162,24.914 4.157,24.914 4.151,24.914C4.146,24.914 4.141,24.914 4.136,24.914C4.131,24.914 4.125,24.914 4.12,24.914C4.115,24.914 4.11,24.914 4.105,24.914C4.1,24.914 4.095,24.914 4.09,24.914C4.085,24.914 4.08,24.914 4.075,24.914C4.07,24.914 4.065,24.914 4.06,24.914C4.056,24.914 4.051,24.914 4.046,24.914C4.041,24.914 4.036,24.914 4.032,24.914C4.027,24.914 4.022,24.914 4.018,24.914C4.013,24.914 4.008,24.914 4.004,24.914C3.999,24.914 3.994,24.914 3.99,24.914C3.985,24.914 3.981,24.914 3.976,24.914C3.972,24.914 3.967,24.914 3.963,24.914C3.959,24.914 3.954,24.914 3.95,24.914C3.946,24.914 3.941,24.914 3.937,24.914C3.933,24.914 3.929,24.914 3.924,24.914C3.92,24.914 3.916,24.914 3.912,24.914C3.908,24.914 3.904,24.914 3.9,24.914C3.896,24.914 3.892,24.914 3.888,24.914C3.884,24.914 3.88,24.914 3.876,24.914C3.872,24.914 3.868,24.914 3.864,24.914C3.86,24.914 3.856,24.914 3.853,24.914C3.849,24.914 3.845,24.914 3.841,24.914C3.838,24.914 3.834,24.914 3.83,24.914C3.827,24.914 3.823,24.914 3.82,24.914C3.816,24.914 3.813,24.914 3.809,24.914C3.806,24.914 3.802,24.914 3.799,24.914C3.795,24.914 3.792,24.914 3.788,24.914C3.785,24.914 3.782,24.914 3.779,24.914C3.775,24.914 3.772,24.914 3.769,24.914C3.766,24.914 3.762,24.914 3.759,24.914C3.756,24.914 3.753,24.914 3.75,24.914C3.747,24.914 3.744,24.914 3.741,24.914C3.738,24.914 3.735,24.914 3.732,24.914C3.729,24.914 3.726,24.914 3.724,24.914C3.721,24.914 3.718,24.914 3.715,24.914C3.712,24.914 3.71,24.914 3.707,24.914C3.704,24.914 3.702,24.914 3.699,24.914C3.697,24.914 3.694,24.914 3.691,24.914C3.689,24.914 3.686,24.914 3.684,24.914C3.681,24.914 3.679,24.914 3.677,24.914C3.674,24.914 3.672,24.914 3.67,24.914C3.667,24.914 3.665,24.914 3.663,24.914C3.661,24.914 3.659,24.914 3.656,24.914C3.654,24.914 3.652,24.914 3.65,24.914C3.648,24.914 3.646,24.914 3.644,24.914C3.642,24.914 3.64,24.914 3.638,24.914C3.636,24.914 3.634,24.914 3.633,24.914C3.631,24.914 3.629,24.914 3.627,24.914C3.625,24.914 3.624,24.914 3.622,24.914C3.62,24.914 3.619,24.914 3.617,24.914C3.616,24.914 3.614,24.914 3.613,24.914C3.611,24.914 3.61,24.914 3.608,24.914C3.607,24.914 3.605,24.914 3.604,24.914C3.603,24.914 3.601,24.914 3.6,24.914C3.599,24.914 3.598,24.914 3.596,24.914C3.595,24.914 3.594,24.914 3.593,24.914C3.592,24.914 3.591,24.914 3.59,24.914C3.589,24.914 3.588,24.914 3.587,24.914C3.586,24.914 3.585,24.914 3.584,24.914C3.583,24.914 3.582,24.914 3.582,24.914C3.581,24.914 3.58,24.914 3.58,24.914C3.579,24.914 3.578,24.914 3.578,24.914C3.577,24.914 3.576,24.914 3.576,24.914C3.575,24.914 3.575,24.914 3.575,24.914C3.574,24.914 3.574,24.914 3.573,24.914C3.573,24.914 3.573,24.914 3.572,24.914C3.572,24.914 3.572,24.914 3.572,24.914C3.572,24.914 3.572,24.914 3.571,24.914C3.571,24.914 3.571,24.914 3.571,26.286Z" transform="rotate(0 9.286 21.714)" fill="#FFFFFF"/>
<path d="M13.857,15.771C12.837,15.771 11.768,15.164 10.896,14.052C10.029,12.945 9.514,11.522 9.514,10.286L6.771,10.286C6.771,12.205 7.536,14.211 8.737,15.743C9.934,17.271 11.722,18.514 13.857,18.514L13.857,15.771ZM9.514,10.286L9.514,9.143L6.771,9.143L6.771,10.286L9.514,10.286ZM9.514,9.143C9.514,6.745 11.459,4.8 13.857,4.8L13.857,2.057C9.944,2.057 6.771,5.23 6.771,9.143L9.514,9.143ZM13.857,4.8C16.255,4.8 18.2,6.745 18.2,9.143L20.943,9.143C20.943,5.23 17.77,2.057 13.857,2.057L13.857,4.8ZM18.2,9.143L18.2,10.286L20.943,10.286L20.943,9.143L18.2,9.143ZM18.2,10.286C18.2,11.522 17.685,12.945 16.818,14.052C15.946,15.164 14.877,15.771 13.857,15.771L13.857,18.514C15.992,18.514 17.78,17.271 18.977,15.743C20.178,14.211 20.943,12.205 20.943,10.286L18.2,10.286Z" transform="rotate(0 13.857 10.286)" fill="#FFFFFF"/>
<line x1="21.629" y1="20.571" x2="21.629" y2="27.429" stroke="#FFFFFF" stroke-width="1.371" stroke-miterlimit="10" stroke-linecap="square"/>
<line x1="19.571" y1="22.629" x2="26.428" y2="22.629" stroke="#FFFFFF" stroke-width="1.371" stroke-miterlimit="10" stroke-linecap="square"/>
</svg>
