<svg width="56" height="56" viewBox="0 0 56 56" fill="none" xmlns="http://www.w3.org/2000/svg" xmlns:xlink="http://www.w3.org/1999/xlink">
<path d="M12.05,32.386L11.283,30.112L11.281,30.113L12.05,32.386ZM8,46L5.6,46L5.6,48.4L8,48.4L8,46ZM26,27.6C20.008,27.6 14.728,28.95 11.283,30.112L12.817,34.66C15.956,33.602 20.696,32.4 26,32.4L26,27.6ZM11.281,30.113C7.862,31.269 5.6,34.484 5.6,38.064L10.4,38.064C10.4,36.512 11.378,35.147 12.819,34.659L11.281,30.113ZM5.6,38.064L5.6,46L10.4,46L10.4,38.064L5.6,38.064ZM8,46C8,48.4 8,48.4 8,48.4C8,48.4 8.001,48.4 8.001,48.4C8.001,48.4 8.002,48.4 8.002,48.4C8.002,48.4 8.003,48.4 8.004,48.4C8.004,48.4 8.005,48.4 8.006,48.4C8.006,48.4 8.007,48.4 8.008,48.4C8.009,48.4 8.01,48.4 8.011,48.4C8.012,48.4 8.013,48.4 8.014,48.4C8.016,48.4 8.017,48.4 8.018,48.4C8.02,48.4 8.021,48.4 8.022,48.4C8.024,48.4 8.026,48.4 8.027,48.4C8.029,48.4 8.031,48.4 8.032,48.4C8.034,48.4 8.036,48.4 8.038,48.4C8.04,48.4 8.042,48.4 8.044,48.4C8.046,48.4 8.048,48.4 8.05,48.4C8.052,48.4 8.055,48.4 8.057,48.4C8.059,48.4 8.062,48.4 8.064,48.4C8.067,48.4 8.069,48.4 8.072,48.4C8.075,48.4 8.077,48.4 8.08,48.4C8.083,48.4 8.086,48.4 8.089,48.4C8.092,48.4 8.095,48.4 8.098,48.4C8.101,48.4 8.104,48.4 8.107,48.4C8.11,48.4 8.114,48.4 8.117,48.4C8.12,48.4 8.124,48.4 8.127,48.4C8.131,48.4 8.134,48.4 8.138,48.4C8.141,48.4 8.145,48.4 8.149,48.4C8.153,48.4 8.156,48.4 8.16,48.4C8.164,48.4 8.168,48.4 8.172,48.4C8.176,48.4 8.18,48.4 8.184,48.4C8.189,48.4 8.193,48.4 8.197,48.4C8.201,48.4 8.206,48.4 8.21,48.4C8.215,48.4 8.219,48.4 8.224,48.4C8.228,48.4 8.233,48.4 8.238,48.4C8.242,48.4 8.247,48.4 8.252,48.4C8.257,48.4 8.262,48.4 8.267,48.4C8.271,48.4 8.276,48.4 8.282,48.4C8.287,48.4 8.292,48.4 8.297,48.4C8.302,48.4 8.308,48.4 8.313,48.4C8.318,48.4 8.324,48.4 8.329,48.4C8.335,48.4 8.34,48.4 8.346,48.4C8.351,48.4 8.357,48.4 8.363,48.4C8.368,48.4 8.374,48.4 8.38,48.4C8.386,48.4 8.392,48.4 8.398,48.4C8.404,48.4 8.41,48.4 8.416,48.4C8.422,48.4 8.428,48.4 8.435,48.4C8.441,48.4 8.447,48.4 8.453,48.4C8.46,48.4 8.466,48.4 8.473,48.4C8.479,48.4 8.486,48.4 8.492,48.4C8.499,48.4 8.506,48.4 8.512,48.4C8.519,48.4 8.526,48.4 8.533,48.4C8.54,48.4 8.547,48.4 8.554,48.4C8.561,48.4 8.568,48.4 8.575,48.4C8.582,48.4 8.589,48.4 8.596,48.4C8.603,48.4 8.611,48.4 8.618,48.4C8.625,48.4 8.633,48.4 8.64,48.4C8.648,48.4 8.655,48.4 8.663,48.4C8.67,48.4 8.678,48.4 8.686,48.4C8.693,48.4 8.701,48.4 8.709,48.4C8.717,48.4 8.725,48.4 8.733,48.4C8.741,48.4 8.748,48.4 8.757,48.4C8.765,48.4 8.773,48.4 8.781,48.4C8.789,48.4 8.797,48.4 8.806,48.4C8.814,48.4 8.822,48.4 8.831,48.4C8.839,48.4 8.847,48.4 8.856,48.4C8.864,48.4 8.873,48.4 8.882,48.4C8.89,48.4 8.899,48.4 8.908,48.4C8.916,48.4 8.925,48.4 8.934,48.4C8.943,48.4 8.952,48.4 8.961,48.4C8.97,48.4 8.979,48.4 8.988,48.4C8.997,48.4 9.006,48.4 9.015,48.4C9.024,48.4 9.034,48.4 9.043,48.4C9.052,48.4 9.062,48.4 9.071,48.4C9.08,48.4 9.09,48.4 9.099,48.4C9.109,48.4 9.118,48.4 9.128,48.4C9.138,48.4 9.147,48.4 9.157,48.4C9.167,48.4 9.177,48.4 9.186,48.4C9.196,48.4 9.206,48.4 9.216,48.4C9.226,48.4 9.236,48.4 9.246,48.4C9.256,48.4 9.266,48.4 9.276,48.4C9.287,48.4 9.297,48.4 9.307,48.4C9.317,48.4 9.328,48.4 9.338,48.4C9.348,48.4 9.359,48.4 9.369,48.4C9.38,48.4 9.39,48.4 9.401,48.4C9.411,48.4 9.422,48.4 9.433,48.4C9.443,48.4 9.454,48.4 9.465,48.4C9.476,48.4 9.486,48.4 9.497,48.4C9.508,48.4 9.519,48.4 9.53,48.4C9.541,48.4 9.552,48.4 9.563,48.4C9.574,48.4 9.585,48.4 9.597,48.4C9.608,48.4 9.619,48.4 9.63,48.4C9.642,48.4 9.653,48.4 9.664,48.4C9.676,48.4 9.687,48.4 9.699,48.4C9.71,48.4 9.722,48.4 9.733,48.4C9.745,48.4 9.756,48.4 9.768,48.4C9.78,48.4 9.791,48.4 9.803,48.4C9.815,48.4 9.827,48.4 9.839,48.4C9.85,48.4 9.862,48.4 9.874,48.4C9.886,48.4 9.898,48.4 9.91,48.4C9.922,48.4 9.934,48.4 9.947,48.4C9.959,48.4 9.971,48.4 9.983,48.4C9.995,48.4 10.008,48.4 10.02,48.4C10.032,48.4 10.045,48.4 10.057,48.4C10.069,48.4 10.082,48.4 10.094,48.4C10.107,48.4 10.119,48.4 10.132,48.4C10.145,48.4 10.157,48.4 10.17,48.4C10.183,48.4 10.195,48.4 10.208,48.4C10.221,48.4 10.234,48.4 10.247,48.4C10.26,48.4 10.272,48.4 10.285,48.4C10.298,48.4 10.311,48.4 10.324,48.4C10.337,48.4 10.351,48.4 10.364,48.4C10.377,48.4 10.39,48.4 10.403,48.4C10.416,48.4 10.43,48.4 10.443,48.4C10.456,48.4 10.47,48.4 10.483,48.4C10.496,48.4 10.51,48.4 10.523,48.4C10.537,48.4 10.55,48.4 10.564,48.4C10.577,48.4 10.591,48.4 10.605,48.4C10.618,48.4 10.632,48.4 10.646,48.4C10.659,48.4 10.673,48.4 10.687,48.4C10.701,48.4 10.715,48.4 10.729,48.4C10.742,48.4 10.756,48.4 10.77,48.4C10.784,48.4 10.798,48.4 10.812,48.4C10.826,48.4 10.84,48.4 10.855,48.4C10.869,48.4 10.883,48.4 10.897,48.4C10.911,48.4 10.926,48.4 10.94,48.4C10.954,48.4 10.968,48.4 10.983,48.4C10.997,48.4 11.012,48.4 11.026,48.4C11.04,48.4 11.055,48.4 11.07,48.4C11.084,48.4 11.099,48.4 11.113,48.4C11.128,48.4 11.142,48.4 11.157,48.4C11.172,48.4 11.186,48.4 11.201,48.4C11.216,48.4 11.231,48.4 11.246,48.4C11.26,48.4 11.275,48.4 11.29,48.4C11.305,48.4 11.32,48.4 11.335,48.4C11.35,48.4 11.365,48.4 11.38,48.4C11.395,48.4 11.41,48.4 11.425,48.4C11.44,48.4 11.455,48.4 11.471,48.4C11.486,48.4 11.501,48.4 11.516,48.4C11.532,48.4 11.547,48.4 11.562,48.4C11.578,48.4 11.593,48.4 11.608,48.4C11.624,48.4 11.639,48.4 11.655,48.4C11.67,48.4 11.686,48.4 11.701,48.4C11.717,48.4 11.732,48.4 11.748,48.4C11.763,48.4 11.779,48.4 11.795,48.4C11.81,48.4 11.826,48.4 11.842,48.4C11.858,48.4 11.873,48.4 11.889,48.4C11.905,48.4 11.921,48.4 11.937,48.4C11.953,48.4 11.968,48.4 11.984,48.4C12,48.4 12.016,48.4 12.032,48.4C12.048,48.4 12.064,48.4 12.08,48.4C12.096,48.4 12.113,48.4 12.129,48.4C12.145,48.4 12.161,48.4 12.177,48.4C12.193,48.4 12.21,48.4 12.226,48.4C12.242,48.4 12.258,48.4 12.275,48.4C12.291,48.4 12.307,48.4 12.324,48.4C12.34,48.4 12.357,48.4 12.373,48.4C12.389,48.4 12.406,48.4 12.422,48.4C12.439,48.4 12.455,48.4 12.472,48.4C12.489,48.4 12.505,48.4 12.522,48.4C12.538,48.4 12.555,48.4 12.572,48.4C12.588,48.4 12.605,48.4 12.622,48.4C12.638,48.4 12.655,48.4 12.672,48.4C12.689,48.4 12.706,48.4 12.722,48.4C12.739,48.4 12.756,48.4 12.773,48.4C12.79,48.4 12.807,48.4 12.824,48.4C12.841,48.4 12.858,48.4 12.875,48.4C12.892,48.4 12.909,48.4 12.926,48.4C12.943,48.4 12.96,48.4 12.977,48.4C12.994,48.4 13.011,48.4 13.029,48.4C13.046,48.4 13.063,48.4 13.08,48.4C13.097,48.4 13.115,48.4 13.132,48.4C13.149,48.4 13.167,48.4 13.184,48.4C13.201,48.4 13.219,48.4 13.236,48.4C13.253,48.4 13.271,48.4 13.288,48.4C13.306,48.4 13.323,48.4 13.34,48.4C13.358,48.4 13.375,48.4 13.393,48.4C13.41,48.4 13.428,48.4 13.446,48.4C13.463,48.4 13.481,48.4 13.498,48.4C13.516,48.4 13.534,48.4 13.551,48.4C13.569,48.4 13.587,48.4 13.604,48.4C13.622,48.4 13.64,48.4 13.657,48.4C13.675,48.4 13.693,48.4 13.711,48.4C13.729,48.4 13.746,48.4 13.764,48.4C13.782,48.4 13.8,48.4 13.818,48.4C13.836,48.4 13.854,48.4 13.872,48.4C13.89,48.4 13.908,48.4 13.925,48.4C13.943,48.4 13.961,48.4 13.979,48.4C13.997,48.4 14.016,48.4 14.034,48.4C14.052,48.4 14.07,48.4 14.088,48.4C14.106,48.4 14.124,48.4 14.142,48.4C14.16,48.4 14.178,48.4 14.197,48.4C14.215,48.4 14.233,48.4 14.251,48.4C14.269,48.4 14.288,48.4 14.306,48.4C14.324,48.4 14.343,48.4 14.361,48.4C14.379,48.4 14.397,48.4 14.416,48.4C14.434,48.4 14.452,48.4 14.471,48.4C14.489,48.4 14.508,48.4 14.526,48.4C14.544,48.4 14.563,48.4 14.581,48.4C14.6,48.4 14.618,48.4 14.637,48.4C14.655,48.4 14.674,48.4 14.692,48.4C14.711,48.4 14.729,48.4 14.748,48.4C14.766,48.4 14.785,48.4 14.803,48.4C14.822,48.4 14.841,48.4 14.859,48.4C14.878,48.4 14.896,48.4 14.915,48.4C14.934,48.4 14.952,48.4 14.971,48.4C14.99,48.4 15.008,48.4 15.027,48.4C15.046,48.4 15.064,48.4 15.083,48.4C15.102,48.4 15.121,48.4 15.139,48.4C15.158,48.4 15.177,48.4 15.196,48.4C15.215,48.4 15.233,48.4 15.252,48.4C15.271,48.4 15.29,48.4 15.309,48.4C15.328,48.4 15.346,48.4 15.365,48.4C15.384,48.4 15.403,48.4 15.422,48.4C15.441,48.4 15.46,48.4 15.479,48.4C15.498,48.4 15.517,48.4 15.536,48.4C15.554,48.4 15.573,48.4 15.592,48.4C15.611,48.4 15.63,48.4 15.649,48.4C15.668,48.4 15.687,48.4 15.706,48.4C15.725,48.4 15.745,48.4 15.764,48.4C15.783,48.4 15.802,48.4 15.821,48.4C15.84,48.4 15.859,48.4 15.878,48.4C15.897,48.4 15.916,48.4 15.935,48.4C15.954,48.4 15.974,48.4 15.993,48.4C16.012,48.4 16.031,48.4 16.05,48.4C16.069,48.4 16.088,48.4 16.108,48.4C16.127,48.4 16.146,48.4 16.165,48.4C16.184,48.4 16.204,48.4 16.223,48.4C16.242,48.4 16.261,48.4 16.28,48.4C16.3,48.4 16.319,48.4 16.338,48.4C16.357,48.4 16.377,48.4 16.396,48.4C16.415,48.4 16.435,48.4 16.454,48.4C16.473,48.4 16.492,48.4 16.512,48.4C16.531,48.4 16.55,48.4 16.57,48.4C16.589,48.4 16.608,48.4 16.628,48.4C16.647,48.4 16.666,48.4 16.686,48.4C16.705,48.4 16.724,48.4 16.744,48.4C16.763,48.4 16.782,48.4 16.802,48.4C16.821,48.4 16.84,48.4 16.86,48.4C16.879,48.4 16.899,48.4 16.918,48.4C16.937,48.4 16.957,48.4 16.976,48.4C16.996,48.4 17.015,48.4 17.034,48.4C17.054,48.4 17.073,48.4 17.093,48.4C17.112,48.4 17.131,48.4 17.151,48.4C17.17,48.4 17.19,48.4 17.209,48.4C17.229,48.4 17.248,48.4 17.267,48.4C17.287,48.4 17.306,48.4 17.326,48.4C17.345,48.4 17.365,48.4 17.384,48.4C17.404,48.4 17.423,48.4 17.443,48.4C17.462,48.4 17.481,48.4 17.501,48.4C17.52,48.4 17.54,48.4 17.559,48.4C17.579,48.4 17.598,48.4 17.618,48.4C17.637,48.4 17.657,48.4 17.676,48.4C17.696,48.4 17.715,48.4 17.735,48.4C17.754,48.4 17.774,48.4 17.793,48.4C17.813,48.4 17.832,48.4 17.852,48.4C17.871,48.4 17.891,48.4 17.91,48.4C17.93,48.4 17.949,48.4 17.969,48.4C17.988,48.4 18.007,48.4 18.027,48.4C18.046,48.4 18.066,48.4 18.085,48.4C18.105,48.4 18.124,48.4 18.144,48.4C18.163,48.4 18.183,48.4 18.202,48.4C18.222,48.4 18.241,48.4 18.261,48.4C18.28,48.4 18.3,48.4 18.319,48.4C18.339,48.4 18.358,48.4 18.378,48.4C18.397,48.4 18.417,48.4 18.436,48.4C18.456,48.4 18.475,48.4 18.495,48.4C18.514,48.4 18.533,48.4 18.553,48.4C18.572,48.4 18.592,48.4 18.611,48.4C18.631,48.4 18.65,48.4 18.67,48.4C18.689,48.4 18.709,48.4 18.728,48.4C18.747,48.4 18.767,48.4 18.786,48.4C18.806,48.4 18.825,48.4 18.845,48.4C18.864,48.4 18.884,48.4 18.903,48.4C18.922,48.4 18.942,48.4 18.961,48.4C18.981,48.4 19,48.4 19.019,48.4C19.039,48.4 19.058,48.4 19.078,48.4C19.097,48.4 19.116,48.4 19.136,48.4C19.155,48.4 19.174,48.4 19.194,48.4C19.213,48.4 19.233,48.4 19.252,48.4C19.271,48.4 19.291,48.4 19.31,48.4C19.329,48.4 19.349,48.4 19.368,48.4C19.387,48.4 19.407,48.4 19.426,48.4C19.445,48.4 19.465,48.4 19.484,48.4C19.503,48.4 19.522,48.4 19.542,48.4C19.561,48.4 19.58,48.4 19.6,48.4C19.619,48.4 19.638,48.4 19.657,48.4C19.677,48.4 19.696,48.4 19.715,48.4C19.734,48.4 19.754,48.4 19.773,48.4C19.792,48.4 19.811,48.4 19.83,48.4C19.85,48.4 19.869,48.4 19.888,48.4C19.907,48.4 19.926,48.4 19.945,48.4C19.965,48.4 19.984,48.4 20.003,48.4C20.022,48.4 20.041,48.4 20.06,48.4C20.079,48.4 20.098,48.4 20.118,48.4C20.137,48.4 20.156,48.4 20.175,48.4C20.194,48.4 20.213,48.4 20.232,48.4C20.251,48.4 20.27,48.4 20.289,48.4C20.308,48.4 20.327,48.4 20.346,48.4C20.365,48.4 20.384,48.4 20.403,48.4C20.422,48.4 20.441,48.4 20.46,48.4C20.479,48.4 20.498,48.4 20.517,48.4C20.536,48.4 20.555,48.4 20.574,48.4C20.593,48.4 20.611,48.4 20.63,48.4C20.649,48.4 20.668,48.4 20.687,48.4C20.706,48.4 20.725,48.4 20.743,48.4C20.762,48.4 20.781,48.4 20.8,48.4C20.819,48.4 20.837,48.4 20.856,48.4C20.875,48.4 20.894,48.4 20.912,48.4C20.931,48.4 20.95,48.4 20.969,48.4C20.987,48.4 21.006,48.4 21.025,48.4C21.043,48.4 21.062,48.4 21.081,48.4C21.099,48.4 21.118,48.4 21.137,48.4C21.155,48.4 21.174,48.4 21.192,48.4C21.211,48.4 21.229,48.4 21.248,48.4C21.267,48.4 21.285,48.4 21.304,48.4C21.322,48.4 21.341,48.4 21.359,48.4C21.378,48.4 21.396,48.4 21.415,48.4C21.433,48.4 21.451,48.4 21.47,48.4C21.488,48.4 21.507,48.4 21.525,48.4C21.543,48.4 21.562,48.4 21.58,48.4C21.598,48.4 21.617,48.4 21.635,48.4C21.653,48.4 21.672,48.4 21.69,48.4C21.708,48.4 21.726,48.4 21.745,48.4C21.763,48.4 21.781,48.4 21.799,48.4C21.817,48.4 21.835,48.4 21.854,48.4C21.872,48.4 21.89,48.4 21.908,48.4C21.926,48.4 21.944,48.4 21.962,48.4C21.98,48.4 21.998,48.4 22.016,48.4C22.034,48.4 22.052,48.4 22.07,48.4C22.088,48.4 22.106,48.4 22.124,48.4C22.142,48.4 22.16,48.4 22.178,48.4C22.196,48.4 22.214,48.4 22.232,48.4C22.249,48.4 22.267,48.4 22.285,48.4C22.303,48.4 22.321,48.4 22.338,48.4C22.356,48.4 22.374,48.4 22.392,48.4C22.409,48.4 22.427,48.4 22.445,48.4C22.462,48.4 22.48,48.4 22.498,48.4C22.515,48.4 22.533,48.4 22.55,48.4C22.568,48.4 22.586,48.4 22.603,48.4C22.621,48.4 22.638,48.4 22.656,48.4C22.673,48.4 22.69,48.4 22.708,48.4C22.725,48.4 22.743,48.4 22.76,48.4C22.777,48.4 22.795,48.4 22.812,48.4C22.829,48.4 22.847,48.4 22.864,48.4C22.881,48.4 22.899,48.4 22.916,48.4C22.933,48.4 22.95,48.4 22.967,48.4C22.985,48.4 23.002,48.4 23.019,48.4C23.036,48.4 23.053,48.4 23.07,48.4C23.087,48.4 23.104,48.4 23.121,48.4C23.138,48.4 23.155,48.4 23.172,48.4C23.189,48.4 23.206,48.4 23.223,48.4C23.24,48.4 23.257,48.4 23.274,48.4C23.29,48.4 23.307,48.4 23.324,48.4C23.341,48.4 23.358,48.4 23.374,48.4C23.391,48.4 23.408,48.4 23.425,48.4C23.441,48.4 23.458,48.4 23.474,48.4C23.491,48.4 23.508,48.4 23.524,48.4C23.541,48.4 23.557,48.4 23.574,48.4C23.59,48.4 23.607,48.4 23.623,48.4C23.64,48.4 23.656,48.4 23.672,48.4C23.689,48.4 23.705,48.4 23.722,48.4C23.738,48.4 23.754,48.4 23.77,48.4C23.787,48.4 23.803,48.4 23.819,48.4C23.835,48.4 23.851,48.4 23.868,48.4C23.884,48.4 23.9,48.4 23.916,48.4C23.932,48.4 23.948,48.4 23.964,48.4C23.98,48.4 23.996,48.4 24.012,48.4C24.028,48.4 24.044,48.4 24.06,48.4C24.076,48.4 24.091,48.4 24.107,48.4C24.123,48.4 24.139,48.4 24.155,48.4C24.17,48.4 24.186,48.4 24.202,48.4C24.217,48.4 24.233,48.4 24.249,48.4C24.264,48.4 24.28,48.4 24.295,48.4C24.311,48.4 24.326,48.4 24.342,48.4C24.357,48.4 24.373,48.4 24.388,48.4C24.404,48.4 24.419,48.4 24.434,48.4C24.45,48.4 24.465,48.4 24.48,48.4C24.495,48.4 24.511,48.4 24.526,48.4C24.541,48.4 24.556,48.4 24.571,48.4C24.586,48.4 24.602,48.4 24.617,48.4C24.632,48.4 24.647,48.4 24.662,48.4C24.677,48.4 24.692,48.4 24.706,48.4C24.721,48.4 24.736,48.4 24.751,48.4C24.766,48.4 24.781,48.4 24.795,48.4C24.81,48.4 24.825,48.4 24.84,48.4C24.854,48.4 24.869,48.4 24.883,48.4C24.898,48.4 24.913,48.4 24.927,48.4C24.942,48.4 24.956,48.4 24.971,48.4C24.985,48.4 24.999,48.4 25.014,48.4C25.028,48.4 25.043,48.4 25.057,48.4C25.071,48.4 25.085,48.4 25.1,48.4C25.114,48.4 25.128,48.4 25.142,48.4C25.156,48.4 25.17,48.4 25.184,48.4C25.199,48.4 25.213,48.4 25.227,48.4C25.24,48.4 25.254,48.4 25.268,48.4C25.282,48.4 25.296,48.4 25.31,48.4C25.324,48.4 25.337,48.4 25.351,48.4C25.365,48.4 25.379,48.4 25.392,48.4C25.406,48.4 25.42,48.4 25.433,48.4C25.447,48.4 25.46,48.4 25.474,48.4C25.487,48.4 25.501,48.4 25.514,48.4C25.527,48.4 25.541,48.4 25.554,48.4C25.567,48.4 25.581,48.4 25.594,48.4C25.607,48.4 25.62,48.4 25.633,48.4C25.647,48.4 25.66,48.4 25.673,48.4C25.686,48.4 25.699,48.4 25.712,48.4C25.725,48.4 25.738,48.4 25.75,48.4C25.763,48.4 25.776,48.4 25.789,48.4C25.802,48.4 25.814,48.4 25.827,48.4C25.84,48.4 25.853,48.4 25.865,48.4C25.878,48.4 25.89,48.4 25.903,48.4C25.915,48.4 25.928,48.4 25.94,48.4C25.953,48.4 25.965,48.4 25.977,48.4C25.99,48.4 26.002,48.4 26.014,48.4C26.026,48.4 26.039,48.4 26.051,48.4C26.063,48.4 26.075,48.4 26.087,48.4C26.099,48.4 26.111,48.4 26.123,48.4C26.135,48.4 26.147,48.4 26.159,48.4C26.171,48.4 26.183,48.4 26.194,48.4C26.206,48.4 26.218,48.4 26.229,48.4C26.241,48.4 26.253,48.4 26.264,48.4C26.276,48.4 26.287,48.4 26.299,48.4C26.31,48.4 26.322,48.4 26.333,48.4C26.345,48.4 26.356,48.4 26.367,48.4C26.379,48.4 26.39,48.4 26.401,48.4C26.412,48.4 26.423,48.4 26.434,48.4C26.445,48.4 26.456,48.4 26.467,48.4C26.478,48.4 26.489,48.4 26.5,48.4C26.511,48.4 26.522,48.4 26.533,48.4C26.544,48.4 26.554,48.4 26.565,48.4C26.576,48.4 26.586,48.4 26.597,48.4C26.607,48.4 26.618,48.4 26.628,48.4C26.639,48.4 26.649,48.4 26.66,48.4C26.67,48.4 26.68,48.4 26.691,48.4C26.701,48.4 26.711,48.4 26.721,48.4C26.731,48.4 26.742,48.4 26.752,48.4C26.762,48.4 26.772,48.4 26.782,48.4C26.792,48.4 26.802,48.4 26.811,48.4C26.821,48.4 26.831,48.4 26.841,48.4C26.851,48.4 26.86,48.4 26.87,48.4C26.879,48.4 26.889,48.4 26.899,48.4C26.908,48.4 26.918,48.4 26.927,48.4C26.936,48.4 26.946,48.4 26.955,48.4C26.964,48.4 26.974,48.4 26.983,48.4C26.992,48.4 27.001,48.4 27.01,48.4C27.019,48.4 27.028,48.4 27.037,48.4C27.046,48.4 27.055,48.4 27.064,48.4C27.073,48.4 27.082,48.4 27.09,48.4C27.099,48.4 27.108,48.4 27.117,48.4C27.125,48.4 27.134,48.4 27.142,48.4C27.151,48.4 27.159,48.4 27.168,48.4C27.176,48.4 27.184,48.4 27.193,48.4C27.201,48.4 27.209,48.4 27.217,48.4C27.226,48.4 27.234,48.4 27.242,48.4C27.25,48.4 27.258,48.4 27.266,48.4C27.274,48.4 27.282,48.4 27.289,48.4C27.297,48.4 27.305,48.4 27.313,48.4C27.32,48.4 27.328,48.4 27.336,48.4C27.343,48.4 27.351,48.4 27.358,48.4C27.366,48.4 27.373,48.4 27.38,48.4C27.388,48.4 27.395,48.4 27.402,48.4C27.41,48.4 27.417,48.4 27.424,48.4C27.431,48.4 27.438,48.4 27.445,48.4C27.452,48.4 27.459,48.4 27.466,48.4C27.473,48.4 27.479,48.4 27.486,48.4C27.493,48.4 27.5,48.4 27.506,48.4C27.513,48.4 27.519,48.4 27.526,48.4C27.532,48.4 27.539,48.4 27.545,48.4C27.552,48.4 27.558,48.4 27.564,48.4C27.57,48.4 27.577,48.4 27.583,48.4C27.589,48.4 27.595,48.4 27.601,48.4C27.607,48.4 27.613,48.4 27.619,48.4C27.625,48.4 27.63,48.4 27.636,48.4C27.642,48.4 27.648,48.4 27.653,48.4C27.659,48.4 27.664,48.4 27.67,48.4C27.675,48.4 27.681,48.4 27.686,48.4C27.691,48.4 27.697,48.4 27.702,48.4C27.707,48.4 27.712,48.4 27.717,48.4C27.723,48.4 27.728,48.4 27.733,48.4C27.737,48.4 27.742,48.4 27.747,48.4C27.752,48.4 27.757,48.4 27.762,48.4C27.766,48.4 27.771,48.4 27.775,48.4C27.78,48.4 27.785,48.4 27.789,48.4C27.793,48.4 27.798,48.4 27.802,48.4C27.806,48.4 27.811,48.4 27.815,48.4C27.819,48.4 27.823,48.4 27.827,48.4C27.831,48.4 27.835,48.4 27.839,48.4C27.843,48.4 27.847,48.4 27.85,48.4C27.854,48.4 27.858,48.4 27.862,48.4C27.865,48.4 27.869,48.4 27.872,48.4C27.876,48.4 27.879,48.4 27.882,48.4C27.886,48.4 27.889,48.4 27.892,48.4C27.896,48.4 27.899,48.4 27.902,48.4C27.905,48.4 27.908,48.4 27.911,48.4C27.914,48.4 27.917,48.4 27.919,48.4C27.922,48.4 27.925,48.4 27.927,48.4C27.93,48.4 27.933,48.4 27.935,48.4C27.938,48.4 27.94,48.4 27.943,48.4C27.945,48.4 27.947,48.4 27.949,48.4C27.952,48.4 27.954,48.4 27.956,48.4C27.958,48.4 27.96,48.4 27.962,48.4C27.964,48.4 27.966,48.4 27.968,48.4C27.969,48.4 27.971,48.4 27.973,48.4C27.974,48.4 27.976,48.4 27.977,48.4C27.979,48.4 27.98,48.4 27.982,48.4C27.983,48.4 27.984,48.4 27.986,48.4C27.987,48.4 27.988,48.4 27.989,48.4C27.99,48.4 27.991,48.4 27.992,48.4C27.993,48.4 27.994,48.4 27.994,48.4C27.995,48.4 27.996,48.4 27.996,48.4C27.997,48.4 27.998,48.4 27.998,48.4C27.999,48.4 27.999,48.4 27.999,48.4C28,48.4 28,48.4 28,48.4L28,43.6C28,43.6 28,43.6 27.999,43.6C27.999,43.6 27.999,43.6 27.998,43.6C27.998,43.6 27.997,43.6 27.996,43.6C27.996,43.6 27.995,43.6 27.994,43.6C27.994,43.6 27.993,43.6 27.992,43.6C27.991,43.6 27.99,43.6 27.989,43.6C27.988,43.6 27.987,43.6 27.986,43.6C27.984,43.6 27.983,43.6 27.982,43.6C27.98,43.6 27.979,43.6 27.977,43.6C27.976,43.6 27.974,43.6 27.973,43.6C27.971,43.6 27.969,43.6 27.968,43.6C27.966,43.6 27.964,43.6 27.962,43.6C27.96,43.6 27.958,43.6 27.956,43.6C27.954,43.6 27.952,43.6 27.949,43.6C27.947,43.6 27.945,43.6 27.943,43.6C27.94,43.6 27.938,43.6 27.935,43.6C27.933,43.6 27.93,43.6 27.927,43.6C27.925,43.6 27.922,43.6 27.919,43.6C27.917,43.6 27.914,43.6 27.911,43.6C27.908,43.6 27.905,43.6 27.902,43.6C27.899,43.6 27.896,43.6 27.892,43.6C27.889,43.6 27.886,43.6 27.882,43.6C27.879,43.6 27.876,43.6 27.872,43.6C27.869,43.6 27.865,43.6 27.862,43.6C27.858,43.6 27.854,43.6 27.85,43.6C27.847,43.6 27.843,43.6 27.839,43.6C27.835,43.6 27.831,43.6 27.827,43.6C27.823,43.6 27.819,43.6 27.815,43.6C27.811,43.6 27.806,43.6 27.802,43.6C27.798,43.6 27.793,43.6 27.789,43.6C27.785,43.6 27.78,43.6 27.775,43.6C27.771,43.6 27.766,43.6 27.762,43.6C27.757,43.6 27.752,43.6 27.747,43.6C27.742,43.6 27.737,43.6 27.733,43.6C27.728,43.6 27.723,43.6 27.717,43.6C27.712,43.6 27.707,43.6 27.702,43.6C27.697,43.6 27.691,43.6 27.686,43.6C27.681,43.6 27.675,43.6 27.67,43.6C27.664,43.6 27.659,43.6 27.653,43.6C27.648,43.6 27.642,43.6 27.636,43.6C27.63,43.6 27.625,43.6 27.619,43.6C27.613,43.6 27.607,43.6 27.601,43.6C27.595,43.6 27.589,43.6 27.583,43.6C27.577,43.6 27.57,43.6 27.564,43.6C27.558,43.6 27.552,43.6 27.545,43.6C27.539,43.6 27.532,43.6 27.526,43.6C27.519,43.6 27.513,43.6 27.506,43.6C27.5,43.6 27.493,43.6 27.486,43.6C27.479,43.6 27.473,43.6 27.466,43.6C27.459,43.6 27.452,43.6 27.445,43.6C27.438,43.6 27.431,43.6 27.424,43.6C27.417,43.6 27.41,43.6 27.402,43.6C27.395,43.6 27.388,43.6 27.38,43.6C27.373,43.6 27.366,43.6 27.358,43.6C27.351,43.6 27.343,43.6 27.336,43.6C27.328,43.6 27.32,43.6 27.313,43.6C27.305,43.6 27.297,43.6 27.289,43.6C27.282,43.6 27.274,43.6 27.266,43.6C27.258,43.6 27.25,43.6 27.242,43.6C27.234,43.6 27.226,43.6 27.217,43.6C27.209,43.6 27.201,43.6 27.193,43.6C27.184,43.6 27.176,43.6 27.168,43.6C27.159,43.6 27.151,43.6 27.142,43.6C27.134,43.6 27.125,43.6 27.117,43.6C27.108,43.6 27.099,43.6 27.09,43.6C27.082,43.6 27.073,43.6 27.064,43.6C27.055,43.6 27.046,43.6 27.037,43.6C27.028,43.6 27.019,43.6 27.01,43.6C27.001,43.6 26.992,43.6 26.983,43.6C26.974,43.6 26.964,43.6 26.955,43.6C26.946,43.6 26.936,43.6 26.927,43.6C26.918,43.6 26.908,43.6 26.899,43.6C26.889,43.6 26.879,43.6 26.87,43.6C26.86,43.6 26.851,43.6 26.841,43.6C26.831,43.6 26.821,43.6 26.811,43.6C26.802,43.6 26.792,43.6 26.782,43.6C26.772,43.6 26.762,43.6 26.752,43.6C26.742,43.6 26.731,43.6 26.721,43.6C26.711,43.6 26.701,43.6 26.691,43.6C26.68,43.6 26.67,43.6 26.66,43.6C26.649,43.6 26.639,43.6 26.628,43.6C26.618,43.6 26.607,43.6 26.597,43.6C26.586,43.6 26.576,43.6 26.565,43.6C26.554,43.6 26.544,43.6 26.533,43.6C26.522,43.6 26.511,43.6 26.5,43.6C26.489,43.6 26.478,43.6 26.467,43.6C26.456,43.6 26.445,43.6 26.434,43.6C26.423,43.6 26.412,43.6 26.401,43.6C26.39,43.6 26.379,43.6 26.367,43.6C26.356,43.6 26.345,43.6 26.333,43.6C26.322,43.6 26.31,43.6 26.299,43.6C26.287,43.6 26.276,43.6 26.264,43.6C26.253,43.6 26.241,43.6 26.229,43.6C26.218,43.6 26.206,43.6 26.194,43.6C26.183,43.6 26.171,43.6 26.159,43.6C26.147,43.6 26.135,43.6 26.123,43.6C26.111,43.6 26.099,43.6 26.087,43.6C26.075,43.6 26.063,43.6 26.051,43.6C26.039,43.6 26.026,43.6 26.014,43.6C26.002,43.6 25.99,43.6 25.977,43.6C25.965,43.6 25.953,43.6 25.94,43.6C25.928,43.6 25.915,43.6 25.903,43.6C25.89,43.6 25.878,43.6 25.865,43.6C25.853,43.6 25.84,43.6 25.827,43.6C25.814,43.6 25.802,43.6 25.789,43.6C25.776,43.6 25.763,43.6 25.75,43.6C25.738,43.6 25.725,43.6 25.712,43.6C25.699,43.6 25.686,43.6 25.673,43.6C25.66,43.6 25.647,43.6 25.633,43.6C25.62,43.6 25.607,43.6 25.594,43.6C25.581,43.6 25.567,43.6 25.554,43.6C25.541,43.6 25.527,43.6 25.514,43.6C25.501,43.6 25.487,43.6 25.474,43.6C25.46,43.6 25.447,43.6 25.433,43.6C25.42,43.6 25.406,43.6 25.392,43.6C25.379,43.6 25.365,43.6 25.351,43.6C25.337,43.6 25.324,43.6 25.31,43.6C25.296,43.6 25.282,43.6 25.268,43.6C25.254,43.6 25.24,43.6 25.227,43.6C25.213,43.6 25.199,43.6 25.184,43.6C25.17,43.6 25.156,43.6 25.142,43.6C25.128,43.6 25.114,43.6 25.1,43.6C25.085,43.6 25.071,43.6 25.057,43.6C25.043,43.6 25.028,43.6 25.014,43.6C24.999,43.6 24.985,43.6 24.971,43.6C24.956,43.6 24.942,43.6 24.927,43.6C24.913,43.6 24.898,43.6 24.883,43.6C24.869,43.6 24.854,43.6 24.84,43.6C24.825,43.6 24.81,43.6 24.795,43.6C24.781,43.6 24.766,43.6 24.751,43.6C24.736,43.6 24.721,43.6 24.706,43.6C24.692,43.6 24.677,43.6 24.662,43.6C24.647,43.6 24.632,43.6 24.617,43.6C24.602,43.6 24.586,43.6 24.571,43.6C24.556,43.6 24.541,43.6 24.526,43.6C24.511,43.6 24.495,43.6 24.48,43.6C24.465,43.6 24.45,43.6 24.434,43.6C24.419,43.6 24.404,43.6 24.388,43.6C24.373,43.6 24.357,43.6 24.342,43.6C24.326,43.6 24.311,43.6 24.295,43.6C24.28,43.6 24.264,43.6 24.249,43.6C24.233,43.6 24.217,43.6 24.202,43.6C24.186,43.6 24.17,43.6 24.155,43.6C24.139,43.6 24.123,43.6 24.107,43.6C24.091,43.6 24.076,43.6 24.06,43.6C24.044,43.6 24.028,43.6 24.012,43.6C23.996,43.6 23.98,43.6 23.964,43.6C23.948,43.6 23.932,43.6 23.916,43.6C23.9,43.6 23.884,43.6 23.868,43.6C23.851,43.6 23.835,43.6 23.819,43.6C23.803,43.6 23.787,43.6 23.77,43.6C23.754,43.6 23.738,43.6 23.722,43.6C23.705,43.6 23.689,43.6 23.672,43.6C23.656,43.6 23.64,43.6 23.623,43.6C23.607,43.6 23.59,43.6 23.574,43.6C23.557,43.6 23.541,43.6 23.524,43.6C23.508,43.6 23.491,43.6 23.474,43.6C23.458,43.6 23.441,43.6 23.425,43.6C23.408,43.6 23.391,43.6 23.374,43.6C23.358,43.6 23.341,43.6 23.324,43.6C23.307,43.6 23.29,43.6 23.274,43.6C23.257,43.6 23.24,43.6 23.223,43.6C23.206,43.6 23.189,43.6 23.172,43.6C23.155,43.6 23.138,43.6 23.121,43.6C23.104,43.6 23.087,43.6 23.07,43.6C23.053,43.6 23.036,43.6 23.019,43.6C23.002,43.6 22.985,43.6 22.967,43.6C22.95,43.6 22.933,43.6 22.916,43.6C22.899,43.6 22.881,43.6 22.864,43.6C22.847,43.6 22.829,43.6 22.812,43.6C22.795,43.6 22.777,43.6 22.76,43.6C22.743,43.6 22.725,43.6 22.708,43.6C22.69,43.6 22.673,43.6 22.656,43.6C22.638,43.6 22.621,43.6 22.603,43.6C22.586,43.6 22.568,43.6 22.55,43.6C22.533,43.6 22.515,43.6 22.498,43.6C22.48,43.6 22.462,43.6 22.445,43.6C22.427,43.6 22.409,43.6 22.392,43.6C22.374,43.6 22.356,43.6 22.338,43.6C22.321,43.6 22.303,43.6 22.285,43.6C22.267,43.6 22.249,43.6 22.232,43.6C22.214,43.6 22.196,43.6 22.178,43.6C22.16,43.6 22.142,43.6 22.124,43.6C22.106,43.6 22.088,43.6 22.07,43.6C22.052,43.6 22.034,43.6 22.016,43.6C21.998,43.6 21.98,43.6 21.962,43.6C21.944,43.6 21.926,43.6 21.908,43.6C21.89,43.6 21.872,43.6 21.854,43.6C21.835,43.6 21.817,43.6 21.799,43.6C21.781,43.6 21.763,43.6 21.745,43.6C21.726,43.6 21.708,43.6 21.69,43.6C21.672,43.6 21.653,43.6 21.635,43.6C21.617,43.6 21.598,43.6 21.58,43.6C21.562,43.6 21.543,43.6 21.525,43.6C21.507,43.6 21.488,43.6 21.47,43.6C21.451,43.6 21.433,43.6 21.415,43.6C21.396,43.6 21.378,43.6 21.359,43.6C21.341,43.6 21.322,43.6 21.304,43.6C21.285,43.6 21.267,43.6 21.248,43.6C21.229,43.6 21.211,43.6 21.192,43.6C21.174,43.6 21.155,43.6 21.137,43.6C21.118,43.6 21.099,43.6 21.081,43.6C21.062,43.6 21.043,43.6 21.025,43.6C21.006,43.6 20.987,43.6 20.969,43.6C20.95,43.6 20.931,43.6 20.912,43.6C20.894,43.6 20.875,43.6 20.856,43.6C20.837,43.6 20.819,43.6 20.8,43.6C20.781,43.6 20.762,43.6 20.743,43.6C20.725,43.6 20.706,43.6 20.687,43.6C20.668,43.6 20.649,43.6 20.63,43.6C20.611,43.6 20.593,43.6 20.574,43.6C20.555,43.6 20.536,43.6 20.517,43.6C20.498,43.6 20.479,43.6 20.46,43.6C20.441,43.6 20.422,43.6 20.403,43.6C20.384,43.6 20.365,43.6 20.346,43.6C20.327,43.6 20.308,43.6 20.289,43.6C20.27,43.6 20.251,43.6 20.232,43.6C20.213,43.6 20.194,43.6 20.175,43.6C20.156,43.6 20.137,43.6 20.118,43.6C20.098,43.6 20.079,43.6 20.06,43.6C20.041,43.6 20.022,43.6 20.003,43.6C19.984,43.6 19.965,43.6 19.945,43.6C19.926,43.6 19.907,43.6 19.888,43.6C19.869,43.6 19.85,43.6 19.83,43.6C19.811,43.6 19.792,43.6 19.773,43.6C19.754,43.6 19.734,43.6 19.715,43.6C19.696,43.6 19.677,43.6 19.657,43.6C19.638,43.6 19.619,43.6 19.6,43.6C19.58,43.6 19.561,43.6 19.542,43.6C19.522,43.6 19.503,43.6 19.484,43.6C19.465,43.6 19.445,43.6 19.426,43.6C19.407,43.6 19.387,43.6 19.368,43.6C19.349,43.6 19.329,43.6 19.31,43.6C19.291,43.6 19.271,43.6 19.252,43.6C19.233,43.6 19.213,43.6 19.194,43.6C19.174,43.6 19.155,43.6 19.136,43.6C19.116,43.6 19.097,43.6 19.078,43.6C19.058,43.6 19.039,43.6 19.019,43.6C19,43.6 18.981,43.6 18.961,43.6C18.942,43.6 18.922,43.6 18.903,43.6C18.884,43.6 18.864,43.6 18.845,43.6C18.825,43.6 18.806,43.6 18.786,43.6C18.767,43.6 18.747,43.6 18.728,43.6C18.709,43.6 18.689,43.6 18.67,43.6C18.65,43.6 18.631,43.6 18.611,43.6C18.592,43.6 18.572,43.6 18.553,43.6C18.533,43.6 18.514,43.6 18.495,43.6C18.475,43.6 18.456,43.6 18.436,43.6C18.417,43.6 18.397,43.6 18.378,43.6C18.358,43.6 18.339,43.6 18.319,43.6C18.3,43.6 18.28,43.6 18.261,43.6C18.241,43.6 18.222,43.6 18.202,43.6C18.183,43.6 18.163,43.6 18.144,43.6C18.124,43.6 18.105,43.6 18.085,43.6C18.066,43.6 18.046,43.6 18.027,43.6C18.007,43.6 17.988,43.6 17.969,43.6C17.949,43.6 17.93,43.6 17.91,43.6C17.891,43.6 17.871,43.6 17.852,43.6C17.832,43.6 17.813,43.6 17.793,43.6C17.774,43.6 17.754,43.6 17.735,43.6C17.715,43.6 17.696,43.6 17.676,43.6C17.657,43.6 17.637,43.6 17.618,43.6C17.598,43.6 17.579,43.6 17.559,43.6C17.54,43.6 17.52,43.6 17.501,43.6C17.481,43.6 17.462,43.6 17.443,43.6C17.423,43.6 17.404,43.6 17.384,43.6C17.365,43.6 17.345,43.6 17.326,43.6C17.306,43.6 17.287,43.6 17.267,43.6C17.248,43.6 17.229,43.6 17.209,43.6C17.19,43.6 17.17,43.6 17.151,43.6C17.131,43.6 17.112,43.6 17.093,43.6C17.073,43.6 17.054,43.6 17.034,43.6C17.015,43.6 16.996,43.6 16.976,43.6C16.957,43.6 16.937,43.6 16.918,43.6C16.899,43.6 16.879,43.6 16.86,43.6C16.84,43.6 16.821,43.6 16.802,43.6C16.782,43.6 16.763,43.6 16.744,43.6C16.724,43.6 16.705,43.6 16.686,43.6C16.666,43.6 16.647,43.6 16.628,43.6C16.608,43.6 16.589,43.6 16.57,43.6C16.55,43.6 16.531,43.6 16.512,43.6C16.492,43.6 16.473,43.6 16.454,43.6C16.435,43.6 16.415,43.6 16.396,43.6C16.377,43.6 16.357,43.6 16.338,43.6C16.319,43.6 16.3,43.6 16.28,43.6C16.261,43.6 16.242,43.6 16.223,43.6C16.204,43.6 16.184,43.6 16.165,43.6C16.146,43.6 16.127,43.6 16.108,43.6C16.088,43.6 16.069,43.6 16.05,43.6C16.031,43.6 16.012,43.6 15.993,43.6C15.974,43.6 15.954,43.6 15.935,43.6C15.916,43.6 15.897,43.6 15.878,43.6C15.859,43.6 15.84,43.6 15.821,43.6C15.802,43.6 15.783,43.6 15.764,43.6C15.745,43.6 15.725,43.6 15.706,43.6C15.687,43.6 15.668,43.6 15.649,43.6C15.63,43.6 15.611,43.6 15.592,43.6C15.573,43.6 15.554,43.6 15.536,43.6C15.517,43.6 15.498,43.6 15.479,43.6C15.46,43.6 15.441,43.6 15.422,43.6C15.403,43.6 15.384,43.6 15.365,43.6C15.346,43.6 15.328,43.6 15.309,43.6C15.29,43.6 15.271,43.6 15.252,43.6C15.233,43.6 15.215,43.6 15.196,43.6C15.177,43.6 15.158,43.6 15.139,43.6C15.121,43.6 15.102,43.6 15.083,43.6C15.064,43.6 15.046,43.6 15.027,43.6C15.008,43.6 14.99,43.6 14.971,43.6C14.952,43.6 14.934,43.6 14.915,43.6C14.896,43.6 14.878,43.6 14.859,43.6C14.841,43.6 14.822,43.6 14.803,43.6C14.785,43.6 14.766,43.6 14.748,43.6C14.729,43.6 14.711,43.6 14.692,43.6C14.674,43.6 14.655,43.6 14.637,43.6C14.618,43.6 14.6,43.6 14.581,43.6C14.563,43.6 14.544,43.6 14.526,43.6C14.508,43.6 14.489,43.6 14.471,43.6C14.452,43.6 14.434,43.6 14.416,43.6C14.397,43.6 14.379,43.6 14.361,43.6C14.343,43.6 14.324,43.6 14.306,43.6C14.288,43.6 14.269,43.6 14.251,43.6C14.233,43.6 14.215,43.6 14.197,43.6C14.178,43.6 14.16,43.6 14.142,43.6C14.124,43.6 14.106,43.6 14.088,43.6C14.07,43.6 14.052,43.6 14.034,43.6C14.016,43.6 13.997,43.6 13.979,43.6C13.961,43.6 13.943,43.6 13.925,43.6C13.908,43.6 13.89,43.6 13.872,43.6C13.854,43.6 13.836,43.6 13.818,43.6C13.8,43.6 13.782,43.6 13.764,43.6C13.746,43.6 13.729,43.6 13.711,43.6C13.693,43.6 13.675,43.6 13.657,43.6C13.64,43.6 13.622,43.6 13.604,43.6C13.587,43.6 13.569,43.6 13.551,43.6C13.534,43.6 13.516,43.6 13.498,43.6C13.481,43.6 13.463,43.6 13.446,43.6C13.428,43.6 13.41,43.6 13.393,43.6C13.375,43.6 13.358,43.6 13.34,43.6C13.323,43.6 13.306,43.6 13.288,43.6C13.271,43.6 13.253,43.6 13.236,43.6C13.219,43.6 13.201,43.6 13.184,43.6C13.167,43.6 13.149,43.6 13.132,43.6C13.115,43.6 13.097,43.6 13.08,43.6C13.063,43.6 13.046,43.6 13.029,43.6C13.011,43.6 12.994,43.6 12.977,43.6C12.96,43.6 12.943,43.6 12.926,43.6C12.909,43.6 12.892,43.6 12.875,43.6C12.858,43.6 12.841,43.6 12.824,43.6C12.807,43.6 12.79,43.6 12.773,43.6C12.756,43.6 12.739,43.6 12.722,43.6C12.706,43.6 12.689,43.6 12.672,43.6C12.655,43.6 12.638,43.6 12.622,43.6C12.605,43.6 12.588,43.6 12.572,43.6C12.555,43.6 12.538,43.6 12.522,43.6C12.505,43.6 12.489,43.6 12.472,43.6C12.455,43.6 12.439,43.6 12.422,43.6C12.406,43.6 12.389,43.6 12.373,43.6C12.357,43.6 12.34,43.6 12.324,43.6C12.307,43.6 12.291,43.6 12.275,43.6C12.258,43.6 12.242,43.6 12.226,43.6C12.21,43.6 12.193,43.6 12.177,43.6C12.161,43.6 12.145,43.6 12.129,43.6C12.113,43.6 12.096,43.6 12.08,43.6C12.064,43.6 12.048,43.6 12.032,43.6C12.016,43.6 12,43.6 11.984,43.6C11.968,43.6 11.953,43.6 11.937,43.6C11.921,43.6 11.905,43.6 11.889,43.6C11.873,43.6 11.858,43.6 11.842,43.6C11.826,43.6 11.81,43.6 11.795,43.6C11.779,43.6 11.763,43.6 11.748,43.6C11.732,43.6 11.717,43.6 11.701,43.6C11.686,43.6 11.67,43.6 11.655,43.6C11.639,43.6 11.624,43.6 11.608,43.6C11.593,43.6 11.578,43.6 11.562,43.6C11.547,43.6 11.532,43.6 11.516,43.6C11.501,43.6 11.486,43.6 11.471,43.6C11.455,43.6 11.44,43.6 11.425,43.6C11.41,43.6 11.395,43.6 11.38,43.6C11.365,43.6 11.35,43.6 11.335,43.6C11.32,43.6 11.305,43.6 11.29,43.6C11.275,43.6 11.26,43.6 11.246,43.6C11.231,43.6 11.216,43.6 11.201,43.6C11.186,43.6 11.172,43.6 11.157,43.6C11.142,43.6 11.128,43.6 11.113,43.6C11.099,43.6 11.084,43.6 11.07,43.6C11.055,43.6 11.04,43.6 11.026,43.6C11.012,43.6 10.997,43.6 10.983,43.6C10.968,43.6 10.954,43.6 10.94,43.6C10.926,43.6 10.911,43.6 10.897,43.6C10.883,43.6 10.869,43.6 10.855,43.6C10.84,43.6 10.826,43.6 10.812,43.6C10.798,43.6 10.784,43.6 10.77,43.6C10.756,43.6 10.742,43.6 10.729,43.6C10.715,43.6 10.701,43.6 10.687,43.6C10.673,43.6 10.659,43.6 10.646,43.6C10.632,43.6 10.618,43.6 10.605,43.6C10.591,43.6 10.577,43.6 10.564,43.6C10.55,43.6 10.537,43.6 10.523,43.6C10.51,43.6 10.496,43.6 10.483,43.6C10.47,43.6 10.456,43.6 10.443,43.6C10.43,43.6 10.416,43.6 10.403,43.6C10.39,43.6 10.377,43.6 10.364,43.6C10.351,43.6 10.337,43.6 10.324,43.6C10.311,43.6 10.298,43.6 10.285,43.6C10.272,43.6 10.26,43.6 10.247,43.6C10.234,43.6 10.221,43.6 10.208,43.6C10.195,43.6 10.183,43.6 10.17,43.6C10.157,43.6 10.145,43.6 10.132,43.6C10.119,43.6 10.107,43.6 10.094,43.6C10.082,43.6 10.069,43.6 10.057,43.6C10.045,43.6 10.032,43.6 10.02,43.6C10.008,43.6 9.995,43.6 9.983,43.6C9.971,43.6 9.959,43.6 9.947,43.6C9.934,43.6 9.922,43.6 9.91,43.6C9.898,43.6 9.886,43.6 9.874,43.6C9.862,43.6 9.85,43.6 9.839,43.6C9.827,43.6 9.815,43.6 9.803,43.6C9.791,43.6 9.78,43.6 9.768,43.6C9.756,43.6 9.745,43.6 9.733,43.6C9.722,43.6 9.71,43.6 9.699,43.6C9.687,43.6 9.676,43.6 9.664,43.6C9.653,43.6 9.642,43.6 9.63,43.6C9.619,43.6 9.608,43.6 9.597,43.6C9.585,43.6 9.574,43.6 9.563,43.6C9.552,43.6 9.541,43.6 9.53,43.6C9.519,43.6 9.508,43.6 9.497,43.6C9.486,43.6 9.476,43.6 9.465,43.6C9.454,43.6 9.443,43.6 9.433,43.6C9.422,43.6 9.411,43.6 9.401,43.6C9.39,43.6 9.38,43.6 9.369,43.6C9.359,43.6 9.348,43.6 9.338,43.6C9.328,43.6 9.317,43.6 9.307,43.6C9.297,43.6 9.287,43.6 9.276,43.6C9.266,43.6 9.256,43.6 9.246,43.6C9.236,43.6 9.226,43.6 9.216,43.6C9.206,43.6 9.196,43.6 9.186,43.6C9.177,43.6 9.167,43.6 9.157,43.6C9.147,43.6 9.138,43.6 9.128,43.6C9.118,43.6 9.109,43.6 9.099,43.6C9.09,43.6 9.08,43.6 9.071,43.6C9.062,43.6 9.052,43.6 9.043,43.6C9.034,43.6 9.024,43.6 9.015,43.6C9.006,43.6 8.997,43.6 8.988,43.6C8.979,43.6 8.97,43.6 8.961,43.6C8.952,43.6 8.943,43.6 8.934,43.6C8.925,43.6 8.916,43.6 8.908,43.6C8.899,43.6 8.89,43.6 8.882,43.6C8.873,43.6 8.864,43.6 8.856,43.6C8.847,43.6 8.839,43.6 8.831,43.6C8.822,43.6 8.814,43.6 8.806,43.6C8.797,43.6 8.789,43.6 8.781,43.6C8.773,43.6 8.765,43.6 8.757,43.6C8.748,43.6 8.741,43.6 8.733,43.6C8.725,43.6 8.717,43.6 8.709,43.6C8.701,43.6 8.693,43.6 8.686,43.6C8.678,43.6 8.67,43.6 8.663,43.6C8.655,43.6 8.648,43.6 8.64,43.6C8.633,43.6 8.625,43.6 8.618,43.6C8.611,43.6 8.603,43.6 8.596,43.6C8.589,43.6 8.582,43.6 8.575,43.6C8.568,43.6 8.561,43.6 8.554,43.6C8.547,43.6 8.54,43.6 8.533,43.6C8.526,43.6 8.519,43.6 8.512,43.6C8.506,43.6 8.499,43.6 8.492,43.6C8.486,43.6 8.479,43.6 8.473,43.6C8.466,43.6 8.46,43.6 8.453,43.6C8.447,43.6 8.441,43.6 8.435,43.6C8.428,43.6 8.422,43.6 8.416,43.6C8.41,43.6 8.404,43.6 8.398,43.6C8.392,43.6 8.386,43.6 8.38,43.6C8.374,43.6 8.368,43.6 8.363,43.6C8.357,43.6 8.351,43.6 8.346,43.6C8.34,43.6 8.335,43.6 8.329,43.6C8.324,43.6 8.318,43.6 8.313,43.6C8.308,43.6 8.302,43.6 8.297,43.6C8.292,43.6 8.287,43.6 8.282,43.6C8.276,43.6 8.271,43.6 8.267,43.6C8.262,43.6 8.257,43.6 8.252,43.6C8.247,43.6 8.242,43.6 8.238,43.6C8.233,43.6 8.228,43.6 8.224,43.6C8.219,43.6 8.215,43.6 8.21,43.6C8.206,43.6 8.201,43.6 8.197,43.6C8.193,43.6 8.189,43.6 8.184,43.6C8.18,43.6 8.176,43.6 8.172,43.6C8.168,43.6 8.164,43.6 8.16,43.6C8.156,43.6 8.153,43.6 8.149,43.6C8.145,43.6 8.141,43.6 8.138,43.6C8.134,43.6 8.131,43.6 8.127,43.6C8.124,43.6 8.12,43.6 8.117,43.6C8.114,43.6 8.11,43.6 8.107,43.6C8.104,43.6 8.101,43.6 8.098,43.6C8.095,43.6 8.092,43.6 8.089,43.6C8.086,43.6 8.083,43.6 8.08,43.6C8.077,43.6 8.075,43.6 8.072,43.6C8.069,43.6 8.067,43.6 8.064,43.6C8.062,43.6 8.059,43.6 8.057,43.6C8.055,43.6 8.052,43.6 8.05,43.6C8.048,43.6 8.046,43.6 8.044,43.6C8.042,43.6 8.04,43.6 8.038,43.6C8.036,43.6 8.034,43.6 8.032,43.6C8.031,43.6 8.029,43.6 8.027,43.6C8.026,43.6 8.024,43.6 8.022,43.6C8.021,43.6 8.02,43.6 8.018,43.6C8.017,43.6 8.016,43.6 8.014,43.6C8.013,43.6 8.012,43.6 8.011,43.6C8.01,43.6 8.009,43.6 8.008,43.6C8.007,43.6 8.006,43.6 8.006,43.6C8.005,43.6 8.004,43.6 8.004,43.6C8.003,43.6 8.002,43.6 8.002,43.6C8.002,43.6 8.001,43.6 8.001,43.6C8.001,43.6 8,43.6 8,43.6C8,43.6 8,43.6 8,46Z" transform="rotate(0 18 38)" fill="#8E94A0"/>
<path d="M26,27.6C24.215,27.6 22.344,26.537 20.818,24.591C19.3,22.653 18.4,20.164 18.4,18L13.6,18C13.6,21.358 14.939,24.869 17.04,27.551C19.134,30.224 22.263,32.4 26,32.4L26,27.6ZM18.4,18L18.4,16L13.6,16L13.6,18L18.4,18ZM18.4,16C18.4,11.803 21.803,8.4 26,8.4L26,3.6C19.153,3.6 13.6,9.153 13.6,16L18.4,16ZM26,8.4C30.197,8.4 33.6,11.803 33.6,16L38.4,16C38.4,9.153 32.847,3.6 26,3.6L26,8.4ZM33.6,16L33.6,18L38.4,18L38.4,16L33.6,16ZM33.6,18C33.6,20.164 32.7,22.653 31.182,24.591C29.656,26.537 27.785,27.6 26,27.6L26,32.4C29.737,32.4 32.866,30.224 34.96,27.551C37.061,24.869 38.4,21.358 38.4,18L33.6,18Z" transform="rotate(0 26 18)" fill="#8E94A0"/>
<line x1="39.6" y1="36" x2="39.6" y2="48" stroke="#8E94A0" stroke-width="2.4" stroke-miterlimit="10" stroke-linecap="square"/>
<line x1="36" y1="39.6" x2="48" y2="39.6" stroke="#8E94A0" stroke-width="2.4" stroke-miterlimit="10" stroke-linecap="square"/>
</svg>
