<svg width="32" height="32" viewBox="0 0 32 32" fill="none" xmlns="http://www.w3.org/2000/svg" xmlns:xlink="http://www.w3.org/1999/xlink">
<path d="M23,17.143L21.628,17.143L21.628,17.159L23,17.143ZM23,11.429L24.371,11.429L23,11.429ZM7,11.429L5.628,11.429L7,11.429ZM7,17.143L8.371,17.159L8.371,17.143L7,17.143ZM4.714,25.143L3.541,24.432L2.28,26.514L4.714,26.514L4.714,25.143ZM25.285,25.143L25.285,26.514L27.719,26.514L26.458,24.432L25.285,25.143ZM24.371,17.143L24.371,11.429L21.628,11.429L21.628,17.143L24.371,17.143ZM24.371,11.429C24.371,8.943 23.384,6.559 21.626,4.802L19.687,6.741C20.93,7.985 21.628,9.671 21.628,11.429L24.371,11.429ZM21.626,4.802C19.869,3.045 17.485,2.057 15,2.057L15,4.8C16.758,4.8 18.444,5.498 19.687,6.741L21.626,4.802ZM15,2.057C12.514,2.057 10.13,3.045 8.373,4.802L10.312,6.741C11.556,5.498 13.242,4.8 15,4.8L15,2.057ZM8.373,4.802C6.615,6.559 5.628,8.943 5.628,11.429L8.371,11.429C8.371,9.671 9.069,7.985 10.312,6.741L8.373,4.802ZM5.628,11.429L5.628,17.143L8.371,17.143L8.371,11.429L5.628,11.429ZM5.628,17.126C5.597,19.704 4.876,22.227 3.541,24.432L5.887,25.853C7.476,23.229 8.334,20.227 8.371,17.159L5.628,17.126ZM4.714,26.514L25.285,26.514L25.285,23.771L4.714,23.771L4.714,26.514ZM26.458,24.432C25.123,22.227 24.402,19.704 24.371,17.126L21.628,17.159C21.665,20.227 22.523,23.229 24.112,25.853L26.458,24.432Z" transform="rotate(0 15 14.286)" fill="#FFFFFF"/>
<path d="M11.771,27.429C12.008,28.095 12.446,28.672 13.024,29.08C13.602,29.488 14.293,29.706 15,29.706C15.708,29.706 16.398,29.488 16.976,29.08C17.555,28.672 17.992,28.095 18.23,27.429L11.771,27.429Z" transform="rotate(0 15 28.568)" fill="#FFFFFF"/>
</svg>
