<svg width="32" height="32" viewBox="0 0 32 32" fill="none" xmlns="http://www.w3.org/2000/svg" xmlns:xlink="http://www.w3.org/1999/xlink">
<path d="M4.743,18.506L4.305,17.207L4.304,17.207L4.743,18.506ZM2.429,26.286L1.057,26.286L1.057,27.657L2.429,27.657L2.429,26.286ZM12.714,15.771C9.29,15.771 6.273,16.543 4.305,17.207L5.181,19.806C6.975,19.201 9.684,18.514 12.714,18.514L12.714,15.771ZM4.304,17.207C2.35,17.868 1.057,19.705 1.057,21.751L3.8,21.751C3.8,20.864 4.359,20.084 5.182,19.805L4.304,17.207ZM1.057,21.751L1.057,26.286L3.8,26.286L3.8,21.751L1.057,21.751ZM2.429,26.286C2.429,27.657 2.429,27.657 2.429,27.657C2.429,27.657 2.429,27.657 2.429,27.657C2.429,27.657 2.429,27.657 2.43,27.657C2.43,27.657 2.43,27.657 2.43,27.657C2.431,27.657 2.431,27.657 2.431,27.657C2.432,27.657 2.432,27.657 2.432,27.657C2.433,27.657 2.433,27.657 2.434,27.657C2.434,27.657 2.435,27.657 2.435,27.657C2.436,27.657 2.436,27.657 2.437,27.657C2.438,27.657 2.438,27.657 2.439,27.657C2.44,27.657 2.44,27.657 2.441,27.657C2.442,27.657 2.443,27.657 2.443,27.657C2.444,27.657 2.445,27.657 2.446,27.657C2.447,27.657 2.448,27.657 2.449,27.657C2.45,27.657 2.451,27.657 2.452,27.657C2.453,27.657 2.454,27.657 2.455,27.657C2.456,27.657 2.457,27.657 2.458,27.657C2.459,27.657 2.46,27.657 2.462,27.657C2.463,27.657 2.464,27.657 2.465,27.657C2.467,27.657 2.468,27.657 2.469,27.657C2.471,27.657 2.472,27.657 2.473,27.657C2.475,27.657 2.476,27.657 2.478,27.657C2.479,27.657 2.481,27.657 2.482,27.657C2.484,27.657 2.485,27.657 2.487,27.657C2.488,27.657 2.49,27.657 2.492,27.657C2.493,27.657 2.495,27.657 2.497,27.657C2.498,27.657 2.5,27.657 2.502,27.657C2.504,27.657 2.506,27.657 2.507,27.657C2.509,27.657 2.511,27.657 2.513,27.657C2.515,27.657 2.517,27.657 2.519,27.657C2.521,27.657 2.523,27.657 2.525,27.657C2.527,27.657 2.529,27.657 2.531,27.657C2.533,27.657 2.535,27.657 2.537,27.657C2.539,27.657 2.542,27.657 2.544,27.657C2.546,27.657 2.548,27.657 2.55,27.657C2.553,27.657 2.555,27.657 2.557,27.657C2.56,27.657 2.562,27.657 2.564,27.657C2.567,27.657 2.569,27.657 2.572,27.657C2.574,27.657 2.577,27.657 2.579,27.657C2.582,27.657 2.584,27.657 2.587,27.657C2.589,27.657 2.592,27.657 2.594,27.657C2.597,27.657 2.6,27.657 2.602,27.657C2.605,27.657 2.608,27.657 2.61,27.657C2.613,27.657 2.616,27.657 2.619,27.657C2.621,27.657 2.624,27.657 2.627,27.657C2.63,27.657 2.633,27.657 2.636,27.657C2.639,27.657 2.642,27.657 2.645,27.657C2.648,27.657 2.651,27.657 2.654,27.657C2.657,27.657 2.66,27.657 2.663,27.657C2.666,27.657 2.669,27.657 2.672,27.657C2.675,27.657 2.678,27.657 2.681,27.657C2.685,27.657 2.688,27.657 2.691,27.657C2.694,27.657 2.698,27.657 2.701,27.657C2.704,27.657 2.708,27.657 2.711,27.657C2.714,27.657 2.718,27.657 2.721,27.657C2.724,27.657 2.728,27.657 2.731,27.657C2.735,27.657 2.738,27.657 2.742,27.657C2.745,27.657 2.749,27.657 2.752,27.657C2.756,27.657 2.76,27.657 2.763,27.657C2.767,27.657 2.771,27.657 2.774,27.657C2.778,27.657 2.782,27.657 2.785,27.657C2.789,27.657 2.793,27.657 2.797,27.657C2.8,27.657 2.804,27.657 2.808,27.657C2.812,27.657 2.816,27.657 2.82,27.657C2.823,27.657 2.827,27.657 2.831,27.657C2.835,27.657 2.839,27.657 2.843,27.657C2.847,27.657 2.851,27.657 2.855,27.657C2.859,27.657 2.863,27.657 2.867,27.657C2.872,27.657 2.876,27.657 2.88,27.657C2.884,27.657 2.888,27.657 2.892,27.657C2.897,27.657 2.901,27.657 2.905,27.657C2.909,27.657 2.914,27.657 2.918,27.657C2.922,27.657 2.926,27.657 2.931,27.657C2.935,27.657 2.939,27.657 2.944,27.657C2.948,27.657 2.953,27.657 2.957,27.657C2.962,27.657 2.966,27.657 2.971,27.657C2.975,27.657 2.98,27.657 2.984,27.657C2.989,27.657 2.993,27.657 2.998,27.657C3.002,27.657 3.007,27.657 3.012,27.657C3.016,27.657 3.021,27.657 3.026,27.657C3.03,27.657 3.035,27.657 3.04,27.657C3.044,27.657 3.049,27.657 3.054,27.657C3.059,27.657 3.064,27.657 3.068,27.657C3.073,27.657 3.078,27.657 3.083,27.657C3.088,27.657 3.093,27.657 3.098,27.657C3.103,27.657 3.108,27.657 3.113,27.657C3.117,27.657 3.122,27.657 3.128,27.657C3.133,27.657 3.138,27.657 3.143,27.657C3.148,27.657 3.153,27.657 3.158,27.657C3.163,27.657 3.168,27.657 3.173,27.657C3.178,27.657 3.184,27.657 3.189,27.657C3.194,27.657 3.199,27.657 3.204,27.657C3.21,27.657 3.215,27.657 3.22,27.657C3.225,27.657 3.231,27.657 3.236,27.657C3.241,27.657 3.247,27.657 3.252,27.657C3.258,27.657 3.263,27.657 3.268,27.657C3.274,27.657 3.279,27.657 3.285,27.657C3.29,27.657 3.296,27.657 3.301,27.657C3.307,27.657 3.312,27.657 3.318,27.657C3.323,27.657 3.329,27.657 3.334,27.657C3.34,27.657 3.346,27.657 3.351,27.657C3.357,27.657 3.362,27.657 3.368,27.657C3.374,27.657 3.38,27.657 3.385,27.657C3.391,27.657 3.397,27.657 3.402,27.657C3.408,27.657 3.414,27.657 3.42,27.657C3.426,27.657 3.431,27.657 3.437,27.657C3.443,27.657 3.449,27.657 3.455,27.657C3.461,27.657 3.467,27.657 3.472,27.657C3.478,27.657 3.484,27.657 3.49,27.657C3.496,27.657 3.502,27.657 3.508,27.657C3.514,27.657 3.52,27.657 3.526,27.657C3.532,27.657 3.538,27.657 3.544,27.657C3.55,27.657 3.557,27.657 3.563,27.657C3.569,27.657 3.575,27.657 3.581,27.657C3.587,27.657 3.593,27.657 3.6,27.657C3.606,27.657 3.612,27.657 3.618,27.657C3.624,27.657 3.631,27.657 3.637,27.657C3.643,27.657 3.65,27.657 3.656,27.657C3.662,27.657 3.669,27.657 3.675,27.657C3.681,27.657 3.688,27.657 3.694,27.657C3.7,27.657 3.707,27.657 3.713,27.657C3.72,27.657 3.726,27.657 3.732,27.657C3.739,27.657 3.745,27.657 3.752,27.657C3.758,27.657 3.765,27.657 3.771,27.657C3.778,27.657 3.784,27.657 3.791,27.657C3.798,27.657 3.804,27.657 3.811,27.657C3.817,27.657 3.824,27.657 3.831,27.657C3.837,27.657 3.844,27.657 3.851,27.657C3.857,27.657 3.864,27.657 3.871,27.657C3.877,27.657 3.884,27.657 3.891,27.657C3.897,27.657 3.904,27.657 3.911,27.657C3.918,27.657 3.925,27.657 3.931,27.657C3.938,27.657 3.945,27.657 3.952,27.657C3.959,27.657 3.966,27.657 3.972,27.657C3.979,27.657 3.986,27.657 3.993,27.657C4,27.657 4.007,27.657 4.014,27.657C4.021,27.657 4.028,27.657 4.035,27.657C4.042,27.657 4.049,27.657 4.056,27.657C4.063,27.657 4.07,27.657 4.077,27.657C4.084,27.657 4.091,27.657 4.098,27.657C4.105,27.657 4.112,27.657 4.119,27.657C4.126,27.657 4.133,27.657 4.14,27.657C4.148,27.657 4.155,27.657 4.162,27.657C4.169,27.657 4.176,27.657 4.183,27.657C4.191,27.657 4.198,27.657 4.205,27.657C4.212,27.657 4.219,27.657 4.227,27.657C4.234,27.657 4.241,27.657 4.248,27.657C4.256,27.657 4.263,27.657 4.27,27.657C4.278,27.657 4.285,27.657 4.292,27.657C4.3,27.657 4.307,27.657 4.314,27.657C4.322,27.657 4.329,27.657 4.337,27.657C4.344,27.657 4.351,27.657 4.359,27.657C4.366,27.657 4.374,27.657 4.381,27.657C4.389,27.657 4.396,27.657 4.403,27.657C4.411,27.657 4.418,27.657 4.426,27.657C4.433,27.657 4.441,27.657 4.449,27.657C4.456,27.657 4.464,27.657 4.471,27.657C4.479,27.657 4.486,27.657 4.494,27.657C4.501,27.657 4.509,27.657 4.517,27.657C4.524,27.657 4.532,27.657 4.54,27.657C4.547,27.657 4.555,27.657 4.563,27.657C4.57,27.657 4.578,27.657 4.586,27.657C4.593,27.657 4.601,27.657 4.609,27.657C4.616,27.657 4.624,27.657 4.632,27.657C4.64,27.657 4.647,27.657 4.655,27.657C4.663,27.657 4.671,27.657 4.679,27.657C4.686,27.657 4.694,27.657 4.702,27.657C4.71,27.657 4.718,27.657 4.725,27.657C4.733,27.657 4.741,27.657 4.749,27.657C4.757,27.657 4.765,27.657 4.773,27.657C4.781,27.657 4.788,27.657 4.796,27.657C4.804,27.657 4.812,27.657 4.82,27.657C4.828,27.657 4.836,27.657 4.844,27.657C4.852,27.657 4.86,27.657 4.868,27.657C4.876,27.657 4.884,27.657 4.892,27.657C4.9,27.657 4.908,27.657 4.916,27.657C4.924,27.657 4.932,27.657 4.94,27.657C4.948,27.657 4.956,27.657 4.964,27.657C4.972,27.657 4.98,27.657 4.988,27.657C4.996,27.657 5.005,27.657 5.013,27.657C5.021,27.657 5.029,27.657 5.037,27.657C5.045,27.657 5.053,27.657 5.061,27.657C5.07,27.657 5.078,27.657 5.086,27.657C5.094,27.657 5.102,27.657 5.111,27.657C5.119,27.657 5.127,27.657 5.135,27.657C5.143,27.657 5.152,27.657 5.16,27.657C5.168,27.657 5.176,27.657 5.184,27.657C5.193,27.657 5.201,27.657 5.209,27.657C5.218,27.657 5.226,27.657 5.234,27.657C5.242,27.657 5.251,27.657 5.259,27.657C5.267,27.657 5.276,27.657 5.284,27.657C5.292,27.657 5.301,27.657 5.309,27.657C5.317,27.657 5.326,27.657 5.334,27.657C5.342,27.657 5.351,27.657 5.359,27.657C5.367,27.657 5.376,27.657 5.384,27.657C5.393,27.657 5.401,27.657 5.409,27.657C5.418,27.657 5.426,27.657 5.435,27.657C5.443,27.657 5.452,27.657 5.46,27.657C5.468,27.657 5.477,27.657 5.485,27.657C5.494,27.657 5.502,27.657 5.511,27.657C5.519,27.657 5.528,27.657 5.536,27.657C5.545,27.657 5.553,27.657 5.562,27.657C5.57,27.657 5.579,27.657 5.587,27.657C5.596,27.657 5.604,27.657 5.613,27.657C5.621,27.657 5.63,27.657 5.638,27.657C5.647,27.657 5.655,27.657 5.664,27.657C5.673,27.657 5.681,27.657 5.69,27.657C5.698,27.657 5.707,27.657 5.715,27.657C5.724,27.657 5.733,27.657 5.741,27.657C5.75,27.657 5.758,27.657 5.767,27.657C5.776,27.657 5.784,27.657 5.793,27.657C5.801,27.657 5.81,27.657 5.819,27.657C5.827,27.657 5.836,27.657 5.845,27.657C5.853,27.657 5.862,27.657 5.871,27.657C5.879,27.657 5.888,27.657 5.897,27.657C5.905,27.657 5.914,27.657 5.923,27.657C5.931,27.657 5.94,27.657 5.949,27.657C5.957,27.657 5.966,27.657 5.975,27.657C5.983,27.657 5.992,27.657 6.001,27.657C6.01,27.657 6.018,27.657 6.027,27.657C6.036,27.657 6.044,27.657 6.053,27.657C6.062,27.657 6.071,27.657 6.079,27.657C6.088,27.657 6.097,27.657 6.106,27.657C6.114,27.657 6.123,27.657 6.132,27.657C6.141,27.657 6.149,27.657 6.158,27.657C6.167,27.657 6.176,27.657 6.185,27.657C6.193,27.657 6.202,27.657 6.211,27.657C6.22,27.657 6.228,27.657 6.237,27.657C6.246,27.657 6.255,27.657 6.264,27.657C6.272,27.657 6.281,27.657 6.29,27.657C6.299,27.657 6.308,27.657 6.317,27.657C6.325,27.657 6.334,27.657 6.343,27.657C6.352,27.657 6.361,27.657 6.369,27.657C6.378,27.657 6.387,27.657 6.396,27.657C6.405,27.657 6.414,27.657 6.422,27.657C6.431,27.657 6.44,27.657 6.449,27.657C6.458,27.657 6.467,27.657 6.476,27.657C6.484,27.657 6.493,27.657 6.502,27.657C6.511,27.657 6.52,27.657 6.529,27.657C6.538,27.657 6.546,27.657 6.555,27.657C6.564,27.657 6.573,27.657 6.582,27.657C6.591,27.657 6.6,27.657 6.609,27.657C6.617,27.657 6.626,27.657 6.635,27.657C6.644,27.657 6.653,27.657 6.662,27.657C6.671,27.657 6.68,27.657 6.688,27.657C6.697,27.657 6.706,27.657 6.715,27.657C6.724,27.657 6.733,27.657 6.742,27.657C6.751,27.657 6.76,27.657 6.769,27.657C6.777,27.657 6.786,27.657 6.795,27.657C6.804,27.657 6.813,27.657 6.822,27.657C6.831,27.657 6.84,27.657 6.849,27.657C6.857,27.657 6.866,27.657 6.875,27.657C6.884,27.657 6.893,27.657 6.902,27.657C6.911,27.657 6.92,27.657 6.929,27.657C6.938,27.657 6.947,27.657 6.955,27.657C6.964,27.657 6.973,27.657 6.982,27.657C6.991,27.657 7,27.657 7.009,27.657C7.018,27.657 7.027,27.657 7.036,27.657C7.044,27.657 7.053,27.657 7.062,27.657C7.071,27.657 7.08,27.657 7.089,27.657C7.098,27.657 7.107,27.657 7.116,27.657C7.125,27.657 7.134,27.657 7.142,27.657C7.151,27.657 7.16,27.657 7.169,27.657C7.178,27.657 7.187,27.657 7.196,27.657C7.205,27.657 7.214,27.657 7.223,27.657C7.231,27.657 7.24,27.657 7.249,27.657C7.258,27.657 7.267,27.657 7.276,27.657C7.285,27.657 7.294,27.657 7.303,27.657C7.311,27.657 7.32,27.657 7.329,27.657C7.338,27.657 7.347,27.657 7.356,27.657C7.365,27.657 7.374,27.657 7.382,27.657C7.391,27.657 7.4,27.657 7.409,27.657C7.418,27.657 7.427,27.657 7.436,27.657C7.445,27.657 7.453,27.657 7.462,27.657C7.471,27.657 7.48,27.657 7.489,27.657C7.498,27.657 7.507,27.657 7.515,27.657C7.524,27.657 7.533,27.657 7.542,27.657C7.551,27.657 7.56,27.657 7.569,27.657C7.577,27.657 7.586,27.657 7.595,27.657C7.604,27.657 7.613,27.657 7.622,27.657C7.63,27.657 7.639,27.657 7.648,27.657C7.657,27.657 7.666,27.657 7.675,27.657C7.683,27.657 7.692,27.657 7.701,27.657C7.71,27.657 7.719,27.657 7.727,27.657C7.736,27.657 7.745,27.657 7.754,27.657C7.763,27.657 7.771,27.657 7.78,27.657C7.789,27.657 7.798,27.657 7.807,27.657C7.815,27.657 7.824,27.657 7.833,27.657C7.842,27.657 7.85,27.657 7.859,27.657C7.868,27.657 7.877,27.657 7.885,27.657C7.894,27.657 7.903,27.657 7.912,27.657C7.92,27.657 7.929,27.657 7.938,27.657C7.947,27.657 7.955,27.657 7.964,27.657C7.973,27.657 7.982,27.657 7.99,27.657C7.999,27.657 8.008,27.657 8.016,27.657C8.025,27.657 8.034,27.657 8.043,27.657C8.051,27.657 8.06,27.657 8.069,27.657C8.077,27.657 8.086,27.657 8.095,27.657C8.103,27.657 8.112,27.657 8.121,27.657C8.129,27.657 8.138,27.657 8.147,27.657C8.155,27.657 8.164,27.657 8.173,27.657C8.181,27.657 8.19,27.657 8.198,27.657C8.207,27.657 8.216,27.657 8.224,27.657C8.233,27.657 8.242,27.657 8.25,27.657C8.259,27.657 8.267,27.657 8.276,27.657C8.285,27.657 8.293,27.657 8.302,27.657C8.31,27.657 8.319,27.657 8.327,27.657C8.336,27.657 8.345,27.657 8.353,27.657C8.362,27.657 8.37,27.657 8.379,27.657C8.387,27.657 8.396,27.657 8.404,27.657C8.413,27.657 8.421,27.657 8.43,27.657C8.438,27.657 8.447,27.657 8.455,27.657C8.464,27.657 8.472,27.657 8.481,27.657C8.489,27.657 8.498,27.657 8.506,27.657C8.515,27.657 8.523,27.657 8.532,27.657C8.54,27.657 8.548,27.657 8.557,27.657C8.565,27.657 8.574,27.657 8.582,27.657C8.591,27.657 8.599,27.657 8.607,27.657C8.616,27.657 8.624,27.657 8.633,27.657C8.641,27.657 8.649,27.657 8.658,27.657C8.666,27.657 8.674,27.657 8.683,27.657C8.691,27.657 8.699,27.657 8.708,27.657C8.716,27.657 8.724,27.657 8.733,27.657C8.741,27.657 8.749,27.657 8.758,27.657C8.766,27.657 8.774,27.657 8.782,27.657C8.791,27.657 8.799,27.657 8.807,27.657C8.815,27.657 8.824,27.657 8.832,27.657C8.84,27.657 8.848,27.657 8.857,27.657C8.865,27.657 8.873,27.657 8.881,27.657C8.889,27.657 8.898,27.657 8.906,27.657C8.914,27.657 8.922,27.657 8.93,27.657C8.938,27.657 8.947,27.657 8.955,27.657C8.963,27.657 8.971,27.657 8.979,27.657C8.987,27.657 8.995,27.657 9.003,27.657C9.012,27.657 9.02,27.657 9.028,27.657C9.036,27.657 9.044,27.657 9.052,27.657C9.06,27.657 9.068,27.657 9.076,27.657C9.084,27.657 9.092,27.657 9.1,27.657C9.108,27.657 9.116,27.657 9.124,27.657C9.132,27.657 9.14,27.657 9.148,27.657C9.156,27.657 9.164,27.657 9.172,27.657C9.18,27.657 9.188,27.657 9.196,27.657C9.204,27.657 9.212,27.657 9.219,27.657C9.227,27.657 9.235,27.657 9.243,27.657C9.251,27.657 9.259,27.657 9.267,27.657C9.275,27.657 9.282,27.657 9.29,27.657C9.298,27.657 9.306,27.657 9.314,27.657C9.321,27.657 9.329,27.657 9.337,27.657C9.345,27.657 9.353,27.657 9.36,27.657C9.368,27.657 9.376,27.657 9.384,27.657C9.391,27.657 9.399,27.657 9.407,27.657C9.414,27.657 9.422,27.657 9.43,27.657C9.437,27.657 9.445,27.657 9.453,27.657C9.46,27.657 9.468,27.657 9.476,27.657C9.483,27.657 9.491,27.657 9.499,27.657C9.506,27.657 9.514,27.657 9.521,27.657C9.529,27.657 9.536,27.657 9.544,27.657C9.551,27.657 9.559,27.657 9.567,27.657C9.574,27.657 9.582,27.657 9.589,27.657C9.597,27.657 9.604,27.657 9.611,27.657C9.619,27.657 9.626,27.657 9.634,27.657C9.641,27.657 9.649,27.657 9.656,27.657C9.663,27.657 9.671,27.657 9.678,27.657C9.686,27.657 9.693,27.657 9.7,27.657C9.708,27.657 9.715,27.657 9.722,27.657C9.73,27.657 9.737,27.657 9.744,27.657C9.752,27.657 9.759,27.657 9.766,27.657C9.773,27.657 9.781,27.657 9.788,27.657C9.795,27.657 9.802,27.657 9.809,27.657C9.817,27.657 9.824,27.657 9.831,27.657C9.838,27.657 9.845,27.657 9.852,27.657C9.86,27.657 9.867,27.657 9.874,27.657C9.881,27.657 9.888,27.657 9.895,27.657C9.902,27.657 9.909,27.657 9.916,27.657C9.923,27.657 9.93,27.657 9.937,27.657C9.944,27.657 9.951,27.657 9.958,27.657C9.965,27.657 9.972,27.657 9.979,27.657C9.986,27.657 9.993,27.657 10,27.657C10.007,27.657 10.014,27.657 10.021,27.657C10.028,27.657 10.035,27.657 10.041,27.657C10.048,27.657 10.055,27.657 10.062,27.657C10.069,27.657 10.075,27.657 10.082,27.657C10.089,27.657 10.096,27.657 10.103,27.657C10.109,27.657 10.116,27.657 10.123,27.657C10.129,27.657 10.136,27.657 10.143,27.657C10.15,27.657 10.156,27.657 10.163,27.657C10.169,27.657 10.176,27.657 10.183,27.657C10.189,27.657 10.196,27.657 10.202,27.657C10.209,27.657 10.216,27.657 10.222,27.657C10.229,27.657 10.235,27.657 10.242,27.657C10.248,27.657 10.255,27.657 10.261,27.657C10.268,27.657 10.274,27.657 10.281,27.657C10.287,27.657 10.293,27.657 10.3,27.657C10.306,27.657 10.313,27.657 10.319,27.657C10.325,27.657 10.332,27.657 10.338,27.657C10.344,27.657 10.351,27.657 10.357,27.657C10.363,27.657 10.369,27.657 10.376,27.657C10.382,27.657 10.388,27.657 10.394,27.657C10.4,27.657 10.407,27.657 10.413,27.657C10.419,27.657 10.425,27.657 10.431,27.657C10.437,27.657 10.443,27.657 10.45,27.657C10.456,27.657 10.462,27.657 10.468,27.657C10.474,27.657 10.48,27.657 10.486,27.657C10.492,27.657 10.498,27.657 10.504,27.657C10.51,27.657 10.516,27.657 10.522,27.657C10.528,27.657 10.534,27.657 10.539,27.657C10.545,27.657 10.551,27.657 10.557,27.657C10.563,27.657 10.569,27.657 10.575,27.657C10.58,27.657 10.586,27.657 10.592,27.657C10.598,27.657 10.603,27.657 10.609,27.657C10.615,27.657 10.621,27.657 10.626,27.657C10.632,27.657 10.638,27.657 10.643,27.657C10.649,27.657 10.655,27.657 10.66,27.657C10.666,27.657 10.671,27.657 10.677,27.657C10.682,27.657 10.688,27.657 10.694,27.657C10.699,27.657 10.705,27.657 10.71,27.657C10.715,27.657 10.721,27.657 10.726,27.657C10.732,27.657 10.737,27.657 10.743,27.657C10.748,27.657 10.753,27.657 10.759,27.657C10.764,27.657 10.769,27.657 10.775,27.657C10.78,27.657 10.785,27.657 10.79,27.657C10.796,27.657 10.801,27.657 10.806,27.657C10.811,27.657 10.817,27.657 10.822,27.657C10.827,27.657 10.832,27.657 10.837,27.657C10.842,27.657 10.847,27.657 10.852,27.657C10.858,27.657 10.863,27.657 10.868,27.657C10.873,27.657 10.878,27.657 10.883,27.657C10.888,27.657 10.893,27.657 10.898,27.657C10.902,27.657 10.907,27.657 10.912,27.657C10.917,27.657 10.922,27.657 10.927,27.657C10.932,27.657 10.937,27.657 10.941,27.657C10.946,27.657 10.951,27.657 10.956,27.657C10.96,27.657 10.965,27.657 10.97,27.657C10.975,27.657 10.979,27.657 10.984,27.657C10.989,27.657 10.993,27.657 10.998,27.657C11.002,27.657 11.007,27.657 11.012,27.657C11.016,27.657 11.021,27.657 11.025,27.657C11.03,27.657 11.034,27.657 11.039,27.657C11.043,27.657 11.047,27.657 11.052,27.657C11.056,27.657 11.061,27.657 11.065,27.657C11.069,27.657 11.074,27.657 11.078,27.657C11.082,27.657 11.087,27.657 11.091,27.657C11.095,27.657 11.099,27.657 11.104,27.657C11.108,27.657 11.112,27.657 11.116,27.657C11.12,27.657 11.125,27.657 11.129,27.657C11.133,27.657 11.137,27.657 11.141,27.657C11.145,27.657 11.149,27.657 11.153,27.657C11.157,27.657 11.161,27.657 11.165,27.657C11.169,27.657 11.173,27.657 11.177,27.657C11.181,27.657 11.185,27.657 11.188,27.657C11.192,27.657 11.196,27.657 11.2,27.657C11.204,27.657 11.207,27.657 11.211,27.657C11.215,27.657 11.219,27.657 11.222,27.657C11.226,27.657 11.23,27.657 11.233,27.657C11.237,27.657 11.241,27.657 11.244,27.657C11.248,27.657 11.251,27.657 11.255,27.657C11.258,27.657 11.262,27.657 11.265,27.657C11.269,27.657 11.272,27.657 11.276,27.657C11.279,27.657 11.283,27.657 11.286,27.657C11.289,27.657 11.293,27.657 11.296,27.657C11.299,27.657 11.303,27.657 11.306,27.657C11.309,27.657 11.312,27.657 11.316,27.657C11.319,27.657 11.322,27.657 11.325,27.657C11.328,27.657 11.331,27.657 11.334,27.657C11.338,27.657 11.341,27.657 11.344,27.657C11.347,27.657 11.35,27.657 11.353,27.657C11.356,27.657 11.359,27.657 11.362,27.657C11.365,27.657 11.367,27.657 11.37,27.657C11.373,27.657 11.376,27.657 11.379,27.657C11.382,27.657 11.384,27.657 11.387,27.657C11.39,27.657 11.393,27.657 11.395,27.657C11.398,27.657 11.401,27.657 11.403,27.657C11.406,27.657 11.409,27.657 11.411,27.657C11.414,27.657 11.416,27.657 11.419,27.657C11.421,27.657 11.424,27.657 11.426,27.657C11.429,27.657 11.431,27.657 11.434,27.657C11.436,27.657 11.438,27.657 11.441,27.657C11.443,27.657 11.445,27.657 11.448,27.657C11.45,27.657 11.452,27.657 11.454,27.657C11.457,27.657 11.459,27.657 11.461,27.657C11.463,27.657 11.465,27.657 11.467,27.657C11.469,27.657 11.472,27.657 11.474,27.657C11.476,27.657 11.478,27.657 11.48,27.657C11.482,27.657 11.484,27.657 11.485,27.657C11.487,27.657 11.489,27.657 11.491,27.657C11.493,27.657 11.495,27.657 11.497,27.657C11.498,27.657 11.5,27.657 11.502,27.657C11.504,27.657 11.505,27.657 11.507,27.657C11.509,27.657 11.51,27.657 11.512,27.657C11.514,27.657 11.515,27.657 11.517,27.657C11.518,27.657 11.52,27.657 11.521,27.657C11.523,27.657 11.524,27.657 11.526,27.657C11.527,27.657 11.528,27.657 11.53,27.657C11.531,27.657 11.532,27.657 11.534,27.657C11.535,27.657 11.536,27.657 11.538,27.657C11.539,27.657 11.54,27.657 11.541,27.657C11.542,27.657 11.543,27.657 11.545,27.657C11.546,27.657 11.547,27.657 11.548,27.657C11.549,27.657 11.55,27.657 11.551,27.657C11.552,27.657 11.553,27.657 11.554,27.657C11.554,27.657 11.555,27.657 11.556,27.657C11.557,27.657 11.558,27.657 11.559,27.657C11.559,27.657 11.56,27.657 11.561,27.657C11.561,27.657 11.562,27.657 11.563,27.657C11.563,27.657 11.564,27.657 11.565,27.657C11.565,27.657 11.566,27.657 11.566,27.657C11.567,27.657 11.567,27.657 11.568,27.657C11.568,27.657 11.568,27.657 11.569,27.657C11.569,27.657 11.569,27.657 11.57,27.657C11.57,27.657 11.57,27.657 11.571,27.657C11.571,27.657 11.571,27.657 11.571,27.657C11.571,27.657 11.571,27.657 11.572,27.657L11.572,24.914C11.571,24.914 11.571,24.914 11.571,24.914C11.571,24.914 11.571,24.914 11.571,24.914C11.57,24.914 11.57,24.914 11.57,24.914C11.569,24.914 11.569,24.914 11.569,24.914C11.568,24.914 11.568,24.914 11.568,24.914C11.567,24.914 11.567,24.914 11.566,24.914C11.566,24.914 11.565,24.914 11.565,24.914C11.564,24.914 11.563,24.914 11.563,24.914C11.562,24.914 11.561,24.914 11.561,24.914C11.56,24.914 11.559,24.914 11.559,24.914C11.558,24.914 11.557,24.914 11.556,24.914C11.555,24.914 11.554,24.914 11.554,24.914C11.553,24.914 11.552,24.914 11.551,24.914C11.55,24.914 11.549,24.914 11.548,24.914C11.547,24.914 11.546,24.914 11.545,24.914C11.543,24.914 11.542,24.914 11.541,24.914C11.54,24.914 11.539,24.914 11.538,24.914C11.536,24.914 11.535,24.914 11.534,24.914C11.532,24.914 11.531,24.914 11.53,24.914C11.528,24.914 11.527,24.914 11.526,24.914C11.524,24.914 11.523,24.914 11.521,24.914C11.52,24.914 11.518,24.914 11.517,24.914C11.515,24.914 11.514,24.914 11.512,24.914C11.51,24.914 11.509,24.914 11.507,24.914C11.505,24.914 11.504,24.914 11.502,24.914C11.5,24.914 11.498,24.914 11.497,24.914C11.495,24.914 11.493,24.914 11.491,24.914C11.489,24.914 11.487,24.914 11.485,24.914C11.484,24.914 11.482,24.914 11.48,24.914C11.478,24.914 11.476,24.914 11.474,24.914C11.472,24.914 11.469,24.914 11.467,24.914C11.465,24.914 11.463,24.914 11.461,24.914C11.459,24.914 11.457,24.914 11.454,24.914C11.452,24.914 11.45,24.914 11.448,24.914C11.445,24.914 11.443,24.914 11.441,24.914C11.438,24.914 11.436,24.914 11.434,24.914C11.431,24.914 11.429,24.914 11.426,24.914C11.424,24.914 11.421,24.914 11.419,24.914C11.416,24.914 11.414,24.914 11.411,24.914C11.409,24.914 11.406,24.914 11.403,24.914C11.401,24.914 11.398,24.914 11.395,24.914C11.393,24.914 11.39,24.914 11.387,24.914C11.384,24.914 11.382,24.914 11.379,24.914C11.376,24.914 11.373,24.914 11.37,24.914C11.367,24.914 11.365,24.914 11.362,24.914C11.359,24.914 11.356,24.914 11.353,24.914C11.35,24.914 11.347,24.914 11.344,24.914C11.341,24.914 11.338,24.914 11.334,24.914C11.331,24.914 11.328,24.914 11.325,24.914C11.322,24.914 11.319,24.914 11.316,24.914C11.312,24.914 11.309,24.914 11.306,24.914C11.303,24.914 11.299,24.914 11.296,24.914C11.293,24.914 11.289,24.914 11.286,24.914C11.283,24.914 11.279,24.914 11.276,24.914C11.272,24.914 11.269,24.914 11.265,24.914C11.262,24.914 11.258,24.914 11.255,24.914C11.251,24.914 11.248,24.914 11.244,24.914C11.241,24.914 11.237,24.914 11.233,24.914C11.23,24.914 11.226,24.914 11.222,24.914C11.219,24.914 11.215,24.914 11.211,24.914C11.207,24.914 11.204,24.914 11.2,24.914C11.196,24.914 11.192,24.914 11.188,24.914C11.185,24.914 11.181,24.914 11.177,24.914C11.173,24.914 11.169,24.914 11.165,24.914C11.161,24.914 11.157,24.914 11.153,24.914C11.149,24.914 11.145,24.914 11.141,24.914C11.137,24.914 11.133,24.914 11.129,24.914C11.125,24.914 11.12,24.914 11.116,24.914C11.112,24.914 11.108,24.914 11.104,24.914C11.099,24.914 11.095,24.914 11.091,24.914C11.087,24.914 11.082,24.914 11.078,24.914C11.074,24.914 11.069,24.914 11.065,24.914C11.061,24.914 11.056,24.914 11.052,24.914C11.047,24.914 11.043,24.914 11.039,24.914C11.034,24.914 11.03,24.914 11.025,24.914C11.021,24.914 11.016,24.914 11.012,24.914C11.007,24.914 11.002,24.914 10.998,24.914C10.993,24.914 10.989,24.914 10.984,24.914C10.979,24.914 10.975,24.914 10.97,24.914C10.965,24.914 10.96,24.914 10.956,24.914C10.951,24.914 10.946,24.914 10.941,24.914C10.937,24.914 10.932,24.914 10.927,24.914C10.922,24.914 10.917,24.914 10.912,24.914C10.907,24.914 10.902,24.914 10.898,24.914C10.893,24.914 10.888,24.914 10.883,24.914C10.878,24.914 10.873,24.914 10.868,24.914C10.863,24.914 10.858,24.914 10.852,24.914C10.847,24.914 10.842,24.914 10.837,24.914C10.832,24.914 10.827,24.914 10.822,24.914C10.817,24.914 10.811,24.914 10.806,24.914C10.801,24.914 10.796,24.914 10.79,24.914C10.785,24.914 10.78,24.914 10.775,24.914C10.769,24.914 10.764,24.914 10.759,24.914C10.753,24.914 10.748,24.914 10.743,24.914C10.737,24.914 10.732,24.914 10.726,24.914C10.721,24.914 10.715,24.914 10.71,24.914C10.705,24.914 10.699,24.914 10.694,24.914C10.688,24.914 10.682,24.914 10.677,24.914C10.671,24.914 10.666,24.914 10.66,24.914C10.655,24.914 10.649,24.914 10.643,24.914C10.638,24.914 10.632,24.914 10.626,24.914C10.621,24.914 10.615,24.914 10.609,24.914C10.603,24.914 10.598,24.914 10.592,24.914C10.586,24.914 10.58,24.914 10.575,24.914C10.569,24.914 10.563,24.914 10.557,24.914C10.551,24.914 10.545,24.914 10.539,24.914C10.534,24.914 10.528,24.914 10.522,24.914C10.516,24.914 10.51,24.914 10.504,24.914C10.498,24.914 10.492,24.914 10.486,24.914C10.48,24.914 10.474,24.914 10.468,24.914C10.462,24.914 10.456,24.914 10.45,24.914C10.443,24.914 10.437,24.914 10.431,24.914C10.425,24.914 10.419,24.914 10.413,24.914C10.407,24.914 10.4,24.914 10.394,24.914C10.388,24.914 10.382,24.914 10.376,24.914C10.369,24.914 10.363,24.914 10.357,24.914C10.351,24.914 10.344,24.914 10.338,24.914C10.332,24.914 10.325,24.914 10.319,24.914C10.313,24.914 10.306,24.914 10.3,24.914C10.293,24.914 10.287,24.914 10.281,24.914C10.274,24.914 10.268,24.914 10.261,24.914C10.255,24.914 10.248,24.914 10.242,24.914C10.235,24.914 10.229,24.914 10.222,24.914C10.216,24.914 10.209,24.914 10.202,24.914C10.196,24.914 10.189,24.914 10.183,24.914C10.176,24.914 10.169,24.914 10.163,24.914C10.156,24.914 10.15,24.914 10.143,24.914C10.136,24.914 10.129,24.914 10.123,24.914C10.116,24.914 10.109,24.914 10.103,24.914C10.096,24.914 10.089,24.914 10.082,24.914C10.075,24.914 10.069,24.914 10.062,24.914C10.055,24.914 10.048,24.914 10.041,24.914C10.035,24.914 10.028,24.914 10.021,24.914C10.014,24.914 10.007,24.914 10,24.914C9.993,24.914 9.986,24.914 9.979,24.914C9.972,24.914 9.965,24.914 9.958,24.914C9.951,24.914 9.944,24.914 9.937,24.914C9.93,24.914 9.923,24.914 9.916,24.914C9.909,24.914 9.902,24.914 9.895,24.914C9.888,24.914 9.881,24.914 9.874,24.914C9.867,24.914 9.86,24.914 9.852,24.914C9.845,24.914 9.838,24.914 9.831,24.914C9.824,24.914 9.817,24.914 9.809,24.914C9.802,24.914 9.795,24.914 9.788,24.914C9.781,24.914 9.773,24.914 9.766,24.914C9.759,24.914 9.752,24.914 9.744,24.914C9.737,24.914 9.73,24.914 9.722,24.914C9.715,24.914 9.708,24.914 9.7,24.914C9.693,24.914 9.686,24.914 9.678,24.914C9.671,24.914 9.663,24.914 9.656,24.914C9.649,24.914 9.641,24.914 9.634,24.914C9.626,24.914 9.619,24.914 9.611,24.914C9.604,24.914 9.597,24.914 9.589,24.914C9.582,24.914 9.574,24.914 9.567,24.914C9.559,24.914 9.551,24.914 9.544,24.914C9.536,24.914 9.529,24.914 9.521,24.914C9.514,24.914 9.506,24.914 9.499,24.914C9.491,24.914 9.483,24.914 9.476,24.914C9.468,24.914 9.46,24.914 9.453,24.914C9.445,24.914 9.437,24.914 9.43,24.914C9.422,24.914 9.414,24.914 9.407,24.914C9.399,24.914 9.391,24.914 9.384,24.914C9.376,24.914 9.368,24.914 9.36,24.914C9.353,24.914 9.345,24.914 9.337,24.914C9.329,24.914 9.321,24.914 9.314,24.914C9.306,24.914 9.298,24.914 9.29,24.914C9.282,24.914 9.275,24.914 9.267,24.914C9.259,24.914 9.251,24.914 9.243,24.914C9.235,24.914 9.227,24.914 9.219,24.914C9.212,24.914 9.204,24.914 9.196,24.914C9.188,24.914 9.18,24.914 9.172,24.914C9.164,24.914 9.156,24.914 9.148,24.914C9.14,24.914 9.132,24.914 9.124,24.914C9.116,24.914 9.108,24.914 9.1,24.914C9.092,24.914 9.084,24.914 9.076,24.914C9.068,24.914 9.06,24.914 9.052,24.914C9.044,24.914 9.036,24.914 9.028,24.914C9.02,24.914 9.012,24.914 9.003,24.914C8.995,24.914 8.987,24.914 8.979,24.914C8.971,24.914 8.963,24.914 8.955,24.914C8.947,24.914 8.938,24.914 8.93,24.914C8.922,24.914 8.914,24.914 8.906,24.914C8.898,24.914 8.889,24.914 8.881,24.914C8.873,24.914 8.865,24.914 8.857,24.914C8.848,24.914 8.84,24.914 8.832,24.914C8.824,24.914 8.815,24.914 8.807,24.914C8.799,24.914 8.791,24.914 8.782,24.914C8.774,24.914 8.766,24.914 8.758,24.914C8.749,24.914 8.741,24.914 8.733,24.914C8.724,24.914 8.716,24.914 8.708,24.914C8.699,24.914 8.691,24.914 8.683,24.914C8.674,24.914 8.666,24.914 8.658,24.914C8.649,24.914 8.641,24.914 8.633,24.914C8.624,24.914 8.616,24.914 8.607,24.914C8.599,24.914 8.591,24.914 8.582,24.914C8.574,24.914 8.565,24.914 8.557,24.914C8.548,24.914 8.54,24.914 8.532,24.914C8.523,24.914 8.515,24.914 8.506,24.914C8.498,24.914 8.489,24.914 8.481,24.914C8.472,24.914 8.464,24.914 8.455,24.914C8.447,24.914 8.438,24.914 8.43,24.914C8.421,24.914 8.413,24.914 8.404,24.914C8.396,24.914 8.387,24.914 8.379,24.914C8.37,24.914 8.362,24.914 8.353,24.914C8.345,24.914 8.336,24.914 8.327,24.914C8.319,24.914 8.31,24.914 8.302,24.914C8.293,24.914 8.285,24.914 8.276,24.914C8.267,24.914 8.259,24.914 8.25,24.914C8.242,24.914 8.233,24.914 8.224,24.914C8.216,24.914 8.207,24.914 8.198,24.914C8.19,24.914 8.181,24.914 8.173,24.914C8.164,24.914 8.155,24.914 8.147,24.914C8.138,24.914 8.129,24.914 8.121,24.914C8.112,24.914 8.103,24.914 8.095,24.914C8.086,24.914 8.077,24.914 8.069,24.914C8.06,24.914 8.051,24.914 8.043,24.914C8.034,24.914 8.025,24.914 8.016,24.914C8.008,24.914 7.999,24.914 7.99,24.914C7.982,24.914 7.973,24.914 7.964,24.914C7.955,24.914 7.947,24.914 7.938,24.914C7.929,24.914 7.92,24.914 7.912,24.914C7.903,24.914 7.894,24.914 7.885,24.914C7.877,24.914 7.868,24.914 7.859,24.914C7.85,24.914 7.842,24.914 7.833,24.914C7.824,24.914 7.815,24.914 7.807,24.914C7.798,24.914 7.789,24.914 7.78,24.914C7.771,24.914 7.763,24.914 7.754,24.914C7.745,24.914 7.736,24.914 7.727,24.914C7.719,24.914 7.71,24.914 7.701,24.914C7.692,24.914 7.683,24.914 7.675,24.914C7.666,24.914 7.657,24.914 7.648,24.914C7.639,24.914 7.63,24.914 7.622,24.914C7.613,24.914 7.604,24.914 7.595,24.914C7.586,24.914 7.577,24.914 7.569,24.914C7.56,24.914 7.551,24.914 7.542,24.914C7.533,24.914 7.524,24.914 7.515,24.914C7.507,24.914 7.498,24.914 7.489,24.914C7.48,24.914 7.471,24.914 7.462,24.914C7.453,24.914 7.445,24.914 7.436,24.914C7.427,24.914 7.418,24.914 7.409,24.914C7.4,24.914 7.391,24.914 7.382,24.914C7.374,24.914 7.365,24.914 7.356,24.914C7.347,24.914 7.338,24.914 7.329,24.914C7.32,24.914 7.311,24.914 7.303,24.914C7.294,24.914 7.285,24.914 7.276,24.914C7.267,24.914 7.258,24.914 7.249,24.914C7.24,24.914 7.231,24.914 7.223,24.914C7.214,24.914 7.205,24.914 7.196,24.914C7.187,24.914 7.178,24.914 7.169,24.914C7.16,24.914 7.151,24.914 7.142,24.914C7.134,24.914 7.125,24.914 7.116,24.914C7.107,24.914 7.098,24.914 7.089,24.914C7.08,24.914 7.071,24.914 7.062,24.914C7.053,24.914 7.044,24.914 7.036,24.914C7.027,24.914 7.018,24.914 7.009,24.914C7,24.914 6.991,24.914 6.982,24.914C6.973,24.914 6.964,24.914 6.955,24.914C6.947,24.914 6.938,24.914 6.929,24.914C6.92,24.914 6.911,24.914 6.902,24.914C6.893,24.914 6.884,24.914 6.875,24.914C6.866,24.914 6.857,24.914 6.849,24.914C6.84,24.914 6.831,24.914 6.822,24.914C6.813,24.914 6.804,24.914 6.795,24.914C6.786,24.914 6.777,24.914 6.769,24.914C6.76,24.914 6.751,24.914 6.742,24.914C6.733,24.914 6.724,24.914 6.715,24.914C6.706,24.914 6.697,24.914 6.688,24.914C6.68,24.914 6.671,24.914 6.662,24.914C6.653,24.914 6.644,24.914 6.635,24.914C6.626,24.914 6.617,24.914 6.609,24.914C6.6,24.914 6.591,24.914 6.582,24.914C6.573,24.914 6.564,24.914 6.555,24.914C6.546,24.914 6.538,24.914 6.529,24.914C6.52,24.914 6.511,24.914 6.502,24.914C6.493,24.914 6.484,24.914 6.476,24.914C6.467,24.914 6.458,24.914 6.449,24.914C6.44,24.914 6.431,24.914 6.422,24.914C6.414,24.914 6.405,24.914 6.396,24.914C6.387,24.914 6.378,24.914 6.369,24.914C6.361,24.914 6.352,24.914 6.343,24.914C6.334,24.914 6.325,24.914 6.317,24.914C6.308,24.914 6.299,24.914 6.29,24.914C6.281,24.914 6.272,24.914 6.264,24.914C6.255,24.914 6.246,24.914 6.237,24.914C6.228,24.914 6.22,24.914 6.211,24.914C6.202,24.914 6.193,24.914 6.185,24.914C6.176,24.914 6.167,24.914 6.158,24.914C6.149,24.914 6.141,24.914 6.132,24.914C6.123,24.914 6.114,24.914 6.106,24.914C6.097,24.914 6.088,24.914 6.079,24.914C6.071,24.914 6.062,24.914 6.053,24.914C6.044,24.914 6.036,24.914 6.027,24.914C6.018,24.914 6.01,24.914 6.001,24.914C5.992,24.914 5.983,24.914 5.975,24.914C5.966,24.914 5.957,24.914 5.949,24.914C5.94,24.914 5.931,24.914 5.923,24.914C5.914,24.914 5.905,24.914 5.897,24.914C5.888,24.914 5.879,24.914 5.871,24.914C5.862,24.914 5.853,24.914 5.845,24.914C5.836,24.914 5.827,24.914 5.819,24.914C5.81,24.914 5.801,24.914 5.793,24.914C5.784,24.914 5.776,24.914 5.767,24.914C5.758,24.914 5.75,24.914 5.741,24.914C5.733,24.914 5.724,24.914 5.715,24.914C5.707,24.914 5.698,24.914 5.69,24.914C5.681,24.914 5.673,24.914 5.664,24.914C5.655,24.914 5.647,24.914 5.638,24.914C5.63,24.914 5.621,24.914 5.613,24.914C5.604,24.914 5.596,24.914 5.587,24.914C5.579,24.914 5.57,24.914 5.562,24.914C5.553,24.914 5.545,24.914 5.536,24.914C5.528,24.914 5.519,24.914 5.511,24.914C5.502,24.914 5.494,24.914 5.485,24.914C5.477,24.914 5.468,24.914 5.46,24.914C5.452,24.914 5.443,24.914 5.435,24.914C5.426,24.914 5.418,24.914 5.409,24.914C5.401,24.914 5.393,24.914 5.384,24.914C5.376,24.914 5.367,24.914 5.359,24.914C5.351,24.914 5.342,24.914 5.334,24.914C5.326,24.914 5.317,24.914 5.309,24.914C5.301,24.914 5.292,24.914 5.284,24.914C5.276,24.914 5.267,24.914 5.259,24.914C5.251,24.914 5.242,24.914 5.234,24.914C5.226,24.914 5.218,24.914 5.209,24.914C5.201,24.914 5.193,24.914 5.184,24.914C5.176,24.914 5.168,24.914 5.16,24.914C5.152,24.914 5.143,24.914 5.135,24.914C5.127,24.914 5.119,24.914 5.111,24.914C5.102,24.914 5.094,24.914 5.086,24.914C5.078,24.914 5.07,24.914 5.061,24.914C5.053,24.914 5.045,24.914 5.037,24.914C5.029,24.914 5.021,24.914 5.013,24.914C5.005,24.914 4.996,24.914 4.988,24.914C4.98,24.914 4.972,24.914 4.964,24.914C4.956,24.914 4.948,24.914 4.94,24.914C4.932,24.914 4.924,24.914 4.916,24.914C4.908,24.914 4.9,24.914 4.892,24.914C4.884,24.914 4.876,24.914 4.868,24.914C4.86,24.914 4.852,24.914 4.844,24.914C4.836,24.914 4.828,24.914 4.82,24.914C4.812,24.914 4.804,24.914 4.796,24.914C4.788,24.914 4.781,24.914 4.773,24.914C4.765,24.914 4.757,24.914 4.749,24.914C4.741,24.914 4.733,24.914 4.725,24.914C4.718,24.914 4.71,24.914 4.702,24.914C4.694,24.914 4.686,24.914 4.679,24.914C4.671,24.914 4.663,24.914 4.655,24.914C4.647,24.914 4.64,24.914 4.632,24.914C4.624,24.914 4.616,24.914 4.609,24.914C4.601,24.914 4.593,24.914 4.586,24.914C4.578,24.914 4.57,24.914 4.563,24.914C4.555,24.914 4.547,24.914 4.54,24.914C4.532,24.914 4.524,24.914 4.517,24.914C4.509,24.914 4.501,24.914 4.494,24.914C4.486,24.914 4.479,24.914 4.471,24.914C4.464,24.914 4.456,24.914 4.449,24.914C4.441,24.914 4.433,24.914 4.426,24.914C4.418,24.914 4.411,24.914 4.403,24.914C4.396,24.914 4.389,24.914 4.381,24.914C4.374,24.914 4.366,24.914 4.359,24.914C4.351,24.914 4.344,24.914 4.337,24.914C4.329,24.914 4.322,24.914 4.314,24.914C4.307,24.914 4.3,24.914 4.292,24.914C4.285,24.914 4.278,24.914 4.27,24.914C4.263,24.914 4.256,24.914 4.248,24.914C4.241,24.914 4.234,24.914 4.227,24.914C4.219,24.914 4.212,24.914 4.205,24.914C4.198,24.914 4.191,24.914 4.183,24.914C4.176,24.914 4.169,24.914 4.162,24.914C4.155,24.914 4.148,24.914 4.14,24.914C4.133,24.914 4.126,24.914 4.119,24.914C4.112,24.914 4.105,24.914 4.098,24.914C4.091,24.914 4.084,24.914 4.077,24.914C4.07,24.914 4.063,24.914 4.056,24.914C4.049,24.914 4.042,24.914 4.035,24.914C4.028,24.914 4.021,24.914 4.014,24.914C4.007,24.914 4,24.914 3.993,24.914C3.986,24.914 3.979,24.914 3.972,24.914C3.966,24.914 3.959,24.914 3.952,24.914C3.945,24.914 3.938,24.914 3.931,24.914C3.925,24.914 3.918,24.914 3.911,24.914C3.904,24.914 3.897,24.914 3.891,24.914C3.884,24.914 3.877,24.914 3.871,24.914C3.864,24.914 3.857,24.914 3.851,24.914C3.844,24.914 3.837,24.914 3.831,24.914C3.824,24.914 3.817,24.914 3.811,24.914C3.804,24.914 3.798,24.914 3.791,24.914C3.784,24.914 3.778,24.914 3.771,24.914C3.765,24.914 3.758,24.914 3.752,24.914C3.745,24.914 3.739,24.914 3.732,24.914C3.726,24.914 3.72,24.914 3.713,24.914C3.707,24.914 3.7,24.914 3.694,24.914C3.688,24.914 3.681,24.914 3.675,24.914C3.669,24.914 3.662,24.914 3.656,24.914C3.65,24.914 3.643,24.914 3.637,24.914C3.631,24.914 3.624,24.914 3.618,24.914C3.612,24.914 3.606,24.914 3.6,24.914C3.593,24.914 3.587,24.914 3.581,24.914C3.575,24.914 3.569,24.914 3.563,24.914C3.557,24.914 3.55,24.914 3.544,24.914C3.538,24.914 3.532,24.914 3.526,24.914C3.52,24.914 3.514,24.914 3.508,24.914C3.502,24.914 3.496,24.914 3.49,24.914C3.484,24.914 3.478,24.914 3.472,24.914C3.467,24.914 3.461,24.914 3.455,24.914C3.449,24.914 3.443,24.914 3.437,24.914C3.431,24.914 3.426,24.914 3.42,24.914C3.414,24.914 3.408,24.914 3.402,24.914C3.397,24.914 3.391,24.914 3.385,24.914C3.38,24.914 3.374,24.914 3.368,24.914C3.362,24.914 3.357,24.914 3.351,24.914C3.346,24.914 3.34,24.914 3.334,24.914C3.329,24.914 3.323,24.914 3.318,24.914C3.312,24.914 3.307,24.914 3.301,24.914C3.296,24.914 3.29,24.914 3.285,24.914C3.279,24.914 3.274,24.914 3.268,24.914C3.263,24.914 3.258,24.914 3.252,24.914C3.247,24.914 3.241,24.914 3.236,24.914C3.231,24.914 3.225,24.914 3.22,24.914C3.215,24.914 3.21,24.914 3.204,24.914C3.199,24.914 3.194,24.914 3.189,24.914C3.184,24.914 3.178,24.914 3.173,24.914C3.168,24.914 3.163,24.914 3.158,24.914C3.153,24.914 3.148,24.914 3.143,24.914C3.138,24.914 3.133,24.914 3.128,24.914C3.122,24.914 3.117,24.914 3.113,24.914C3.108,24.914 3.103,24.914 3.098,24.914C3.093,24.914 3.088,24.914 3.083,24.914C3.078,24.914 3.073,24.914 3.068,24.914C3.064,24.914 3.059,24.914 3.054,24.914C3.049,24.914 3.044,24.914 3.04,24.914C3.035,24.914 3.03,24.914 3.026,24.914C3.021,24.914 3.016,24.914 3.012,24.914C3.007,24.914 3.002,24.914 2.998,24.914C2.993,24.914 2.989,24.914 2.984,24.914C2.98,24.914 2.975,24.914 2.971,24.914C2.966,24.914 2.962,24.914 2.957,24.914C2.953,24.914 2.948,24.914 2.944,24.914C2.939,24.914 2.935,24.914 2.931,24.914C2.926,24.914 2.922,24.914 2.918,24.914C2.914,24.914 2.909,24.914 2.905,24.914C2.901,24.914 2.897,24.914 2.892,24.914C2.888,24.914 2.884,24.914 2.88,24.914C2.876,24.914 2.872,24.914 2.867,24.914C2.863,24.914 2.859,24.914 2.855,24.914C2.851,24.914 2.847,24.914 2.843,24.914C2.839,24.914 2.835,24.914 2.831,24.914C2.827,24.914 2.823,24.914 2.82,24.914C2.816,24.914 2.812,24.914 2.808,24.914C2.804,24.914 2.8,24.914 2.797,24.914C2.793,24.914 2.789,24.914 2.785,24.914C2.782,24.914 2.778,24.914 2.774,24.914C2.771,24.914 2.767,24.914 2.763,24.914C2.76,24.914 2.756,24.914 2.752,24.914C2.749,24.914 2.745,24.914 2.742,24.914C2.738,24.914 2.735,24.914 2.731,24.914C2.728,24.914 2.724,24.914 2.721,24.914C2.718,24.914 2.714,24.914 2.711,24.914C2.708,24.914 2.704,24.914 2.701,24.914C2.698,24.914 2.694,24.914 2.691,24.914C2.688,24.914 2.685,24.914 2.681,24.914C2.678,24.914 2.675,24.914 2.672,24.914C2.669,24.914 2.666,24.914 2.663,24.914C2.66,24.914 2.657,24.914 2.654,24.914C2.651,24.914 2.648,24.914 2.645,24.914C2.642,24.914 2.639,24.914 2.636,24.914C2.633,24.914 2.63,24.914 2.627,24.914C2.624,24.914 2.621,24.914 2.619,24.914C2.616,24.914 2.613,24.914 2.61,24.914C2.608,24.914 2.605,24.914 2.602,24.914C2.6,24.914 2.597,24.914 2.594,24.914C2.592,24.914 2.589,24.914 2.587,24.914C2.584,24.914 2.582,24.914 2.579,24.914C2.577,24.914 2.574,24.914 2.572,24.914C2.569,24.914 2.567,24.914 2.564,24.914C2.562,24.914 2.56,24.914 2.557,24.914C2.555,24.914 2.553,24.914 2.55,24.914C2.548,24.914 2.546,24.914 2.544,24.914C2.542,24.914 2.539,24.914 2.537,24.914C2.535,24.914 2.533,24.914 2.531,24.914C2.529,24.914 2.527,24.914 2.525,24.914C2.523,24.914 2.521,24.914 2.519,24.914C2.517,24.914 2.515,24.914 2.513,24.914C2.511,24.914 2.509,24.914 2.507,24.914C2.506,24.914 2.504,24.914 2.502,24.914C2.5,24.914 2.498,24.914 2.497,24.914C2.495,24.914 2.493,24.914 2.492,24.914C2.49,24.914 2.488,24.914 2.487,24.914C2.485,24.914 2.484,24.914 2.482,24.914C2.481,24.914 2.479,24.914 2.478,24.914C2.476,24.914 2.475,24.914 2.473,24.914C2.472,24.914 2.471,24.914 2.469,24.914C2.468,24.914 2.467,24.914 2.465,24.914C2.464,24.914 2.463,24.914 2.462,24.914C2.46,24.914 2.459,24.914 2.458,24.914C2.457,24.914 2.456,24.914 2.455,24.914C2.454,24.914 2.453,24.914 2.452,24.914C2.451,24.914 2.45,24.914 2.449,24.914C2.448,24.914 2.447,24.914 2.446,24.914C2.445,24.914 2.444,24.914 2.443,24.914C2.443,24.914 2.442,24.914 2.441,24.914C2.44,24.914 2.44,24.914 2.439,24.914C2.438,24.914 2.438,24.914 2.437,24.914C2.436,24.914 2.436,24.914 2.435,24.914C2.435,24.914 2.434,24.914 2.434,24.914C2.433,24.914 2.433,24.914 2.432,24.914C2.432,24.914 2.432,24.914 2.431,24.914C2.431,24.914 2.431,24.914 2.43,24.914C2.43,24.914 2.43,24.914 2.43,24.914C2.429,24.914 2.429,24.914 2.429,24.914C2.429,24.914 2.429,24.914 2.429,24.914C2.429,24.914 2.429,24.914 2.429,26.286Z" transform="rotate(0 7.572 21.714)" fill="#FFFFFF"/>
<path d="M12.714,15.771C11.694,15.771 10.625,15.164 9.753,14.052C8.886,12.945 8.371,11.522 8.371,10.286L5.629,10.286C5.629,12.205 6.393,14.211 7.594,15.743C8.791,17.271 10.579,18.514 12.714,18.514L12.714,15.771ZM8.371,10.286L8.371,9.143L5.629,9.143L5.629,10.286L8.371,10.286ZM8.371,9.143C8.371,6.745 10.316,4.8 12.714,4.8L12.714,2.057C8.801,2.057 5.629,5.23 5.629,9.143L8.371,9.143ZM12.714,4.8C15.112,4.8 17.057,6.745 17.057,9.143L19.8,9.143C19.8,5.23 16.627,2.057 12.714,2.057L12.714,4.8ZM17.057,9.143L17.057,10.286L19.8,10.286L19.8,9.143L17.057,9.143ZM17.057,10.286C17.057,11.522 16.543,12.945 15.675,14.052C14.804,15.164 13.734,15.771 12.714,15.771L12.714,18.514C14.85,18.514 16.638,17.271 17.834,15.743C19.035,14.211 19.8,12.205 19.8,10.286L17.057,10.286Z" transform="rotate(0 12.714 10.286)" fill="#FFFFFF"/>
<path d="M23,27.429L22.053,28.421L23,29.324L23.947,28.421L23,27.429ZM26.2,20.362C26.2,20.695 26.044,21.231 25.652,21.953C25.277,22.644 24.759,23.372 24.215,24.053C23.675,24.728 23.131,25.328 22.72,25.76C22.515,25.976 22.346,26.148 22.229,26.264C22.17,26.323 22.125,26.367 22.095,26.396C22.08,26.411 22.069,26.422 22.062,26.429C22.058,26.432 22.056,26.434 22.054,26.436C22.054,26.436 22.053,26.437 22.053,26.437C22.053,26.437 22.053,26.437 22.053,26.437C22.053,26.437 22.053,26.437 22.053,26.437C22.053,26.437 22.053,26.436 23,27.429C23.947,28.421 23.947,28.421 23.947,28.42C23.947,28.42 23.948,28.42 23.948,28.42C23.948,28.42 23.948,28.419 23.949,28.419C23.95,28.418 23.951,28.417 23.953,28.415C23.956,28.412 23.96,28.408 23.965,28.403C23.975,28.393 23.99,28.379 24.008,28.361C24.045,28.325 24.098,28.273 24.165,28.207C24.297,28.075 24.485,27.885 24.709,27.649C25.155,27.179 25.754,26.519 26.357,25.766C26.955,25.018 27.581,24.149 28.062,23.262C28.528,22.405 28.943,21.381 28.943,20.362L26.2,20.362ZM23,27.429C23.947,26.436 23.947,26.437 23.947,26.437C23.947,26.437 23.947,26.437 23.947,26.437C23.947,26.437 23.947,26.437 23.947,26.437C23.947,26.437 23.947,26.436 23.946,26.436C23.945,26.434 23.942,26.432 23.939,26.429C23.932,26.422 23.921,26.411 23.906,26.396C23.876,26.367 23.83,26.323 23.772,26.264C23.655,26.148 23.485,25.976 23.28,25.76C22.87,25.328 22.326,24.728 21.785,24.053C21.241,23.372 20.724,22.644 20.348,21.953C19.956,21.231 19.8,20.695 19.8,20.362L17.057,20.362C17.057,21.381 17.472,22.405 17.938,23.262C18.42,24.149 19.045,25.018 19.644,25.766C20.246,26.519 20.845,27.179 21.291,27.649C21.515,27.885 21.703,28.075 21.836,28.207C21.902,28.273 21.955,28.325 21.992,28.361C22.01,28.379 22.025,28.393 22.035,28.403C22.04,28.408 22.045,28.412 22.048,28.415C22.049,28.417 22.05,28.418 22.051,28.419C22.052,28.419 22.052,28.42 22.053,28.42C22.053,28.42 22.053,28.42 22.053,28.42C22.053,28.421 22.053,28.421 23,27.429ZM19.8,20.362C19.8,18.523 21.352,17.371 23,17.371L23,14.629C20.26,14.629 17.057,16.618 17.057,20.362L19.8,20.362ZM23,17.371C24.648,17.371 26.2,18.523 26.2,20.362L28.943,20.362C28.943,16.618 25.74,14.629 23,14.629L23,17.371Z" transform="rotate(0 23 21.714)" fill="#FFFFFF"/>
<circle cx="23" cy="20.571" r="1.143" transform="rotate(0 23 20.571)" fill="#FFFFFF"/>
</svg>
