<svg width="32" height="32" viewBox="0 0 32 32" fill="none" xmlns="http://www.w3.org/2000/svg" xmlns:xlink="http://www.w3.org/1999/xlink">
<path d="M26.286,22.198L27.536,22.762L28.136,21.431L26.771,20.915L26.286,22.198ZM24.73,25.101L23.584,24.347L23.584,24.348L24.73,25.101ZM20.532,28.568L20.52,27.197L20.519,27.197L20.532,28.568ZM16.434,27.56L16.427,26.189L16.427,26.189L16.434,27.56ZM12.295,28.571L12.308,27.2L12.307,27.2L12.295,28.571ZM8.171,25.289L7.025,26.042L7.025,26.043L8.171,25.289ZM6.795,13.264L7.945,14.011L7.946,14.011L6.795,13.264ZM25.587,12.669L26.246,13.871L27.681,13.085L26.657,11.81L25.587,12.669ZM25.036,21.634C24.488,22.846 24.254,23.329 23.584,24.347L25.876,25.854C26.656,24.668 26.958,24.041 27.536,22.762L25.036,21.634ZM23.584,24.348C23.087,25.104 22.55,25.856 21.966,26.414C21.371,26.984 20.894,27.193 20.52,27.197L20.545,29.939C21.935,29.927 23.053,29.171 23.863,28.395C24.685,27.608 25.364,26.634 25.877,25.853L23.584,24.348ZM20.519,27.197C20.086,27.201 19.864,27.091 19.26,26.816C18.606,26.52 17.767,26.181 16.427,26.189L16.442,28.931C17.229,28.927 17.656,29.1 18.127,29.314C18.648,29.551 19.411,29.95 20.545,29.939L20.519,27.197ZM16.427,26.189C15.096,26.196 14.255,26.532 13.6,26.821C12.99,27.091 12.751,27.204 12.308,27.2L12.282,29.943C13.407,29.953 14.174,29.567 14.709,29.33C15.2,29.113 15.645,28.936 16.442,28.931L16.427,26.189ZM12.307,27.2C11.895,27.196 11.428,26.995 10.877,26.49C10.324,25.983 9.81,25.285 9.317,24.536L7.025,26.043C7.544,26.832 8.21,27.767 9.024,28.513C9.84,29.26 10.93,29.931 12.282,29.943L12.307,27.2ZM9.318,24.536C8.026,22.569 7.323,20.445 7.136,18.536C6.947,16.603 7.295,15.012 7.945,14.011L5.645,12.517C4.554,14.197 4.178,16.469 4.407,18.803C4.638,21.162 5.493,23.709 7.025,26.042L9.318,24.536ZM7.946,14.011C8.974,12.427 10.526,11.615 11.823,11.615L11.823,8.872C9.447,8.872 7.092,10.289 5.645,12.517L7.946,14.011ZM11.823,11.615C12.501,11.615 13.068,11.795 13.78,12.048C14.444,12.284 15.359,12.64 16.414,12.64L16.414,9.897C15.922,9.897 15.476,9.74 14.699,9.464C13.969,9.204 13.014,8.872 11.823,8.872L11.823,11.615ZM16.414,12.64C17.465,12.64 18.328,12.267 18.933,12.04C19.565,11.804 20.152,11.614 20.988,11.614L20.988,8.871C19.664,8.871 18.713,9.194 17.973,9.471C17.206,9.758 16.862,9.897 16.414,9.897L16.414,12.64ZM20.988,11.614C22.138,11.614 23.497,12.256 24.518,13.527L26.657,11.81C25.209,10.007 23.108,8.871 20.988,8.871L20.988,11.614ZM24.928,11.466C19.79,14.282 20.697,21.551 25.8,23.481L26.771,20.915C23.707,19.757 23.302,15.485 26.246,13.871L24.928,11.466Z" transform="rotate(0 16 19.407)" fill="#171A1F"/>
<path d="M19.543,6.229C20.286,5.275 20.849,3.93 20.645,2.555C19.431,2.639 18.014,3.41 17.185,4.416C16.433,5.329 15.813,6.682 16.054,7.999C17.377,8.04 18.747,7.249 19.543,6.229Z" transform="rotate(0 18.344 5.278)" fill="#171A1F"/>
</svg>
