<svg width="32" height="32" viewBox="0 0 32 32" fill="none" xmlns="http://www.w3.org/2000/svg" xmlns:xlink="http://www.w3.org/1999/xlink">
<path d="M5.743,18.506L5.305,17.207L5.304,17.207L5.743,18.506ZM3.429,26.286L2.057,26.286L2.057,27.657L3.429,27.657L3.429,26.286ZM13.714,15.771C10.29,15.771 7.273,16.543 5.305,17.207L6.181,19.806C7.975,19.201 10.684,18.514 13.714,18.514L13.714,15.771ZM5.304,17.207C3.35,17.868 2.057,19.705 2.057,21.751L4.8,21.751C4.8,20.864 5.359,20.084 6.182,19.805L5.304,17.207ZM2.057,21.751L2.057,26.286L4.8,26.286L4.8,21.751L2.057,21.751ZM3.429,26.286C3.429,27.657 3.429,27.657 3.429,27.657C3.429,27.657 3.429,27.657 3.429,27.657C3.429,27.657 3.429,27.657 3.43,27.657C3.43,27.657 3.43,27.657 3.43,27.657C3.431,27.657 3.431,27.657 3.431,27.657C3.432,27.657 3.432,27.657 3.432,27.657C3.433,27.657 3.433,27.657 3.434,27.657C3.434,27.657 3.435,27.657 3.435,27.657C3.436,27.657 3.436,27.657 3.437,27.657C3.438,27.657 3.438,27.657 3.439,27.657C3.44,27.657 3.44,27.657 3.441,27.657C3.442,27.657 3.443,27.657 3.443,27.657C3.444,27.657 3.445,27.657 3.446,27.657C3.447,27.657 3.448,27.657 3.449,27.657C3.45,27.657 3.451,27.657 3.452,27.657C3.453,27.657 3.454,27.657 3.455,27.657C3.456,27.657 3.457,27.657 3.458,27.657C3.459,27.657 3.46,27.657 3.462,27.657C3.463,27.657 3.464,27.657 3.465,27.657C3.467,27.657 3.468,27.657 3.469,27.657C3.471,27.657 3.472,27.657 3.473,27.657C3.475,27.657 3.476,27.657 3.478,27.657C3.479,27.657 3.481,27.657 3.482,27.657C3.484,27.657 3.485,27.657 3.487,27.657C3.488,27.657 3.49,27.657 3.492,27.657C3.493,27.657 3.495,27.657 3.497,27.657C3.498,27.657 3.5,27.657 3.502,27.657C3.504,27.657 3.506,27.657 3.507,27.657C3.509,27.657 3.511,27.657 3.513,27.657C3.515,27.657 3.517,27.657 3.519,27.657C3.521,27.657 3.523,27.657 3.525,27.657C3.527,27.657 3.529,27.657 3.531,27.657C3.533,27.657 3.535,27.657 3.537,27.657C3.539,27.657 3.542,27.657 3.544,27.657C3.546,27.657 3.548,27.657 3.55,27.657C3.553,27.657 3.555,27.657 3.557,27.657C3.56,27.657 3.562,27.657 3.564,27.657C3.567,27.657 3.569,27.657 3.572,27.657C3.574,27.657 3.577,27.657 3.579,27.657C3.582,27.657 3.584,27.657 3.587,27.657C3.589,27.657 3.592,27.657 3.594,27.657C3.597,27.657 3.6,27.657 3.602,27.657C3.605,27.657 3.608,27.657 3.61,27.657C3.613,27.657 3.616,27.657 3.619,27.657C3.621,27.657 3.624,27.657 3.627,27.657C3.63,27.657 3.633,27.657 3.636,27.657C3.639,27.657 3.642,27.657 3.645,27.657C3.648,27.657 3.651,27.657 3.654,27.657C3.657,27.657 3.66,27.657 3.663,27.657C3.666,27.657 3.669,27.657 3.672,27.657C3.675,27.657 3.678,27.657 3.681,27.657C3.685,27.657 3.688,27.657 3.691,27.657C3.694,27.657 3.698,27.657 3.701,27.657C3.704,27.657 3.708,27.657 3.711,27.657C3.714,27.657 3.718,27.657 3.721,27.657C3.724,27.657 3.728,27.657 3.731,27.657C3.735,27.657 3.738,27.657 3.742,27.657C3.745,27.657 3.749,27.657 3.752,27.657C3.756,27.657 3.76,27.657 3.763,27.657C3.767,27.657 3.771,27.657 3.774,27.657C3.778,27.657 3.782,27.657 3.785,27.657C3.789,27.657 3.793,27.657 3.797,27.657C3.8,27.657 3.804,27.657 3.808,27.657C3.812,27.657 3.816,27.657 3.82,27.657C3.823,27.657 3.827,27.657 3.831,27.657C3.835,27.657 3.839,27.657 3.843,27.657C3.847,27.657 3.851,27.657 3.855,27.657C3.859,27.657 3.863,27.657 3.867,27.657C3.872,27.657 3.876,27.657 3.88,27.657C3.884,27.657 3.888,27.657 3.892,27.657C3.897,27.657 3.901,27.657 3.905,27.657C3.909,27.657 3.914,27.657 3.918,27.657C3.922,27.657 3.926,27.657 3.931,27.657C3.935,27.657 3.939,27.657 3.944,27.657C3.948,27.657 3.953,27.657 3.957,27.657C3.962,27.657 3.966,27.657 3.971,27.657C3.975,27.657 3.98,27.657 3.984,27.657C3.989,27.657 3.993,27.657 3.998,27.657C4.002,27.657 4.007,27.657 4.012,27.657C4.016,27.657 4.021,27.657 4.026,27.657C4.03,27.657 4.035,27.657 4.04,27.657C4.044,27.657 4.049,27.657 4.054,27.657C4.059,27.657 4.064,27.657 4.068,27.657C4.073,27.657 4.078,27.657 4.083,27.657C4.088,27.657 4.093,27.657 4.098,27.657C4.103,27.657 4.108,27.657 4.113,27.657C4.117,27.657 4.122,27.657 4.128,27.657C4.133,27.657 4.138,27.657 4.143,27.657C4.148,27.657 4.153,27.657 4.158,27.657C4.163,27.657 4.168,27.657 4.173,27.657C4.178,27.657 4.184,27.657 4.189,27.657C4.194,27.657 4.199,27.657 4.204,27.657C4.21,27.657 4.215,27.657 4.22,27.657C4.225,27.657 4.231,27.657 4.236,27.657C4.241,27.657 4.247,27.657 4.252,27.657C4.258,27.657 4.263,27.657 4.268,27.657C4.274,27.657 4.279,27.657 4.285,27.657C4.29,27.657 4.296,27.657 4.301,27.657C4.307,27.657 4.312,27.657 4.318,27.657C4.323,27.657 4.329,27.657 4.334,27.657C4.34,27.657 4.346,27.657 4.351,27.657C4.357,27.657 4.362,27.657 4.368,27.657C4.374,27.657 4.38,27.657 4.385,27.657C4.391,27.657 4.397,27.657 4.402,27.657C4.408,27.657 4.414,27.657 4.42,27.657C4.426,27.657 4.431,27.657 4.437,27.657C4.443,27.657 4.449,27.657 4.455,27.657C4.461,27.657 4.467,27.657 4.472,27.657C4.478,27.657 4.484,27.657 4.49,27.657C4.496,27.657 4.502,27.657 4.508,27.657C4.514,27.657 4.52,27.657 4.526,27.657C4.532,27.657 4.538,27.657 4.544,27.657C4.55,27.657 4.557,27.657 4.563,27.657C4.569,27.657 4.575,27.657 4.581,27.657C4.587,27.657 4.593,27.657 4.6,27.657C4.606,27.657 4.612,27.657 4.618,27.657C4.624,27.657 4.631,27.657 4.637,27.657C4.643,27.657 4.65,27.657 4.656,27.657C4.662,27.657 4.669,27.657 4.675,27.657C4.681,27.657 4.688,27.657 4.694,27.657C4.7,27.657 4.707,27.657 4.713,27.657C4.72,27.657 4.726,27.657 4.732,27.657C4.739,27.657 4.745,27.657 4.752,27.657C4.758,27.657 4.765,27.657 4.771,27.657C4.778,27.657 4.784,27.657 4.791,27.657C4.798,27.657 4.804,27.657 4.811,27.657C4.817,27.657 4.824,27.657 4.831,27.657C4.837,27.657 4.844,27.657 4.851,27.657C4.857,27.657 4.864,27.657 4.871,27.657C4.877,27.657 4.884,27.657 4.891,27.657C4.897,27.657 4.904,27.657 4.911,27.657C4.918,27.657 4.925,27.657 4.931,27.657C4.938,27.657 4.945,27.657 4.952,27.657C4.959,27.657 4.966,27.657 4.972,27.657C4.979,27.657 4.986,27.657 4.993,27.657C5,27.657 5.007,27.657 5.014,27.657C5.021,27.657 5.028,27.657 5.035,27.657C5.042,27.657 5.049,27.657 5.056,27.657C5.063,27.657 5.07,27.657 5.077,27.657C5.084,27.657 5.091,27.657 5.098,27.657C5.105,27.657 5.112,27.657 5.119,27.657C5.126,27.657 5.133,27.657 5.14,27.657C5.148,27.657 5.155,27.657 5.162,27.657C5.169,27.657 5.176,27.657 5.183,27.657C5.191,27.657 5.198,27.657 5.205,27.657C5.212,27.657 5.219,27.657 5.227,27.657C5.234,27.657 5.241,27.657 5.248,27.657C5.256,27.657 5.263,27.657 5.27,27.657C5.278,27.657 5.285,27.657 5.292,27.657C5.3,27.657 5.307,27.657 5.314,27.657C5.322,27.657 5.329,27.657 5.337,27.657C5.344,27.657 5.351,27.657 5.359,27.657C5.366,27.657 5.374,27.657 5.381,27.657C5.389,27.657 5.396,27.657 5.403,27.657C5.411,27.657 5.418,27.657 5.426,27.657C5.433,27.657 5.441,27.657 5.449,27.657C5.456,27.657 5.464,27.657 5.471,27.657C5.479,27.657 5.486,27.657 5.494,27.657C5.501,27.657 5.509,27.657 5.517,27.657C5.524,27.657 5.532,27.657 5.54,27.657C5.547,27.657 5.555,27.657 5.563,27.657C5.57,27.657 5.578,27.657 5.586,27.657C5.593,27.657 5.601,27.657 5.609,27.657C5.616,27.657 5.624,27.657 5.632,27.657C5.64,27.657 5.647,27.657 5.655,27.657C5.663,27.657 5.671,27.657 5.679,27.657C5.686,27.657 5.694,27.657 5.702,27.657C5.71,27.657 5.718,27.657 5.725,27.657C5.733,27.657 5.741,27.657 5.749,27.657C5.757,27.657 5.765,27.657 5.773,27.657C5.781,27.657 5.788,27.657 5.796,27.657C5.804,27.657 5.812,27.657 5.82,27.657C5.828,27.657 5.836,27.657 5.844,27.657C5.852,27.657 5.86,27.657 5.868,27.657C5.876,27.657 5.884,27.657 5.892,27.657C5.9,27.657 5.908,27.657 5.916,27.657C5.924,27.657 5.932,27.657 5.94,27.657C5.948,27.657 5.956,27.657 5.964,27.657C5.972,27.657 5.98,27.657 5.988,27.657C5.996,27.657 6.005,27.657 6.013,27.657C6.021,27.657 6.029,27.657 6.037,27.657C6.045,27.657 6.053,27.657 6.061,27.657C6.07,27.657 6.078,27.657 6.086,27.657C6.094,27.657 6.102,27.657 6.111,27.657C6.119,27.657 6.127,27.657 6.135,27.657C6.143,27.657 6.152,27.657 6.16,27.657C6.168,27.657 6.176,27.657 6.184,27.657C6.193,27.657 6.201,27.657 6.209,27.657C6.218,27.657 6.226,27.657 6.234,27.657C6.242,27.657 6.251,27.657 6.259,27.657C6.267,27.657 6.276,27.657 6.284,27.657C6.292,27.657 6.301,27.657 6.309,27.657C6.317,27.657 6.326,27.657 6.334,27.657C6.342,27.657 6.351,27.657 6.359,27.657C6.367,27.657 6.376,27.657 6.384,27.657C6.393,27.657 6.401,27.657 6.409,27.657C6.418,27.657 6.426,27.657 6.435,27.657C6.443,27.657 6.452,27.657 6.46,27.657C6.468,27.657 6.477,27.657 6.485,27.657C6.494,27.657 6.502,27.657 6.511,27.657C6.519,27.657 6.528,27.657 6.536,27.657C6.545,27.657 6.553,27.657 6.562,27.657C6.57,27.657 6.579,27.657 6.587,27.657C6.596,27.657 6.604,27.657 6.613,27.657C6.621,27.657 6.63,27.657 6.638,27.657C6.647,27.657 6.655,27.657 6.664,27.657C6.673,27.657 6.681,27.657 6.69,27.657C6.698,27.657 6.707,27.657 6.715,27.657C6.724,27.657 6.733,27.657 6.741,27.657C6.75,27.657 6.758,27.657 6.767,27.657C6.776,27.657 6.784,27.657 6.793,27.657C6.801,27.657 6.81,27.657 6.819,27.657C6.827,27.657 6.836,27.657 6.845,27.657C6.853,27.657 6.862,27.657 6.871,27.657C6.879,27.657 6.888,27.657 6.897,27.657C6.905,27.657 6.914,27.657 6.923,27.657C6.931,27.657 6.94,27.657 6.949,27.657C6.957,27.657 6.966,27.657 6.975,27.657C6.983,27.657 6.992,27.657 7.001,27.657C7.01,27.657 7.018,27.657 7.027,27.657C7.036,27.657 7.044,27.657 7.053,27.657C7.062,27.657 7.071,27.657 7.079,27.657C7.088,27.657 7.097,27.657 7.106,27.657C7.114,27.657 7.123,27.657 7.132,27.657C7.141,27.657 7.149,27.657 7.158,27.657C7.167,27.657 7.176,27.657 7.185,27.657C7.193,27.657 7.202,27.657 7.211,27.657C7.22,27.657 7.228,27.657 7.237,27.657C7.246,27.657 7.255,27.657 7.264,27.657C7.272,27.657 7.281,27.657 7.29,27.657C7.299,27.657 7.308,27.657 7.317,27.657C7.325,27.657 7.334,27.657 7.343,27.657C7.352,27.657 7.361,27.657 7.369,27.657C7.378,27.657 7.387,27.657 7.396,27.657C7.405,27.657 7.414,27.657 7.422,27.657C7.431,27.657 7.44,27.657 7.449,27.657C7.458,27.657 7.467,27.657 7.476,27.657C7.484,27.657 7.493,27.657 7.502,27.657C7.511,27.657 7.52,27.657 7.529,27.657C7.538,27.657 7.546,27.657 7.555,27.657C7.564,27.657 7.573,27.657 7.582,27.657C7.591,27.657 7.6,27.657 7.609,27.657C7.617,27.657 7.626,27.657 7.635,27.657C7.644,27.657 7.653,27.657 7.662,27.657C7.671,27.657 7.68,27.657 7.688,27.657C7.697,27.657 7.706,27.657 7.715,27.657C7.724,27.657 7.733,27.657 7.742,27.657C7.751,27.657 7.76,27.657 7.769,27.657C7.777,27.657 7.786,27.657 7.795,27.657C7.804,27.657 7.813,27.657 7.822,27.657C7.831,27.657 7.84,27.657 7.849,27.657C7.857,27.657 7.866,27.657 7.875,27.657C7.884,27.657 7.893,27.657 7.902,27.657C7.911,27.657 7.92,27.657 7.929,27.657C7.938,27.657 7.947,27.657 7.955,27.657C7.964,27.657 7.973,27.657 7.982,27.657C7.991,27.657 8,27.657 8.009,27.657C8.018,27.657 8.027,27.657 8.036,27.657C8.044,27.657 8.053,27.657 8.062,27.657C8.071,27.657 8.08,27.657 8.089,27.657C8.098,27.657 8.107,27.657 8.116,27.657C8.125,27.657 8.134,27.657 8.142,27.657C8.151,27.657 8.16,27.657 8.169,27.657C8.178,27.657 8.187,27.657 8.196,27.657C8.205,27.657 8.214,27.657 8.223,27.657C8.231,27.657 8.24,27.657 8.249,27.657C8.258,27.657 8.267,27.657 8.276,27.657C8.285,27.657 8.294,27.657 8.303,27.657C8.311,27.657 8.32,27.657 8.329,27.657C8.338,27.657 8.347,27.657 8.356,27.657C8.365,27.657 8.374,27.657 8.382,27.657C8.391,27.657 8.4,27.657 8.409,27.657C8.418,27.657 8.427,27.657 8.436,27.657C8.445,27.657 8.453,27.657 8.462,27.657C8.471,27.657 8.48,27.657 8.489,27.657C8.498,27.657 8.507,27.657 8.515,27.657C8.524,27.657 8.533,27.657 8.542,27.657C8.551,27.657 8.56,27.657 8.569,27.657C8.577,27.657 8.586,27.657 8.595,27.657C8.604,27.657 8.613,27.657 8.622,27.657C8.63,27.657 8.639,27.657 8.648,27.657C8.657,27.657 8.666,27.657 8.675,27.657C8.683,27.657 8.692,27.657 8.701,27.657C8.71,27.657 8.719,27.657 8.727,27.657C8.736,27.657 8.745,27.657 8.754,27.657C8.763,27.657 8.771,27.657 8.78,27.657C8.789,27.657 8.798,27.657 8.807,27.657C8.815,27.657 8.824,27.657 8.833,27.657C8.842,27.657 8.85,27.657 8.859,27.657C8.868,27.657 8.877,27.657 8.885,27.657C8.894,27.657 8.903,27.657 8.912,27.657C8.92,27.657 8.929,27.657 8.938,27.657C8.947,27.657 8.955,27.657 8.964,27.657C8.973,27.657 8.982,27.657 8.99,27.657C8.999,27.657 9.008,27.657 9.016,27.657C9.025,27.657 9.034,27.657 9.043,27.657C9.051,27.657 9.06,27.657 9.069,27.657C9.077,27.657 9.086,27.657 9.095,27.657C9.103,27.657 9.112,27.657 9.121,27.657C9.129,27.657 9.138,27.657 9.147,27.657C9.155,27.657 9.164,27.657 9.173,27.657C9.181,27.657 9.19,27.657 9.198,27.657C9.207,27.657 9.216,27.657 9.224,27.657C9.233,27.657 9.242,27.657 9.25,27.657C9.259,27.657 9.267,27.657 9.276,27.657C9.285,27.657 9.293,27.657 9.302,27.657C9.31,27.657 9.319,27.657 9.327,27.657C9.336,27.657 9.345,27.657 9.353,27.657C9.362,27.657 9.37,27.657 9.379,27.657C9.387,27.657 9.396,27.657 9.404,27.657C9.413,27.657 9.421,27.657 9.43,27.657C9.438,27.657 9.447,27.657 9.455,27.657C9.464,27.657 9.472,27.657 9.481,27.657C9.489,27.657 9.498,27.657 9.506,27.657C9.515,27.657 9.523,27.657 9.532,27.657C9.54,27.657 9.548,27.657 9.557,27.657C9.565,27.657 9.574,27.657 9.582,27.657C9.591,27.657 9.599,27.657 9.607,27.657C9.616,27.657 9.624,27.657 9.633,27.657C9.641,27.657 9.649,27.657 9.658,27.657C9.666,27.657 9.674,27.657 9.683,27.657C9.691,27.657 9.699,27.657 9.708,27.657C9.716,27.657 9.724,27.657 9.733,27.657C9.741,27.657 9.749,27.657 9.758,27.657C9.766,27.657 9.774,27.657 9.782,27.657C9.791,27.657 9.799,27.657 9.807,27.657C9.815,27.657 9.824,27.657 9.832,27.657C9.84,27.657 9.848,27.657 9.857,27.657C9.865,27.657 9.873,27.657 9.881,27.657C9.889,27.657 9.898,27.657 9.906,27.657C9.914,27.657 9.922,27.657 9.93,27.657C9.938,27.657 9.947,27.657 9.955,27.657C9.963,27.657 9.971,27.657 9.979,27.657C9.987,27.657 9.995,27.657 10.003,27.657C10.012,27.657 10.02,27.657 10.028,27.657C10.036,27.657 10.044,27.657 10.052,27.657C10.06,27.657 10.068,27.657 10.076,27.657C10.084,27.657 10.092,27.657 10.1,27.657C10.108,27.657 10.116,27.657 10.124,27.657C10.132,27.657 10.14,27.657 10.148,27.657C10.156,27.657 10.164,27.657 10.172,27.657C10.18,27.657 10.188,27.657 10.196,27.657C10.204,27.657 10.212,27.657 10.219,27.657C10.227,27.657 10.235,27.657 10.243,27.657C10.251,27.657 10.259,27.657 10.267,27.657C10.275,27.657 10.282,27.657 10.29,27.657C10.298,27.657 10.306,27.657 10.314,27.657C10.321,27.657 10.329,27.657 10.337,27.657C10.345,27.657 10.353,27.657 10.36,27.657C10.368,27.657 10.376,27.657 10.384,27.657C10.391,27.657 10.399,27.657 10.407,27.657C10.414,27.657 10.422,27.657 10.43,27.657C10.437,27.657 10.445,27.657 10.453,27.657C10.46,27.657 10.468,27.657 10.476,27.657C10.483,27.657 10.491,27.657 10.499,27.657C10.506,27.657 10.514,27.657 10.521,27.657C10.529,27.657 10.536,27.657 10.544,27.657C10.551,27.657 10.559,27.657 10.567,27.657C10.574,27.657 10.582,27.657 10.589,27.657C10.597,27.657 10.604,27.657 10.611,27.657C10.619,27.657 10.626,27.657 10.634,27.657C10.641,27.657 10.649,27.657 10.656,27.657C10.663,27.657 10.671,27.657 10.678,27.657C10.686,27.657 10.693,27.657 10.7,27.657C10.708,27.657 10.715,27.657 10.722,27.657C10.73,27.657 10.737,27.657 10.744,27.657C10.752,27.657 10.759,27.657 10.766,27.657C10.773,27.657 10.781,27.657 10.788,27.657C10.795,27.657 10.802,27.657 10.809,27.657C10.817,27.657 10.824,27.657 10.831,27.657C10.838,27.657 10.845,27.657 10.852,27.657C10.86,27.657 10.867,27.657 10.874,27.657C10.881,27.657 10.888,27.657 10.895,27.657C10.902,27.657 10.909,27.657 10.916,27.657C10.923,27.657 10.93,27.657 10.937,27.657C10.944,27.657 10.951,27.657 10.958,27.657C10.965,27.657 10.972,27.657 10.979,27.657C10.986,27.657 10.993,27.657 11,27.657C11.007,27.657 11.014,27.657 11.021,27.657C11.028,27.657 11.035,27.657 11.041,27.657C11.048,27.657 11.055,27.657 11.062,27.657C11.069,27.657 11.075,27.657 11.082,27.657C11.089,27.657 11.096,27.657 11.103,27.657C11.109,27.657 11.116,27.657 11.123,27.657C11.129,27.657 11.136,27.657 11.143,27.657C11.15,27.657 11.156,27.657 11.163,27.657C11.169,27.657 11.176,27.657 11.183,27.657C11.189,27.657 11.196,27.657 11.202,27.657C11.209,27.657 11.216,27.657 11.222,27.657C11.229,27.657 11.235,27.657 11.242,27.657C11.248,27.657 11.255,27.657 11.261,27.657C11.268,27.657 11.274,27.657 11.281,27.657C11.287,27.657 11.293,27.657 11.3,27.657C11.306,27.657 11.313,27.657 11.319,27.657C11.325,27.657 11.332,27.657 11.338,27.657C11.344,27.657 11.351,27.657 11.357,27.657C11.363,27.657 11.369,27.657 11.376,27.657C11.382,27.657 11.388,27.657 11.394,27.657C11.4,27.657 11.407,27.657 11.413,27.657C11.419,27.657 11.425,27.657 11.431,27.657C11.437,27.657 11.443,27.657 11.45,27.657C11.456,27.657 11.462,27.657 11.468,27.657C11.474,27.657 11.48,27.657 11.486,27.657C11.492,27.657 11.498,27.657 11.504,27.657C11.51,27.657 11.516,27.657 11.522,27.657C11.528,27.657 11.534,27.657 11.539,27.657C11.545,27.657 11.551,27.657 11.557,27.657C11.563,27.657 11.569,27.657 11.575,27.657C11.58,27.657 11.586,27.657 11.592,27.657C11.598,27.657 11.603,27.657 11.609,27.657C11.615,27.657 11.621,27.657 11.626,27.657C11.632,27.657 11.638,27.657 11.643,27.657C11.649,27.657 11.655,27.657 11.66,27.657C11.666,27.657 11.671,27.657 11.677,27.657C11.682,27.657 11.688,27.657 11.694,27.657C11.699,27.657 11.705,27.657 11.71,27.657C11.715,27.657 11.721,27.657 11.726,27.657C11.732,27.657 11.737,27.657 11.743,27.657C11.748,27.657 11.753,27.657 11.759,27.657C11.764,27.657 11.769,27.657 11.775,27.657C11.78,27.657 11.785,27.657 11.79,27.657C11.796,27.657 11.801,27.657 11.806,27.657C11.811,27.657 11.817,27.657 11.822,27.657C11.827,27.657 11.832,27.657 11.837,27.657C11.842,27.657 11.847,27.657 11.852,27.657C11.858,27.657 11.863,27.657 11.868,27.657C11.873,27.657 11.878,27.657 11.883,27.657C11.888,27.657 11.893,27.657 11.898,27.657C11.902,27.657 11.907,27.657 11.912,27.657C11.917,27.657 11.922,27.657 11.927,27.657C11.932,27.657 11.937,27.657 11.941,27.657C11.946,27.657 11.951,27.657 11.956,27.657C11.96,27.657 11.965,27.657 11.97,27.657C11.975,27.657 11.979,27.657 11.984,27.657C11.989,27.657 11.993,27.657 11.998,27.657C12.002,27.657 12.007,27.657 12.012,27.657C12.016,27.657 12.021,27.657 12.025,27.657C12.03,27.657 12.034,27.657 12.039,27.657C12.043,27.657 12.047,27.657 12.052,27.657C12.056,27.657 12.061,27.657 12.065,27.657C12.069,27.657 12.074,27.657 12.078,27.657C12.082,27.657 12.087,27.657 12.091,27.657C12.095,27.657 12.099,27.657 12.104,27.657C12.108,27.657 12.112,27.657 12.116,27.657C12.12,27.657 12.125,27.657 12.129,27.657C12.133,27.657 12.137,27.657 12.141,27.657C12.145,27.657 12.149,27.657 12.153,27.657C12.157,27.657 12.161,27.657 12.165,27.657C12.169,27.657 12.173,27.657 12.177,27.657C12.181,27.657 12.185,27.657 12.188,27.657C12.192,27.657 12.196,27.657 12.2,27.657C12.204,27.657 12.207,27.657 12.211,27.657C12.215,27.657 12.219,27.657 12.222,27.657C12.226,27.657 12.23,27.657 12.233,27.657C12.237,27.657 12.241,27.657 12.244,27.657C12.248,27.657 12.251,27.657 12.255,27.657C12.258,27.657 12.262,27.657 12.265,27.657C12.269,27.657 12.272,27.657 12.276,27.657C12.279,27.657 12.283,27.657 12.286,27.657C12.289,27.657 12.293,27.657 12.296,27.657C12.299,27.657 12.303,27.657 12.306,27.657C12.309,27.657 12.312,27.657 12.316,27.657C12.319,27.657 12.322,27.657 12.325,27.657C12.328,27.657 12.331,27.657 12.334,27.657C12.338,27.657 12.341,27.657 12.344,27.657C12.347,27.657 12.35,27.657 12.353,27.657C12.356,27.657 12.359,27.657 12.362,27.657C12.365,27.657 12.367,27.657 12.37,27.657C12.373,27.657 12.376,27.657 12.379,27.657C12.382,27.657 12.384,27.657 12.387,27.657C12.39,27.657 12.393,27.657 12.395,27.657C12.398,27.657 12.401,27.657 12.403,27.657C12.406,27.657 12.409,27.657 12.411,27.657C12.414,27.657 12.416,27.657 12.419,27.657C12.421,27.657 12.424,27.657 12.426,27.657C12.429,27.657 12.431,27.657 12.434,27.657C12.436,27.657 12.438,27.657 12.441,27.657C12.443,27.657 12.445,27.657 12.448,27.657C12.45,27.657 12.452,27.657 12.454,27.657C12.457,27.657 12.459,27.657 12.461,27.657C12.463,27.657 12.465,27.657 12.467,27.657C12.469,27.657 12.472,27.657 12.474,27.657C12.476,27.657 12.478,27.657 12.48,27.657C12.482,27.657 12.484,27.657 12.485,27.657C12.487,27.657 12.489,27.657 12.491,27.657C12.493,27.657 12.495,27.657 12.497,27.657C12.498,27.657 12.5,27.657 12.502,27.657C12.504,27.657 12.505,27.657 12.507,27.657C12.509,27.657 12.51,27.657 12.512,27.657C12.514,27.657 12.515,27.657 12.517,27.657C12.518,27.657 12.52,27.657 12.521,27.657C12.523,27.657 12.524,27.657 12.526,27.657C12.527,27.657 12.528,27.657 12.53,27.657C12.531,27.657 12.532,27.657 12.534,27.657C12.535,27.657 12.536,27.657 12.538,27.657C12.539,27.657 12.54,27.657 12.541,27.657C12.542,27.657 12.543,27.657 12.545,27.657C12.546,27.657 12.547,27.657 12.548,27.657C12.549,27.657 12.55,27.657 12.551,27.657C12.552,27.657 12.553,27.657 12.554,27.657C12.554,27.657 12.555,27.657 12.556,27.657C12.557,27.657 12.558,27.657 12.559,27.657C12.559,27.657 12.56,27.657 12.561,27.657C12.561,27.657 12.562,27.657 12.563,27.657C12.563,27.657 12.564,27.657 12.565,27.657C12.565,27.657 12.566,27.657 12.566,27.657C12.567,27.657 12.567,27.657 12.568,27.657C12.568,27.657 12.568,27.657 12.569,27.657C12.569,27.657 12.569,27.657 12.57,27.657C12.57,27.657 12.57,27.657 12.571,27.657C12.571,27.657 12.571,27.657 12.571,27.657C12.571,27.657 12.571,27.657 12.572,27.657L12.572,24.914C12.571,24.914 12.571,24.914 12.571,24.914C12.571,24.914 12.571,24.914 12.571,24.914C12.57,24.914 12.57,24.914 12.57,24.914C12.569,24.914 12.569,24.914 12.569,24.914C12.568,24.914 12.568,24.914 12.568,24.914C12.567,24.914 12.567,24.914 12.566,24.914C12.566,24.914 12.565,24.914 12.565,24.914C12.564,24.914 12.563,24.914 12.563,24.914C12.562,24.914 12.561,24.914 12.561,24.914C12.56,24.914 12.559,24.914 12.559,24.914C12.558,24.914 12.557,24.914 12.556,24.914C12.555,24.914 12.554,24.914 12.554,24.914C12.553,24.914 12.552,24.914 12.551,24.914C12.55,24.914 12.549,24.914 12.548,24.914C12.547,24.914 12.546,24.914 12.545,24.914C12.543,24.914 12.542,24.914 12.541,24.914C12.54,24.914 12.539,24.914 12.538,24.914C12.536,24.914 12.535,24.914 12.534,24.914C12.532,24.914 12.531,24.914 12.53,24.914C12.528,24.914 12.527,24.914 12.526,24.914C12.524,24.914 12.523,24.914 12.521,24.914C12.52,24.914 12.518,24.914 12.517,24.914C12.515,24.914 12.514,24.914 12.512,24.914C12.51,24.914 12.509,24.914 12.507,24.914C12.505,24.914 12.504,24.914 12.502,24.914C12.5,24.914 12.498,24.914 12.497,24.914C12.495,24.914 12.493,24.914 12.491,24.914C12.489,24.914 12.487,24.914 12.485,24.914C12.484,24.914 12.482,24.914 12.48,24.914C12.478,24.914 12.476,24.914 12.474,24.914C12.472,24.914 12.469,24.914 12.467,24.914C12.465,24.914 12.463,24.914 12.461,24.914C12.459,24.914 12.457,24.914 12.454,24.914C12.452,24.914 12.45,24.914 12.448,24.914C12.445,24.914 12.443,24.914 12.441,24.914C12.438,24.914 12.436,24.914 12.434,24.914C12.431,24.914 12.429,24.914 12.426,24.914C12.424,24.914 12.421,24.914 12.419,24.914C12.416,24.914 12.414,24.914 12.411,24.914C12.409,24.914 12.406,24.914 12.403,24.914C12.401,24.914 12.398,24.914 12.395,24.914C12.393,24.914 12.39,24.914 12.387,24.914C12.384,24.914 12.382,24.914 12.379,24.914C12.376,24.914 12.373,24.914 12.37,24.914C12.367,24.914 12.365,24.914 12.362,24.914C12.359,24.914 12.356,24.914 12.353,24.914C12.35,24.914 12.347,24.914 12.344,24.914C12.341,24.914 12.338,24.914 12.334,24.914C12.331,24.914 12.328,24.914 12.325,24.914C12.322,24.914 12.319,24.914 12.316,24.914C12.312,24.914 12.309,24.914 12.306,24.914C12.303,24.914 12.299,24.914 12.296,24.914C12.293,24.914 12.289,24.914 12.286,24.914C12.283,24.914 12.279,24.914 12.276,24.914C12.272,24.914 12.269,24.914 12.265,24.914C12.262,24.914 12.258,24.914 12.255,24.914C12.251,24.914 12.248,24.914 12.244,24.914C12.241,24.914 12.237,24.914 12.233,24.914C12.23,24.914 12.226,24.914 12.222,24.914C12.219,24.914 12.215,24.914 12.211,24.914C12.207,24.914 12.204,24.914 12.2,24.914C12.196,24.914 12.192,24.914 12.188,24.914C12.185,24.914 12.181,24.914 12.177,24.914C12.173,24.914 12.169,24.914 12.165,24.914C12.161,24.914 12.157,24.914 12.153,24.914C12.149,24.914 12.145,24.914 12.141,24.914C12.137,24.914 12.133,24.914 12.129,24.914C12.125,24.914 12.12,24.914 12.116,24.914C12.112,24.914 12.108,24.914 12.104,24.914C12.099,24.914 12.095,24.914 12.091,24.914C12.087,24.914 12.082,24.914 12.078,24.914C12.074,24.914 12.069,24.914 12.065,24.914C12.061,24.914 12.056,24.914 12.052,24.914C12.047,24.914 12.043,24.914 12.039,24.914C12.034,24.914 12.03,24.914 12.025,24.914C12.021,24.914 12.016,24.914 12.012,24.914C12.007,24.914 12.002,24.914 11.998,24.914C11.993,24.914 11.989,24.914 11.984,24.914C11.979,24.914 11.975,24.914 11.97,24.914C11.965,24.914 11.96,24.914 11.956,24.914C11.951,24.914 11.946,24.914 11.941,24.914C11.937,24.914 11.932,24.914 11.927,24.914C11.922,24.914 11.917,24.914 11.912,24.914C11.907,24.914 11.902,24.914 11.898,24.914C11.893,24.914 11.888,24.914 11.883,24.914C11.878,24.914 11.873,24.914 11.868,24.914C11.863,24.914 11.858,24.914 11.852,24.914C11.847,24.914 11.842,24.914 11.837,24.914C11.832,24.914 11.827,24.914 11.822,24.914C11.817,24.914 11.811,24.914 11.806,24.914C11.801,24.914 11.796,24.914 11.79,24.914C11.785,24.914 11.78,24.914 11.775,24.914C11.769,24.914 11.764,24.914 11.759,24.914C11.753,24.914 11.748,24.914 11.743,24.914C11.737,24.914 11.732,24.914 11.726,24.914C11.721,24.914 11.715,24.914 11.71,24.914C11.705,24.914 11.699,24.914 11.694,24.914C11.688,24.914 11.682,24.914 11.677,24.914C11.671,24.914 11.666,24.914 11.66,24.914C11.655,24.914 11.649,24.914 11.643,24.914C11.638,24.914 11.632,24.914 11.626,24.914C11.621,24.914 11.615,24.914 11.609,24.914C11.603,24.914 11.598,24.914 11.592,24.914C11.586,24.914 11.58,24.914 11.575,24.914C11.569,24.914 11.563,24.914 11.557,24.914C11.551,24.914 11.545,24.914 11.539,24.914C11.534,24.914 11.528,24.914 11.522,24.914C11.516,24.914 11.51,24.914 11.504,24.914C11.498,24.914 11.492,24.914 11.486,24.914C11.48,24.914 11.474,24.914 11.468,24.914C11.462,24.914 11.456,24.914 11.45,24.914C11.443,24.914 11.437,24.914 11.431,24.914C11.425,24.914 11.419,24.914 11.413,24.914C11.407,24.914 11.4,24.914 11.394,24.914C11.388,24.914 11.382,24.914 11.376,24.914C11.369,24.914 11.363,24.914 11.357,24.914C11.351,24.914 11.344,24.914 11.338,24.914C11.332,24.914 11.325,24.914 11.319,24.914C11.313,24.914 11.306,24.914 11.3,24.914C11.293,24.914 11.287,24.914 11.281,24.914C11.274,24.914 11.268,24.914 11.261,24.914C11.255,24.914 11.248,24.914 11.242,24.914C11.235,24.914 11.229,24.914 11.222,24.914C11.216,24.914 11.209,24.914 11.202,24.914C11.196,24.914 11.189,24.914 11.183,24.914C11.176,24.914 11.169,24.914 11.163,24.914C11.156,24.914 11.15,24.914 11.143,24.914C11.136,24.914 11.129,24.914 11.123,24.914C11.116,24.914 11.109,24.914 11.103,24.914C11.096,24.914 11.089,24.914 11.082,24.914C11.075,24.914 11.069,24.914 11.062,24.914C11.055,24.914 11.048,24.914 11.041,24.914C11.035,24.914 11.028,24.914 11.021,24.914C11.014,24.914 11.007,24.914 11,24.914C10.993,24.914 10.986,24.914 10.979,24.914C10.972,24.914 10.965,24.914 10.958,24.914C10.951,24.914 10.944,24.914 10.937,24.914C10.93,24.914 10.923,24.914 10.916,24.914C10.909,24.914 10.902,24.914 10.895,24.914C10.888,24.914 10.881,24.914 10.874,24.914C10.867,24.914 10.86,24.914 10.852,24.914C10.845,24.914 10.838,24.914 10.831,24.914C10.824,24.914 10.817,24.914 10.809,24.914C10.802,24.914 10.795,24.914 10.788,24.914C10.781,24.914 10.773,24.914 10.766,24.914C10.759,24.914 10.752,24.914 10.744,24.914C10.737,24.914 10.73,24.914 10.722,24.914C10.715,24.914 10.708,24.914 10.7,24.914C10.693,24.914 10.686,24.914 10.678,24.914C10.671,24.914 10.663,24.914 10.656,24.914C10.649,24.914 10.641,24.914 10.634,24.914C10.626,24.914 10.619,24.914 10.611,24.914C10.604,24.914 10.597,24.914 10.589,24.914C10.582,24.914 10.574,24.914 10.567,24.914C10.559,24.914 10.551,24.914 10.544,24.914C10.536,24.914 10.529,24.914 10.521,24.914C10.514,24.914 10.506,24.914 10.499,24.914C10.491,24.914 10.483,24.914 10.476,24.914C10.468,24.914 10.46,24.914 10.453,24.914C10.445,24.914 10.437,24.914 10.43,24.914C10.422,24.914 10.414,24.914 10.407,24.914C10.399,24.914 10.391,24.914 10.384,24.914C10.376,24.914 10.368,24.914 10.36,24.914C10.353,24.914 10.345,24.914 10.337,24.914C10.329,24.914 10.321,24.914 10.314,24.914C10.306,24.914 10.298,24.914 10.29,24.914C10.282,24.914 10.275,24.914 10.267,24.914C10.259,24.914 10.251,24.914 10.243,24.914C10.235,24.914 10.227,24.914 10.219,24.914C10.212,24.914 10.204,24.914 10.196,24.914C10.188,24.914 10.18,24.914 10.172,24.914C10.164,24.914 10.156,24.914 10.148,24.914C10.14,24.914 10.132,24.914 10.124,24.914C10.116,24.914 10.108,24.914 10.1,24.914C10.092,24.914 10.084,24.914 10.076,24.914C10.068,24.914 10.06,24.914 10.052,24.914C10.044,24.914 10.036,24.914 10.028,24.914C10.02,24.914 10.012,24.914 10.003,24.914C9.995,24.914 9.987,24.914 9.979,24.914C9.971,24.914 9.963,24.914 9.955,24.914C9.947,24.914 9.938,24.914 9.93,24.914C9.922,24.914 9.914,24.914 9.906,24.914C9.898,24.914 9.889,24.914 9.881,24.914C9.873,24.914 9.865,24.914 9.857,24.914C9.848,24.914 9.84,24.914 9.832,24.914C9.824,24.914 9.815,24.914 9.807,24.914C9.799,24.914 9.791,24.914 9.782,24.914C9.774,24.914 9.766,24.914 9.758,24.914C9.749,24.914 9.741,24.914 9.733,24.914C9.724,24.914 9.716,24.914 9.708,24.914C9.699,24.914 9.691,24.914 9.683,24.914C9.674,24.914 9.666,24.914 9.658,24.914C9.649,24.914 9.641,24.914 9.633,24.914C9.624,24.914 9.616,24.914 9.607,24.914C9.599,24.914 9.591,24.914 9.582,24.914C9.574,24.914 9.565,24.914 9.557,24.914C9.548,24.914 9.54,24.914 9.532,24.914C9.523,24.914 9.515,24.914 9.506,24.914C9.498,24.914 9.489,24.914 9.481,24.914C9.472,24.914 9.464,24.914 9.455,24.914C9.447,24.914 9.438,24.914 9.43,24.914C9.421,24.914 9.413,24.914 9.404,24.914C9.396,24.914 9.387,24.914 9.379,24.914C9.37,24.914 9.362,24.914 9.353,24.914C9.345,24.914 9.336,24.914 9.327,24.914C9.319,24.914 9.31,24.914 9.302,24.914C9.293,24.914 9.285,24.914 9.276,24.914C9.267,24.914 9.259,24.914 9.25,24.914C9.242,24.914 9.233,24.914 9.224,24.914C9.216,24.914 9.207,24.914 9.198,24.914C9.19,24.914 9.181,24.914 9.173,24.914C9.164,24.914 9.155,24.914 9.147,24.914C9.138,24.914 9.129,24.914 9.121,24.914C9.112,24.914 9.103,24.914 9.095,24.914C9.086,24.914 9.077,24.914 9.069,24.914C9.06,24.914 9.051,24.914 9.043,24.914C9.034,24.914 9.025,24.914 9.016,24.914C9.008,24.914 8.999,24.914 8.99,24.914C8.982,24.914 8.973,24.914 8.964,24.914C8.955,24.914 8.947,24.914 8.938,24.914C8.929,24.914 8.92,24.914 8.912,24.914C8.903,24.914 8.894,24.914 8.885,24.914C8.877,24.914 8.868,24.914 8.859,24.914C8.85,24.914 8.842,24.914 8.833,24.914C8.824,24.914 8.815,24.914 8.807,24.914C8.798,24.914 8.789,24.914 8.78,24.914C8.771,24.914 8.763,24.914 8.754,24.914C8.745,24.914 8.736,24.914 8.727,24.914C8.719,24.914 8.71,24.914 8.701,24.914C8.692,24.914 8.683,24.914 8.675,24.914C8.666,24.914 8.657,24.914 8.648,24.914C8.639,24.914 8.63,24.914 8.622,24.914C8.613,24.914 8.604,24.914 8.595,24.914C8.586,24.914 8.577,24.914 8.569,24.914C8.56,24.914 8.551,24.914 8.542,24.914C8.533,24.914 8.524,24.914 8.515,24.914C8.507,24.914 8.498,24.914 8.489,24.914C8.48,24.914 8.471,24.914 8.462,24.914C8.453,24.914 8.445,24.914 8.436,24.914C8.427,24.914 8.418,24.914 8.409,24.914C8.4,24.914 8.391,24.914 8.382,24.914C8.374,24.914 8.365,24.914 8.356,24.914C8.347,24.914 8.338,24.914 8.329,24.914C8.32,24.914 8.311,24.914 8.303,24.914C8.294,24.914 8.285,24.914 8.276,24.914C8.267,24.914 8.258,24.914 8.249,24.914C8.24,24.914 8.231,24.914 8.223,24.914C8.214,24.914 8.205,24.914 8.196,24.914C8.187,24.914 8.178,24.914 8.169,24.914C8.16,24.914 8.151,24.914 8.142,24.914C8.134,24.914 8.125,24.914 8.116,24.914C8.107,24.914 8.098,24.914 8.089,24.914C8.08,24.914 8.071,24.914 8.062,24.914C8.053,24.914 8.044,24.914 8.036,24.914C8.027,24.914 8.018,24.914 8.009,24.914C8,24.914 7.991,24.914 7.982,24.914C7.973,24.914 7.964,24.914 7.955,24.914C7.947,24.914 7.938,24.914 7.929,24.914C7.92,24.914 7.911,24.914 7.902,24.914C7.893,24.914 7.884,24.914 7.875,24.914C7.866,24.914 7.857,24.914 7.849,24.914C7.84,24.914 7.831,24.914 7.822,24.914C7.813,24.914 7.804,24.914 7.795,24.914C7.786,24.914 7.777,24.914 7.769,24.914C7.76,24.914 7.751,24.914 7.742,24.914C7.733,24.914 7.724,24.914 7.715,24.914C7.706,24.914 7.697,24.914 7.688,24.914C7.68,24.914 7.671,24.914 7.662,24.914C7.653,24.914 7.644,24.914 7.635,24.914C7.626,24.914 7.617,24.914 7.609,24.914C7.6,24.914 7.591,24.914 7.582,24.914C7.573,24.914 7.564,24.914 7.555,24.914C7.546,24.914 7.538,24.914 7.529,24.914C7.52,24.914 7.511,24.914 7.502,24.914C7.493,24.914 7.484,24.914 7.476,24.914C7.467,24.914 7.458,24.914 7.449,24.914C7.44,24.914 7.431,24.914 7.422,24.914C7.414,24.914 7.405,24.914 7.396,24.914C7.387,24.914 7.378,24.914 7.369,24.914C7.361,24.914 7.352,24.914 7.343,24.914C7.334,24.914 7.325,24.914 7.317,24.914C7.308,24.914 7.299,24.914 7.29,24.914C7.281,24.914 7.272,24.914 7.264,24.914C7.255,24.914 7.246,24.914 7.237,24.914C7.228,24.914 7.22,24.914 7.211,24.914C7.202,24.914 7.193,24.914 7.185,24.914C7.176,24.914 7.167,24.914 7.158,24.914C7.149,24.914 7.141,24.914 7.132,24.914C7.123,24.914 7.114,24.914 7.106,24.914C7.097,24.914 7.088,24.914 7.079,24.914C7.071,24.914 7.062,24.914 7.053,24.914C7.044,24.914 7.036,24.914 7.027,24.914C7.018,24.914 7.01,24.914 7.001,24.914C6.992,24.914 6.983,24.914 6.975,24.914C6.966,24.914 6.957,24.914 6.949,24.914C6.94,24.914 6.931,24.914 6.923,24.914C6.914,24.914 6.905,24.914 6.897,24.914C6.888,24.914 6.879,24.914 6.871,24.914C6.862,24.914 6.853,24.914 6.845,24.914C6.836,24.914 6.827,24.914 6.819,24.914C6.81,24.914 6.801,24.914 6.793,24.914C6.784,24.914 6.776,24.914 6.767,24.914C6.758,24.914 6.75,24.914 6.741,24.914C6.733,24.914 6.724,24.914 6.715,24.914C6.707,24.914 6.698,24.914 6.69,24.914C6.681,24.914 6.673,24.914 6.664,24.914C6.655,24.914 6.647,24.914 6.638,24.914C6.63,24.914 6.621,24.914 6.613,24.914C6.604,24.914 6.596,24.914 6.587,24.914C6.579,24.914 6.57,24.914 6.562,24.914C6.553,24.914 6.545,24.914 6.536,24.914C6.528,24.914 6.519,24.914 6.511,24.914C6.502,24.914 6.494,24.914 6.485,24.914C6.477,24.914 6.468,24.914 6.46,24.914C6.452,24.914 6.443,24.914 6.435,24.914C6.426,24.914 6.418,24.914 6.409,24.914C6.401,24.914 6.393,24.914 6.384,24.914C6.376,24.914 6.367,24.914 6.359,24.914C6.351,24.914 6.342,24.914 6.334,24.914C6.326,24.914 6.317,24.914 6.309,24.914C6.301,24.914 6.292,24.914 6.284,24.914C6.276,24.914 6.267,24.914 6.259,24.914C6.251,24.914 6.242,24.914 6.234,24.914C6.226,24.914 6.218,24.914 6.209,24.914C6.201,24.914 6.193,24.914 6.184,24.914C6.176,24.914 6.168,24.914 6.16,24.914C6.152,24.914 6.143,24.914 6.135,24.914C6.127,24.914 6.119,24.914 6.111,24.914C6.102,24.914 6.094,24.914 6.086,24.914C6.078,24.914 6.07,24.914 6.061,24.914C6.053,24.914 6.045,24.914 6.037,24.914C6.029,24.914 6.021,24.914 6.013,24.914C6.005,24.914 5.996,24.914 5.988,24.914C5.98,24.914 5.972,24.914 5.964,24.914C5.956,24.914 5.948,24.914 5.94,24.914C5.932,24.914 5.924,24.914 5.916,24.914C5.908,24.914 5.9,24.914 5.892,24.914C5.884,24.914 5.876,24.914 5.868,24.914C5.86,24.914 5.852,24.914 5.844,24.914C5.836,24.914 5.828,24.914 5.82,24.914C5.812,24.914 5.804,24.914 5.796,24.914C5.788,24.914 5.781,24.914 5.773,24.914C5.765,24.914 5.757,24.914 5.749,24.914C5.741,24.914 5.733,24.914 5.725,24.914C5.718,24.914 5.71,24.914 5.702,24.914C5.694,24.914 5.686,24.914 5.679,24.914C5.671,24.914 5.663,24.914 5.655,24.914C5.647,24.914 5.64,24.914 5.632,24.914C5.624,24.914 5.616,24.914 5.609,24.914C5.601,24.914 5.593,24.914 5.586,24.914C5.578,24.914 5.57,24.914 5.563,24.914C5.555,24.914 5.547,24.914 5.54,24.914C5.532,24.914 5.524,24.914 5.517,24.914C5.509,24.914 5.501,24.914 5.494,24.914C5.486,24.914 5.479,24.914 5.471,24.914C5.464,24.914 5.456,24.914 5.449,24.914C5.441,24.914 5.433,24.914 5.426,24.914C5.418,24.914 5.411,24.914 5.403,24.914C5.396,24.914 5.389,24.914 5.381,24.914C5.374,24.914 5.366,24.914 5.359,24.914C5.351,24.914 5.344,24.914 5.337,24.914C5.329,24.914 5.322,24.914 5.314,24.914C5.307,24.914 5.3,24.914 5.292,24.914C5.285,24.914 5.278,24.914 5.27,24.914C5.263,24.914 5.256,24.914 5.248,24.914C5.241,24.914 5.234,24.914 5.227,24.914C5.219,24.914 5.212,24.914 5.205,24.914C5.198,24.914 5.191,24.914 5.183,24.914C5.176,24.914 5.169,24.914 5.162,24.914C5.155,24.914 5.148,24.914 5.14,24.914C5.133,24.914 5.126,24.914 5.119,24.914C5.112,24.914 5.105,24.914 5.098,24.914C5.091,24.914 5.084,24.914 5.077,24.914C5.07,24.914 5.063,24.914 5.056,24.914C5.049,24.914 5.042,24.914 5.035,24.914C5.028,24.914 5.021,24.914 5.014,24.914C5.007,24.914 5,24.914 4.993,24.914C4.986,24.914 4.979,24.914 4.972,24.914C4.966,24.914 4.959,24.914 4.952,24.914C4.945,24.914 4.938,24.914 4.931,24.914C4.925,24.914 4.918,24.914 4.911,24.914C4.904,24.914 4.897,24.914 4.891,24.914C4.884,24.914 4.877,24.914 4.871,24.914C4.864,24.914 4.857,24.914 4.851,24.914C4.844,24.914 4.837,24.914 4.831,24.914C4.824,24.914 4.817,24.914 4.811,24.914C4.804,24.914 4.798,24.914 4.791,24.914C4.784,24.914 4.778,24.914 4.771,24.914C4.765,24.914 4.758,24.914 4.752,24.914C4.745,24.914 4.739,24.914 4.732,24.914C4.726,24.914 4.72,24.914 4.713,24.914C4.707,24.914 4.7,24.914 4.694,24.914C4.688,24.914 4.681,24.914 4.675,24.914C4.669,24.914 4.662,24.914 4.656,24.914C4.65,24.914 4.643,24.914 4.637,24.914C4.631,24.914 4.624,24.914 4.618,24.914C4.612,24.914 4.606,24.914 4.6,24.914C4.593,24.914 4.587,24.914 4.581,24.914C4.575,24.914 4.569,24.914 4.563,24.914C4.557,24.914 4.55,24.914 4.544,24.914C4.538,24.914 4.532,24.914 4.526,24.914C4.52,24.914 4.514,24.914 4.508,24.914C4.502,24.914 4.496,24.914 4.49,24.914C4.484,24.914 4.478,24.914 4.472,24.914C4.467,24.914 4.461,24.914 4.455,24.914C4.449,24.914 4.443,24.914 4.437,24.914C4.431,24.914 4.426,24.914 4.42,24.914C4.414,24.914 4.408,24.914 4.402,24.914C4.397,24.914 4.391,24.914 4.385,24.914C4.38,24.914 4.374,24.914 4.368,24.914C4.362,24.914 4.357,24.914 4.351,24.914C4.346,24.914 4.34,24.914 4.334,24.914C4.329,24.914 4.323,24.914 4.318,24.914C4.312,24.914 4.307,24.914 4.301,24.914C4.296,24.914 4.29,24.914 4.285,24.914C4.279,24.914 4.274,24.914 4.268,24.914C4.263,24.914 4.258,24.914 4.252,24.914C4.247,24.914 4.241,24.914 4.236,24.914C4.231,24.914 4.225,24.914 4.22,24.914C4.215,24.914 4.21,24.914 4.204,24.914C4.199,24.914 4.194,24.914 4.189,24.914C4.184,24.914 4.178,24.914 4.173,24.914C4.168,24.914 4.163,24.914 4.158,24.914C4.153,24.914 4.148,24.914 4.143,24.914C4.138,24.914 4.133,24.914 4.128,24.914C4.122,24.914 4.117,24.914 4.113,24.914C4.108,24.914 4.103,24.914 4.098,24.914C4.093,24.914 4.088,24.914 4.083,24.914C4.078,24.914 4.073,24.914 4.068,24.914C4.064,24.914 4.059,24.914 4.054,24.914C4.049,24.914 4.044,24.914 4.04,24.914C4.035,24.914 4.03,24.914 4.026,24.914C4.021,24.914 4.016,24.914 4.012,24.914C4.007,24.914 4.002,24.914 3.998,24.914C3.993,24.914 3.989,24.914 3.984,24.914C3.98,24.914 3.975,24.914 3.971,24.914C3.966,24.914 3.962,24.914 3.957,24.914C3.953,24.914 3.948,24.914 3.944,24.914C3.939,24.914 3.935,24.914 3.931,24.914C3.926,24.914 3.922,24.914 3.918,24.914C3.914,24.914 3.909,24.914 3.905,24.914C3.901,24.914 3.897,24.914 3.892,24.914C3.888,24.914 3.884,24.914 3.88,24.914C3.876,24.914 3.872,24.914 3.867,24.914C3.863,24.914 3.859,24.914 3.855,24.914C3.851,24.914 3.847,24.914 3.843,24.914C3.839,24.914 3.835,24.914 3.831,24.914C3.827,24.914 3.823,24.914 3.82,24.914C3.816,24.914 3.812,24.914 3.808,24.914C3.804,24.914 3.8,24.914 3.797,24.914C3.793,24.914 3.789,24.914 3.785,24.914C3.782,24.914 3.778,24.914 3.774,24.914C3.771,24.914 3.767,24.914 3.763,24.914C3.76,24.914 3.756,24.914 3.752,24.914C3.749,24.914 3.745,24.914 3.742,24.914C3.738,24.914 3.735,24.914 3.731,24.914C3.728,24.914 3.724,24.914 3.721,24.914C3.718,24.914 3.714,24.914 3.711,24.914C3.708,24.914 3.704,24.914 3.701,24.914C3.698,24.914 3.694,24.914 3.691,24.914C3.688,24.914 3.685,24.914 3.681,24.914C3.678,24.914 3.675,24.914 3.672,24.914C3.669,24.914 3.666,24.914 3.663,24.914C3.66,24.914 3.657,24.914 3.654,24.914C3.651,24.914 3.648,24.914 3.645,24.914C3.642,24.914 3.639,24.914 3.636,24.914C3.633,24.914 3.63,24.914 3.627,24.914C3.624,24.914 3.621,24.914 3.619,24.914C3.616,24.914 3.613,24.914 3.61,24.914C3.608,24.914 3.605,24.914 3.602,24.914C3.6,24.914 3.597,24.914 3.594,24.914C3.592,24.914 3.589,24.914 3.587,24.914C3.584,24.914 3.582,24.914 3.579,24.914C3.577,24.914 3.574,24.914 3.572,24.914C3.569,24.914 3.567,24.914 3.564,24.914C3.562,24.914 3.56,24.914 3.557,24.914C3.555,24.914 3.553,24.914 3.55,24.914C3.548,24.914 3.546,24.914 3.544,24.914C3.542,24.914 3.539,24.914 3.537,24.914C3.535,24.914 3.533,24.914 3.531,24.914C3.529,24.914 3.527,24.914 3.525,24.914C3.523,24.914 3.521,24.914 3.519,24.914C3.517,24.914 3.515,24.914 3.513,24.914C3.511,24.914 3.509,24.914 3.507,24.914C3.506,24.914 3.504,24.914 3.502,24.914C3.5,24.914 3.498,24.914 3.497,24.914C3.495,24.914 3.493,24.914 3.492,24.914C3.49,24.914 3.488,24.914 3.487,24.914C3.485,24.914 3.484,24.914 3.482,24.914C3.481,24.914 3.479,24.914 3.478,24.914C3.476,24.914 3.475,24.914 3.473,24.914C3.472,24.914 3.471,24.914 3.469,24.914C3.468,24.914 3.467,24.914 3.465,24.914C3.464,24.914 3.463,24.914 3.462,24.914C3.46,24.914 3.459,24.914 3.458,24.914C3.457,24.914 3.456,24.914 3.455,24.914C3.454,24.914 3.453,24.914 3.452,24.914C3.451,24.914 3.45,24.914 3.449,24.914C3.448,24.914 3.447,24.914 3.446,24.914C3.445,24.914 3.444,24.914 3.443,24.914C3.443,24.914 3.442,24.914 3.441,24.914C3.44,24.914 3.44,24.914 3.439,24.914C3.438,24.914 3.438,24.914 3.437,24.914C3.436,24.914 3.436,24.914 3.435,24.914C3.435,24.914 3.434,24.914 3.434,24.914C3.433,24.914 3.433,24.914 3.432,24.914C3.432,24.914 3.432,24.914 3.431,24.914C3.431,24.914 3.431,24.914 3.43,24.914C3.43,24.914 3.43,24.914 3.43,24.914C3.429,24.914 3.429,24.914 3.429,24.914C3.429,24.914 3.429,24.914 3.429,24.914C3.429,24.914 3.429,24.914 3.429,26.286Z" transform="rotate(0 8.572 21.714)" fill="#171A1F"/>
<path d="M13.714,15.771C12.694,15.771 11.625,15.164 10.753,14.052C9.886,12.945 9.371,11.522 9.371,10.286L6.629,10.286C6.629,12.205 7.393,14.211 8.594,15.743C9.791,17.271 11.579,18.514 13.714,18.514L13.714,15.771ZM9.371,10.286L9.371,9.143L6.629,9.143L6.629,10.286L9.371,10.286ZM9.371,9.143C9.371,6.745 11.316,4.8 13.714,4.8L13.714,2.057C9.801,2.057 6.629,5.23 6.629,9.143L9.371,9.143ZM13.714,4.8C16.112,4.8 18.057,6.745 18.057,9.143L20.8,9.143C20.8,5.23 17.627,2.057 13.714,2.057L13.714,4.8ZM18.057,9.143L18.057,10.286L20.8,10.286L20.8,9.143L18.057,9.143ZM18.057,10.286C18.057,11.522 17.543,12.945 16.675,14.052C15.804,15.164 14.734,15.771 13.714,15.771L13.714,18.514C15.85,18.514 17.638,17.271 18.834,15.743C20.035,14.211 20.8,12.205 20.8,10.286L18.057,10.286Z" transform="rotate(0 13.714 10.286)" fill="#171A1F"/>
<path d="M24.229,20.571L24.229,19.2L21.486,19.2L21.486,20.571L24.229,20.571ZM22.857,22.857L21.486,22.857L21.486,24.229L22.857,24.229L22.857,22.857ZM25.143,24.229L26.515,24.229L26.515,21.486L25.143,21.486L25.143,24.229ZM21.486,20.571L21.486,22.857L24.229,22.857L24.229,20.571L21.486,20.571ZM22.857,24.229L25.143,24.229L25.143,21.486L22.857,21.486L22.857,24.229Z" transform="rotate(0 24 21.714)" fill="#171A1F"/>
<path d="M27.2,22.857C27.2,25.256 25.255,27.2 22.857,27.2L22.857,29.943C26.77,29.943 29.943,26.77 29.943,22.857L27.2,22.857ZM22.857,27.2C20.458,27.2 18.514,25.256 18.514,22.857L15.771,22.857C15.771,26.77 18.944,29.943 22.857,29.943L22.857,27.2ZM18.514,22.857C18.514,20.459 20.458,18.514 22.857,18.514L22.857,15.771C18.944,15.771 15.771,18.944 15.771,22.857L18.514,22.857ZM22.857,18.514C25.255,18.514 27.2,20.459 27.2,22.857L29.943,22.857C29.943,18.944 26.77,15.771 22.857,15.771L22.857,18.514Z" transform="rotate(0 22.857 22.857)" fill="#171A1F"/>
</svg>
