<svg width="32" height="32" viewBox="0 0 32 32" fill="none" xmlns="http://www.w3.org/2000/svg" xmlns:xlink="http://www.w3.org/1999/xlink">
<path d="M11.871,24.322L11.018,25.396L11.019,25.397L11.871,24.322ZM3.272,24.322L4.124,25.397L4.125,25.396L3.272,24.322ZM2.429,27.429L1.057,27.429L1.057,28.8L2.429,28.8L2.429,27.429ZM12.714,27.429L12.714,28.8L14.086,28.8L14.086,27.429L12.714,27.429ZM14.086,26.098C14.086,25.01 13.607,23.949 12.723,23.248L11.019,25.397C11.216,25.553 11.343,25.806 11.343,26.098L14.086,26.098ZM12.724,23.248C11.723,22.454 9.998,21.486 7.572,21.486L7.572,24.229C9.225,24.229 10.367,24.879 11.018,25.396L12.724,23.248ZM7.572,21.486C5.145,21.486 3.42,22.454 2.419,23.248L4.125,25.396C4.776,24.879 5.918,24.229 7.572,24.229L7.572,21.486ZM2.42,23.248C1.536,23.949 1.057,25.01 1.057,26.098L3.8,26.098C3.8,25.806 3.927,25.553 4.124,25.397L2.42,23.248ZM1.057,26.098L1.057,27.429L3.8,27.429L3.8,26.098L1.057,26.098ZM2.429,28.8L12.714,28.8L12.714,26.057L2.429,26.057L2.429,28.8ZM14.086,27.429L14.086,26.098L11.343,26.098L11.343,27.429L14.086,27.429Z" transform="rotate(0 7.572 25.143)" fill="#FFFFFF"/>
<path d="M9.057,16.571C9.057,17.392 8.392,18.057 7.571,18.057L7.571,20.8C9.907,20.8 11.8,18.907 11.8,16.571L9.057,16.571ZM7.571,18.057C6.751,18.057 6.086,17.392 6.086,16.571L3.343,16.571C3.343,18.907 5.236,20.8 7.571,20.8L7.571,18.057ZM6.086,16.571C6.086,15.751 6.751,15.086 7.571,15.086L7.571,12.343C5.236,12.343 3.343,14.236 3.343,16.571L6.086,16.571ZM7.571,15.086C8.392,15.086 9.057,15.751 9.057,16.571L11.8,16.571C11.8,14.236 9.907,12.343 7.571,12.343L7.571,15.086Z" transform="rotate(0 7.571 16.571)" fill="#FFFFFF"/>
<path d="M26.728,24.322L25.875,25.396L25.876,25.397L26.728,24.322ZM18.129,24.322L18.981,25.397L18.982,25.396L18.129,24.322ZM17.286,27.429L15.914,27.429L15.914,28.8L17.286,28.8L17.286,27.429ZM27.571,27.429L27.571,28.8L28.943,28.8L28.943,27.429L27.571,27.429ZM28.943,26.098C28.943,25.01 28.464,23.949 27.58,23.248L25.876,25.397C26.073,25.553 26.2,25.806 26.2,26.098L28.943,26.098ZM27.581,23.248C26.58,22.454 24.855,21.486 22.429,21.486L22.429,24.229C24.082,24.229 25.224,24.879 25.875,25.396L27.581,23.248ZM22.429,21.486C20.002,21.486 18.277,22.454 17.276,23.248L18.982,25.396C19.633,24.879 20.775,24.229 22.429,24.229L22.429,21.486ZM17.277,23.248C16.393,23.949 15.914,25.01 15.914,26.098L18.657,26.098C18.657,25.806 18.784,25.553 18.981,25.397L17.277,23.248ZM15.914,26.098L15.914,27.429L18.657,27.429L18.657,26.098L15.914,26.098ZM17.286,28.8L27.571,28.8L27.571,26.057L17.286,26.057L17.286,28.8ZM28.943,27.429L28.943,26.098L26.2,26.098L26.2,27.429L28.943,27.429Z" transform="rotate(0 22.429 25.143)" fill="#FFFFFF"/>
<path d="M23.914,16.571C23.914,17.392 23.249,18.057 22.428,18.057L22.428,20.8C24.764,20.8 26.657,18.907 26.657,16.571L23.914,16.571ZM22.428,18.057C21.608,18.057 20.943,17.392 20.943,16.571L18.2,16.571C18.2,18.907 20.093,20.8 22.428,20.8L22.428,18.057ZM20.943,16.571C20.943,15.751 21.608,15.086 22.428,15.086L22.428,12.343C20.093,12.343 18.2,14.236 18.2,16.571L20.943,16.571ZM22.428,15.086C23.249,15.086 23.914,15.751 23.914,16.571L26.657,16.571C26.657,14.236 24.764,12.343 22.428,12.343L22.428,15.086Z" transform="rotate(0 22.428 16.571)" fill="#FFFFFF"/>
<line x1="13.629" y1="4.572" x2="13.629" y2="11.429" stroke="#FFFFFF" stroke-width="1.371" stroke-miterlimit="10" stroke-linecap="square"/>
<line x1="11.571" y1="6.629" x2="18.428" y2="6.629" stroke="#FFFFFF" stroke-width="1.371" stroke-miterlimit="10" stroke-linecap="square"/>
</svg>
