<svg width="56" height="56" viewBox="0 0 56 56" fill="none" xmlns="http://www.w3.org/2000/svg" xmlns:xlink="http://www.w3.org/1999/xlink">
<path d="M42,20L44.4,20L44.4,20L42,20ZM14,20L11.6,20L11.6,20L14,20ZM44.4,26L44.4,20L39.6,20L39.6,26L44.4,26ZM44.4,20C44.4,15.65 42.672,11.479 39.597,8.403L36.202,11.798C38.378,13.973 39.6,16.923 39.6,20L44.4,20ZM39.597,8.403C36.521,5.328 32.35,3.6 28,3.6L28,8.4C31.077,8.4 34.027,9.622 36.202,11.798L39.597,8.403ZM28,3.6C23.65,3.6 19.479,5.328 16.403,8.403L19.798,11.798C21.973,9.622 24.923,8.4 28,8.4L28,3.6ZM16.403,8.403C13.328,11.479 11.6,15.65 11.6,20L16.4,20C16.4,16.923 17.622,13.973 19.798,11.798L16.403,8.403ZM11.6,20L11.6,26L16.4,26L16.4,20L11.6,20ZM11.6,26C11.6,28.425 10.563,29.918 9.2,31.462C8.576,32.17 7.642,33.134 6.985,34.055C6.264,35.064 5.6,36.362 5.6,38L10.4,38C10.4,37.738 10.486,37.411 10.89,36.845C11.358,36.191 11.924,35.63 12.8,34.638C14.437,32.782 16.4,30.175 16.4,26L11.6,26ZM5.6,38C5.6,39.866 6.688,41.289 7.93,42.261C9.172,43.234 10.835,43.986 12.716,44.568C16.502,45.739 21.763,46.4 28,46.4L28,41.6C22.037,41.6 17.298,40.961 14.134,39.982C12.54,39.489 11.491,38.953 10.889,38.482C10.287,38.011 10.4,37.834 10.4,38L5.6,38ZM28,46.4C34.237,46.4 39.498,45.739 43.284,44.568C45.165,43.986 46.828,43.234 48.07,42.261C49.312,41.289 50.4,39.866 50.4,38L45.6,38C45.6,37.834 45.713,38.011 45.111,38.482C44.509,38.953 43.46,39.489 41.866,39.982C38.702,40.961 33.963,41.6 28,41.6L28,46.4ZM50.4,38C50.4,36.362 49.736,35.064 49.015,34.055C48.358,33.134 47.424,32.17 46.8,31.462C45.437,29.918 44.4,28.425 44.4,26L39.6,26C39.6,30.175 41.563,32.782 43.2,34.638C44.076,35.63 44.642,36.191 45.11,36.845C45.514,37.411 45.6,37.738 45.6,38L50.4,38Z" transform="rotate(0 28 25)" fill="#8E94A0"/>
<path d="M27.999,48C25.977,48 24.077,47.932 22.289,47.8C22.67,49.016 23.43,50.078 24.457,50.833C25.484,51.587 26.725,51.994 27.999,51.994C29.273,51.994 30.514,51.587 31.541,50.833C32.568,50.078 33.328,49.016 33.709,47.8C31.921,47.932 30.021,48 27.999,48Z" transform="rotate(0 27.999 49.897)" fill="#8E94A0"/>
</svg>
