<svg width="48" height="48" viewBox="0 0 48 48" fill="none" xmlns="http://www.w3.org/2000/svg" xmlns:xlink="http://www.w3.org/1999/xlink">
<path d="M36,17.143L38.057,17.143L38.057,17.143L36,17.143ZM12,17.143L9.943,17.143L9.943,17.143L12,17.143ZM38.057,22.286L38.057,17.143L33.943,17.143L33.943,22.286L38.057,22.286ZM38.057,17.143C38.057,13.415 36.576,9.839 33.94,7.203L31.031,10.112C32.896,11.977 33.943,14.506 33.943,17.143L38.057,17.143ZM33.94,7.203C31.304,4.567 27.728,3.086 24,3.086L24,7.2C26.637,7.2 29.166,8.248 31.031,10.112L33.94,7.203ZM24,3.086C20.272,3.086 16.697,4.567 14.06,7.203L16.97,10.112C18.834,8.248 21.363,7.2 24,7.2L24,3.086ZM14.06,7.203C11.424,9.839 9.943,13.415 9.943,17.143L14.057,17.143C14.057,14.506 15.105,11.977 16.97,10.112L14.06,7.203ZM9.943,17.143L9.943,22.286L14.057,22.286L14.057,17.143L9.943,17.143ZM9.943,22.286C9.943,24.364 9.054,25.644 7.886,26.967C7.351,27.574 6.551,28.401 5.987,29.19C5.369,30.055 4.8,31.167 4.8,32.571L8.915,32.571C8.915,32.347 8.988,32.067 9.335,31.581C9.735,31.021 10.221,30.54 10.971,29.69C12.375,28.099 14.057,25.865 14.057,22.286L9.943,22.286ZM4.8,32.571C4.8,34.171 5.733,35.391 6.797,36.224C7.862,37.058 9.287,37.702 10.899,38.201C14.145,39.205 18.655,39.771 24,39.771L24,35.657C18.889,35.657 14.827,35.109 12.115,34.27C10.749,33.848 9.849,33.389 9.334,32.985C8.818,32.581 8.915,32.429 8.915,32.571L4.8,32.571ZM24,39.771C29.346,39.771 33.856,39.205 37.101,38.201C38.713,37.702 40.139,37.058 41.203,36.224C42.268,35.391 43.2,34.171 43.2,32.571L39.086,32.571C39.086,32.429 39.183,32.581 38.667,32.985C38.151,33.389 37.251,33.848 35.885,34.27C33.174,35.109 29.112,35.657 24,35.657L24,39.771ZM43.2,32.571C43.2,31.167 42.631,30.055 42.014,29.19C41.45,28.401 40.649,27.574 40.114,26.967C38.946,25.644 38.057,24.364 38.057,22.286L33.943,22.286C33.943,25.865 35.626,28.099 37.029,29.69C37.78,30.54 38.265,31.021 38.666,31.581C39.012,32.067 39.086,32.347 39.086,32.571L43.2,32.571Z" transform="rotate(0 24 21.429)" fill="#565D6D"/>
<path d="M24,41.143C22.267,41.143 20.638,41.085 19.105,40.971C19.432,42.014 20.083,42.924 20.963,43.571C21.844,44.218 22.907,44.566 24,44.566C25.092,44.566 26.156,44.218 27.036,43.571C27.916,42.924 28.567,42.014 28.894,40.971C27.361,41.085 25.733,41.143 24,41.143Z" transform="rotate(0 24 42.769)" fill="#565D6D"/>
</svg>
