<svg width="48" height="48" viewBox="0 0 48 48" fill="none" xmlns="http://www.w3.org/2000/svg" xmlns:xlink="http://www.w3.org/1999/xlink">
<path d="M35,17.143L37.057,17.143L37.057,17.143L35,17.143ZM11,17.143L8.943,17.143L8.943,17.143L11,17.143ZM37.057,22.286L37.057,17.143L32.943,17.143L32.943,22.286L37.057,22.286ZM37.057,17.143C37.057,13.415 35.576,9.839 32.94,7.203L30.031,10.112C31.895,11.977 32.943,14.506 32.943,17.143L37.057,17.143ZM32.94,7.203C30.304,4.567 26.728,3.086 23,3.086L23,7.2C25.637,7.2 28.166,8.248 30.031,10.112L32.94,7.203ZM23,3.086C19.272,3.086 15.696,4.567 13.06,7.203L15.969,10.112C17.834,8.248 20.363,7.2 23,7.2L23,3.086ZM13.06,7.203C10.424,9.839 8.943,13.415 8.943,17.143L13.057,17.143C13.057,14.506 14.104,11.977 15.969,10.112L13.06,7.203ZM8.943,17.143L8.943,22.286L13.057,22.286L13.057,17.143L8.943,17.143ZM8.943,22.286C8.943,24.364 8.054,25.644 6.886,26.967C6.351,27.574 5.55,28.401 4.987,29.19C4.369,30.055 3.8,31.167 3.8,32.571L7.914,32.571C7.914,32.347 7.988,32.067 8.334,31.581C8.735,31.021 9.22,30.54 9.971,29.69C11.374,28.099 13.057,25.865 13.057,22.286L8.943,22.286ZM3.8,32.571C3.8,34.171 4.732,35.391 5.797,36.224C6.861,37.058 8.287,37.702 9.899,38.201C13.144,39.205 17.654,39.771 23,39.771L23,35.657C17.888,35.657 13.827,35.109 11.115,34.27C9.749,33.848 8.849,33.389 8.333,32.985C7.817,32.581 7.914,32.429 7.914,32.571L3.8,32.571ZM23,39.771C28.345,39.771 32.855,39.205 36.101,38.201C37.713,37.702 39.138,37.058 40.203,36.224C41.267,35.391 42.2,34.171 42.2,32.571L38.086,32.571C38.086,32.429 38.182,32.581 37.666,32.985C37.151,33.389 36.251,33.848 34.885,34.27C32.173,35.109 28.111,35.657 23,35.657L23,39.771ZM42.2,32.571C42.2,31.167 41.631,30.055 41.013,29.19C40.449,28.401 39.649,27.574 39.114,26.967C37.946,25.644 37.057,24.364 37.057,22.286L32.943,22.286C32.943,25.865 34.625,28.099 36.029,29.69C36.779,30.54 37.265,31.021 37.665,31.581C38.012,32.067 38.086,32.347 38.086,32.571L42.2,32.571Z" transform="rotate(0 23 21.429)" fill="#565D6D"/>
<path d="M23,41.143C21.267,41.143 19.639,41.085 18.106,40.971C18.433,42.014 19.084,42.924 19.964,43.571C20.844,44.218 21.908,44.566 23,44.566C24.092,44.566 25.156,44.218 26.037,43.571C26.917,42.924 27.568,42.014 27.895,40.971C26.362,41.085 24.733,41.143 23,41.143Z" transform="rotate(0 23 42.769)" fill="#565D6D"/>
</svg>
