<svg width="54" height="52" viewBox="0 0 54 52" fill="none" xmlns="http://www.w3.org/2000/svg" xmlns:xlink="http://www.w3.org/1999/xlink">
<path d="M47.321,5.121L49.568,5.121L49.568,2.874L47.321,2.874L47.321,5.121ZM24.847,5.121L24.847,2.874L22.599,2.874L22.599,5.121L24.847,5.121ZM24.847,23.85L22.599,23.85L22.599,28.526L26.251,25.605L24.847,23.85ZM34.211,16.358L34.211,14.111L33.423,14.111L32.807,14.603L34.211,16.358ZM47.321,16.358L47.321,18.606L49.568,18.606L49.568,16.358L47.321,16.358ZM47.321,2.874L24.847,2.874L24.847,7.369L47.321,7.369L47.321,2.874ZM22.599,5.121L22.599,23.85L27.094,23.85L27.094,5.121L22.599,5.121ZM26.251,25.605L35.615,18.113L32.807,14.603L23.443,22.095L26.251,25.605ZM34.211,18.606L47.321,18.606L47.321,14.111L34.211,14.111L34.211,18.606ZM49.568,16.358L49.568,5.121L45.073,5.121L45.073,16.358L49.568,16.358Z" transform="rotate(0 36.084 14.485)" fill="#565D6D"/>
<path d="M21.592,41.234L20.194,42.994L20.195,42.995L21.592,41.234ZM7.5,41.234L8.897,42.995L8.898,42.994L7.5,41.234ZM6.118,46.324L3.871,46.324L3.871,48.571L6.118,48.571L6.118,46.324ZM22.974,46.324L22.974,48.571L25.221,48.571L25.221,46.324L22.974,46.324ZM25.221,44.144C25.221,42.36 24.437,40.621 22.988,39.472L20.195,42.995C20.518,43.25 20.726,43.665 20.726,44.144L25.221,44.144ZM22.989,39.473C21.349,38.171 18.522,36.585 14.546,36.585L14.546,41.08C17.256,41.08 19.127,42.146 20.194,42.994L22.989,39.473ZM14.546,36.585C10.57,36.585 7.743,38.171 6.103,39.473L8.898,42.994C9.966,42.146 11.836,41.08 14.546,41.08L14.546,36.585ZM6.104,39.472C4.655,40.621 3.871,42.36 3.871,44.144L8.366,44.144C8.366,43.665 8.574,43.25 8.897,42.995L6.104,39.472ZM3.871,44.144L3.871,46.324L8.366,46.324L8.366,44.144L3.871,44.144ZM6.118,48.571L22.974,48.571L22.974,44.077L6.118,44.077L6.118,48.571ZM25.221,46.324L25.221,44.144L20.726,44.144L20.726,46.324L25.221,46.324Z" transform="rotate(0 14.546 42.578)" fill="#565D6D"/>
<path d="M16.98,28.532C16.98,29.876 15.89,30.966 14.545,30.966L14.545,35.461C18.373,35.461 21.475,32.359 21.475,28.532L16.98,28.532ZM14.545,30.966C13.201,30.966 12.111,29.876 12.111,28.532L7.616,28.532C7.616,32.359 10.718,35.461 14.545,35.461L14.545,30.966ZM12.111,28.532C12.111,27.187 13.201,26.097 14.545,26.097L14.545,21.602C10.718,21.602 7.616,24.705 7.616,28.532L12.111,28.532ZM14.545,26.097C15.89,26.097 16.98,27.187 16.98,28.532L21.475,28.532C21.475,24.705 18.373,21.602 14.545,21.602L14.545,26.097Z" transform="rotate(0 14.545 28.532)" fill="#565D6D"/>
<path d="M45.939,41.234L44.541,42.994L44.543,42.995L45.939,41.234ZM31.848,41.234L33.244,42.995L33.245,42.994L31.848,41.234ZM30.465,46.324L28.218,46.324L28.218,48.571L30.465,48.571L30.465,46.324ZM47.321,46.324L47.321,48.571L49.568,48.571L49.568,46.324L47.321,46.324ZM49.568,44.144C49.568,42.36 48.784,40.621 47.335,39.472L44.543,42.995C44.865,43.25 45.074,43.665 45.074,44.144L49.568,44.144ZM47.336,39.473C45.696,38.171 42.869,36.585 38.893,36.585L38.893,41.08C41.603,41.08 43.474,42.146 44.541,42.994L47.336,39.473ZM38.893,36.585C34.917,36.585 32.09,38.171 30.45,39.473L33.245,42.994C34.313,42.146 36.183,41.08 38.893,41.08L38.893,36.585ZM30.451,39.472C29.002,40.621 28.218,42.36 28.218,44.144L32.713,44.144C32.713,43.665 32.921,43.25 33.244,42.995L30.451,39.472ZM28.218,44.144L28.218,46.324L32.713,46.324L32.713,44.144L28.218,44.144ZM30.465,48.571L47.321,48.571L47.321,44.077L30.465,44.077L30.465,48.571ZM49.568,46.324L49.568,44.144L45.074,44.144L45.074,46.324L49.568,46.324Z" transform="rotate(0 38.893 42.578)" fill="#565D6D"/>
<path d="M41.328,28.532C41.328,29.876 40.238,30.966 38.893,30.966L38.893,35.461C42.72,35.461 45.823,32.359 45.823,28.532L41.328,28.532ZM38.893,30.966C37.548,30.966 36.458,29.876 36.458,28.532L31.964,28.532C31.964,32.359 35.066,35.461 38.893,35.461L38.893,30.966ZM36.458,28.532C36.458,27.187 37.548,26.097 38.893,26.097L38.893,21.602C35.066,21.602 31.964,24.705 31.964,28.532L36.458,28.532ZM38.893,26.097C40.238,26.097 41.328,27.187 41.328,28.532L45.823,28.532C45.823,24.705 42.72,21.602 38.893,21.602L38.893,26.097Z" transform="rotate(0 38.893 28.532)" fill="#565D6D"/>
</svg>
