<svg width="48" height="48" viewBox="0 0 48 48" fill="none" xmlns="http://www.w3.org/2000/svg" xmlns:xlink="http://www.w3.org/1999/xlink">
<path d="M42.857,5.143L44.914,5.143L44.914,3.086L42.857,3.086L42.857,5.143ZM22.286,5.143L22.286,3.086L20.229,3.086L20.229,5.143L22.286,5.143ZM22.286,22.286L20.229,22.286L20.229,26.566L23.571,23.892L22.286,22.286ZM30.857,15.429L30.857,13.371L30.135,13.371L29.572,13.822L30.857,15.429ZM42.857,15.429L42.857,17.486L44.914,17.486L44.914,15.429L42.857,15.429ZM42.857,3.086L22.286,3.086L22.286,7.2L42.857,7.2L42.857,3.086ZM20.229,5.143L20.229,22.286L24.343,22.286L24.343,5.143L20.229,5.143ZM23.571,23.892L32.142,17.035L29.572,13.822L21.001,20.679L23.571,23.892ZM30.857,17.486L42.857,17.486L42.857,13.371L30.857,13.371L30.857,17.486ZM44.914,15.429L44.914,5.143L40.8,5.143L40.8,15.429L44.914,15.429Z" transform="rotate(0 32.571 13.714)" fill="#565D6D"/>
<path d="M19.306,38.198L18.027,39.809L18.028,39.81L19.306,38.198ZM6.408,38.198L7.686,39.81L7.687,39.809L6.408,38.198ZM5.143,42.857L3.086,42.857L3.086,44.914L5.143,44.914L5.143,42.857ZM20.572,42.857L20.572,44.914L22.629,44.914L22.629,42.857L20.572,42.857ZM22.629,40.862C22.629,39.229 21.911,37.637 20.585,36.586L18.028,39.81C18.324,40.044 18.514,40.424 18.514,40.862L22.629,40.862ZM20.586,36.587C19.084,35.395 16.497,33.943 12.857,33.943L12.857,38.057C15.338,38.057 17.05,39.033 18.027,39.809L20.586,36.587ZM12.857,33.943C9.218,33.943 6.631,35.395 5.129,36.587L7.687,39.809C8.665,39.033 10.377,38.057 12.857,38.057L12.857,33.943ZM5.13,36.586C3.804,37.637 3.086,39.229 3.086,40.862L7.2,40.862C7.2,40.424 7.391,40.044 7.686,39.81L5.13,36.586ZM3.086,40.862L3.086,42.857L7.2,42.857L7.2,40.862L3.086,40.862ZM5.143,44.914L20.572,44.914L20.572,40.8L5.143,40.8L5.143,44.914ZM22.629,42.857L22.629,40.862L18.514,40.862L18.514,42.857L22.629,42.857Z" transform="rotate(0 12.857 39.429)" fill="#565D6D"/>
<path d="M15.086,26.571C15.086,27.802 14.088,28.8 12.857,28.8L12.857,32.914C16.36,32.914 19.2,30.074 19.2,26.571L15.086,26.571ZM12.857,28.8C11.626,28.8 10.628,27.802 10.628,26.571L6.514,26.571C6.514,30.074 9.354,32.914 12.857,32.914L12.857,28.8ZM10.628,26.571C10.628,25.341 11.626,24.343 12.857,24.343L12.857,20.229C9.354,20.229 6.514,23.068 6.514,26.571L10.628,26.571ZM12.857,24.343C14.088,24.343 15.086,25.341 15.086,26.571L19.2,26.571C19.2,23.068 16.36,20.229 12.857,20.229L12.857,24.343Z" transform="rotate(0 12.857 26.571)" fill="#565D6D"/>
<path d="M41.592,38.198L40.313,39.809L40.314,39.81L41.592,38.198ZM28.694,38.198L29.972,39.81L29.973,39.809L28.694,38.198ZM27.429,42.857L25.372,42.857L25.372,44.914L27.429,44.914L27.429,42.857ZM42.857,42.857L42.857,44.914L44.914,44.914L44.914,42.857L42.857,42.857ZM44.914,40.862C44.914,39.229 44.197,37.637 42.87,36.586L40.314,39.81C40.609,40.044 40.8,40.424 40.8,40.862L44.914,40.862ZM42.871,36.587C41.37,35.395 38.783,33.943 35.143,33.943L35.143,38.057C37.623,38.057 39.336,39.033 40.313,39.809L42.871,36.587ZM35.143,33.943C31.503,33.943 28.916,35.395 27.415,36.587L29.973,39.809C30.95,39.033 32.663,38.057 35.143,38.057L35.143,33.943ZM27.416,36.586C26.089,37.637 25.372,39.229 25.372,40.862L29.486,40.862C29.486,40.424 29.677,40.044 29.972,39.81L27.416,36.586ZM25.372,40.862L25.372,42.857L29.486,42.857L29.486,40.862L25.372,40.862ZM27.429,44.914L42.857,44.914L42.857,40.8L27.429,40.8L27.429,44.914ZM44.914,42.857L44.914,40.862L40.8,40.862L40.8,42.857L44.914,42.857Z" transform="rotate(0 35.143 39.429)" fill="#565D6D"/>
<path d="M37.371,26.571C37.371,27.802 36.373,28.8 35.143,28.8L35.143,32.914C38.646,32.914 41.486,30.074 41.486,26.571L37.371,26.571ZM35.143,28.8C33.912,28.8 32.914,27.802 32.914,26.571L28.8,26.571C28.8,30.074 31.64,32.914 35.143,32.914L35.143,28.8ZM32.914,26.571C32.914,25.341 33.912,24.343 35.143,24.343L35.143,20.229C31.64,20.229 28.8,23.068 28.8,26.571L32.914,26.571ZM35.143,24.343C36.373,24.343 37.371,25.341 37.371,26.571L41.486,26.571C41.486,23.068 38.646,20.229 35.143,20.229L35.143,24.343Z" transform="rotate(0 35.143 26.571)" fill="#565D6D"/>
</svg>
