<svg width="48" height="48" viewBox="0 0 48 48" fill="none" xmlns="http://www.w3.org/2000/svg" xmlns:xlink="http://www.w3.org/1999/xlink">
<path d="M41.857,5.143L43.914,5.143L43.914,3.086L41.857,3.086L41.857,5.143ZM21.286,5.143L21.286,3.086L19.229,3.086L19.229,5.143L21.286,5.143ZM21.286,22.286L19.229,22.286L19.229,26.566L22.571,23.892L21.286,22.286ZM29.857,15.429L29.857,13.371L29.135,13.371L28.572,13.822L29.857,15.429ZM41.857,15.429L41.857,17.486L43.914,17.486L43.914,15.429L41.857,15.429ZM41.857,3.086L21.286,3.086L21.286,7.2L41.857,7.2L41.857,3.086ZM19.229,5.143L19.229,22.286L23.343,22.286L23.343,5.143L19.229,5.143ZM22.571,23.892L31.142,17.035L28.572,13.822L20.001,20.679L22.571,23.892ZM29.857,17.486L41.857,17.486L41.857,13.371L29.857,13.371L29.857,17.486ZM43.914,15.429L43.914,5.143L39.8,5.143L39.8,15.429L43.914,15.429Z" transform="rotate(0 31.571 13.714)" fill="#565D6D"/>
<path d="M18.306,38.198L17.027,39.809L17.028,39.81L18.306,38.198ZM5.408,38.198L6.686,39.81L6.687,39.809L5.408,38.198ZM4.143,42.857L2.086,42.857L2.086,44.914L4.143,44.914L4.143,42.857ZM19.572,42.857L19.572,44.914L21.629,44.914L21.629,42.857L19.572,42.857ZM21.629,40.862C21.629,39.229 20.911,37.637 19.585,36.586L17.028,39.81C17.324,40.044 17.514,40.424 17.514,40.862L21.629,40.862ZM19.586,36.587C18.084,35.395 15.497,33.943 11.857,33.943L11.857,38.057C14.338,38.057 16.05,39.033 17.027,39.809L19.586,36.587ZM11.857,33.943C8.218,33.943 5.631,35.395 4.129,36.587L6.687,39.809C7.665,39.033 9.377,38.057 11.857,38.057L11.857,33.943ZM4.13,36.586C2.804,37.637 2.086,39.229 2.086,40.862L6.2,40.862C6.2,40.424 6.391,40.044 6.686,39.81L4.13,36.586ZM2.086,40.862L2.086,42.857L6.2,42.857L6.2,40.862L2.086,40.862ZM4.143,44.914L19.572,44.914L19.572,40.8L4.143,40.8L4.143,44.914ZM21.629,42.857L21.629,40.862L17.514,40.862L17.514,42.857L21.629,42.857Z" transform="rotate(0 11.857 39.429)" fill="#565D6D"/>
<path d="M14.086,26.571C14.086,27.802 13.088,28.8 11.857,28.8L11.857,32.914C15.36,32.914 18.2,30.074 18.2,26.571L14.086,26.571ZM11.857,28.8C10.626,28.8 9.628,27.802 9.628,26.571L5.514,26.571C5.514,30.074 8.354,32.914 11.857,32.914L11.857,28.8ZM9.628,26.571C9.628,25.341 10.626,24.343 11.857,24.343L11.857,20.229C8.354,20.229 5.514,23.068 5.514,26.571L9.628,26.571ZM11.857,24.343C13.088,24.343 14.086,25.341 14.086,26.571L18.2,26.571C18.2,23.068 15.36,20.229 11.857,20.229L11.857,24.343Z" transform="rotate(0 11.857 26.571)" fill="#565D6D"/>
<path d="M40.592,38.198L39.313,39.809L39.314,39.81L40.592,38.198ZM27.694,38.198L28.972,39.81L28.973,39.809L27.694,38.198ZM26.429,42.857L24.372,42.857L24.372,44.914L26.429,44.914L26.429,42.857ZM41.857,42.857L41.857,44.914L43.914,44.914L43.914,42.857L41.857,42.857ZM43.914,40.862C43.914,39.229 43.197,37.637 41.87,36.586L39.314,39.81C39.609,40.044 39.8,40.424 39.8,40.862L43.914,40.862ZM41.871,36.587C40.37,35.395 37.783,33.943 34.143,33.943L34.143,38.057C36.623,38.057 38.336,39.033 39.313,39.809L41.871,36.587ZM34.143,33.943C30.503,33.943 27.916,35.395 26.415,36.587L28.973,39.809C29.95,39.033 31.663,38.057 34.143,38.057L34.143,33.943ZM26.416,36.586C25.089,37.637 24.372,39.229 24.372,40.862L28.486,40.862C28.486,40.424 28.677,40.044 28.972,39.81L26.416,36.586ZM24.372,40.862L24.372,42.857L28.486,42.857L28.486,40.862L24.372,40.862ZM26.429,44.914L41.857,44.914L41.857,40.8L26.429,40.8L26.429,44.914ZM43.914,42.857L43.914,40.862L39.8,40.862L39.8,42.857L43.914,42.857Z" transform="rotate(0 34.143 39.429)" fill="#565D6D"/>
<path d="M36.371,26.571C36.371,27.802 35.373,28.8 34.143,28.8L34.143,32.914C37.646,32.914 40.486,30.074 40.486,26.571L36.371,26.571ZM34.143,28.8C32.912,28.8 31.914,27.802 31.914,26.571L27.8,26.571C27.8,30.074 30.64,32.914 34.143,32.914L34.143,28.8ZM31.914,26.571C31.914,25.341 32.912,24.343 34.143,24.343L34.143,20.229C30.64,20.229 27.8,23.068 27.8,26.571L31.914,26.571ZM34.143,24.343C35.373,24.343 36.371,25.341 36.371,26.571L40.486,26.571C40.486,23.068 37.646,20.229 34.143,20.229L34.143,24.343Z" transform="rotate(0 34.143 26.571)" fill="#565D6D"/>
</svg>
