<svg width="48" height="48" viewBox="0 0 48 48" fill="none" xmlns="http://www.w3.org/2000/svg" xmlns:xlink="http://www.w3.org/1999/xlink">
<path d="M11.157,10.286C11.157,11.043 10.543,11.657 9.786,11.657L9.786,15.771C12.816,15.771 15.272,13.315 15.272,10.286L11.157,10.286ZM9.786,11.657C9.029,11.657 8.415,11.043 8.415,10.286L4.3,10.286C4.3,13.315 6.756,15.771 9.786,15.771L9.786,11.657ZM8.415,10.286C8.415,9.528 9.029,8.914 9.786,8.914L9.786,4.8C6.756,4.8 4.3,7.256 4.3,10.286L8.415,10.286ZM9.786,8.914C10.543,8.914 11.157,9.528 11.157,10.286L15.272,10.286C15.272,7.256 12.816,4.8 9.786,4.8L9.786,8.914Z" transform="rotate(0 9.786 10.286)" fill="#6D31ED"/>
<path d="M11.157,24C11.157,24.758 10.543,25.372 9.786,25.372L9.786,29.486C12.816,29.486 15.272,27.03 15.272,24L11.157,24ZM9.786,25.372C9.029,25.372 8.415,24.758 8.415,24L4.3,24C4.3,27.03 6.756,29.486 9.786,29.486L9.786,25.372ZM8.415,24C8.415,23.243 9.029,22.629 9.786,22.629L9.786,18.514C6.756,18.514 4.3,20.97 4.3,24L8.415,24ZM9.786,22.629C10.543,22.629 11.157,23.243 11.157,24L15.272,24C15.272,20.97 12.816,18.514 9.786,18.514L9.786,22.629Z" transform="rotate(0 9.786 24)" fill="#6D31ED"/>
<path d="M11.157,37.714C11.157,38.472 10.543,39.086 9.786,39.086L9.786,43.2C12.816,43.2 15.272,40.744 15.272,37.714L11.157,37.714ZM9.786,39.086C9.029,39.086 8.415,38.472 8.415,37.714L4.3,37.714C4.3,40.744 6.756,43.2 9.786,43.2L9.786,39.086ZM8.415,37.714C8.415,36.957 9.029,36.343 9.786,36.343L9.786,32.229C6.756,32.229 4.3,34.685 4.3,37.714L8.415,37.714ZM9.786,36.343C10.543,36.343 11.157,36.957 11.157,37.714L15.272,37.714C15.272,34.685 12.816,32.229 9.786,32.229L9.786,36.343Z" transform="rotate(0 9.786 37.714)" fill="#6D31ED"/>
<line x1="20.071" y1="8.229" x2="40.643" y2="8.229" stroke="#6D31ED" stroke-width="2.057" stroke-miterlimit="10" stroke-linecap="square"/>
<line x1="20.071" y1="21.943" x2="40.643" y2="21.943" stroke="#6D31ED" stroke-width="2.057" stroke-miterlimit="10" stroke-linecap="square"/>
<line x1="20.071" y1="35.657" x2="40.643" y2="35.657" stroke="#6D31ED" stroke-width="2.057" stroke-miterlimit="10" stroke-linecap="square"/>
</svg>
