<svg width="54" height="54" viewBox="0 0 54 54" fill="none" xmlns="http://www.w3.org/2000/svg" xmlns:xlink="http://www.w3.org/1999/xlink">
<path d="M26.626,29.058C31.52,29.058 35.5,25.078 35.5,20.184C35.5,15.29 31.52,11.31 26.626,11.31C21.732,11.31 17.752,15.29 17.752,20.184C17.752,25.078 21.732,29.058 26.626,29.058ZM26.626,15.747C29.073,15.747 31.063,17.737 31.063,20.184C31.063,22.631 29.073,24.621 26.626,24.621C24.179,24.621 22.189,22.631 22.189,20.184C22.189,17.737 24.179,15.747 26.626,15.747Z" fill="#565D6D"/>
<path d="M25.34,46.393C25.715,46.662 26.165,46.806 26.627,46.806C27.088,46.806 27.538,46.662 27.913,46.393C28.588,45.916 44.439,34.471 44.375,20.184C44.375,10.398 36.412,2.436 26.627,2.436C16.841,2.436 8.879,10.398 8.879,20.173C8.814,34.471 24.665,45.916 25.34,46.393ZM26.627,6.873C33.968,6.873 39.938,12.843 39.938,20.195C39.984,30.041 30.203,38.882 26.627,41.781C23.053,38.879 13.269,30.036 13.316,20.184C13.316,12.843 19.286,6.873 26.627,6.873Z" fill="#565D6D"/>
</svg>
