<svg width="52" height="52" viewBox="0 0 52 52" fill="none" xmlns="http://www.w3.org/2000/svg" xmlns:xlink="http://www.w3.org/1999/xlink">
<path d="M12.526,25.722L12.526,23.475L10.279,23.475L10.279,25.722L12.526,25.722ZM16.272,25.722L18.52,25.722L18.52,23.475L16.272,23.475L16.272,25.722ZM16.272,27.595L16.272,29.843L18.52,29.843L18.52,27.595L16.272,27.595ZM12.526,27.595L10.279,27.595L10.279,29.843L12.526,29.843L12.526,27.595ZM12.526,27.97L16.272,27.97L16.272,23.475L12.526,23.475L12.526,27.97ZM14.025,25.722L14.025,27.595L18.52,27.595L18.52,25.722L14.025,25.722ZM16.272,25.348L12.526,25.348L12.526,29.843L16.272,29.843L16.272,25.348ZM14.774,27.595L14.774,25.722L10.279,25.722L10.279,27.595L14.774,27.595Z" transform="rotate(0 14.399 26.659)" fill="#565D6D"/>
<path d="M23.764,25.722L23.764,23.475L21.516,23.475L21.516,25.722L23.764,25.722ZM27.509,25.722L29.757,25.722L29.757,23.475L27.509,23.475L27.509,25.722ZM27.509,27.595L27.509,29.843L29.757,29.843L29.757,27.595L27.509,27.595ZM23.764,27.595L21.516,27.595L21.516,29.843L23.764,29.843L23.764,27.595ZM23.764,27.97L27.509,27.97L27.509,23.475L23.764,23.475L23.764,27.97ZM25.262,25.722L25.262,27.595L29.757,27.595L29.757,25.722L25.262,25.722ZM27.509,25.348L23.764,25.348L23.764,29.843L27.509,29.843L27.509,25.348ZM26.011,27.595L26.011,25.722L21.516,25.722L21.516,27.595L26.011,27.595Z" transform="rotate(0 25.637 26.659)" fill="#565D6D"/>
<path d="M12.526,35.087L12.526,32.839L10.279,32.839L10.279,35.087L12.526,35.087ZM16.272,35.087L18.52,35.087L18.52,32.839L16.272,32.839L16.272,35.087ZM16.272,36.96L16.272,39.207L18.52,39.207L18.52,36.96L16.272,36.96ZM12.526,36.96L10.279,36.96L10.279,39.207L12.526,39.207L12.526,36.96ZM12.526,37.334L16.272,37.334L16.272,32.839L12.526,32.839L12.526,37.334ZM14.025,35.087L14.025,36.96L18.52,36.96L18.52,35.087L14.025,35.087ZM16.272,34.712L12.526,34.712L12.526,39.207L16.272,39.207L16.272,34.712ZM14.774,36.96L14.774,35.087L10.279,35.087L10.279,36.96L14.774,36.96Z" transform="rotate(0 14.399 36.023)" fill="#565D6D"/>
<path d="M23.764,35.087L23.764,32.839L21.516,32.839L21.516,35.087L23.764,35.087ZM27.509,35.087L29.757,35.087L29.757,32.839L27.509,32.839L27.509,35.087ZM27.509,36.96L27.509,39.207L29.757,39.207L29.757,36.96L27.509,36.96ZM23.764,36.96L21.516,36.96L21.516,39.207L23.764,39.207L23.764,36.96ZM23.764,37.334L27.509,37.334L27.509,32.839L23.764,32.839L23.764,37.334ZM25.262,35.087L25.262,36.96L29.757,36.96L29.757,35.087L25.262,35.087ZM27.509,34.712L23.764,34.712L23.764,39.207L27.509,39.207L27.509,34.712ZM26.011,36.96L26.011,35.087L21.516,35.087L21.516,36.96L26.011,36.96Z" transform="rotate(0 25.637 36.023)" fill="#565D6D"/>
<path d="M35.002,25.722L35.002,23.475L32.755,23.475L32.755,25.722L35.002,25.722ZM38.748,25.722L40.995,25.722L40.995,23.475L38.748,23.475L38.748,25.722ZM38.748,27.595L38.748,29.843L40.995,29.843L40.995,27.595L38.748,27.595ZM35.002,27.595L32.755,27.595L32.755,29.843L35.002,29.843L35.002,27.595ZM35.002,27.97L38.748,27.97L38.748,23.475L35.002,23.475L35.002,27.97ZM36.5,25.722L36.5,27.595L40.995,27.595L40.995,25.722L36.5,25.722ZM38.748,25.348L35.002,25.348L35.002,29.843L38.748,29.843L38.748,25.348ZM37.249,27.595L37.249,25.722L32.755,25.722L32.755,27.595L37.249,27.595Z" transform="rotate(0 36.875 26.659)" fill="#565D6D"/>
<rect  x="12.526" y="25.722" width="3.746" height="1.873" transform="rotate(0 12.526 25.722)" fill="#565D6D"/>
<rect  x="23.764" y="25.722" width="3.746" height="1.873" transform="rotate(0 23.764 25.722)" fill="#565D6D"/>
<rect  x="12.526" y="35.087" width="3.746" height="1.873" transform="rotate(0 12.526 35.087)" fill="#565D6D"/>
<rect  x="23.764" y="35.087" width="3.746" height="1.873" transform="rotate(0 23.764 35.087)" fill="#565D6D"/>
<rect  x="35.002" y="25.722" width="3.746" height="1.873" transform="rotate(0 35.002 25.722)" fill="#565D6D"/>
<path d="M5.036,10.74L5.036,8.492L2.788,8.492L2.788,10.74L5.036,10.74ZM46.238,10.74L48.486,10.74L48.486,8.492L46.238,8.492L46.238,10.74ZM46.238,44.451L46.238,46.698L48.486,46.698L48.486,44.451L46.238,44.451ZM5.036,44.451L2.788,44.451L2.788,46.698L5.036,46.698L5.036,44.451ZM5.036,12.987L46.238,12.987L46.238,8.492L5.036,8.492L5.036,12.987ZM43.991,10.74L43.991,44.451L48.486,44.451L48.486,10.74L43.991,10.74ZM46.238,42.204L5.036,42.204L5.036,46.698L46.238,46.698L46.238,42.204ZM7.283,44.451L7.283,10.74L2.788,10.74L2.788,44.451L7.283,44.451Z" transform="rotate(0 25.637 27.595)" fill="#565D6D"/>
<line x1="32.755" y1="5.121" x2="32.755" y2="10.74" stroke="#565D6D" stroke-width="2.247" stroke-miterlimit="10" stroke-linecap="square"/>
<line x1="14.024" y1="5.121" x2="14.024" y2="10.74" stroke="#565D6D" stroke-width="2.247" stroke-miterlimit="10" stroke-linecap="square"/>
<line x1="5.036" y1="15.984" x2="46.238" y2="15.984" stroke="#565D6D" stroke-width="2.247" stroke-miterlimit="10"/>
</svg>
