<svg width="32" height="32" viewBox="0 0 32 32" fill="none" xmlns="http://www.w3.org/2000/svg" xmlns:xlink="http://www.w3.org/1999/xlink">
<line x1="20.342" y1="3.429" x2="20.342" y2="6.857" stroke="#171A1F" stroke-width="1.371" stroke-miterlimit="10" stroke-linecap="square"/>
<line x1="8.915" y1="3.429" x2="8.915" y2="6.857" stroke="#171A1F" stroke-width="1.371" stroke-miterlimit="10" stroke-linecap="square"/>
<line x1="3.429" y1="10.057" x2="28.572" y2="10.057" stroke="#171A1F" stroke-width="1.371" stroke-miterlimit="10"/>
<path d="M3.429,6.857L3.429,5.486L2.057,5.486L2.057,6.857L3.429,6.857ZM28.572,6.857L29.943,6.857L29.943,5.486L28.572,5.486L28.572,6.857ZM28.572,27.429L28.572,28.8L29.943,28.8L29.943,27.429L28.572,27.429ZM3.429,27.429L2.057,27.429L2.057,28.8L3.429,28.8L3.429,27.429ZM3.429,8.229L28.572,8.229L28.572,5.486L3.429,5.486L3.429,8.229ZM27.2,6.857L27.2,27.429L29.943,27.429L29.943,6.857L27.2,6.857ZM28.572,26.057L3.429,26.057L3.429,28.8L28.572,28.8L28.572,26.057ZM4.8,27.429L4.8,6.857L2.057,6.857L2.057,27.429L4.8,27.429Z" transform="rotate(0 16 17.143)" fill="#171A1F"/>
</svg>
