<svg width="50" height="48" viewBox="0 0 50 48" fill="none" xmlns="http://www.w3.org/2000/svg" xmlns:xlink="http://www.w3.org/1999/xlink">
<path d="M12.333,24L12.333,21.943L10.276,21.943L10.276,24L12.333,24ZM15.762,24L17.819,24L17.819,21.943L15.762,21.943L15.762,24ZM15.762,25.714L15.762,27.771L17.819,27.771L17.819,25.714L15.762,25.714ZM12.333,25.714L10.276,25.714L10.276,27.771L12.333,27.771L12.333,25.714ZM12.333,26.057L15.762,26.057L15.762,21.943L12.333,21.943L12.333,26.057ZM13.705,24L13.705,25.714L17.819,25.714L17.819,24L13.705,24ZM15.762,23.657L12.333,23.657L12.333,27.771L15.762,27.771L15.762,23.657ZM14.391,25.714L14.391,24L10.276,24L10.276,25.714L14.391,25.714Z" transform="rotate(0 14.048 24.857)" fill="#565D6D"/>
<path d="M22.619,24L22.619,21.943L20.562,21.943L20.562,24L22.619,24ZM26.048,24L28.105,24L28.105,21.943L26.048,21.943L26.048,24ZM26.048,25.714L26.048,27.771L28.105,27.771L28.105,25.714L26.048,25.714ZM22.619,25.714L20.562,25.714L20.562,27.771L22.619,27.771L22.619,25.714ZM22.619,26.057L26.048,26.057L26.048,21.943L22.619,21.943L22.619,26.057ZM23.991,24L23.991,25.714L28.105,25.714L28.105,24L23.991,24ZM26.048,23.657L22.619,23.657L22.619,27.771L26.048,27.771L26.048,23.657ZM24.676,25.714L24.676,24L20.562,24L20.562,25.714L24.676,25.714Z" transform="rotate(0 24.333 24.857)" fill="#565D6D"/>
<path d="M12.333,32.572L12.333,30.514L10.276,30.514L10.276,32.572L12.333,32.572ZM15.762,32.572L17.819,32.572L17.819,30.514L15.762,30.514L15.762,32.572ZM15.762,34.286L15.762,36.343L17.819,36.343L17.819,34.286L15.762,34.286ZM12.333,34.286L10.276,34.286L10.276,36.343L12.333,36.343L12.333,34.286ZM12.333,34.629L15.762,34.629L15.762,30.514L12.333,30.514L12.333,34.629ZM13.705,32.572L13.705,34.286L17.819,34.286L17.819,32.572L13.705,32.572ZM15.762,32.229L12.333,32.229L12.333,36.343L15.762,36.343L15.762,32.229ZM14.391,34.286L14.391,32.572L10.276,32.572L10.276,34.286L14.391,34.286Z" transform="rotate(0 14.048 33.429)" fill="#565D6D"/>
<path d="M22.619,32.572L22.619,30.514L20.562,30.514L20.562,32.572L22.619,32.572ZM26.048,32.572L28.105,32.572L28.105,30.514L26.048,30.514L26.048,32.572ZM26.048,34.286L26.048,36.343L28.105,36.343L28.105,34.286L26.048,34.286ZM22.619,34.286L20.562,34.286L20.562,36.343L22.619,36.343L22.619,34.286ZM22.619,34.629L26.048,34.629L26.048,30.514L22.619,30.514L22.619,34.629ZM23.991,32.572L23.991,34.286L28.105,34.286L28.105,32.572L23.991,32.572ZM26.048,32.229L22.619,32.229L22.619,36.343L26.048,36.343L26.048,32.229ZM24.676,34.286L24.676,32.572L20.562,32.572L20.562,34.286L24.676,34.286Z" transform="rotate(0 24.333 33.429)" fill="#565D6D"/>
<path d="M32.905,24L32.905,21.943L30.848,21.943L30.848,24L32.905,24ZM36.333,24L38.391,24L38.391,21.943L36.333,21.943L36.333,24ZM36.333,25.714L36.333,27.771L38.391,27.771L38.391,25.714L36.333,25.714ZM32.905,25.714L30.848,25.714L30.848,27.771L32.905,27.771L32.905,25.714ZM32.905,26.057L36.333,26.057L36.333,21.943L32.905,21.943L32.905,26.057ZM34.276,24L34.276,25.714L38.391,25.714L38.391,24L34.276,24ZM36.333,23.657L32.905,23.657L32.905,27.771L36.333,27.771L36.333,23.657ZM34.962,25.714L34.962,24L30.848,24L30.848,25.714L34.962,25.714Z" transform="rotate(0 34.619 24.857)" fill="#565D6D"/>
<rect  x="12.333" y="24" width="3.429" height="1.714" transform="rotate(0 12.333 24)" fill="#565D6D"/>
<rect  x="22.619" y="24" width="3.429" height="1.714" transform="rotate(0 22.619 24)" fill="#565D6D"/>
<rect  x="12.333" y="32.572" width="3.429" height="1.714" transform="rotate(0 12.333 32.572)" fill="#565D6D"/>
<rect  x="22.619" y="32.572" width="3.429" height="1.714" transform="rotate(0 22.619 32.572)" fill="#565D6D"/>
<rect  x="32.905" y="24" width="3.429" height="1.714" transform="rotate(0 32.905 24)" fill="#565D6D"/>
<path d="M5.477,10.286L5.477,8.229L3.419,8.229L3.419,10.286L5.477,10.286ZM43.191,10.286L45.248,10.286L45.248,8.229L43.191,8.229L43.191,10.286ZM43.191,41.143L43.191,43.2L45.248,43.2L45.248,41.143L43.191,41.143ZM5.477,41.143L3.419,41.143L3.419,43.2L5.477,43.2L5.477,41.143ZM5.477,12.343L43.191,12.343L43.191,8.229L5.477,8.229L5.477,12.343ZM41.134,10.286L41.134,41.143L45.248,41.143L45.248,10.286L41.134,10.286ZM43.191,39.086L5.477,39.086L5.477,43.2L43.191,43.2L43.191,39.086ZM7.534,41.143L7.534,10.286L3.419,10.286L3.419,41.143L7.534,41.143Z" transform="rotate(0 24.334 25.714)" fill="#565D6D"/>
<line x1="30.848" y1="5.143" x2="30.848" y2="10.286" stroke="#565D6D" stroke-width="2.057" stroke-miterlimit="10" stroke-linecap="square"/>
<line x1="13.705" y1="5.143" x2="13.705" y2="10.286" stroke="#565D6D" stroke-width="2.057" stroke-miterlimit="10" stroke-linecap="square"/>
<line x1="5.477" y1="15.086" x2="43.191" y2="15.086" stroke="#565D6D" stroke-width="2.057" stroke-miterlimit="10"/>
</svg>
