<svg width="32" height="32" viewBox="0 0 32 32" fill="none" xmlns="http://www.w3.org/2000/svg" xmlns:xlink="http://www.w3.org/1999/xlink">
<path d="M16,13.714L17.07,12.858L15.978,11.492L14.913,12.878L16,13.714ZM16,19.2C16.012,19.2 15.933,19.198 15.8,19.157C15.675,19.119 15.548,19.061 15.44,18.984C15.336,18.91 15.256,18.823 15.199,18.717C15.144,18.615 15.085,18.448 15.085,18.171L12.342,18.171C12.342,19.621 13.014,20.622 13.845,21.216C14.601,21.756 15.458,21.943 16,21.943L16,19.2ZM15.085,18.171C15.085,18.093 15.132,17.843 15.327,17.4C15.506,16.992 15.757,16.54 16.025,16.104C16.29,15.673 16.558,15.281 16.761,14.996C16.861,14.854 16.945,14.74 17.002,14.663C17.031,14.624 17.053,14.595 17.068,14.575C17.075,14.566 17.08,14.559 17.083,14.555C17.085,14.553 17.086,14.551 17.087,14.55C17.087,14.55 17.087,14.55 17.087,14.55C17.087,14.55 17.087,14.55 17.087,14.55C17.087,14.55 17.087,14.55 17.087,14.55C17.087,14.55 17.087,14.55 16,13.714C14.913,12.878 14.912,12.878 14.912,12.878C14.912,12.878 14.912,12.879 14.912,12.879C14.912,12.879 14.912,12.879 14.911,12.88C14.911,12.88 14.91,12.881 14.909,12.882C14.908,12.884 14.905,12.887 14.903,12.891C14.897,12.898 14.89,12.908 14.88,12.92C14.861,12.946 14.834,12.982 14.8,13.027C14.733,13.118 14.638,13.248 14.524,13.408C14.298,13.726 13.995,14.17 13.689,14.667C13.386,15.16 13.065,15.729 12.816,16.296C12.582,16.828 12.342,17.506 12.342,18.171L15.085,18.171ZM16,13.714C14.929,14.571 14.929,14.571 14.928,14.571C14.928,14.571 14.928,14.571 14.928,14.571C14.928,14.57 14.928,14.57 14.928,14.57C14.928,14.57 14.928,14.57 14.928,14.571C14.929,14.571 14.93,14.573 14.931,14.575C14.935,14.578 14.94,14.585 14.947,14.594C14.961,14.612 14.982,14.64 15.011,14.676C15.067,14.75 15.15,14.859 15.25,14.996C15.451,15.27 15.716,15.649 15.979,16.07C16.245,16.495 16.493,16.939 16.67,17.347C16.86,17.782 16.914,18.054 16.914,18.171L19.657,18.171C19.657,17.489 19.425,16.803 19.186,16.253C18.935,15.675 18.611,15.105 18.305,14.616C17.997,14.123 17.691,13.687 17.464,13.376C17.349,13.219 17.253,13.093 17.185,13.004C17.151,12.959 17.123,12.924 17.104,12.9C17.094,12.887 17.086,12.878 17.081,12.87C17.078,12.867 17.076,12.864 17.074,12.862C17.073,12.861 17.072,12.86 17.072,12.859C17.072,12.859 17.071,12.858 17.071,12.858C17.071,12.858 17.071,12.858 17.071,12.858C17.071,12.858 17.07,12.858 16,13.714ZM16.914,18.171C16.914,18.448 16.855,18.615 16.8,18.717C16.743,18.823 16.663,18.91 16.56,18.984C16.452,19.061 16.324,19.119 16.199,19.157C16.066,19.198 15.987,19.2 16,19.2L16,21.943C16.541,21.943 17.398,21.756 18.154,21.216C18.985,20.622 19.657,19.621 19.657,18.171L16.914,18.171Z" transform="rotate(0 16 17.143)" fill="#171A1F"/>
<path d="M11.429,28.571L10.057,28.571L10.057,29.943L11.429,29.943L11.429,28.571ZM20.572,28.571L20.572,29.943L21.943,29.943L21.943,28.571L20.572,28.571ZM10.057,25.029L10.057,28.571L12.8,28.571L12.8,25.029L10.057,25.029ZM11.429,29.943L20.572,29.943L20.572,27.2L11.429,27.2L11.429,29.943ZM21.943,28.571L21.943,25.029L19.2,25.029L19.2,28.571L21.943,28.571Z" transform="rotate(0 16 26.8)" fill="#171A1F"/>
<path d="M26.515,6.857L26.515,5.486L23.772,5.486L23.772,6.857L26.515,6.857ZM8.229,6.857L8.229,5.486L5.486,5.486L5.486,6.857L8.229,6.857ZM23.772,6.857L23.772,19.429L26.515,19.429L26.515,6.857L23.772,6.857ZM23.772,19.429C23.772,21.871 21.871,23.771 19.429,23.771L19.429,26.514C23.386,26.514 26.515,23.386 26.515,19.429L23.772,19.429ZM19.429,23.771L12.572,23.771L12.572,26.514L19.429,26.514L19.429,23.771ZM12.572,23.771C10.129,23.771 8.229,21.871 8.229,19.429L5.486,19.429C5.486,23.386 8.614,26.514 12.572,26.514L12.572,23.771ZM8.229,19.429L8.229,6.857L5.486,6.857L5.486,19.429L8.229,19.429Z" transform="rotate(0 16 16)" fill="#171A1F"/>
<line x1="4.571" y1="5.486" x2="27.428" y2="5.486" stroke="#171A1F" stroke-width="1.371" stroke-miterlimit="10" stroke-linecap="square"/>
<path d="M12.571,3.429L12.571,2.057L11.2,2.057L11.2,3.429L12.571,3.429ZM19.428,3.429L20.8,3.429L20.8,2.057L19.428,2.057L19.428,3.429ZM19.428,6.857L19.428,8.229L20.8,8.229L20.8,6.857L19.428,6.857ZM12.571,6.857L11.2,6.857L11.2,8.229L12.571,8.229L12.571,6.857ZM12.571,4.8L19.428,4.8L19.428,2.057L12.571,2.057L12.571,4.8ZM18.057,3.429L18.057,6.857L20.8,6.857L20.8,3.429L18.057,3.429ZM19.428,5.486L12.571,5.486L12.571,8.229L19.428,8.229L19.428,5.486ZM13.943,6.857L13.943,3.429L11.2,3.429L11.2,6.857L13.943,6.857Z" transform="rotate(0 16 5.143)" fill="#171A1F"/>
</svg>
