<svg width="56" height="56" viewBox="0 0 56 56" fill="none" xmlns="http://www.w3.org/2000/svg" xmlns:xlink="http://www.w3.org/1999/xlink">
<path d="M18.127,37.209C21.336,42.71 27.305,46.4 34,46.4L34,41.6C29.095,41.6 24.664,38.89 22.273,34.791L18.127,37.209ZM34,46.4C44.126,46.4 52.4,38.125 52.4,28L47.6,28C47.6,35.475 41.475,41.6 34,41.6L34,46.4ZM52.4,28C52.4,17.875 44.126,9.6 34,9.6L34,14.4C41.475,14.4 47.6,20.525 47.6,28L52.4,28ZM34,9.6C27.089,9.6 21.327,13.305 18.127,18.791L22.273,21.209C24.673,17.095 28.912,14.4 34,14.4L34,9.6Z" transform="rotate(0 35.1 28)" fill="#8E94A0"/>
<line x1="6" y1="25.6" x2="40" y2="25.6" stroke="#8E94A0" stroke-width="2.4" stroke-miterlimit="10"/>
<path d="M35.697,20.303L34,18.606L30.606,22L32.303,23.697L35.697,20.303ZM40,28L41.697,29.697L43.394,28L41.697,26.303L40,28ZM32.303,32.303L30.606,34L34,37.394L35.697,35.697L32.303,32.303ZM32.303,23.697L38.303,29.697L41.697,26.303L35.697,20.303L32.303,23.697ZM38.303,26.303L32.303,32.303L35.697,35.697L41.697,29.697L38.303,26.303Z" transform="rotate(0 37 28)" fill="#8E94A0"/>
</svg>
