<svg width="48" height="48" viewBox="0 0 48 48" fill="none" xmlns="http://www.w3.org/2000/svg" xmlns:xlink="http://www.w3.org/1999/xlink">
<line x1="5.143" y1="21.943" x2="20.571" y2="21.943" stroke="#565D6D" stroke-width="2.057" stroke-miterlimit="10"/>
<path d="M12.259,29.402L10.805,30.857L13.714,33.766L15.168,32.312L12.259,29.402ZM20.571,24L22.026,25.455L23.48,24L22.026,22.545L20.571,24ZM15.168,15.688L13.714,14.234L10.805,17.143L12.259,18.597L15.168,15.688ZM15.168,32.312L22.026,25.455L19.116,22.545L12.259,29.402L15.168,32.312ZM22.026,22.545L15.168,15.688L12.259,18.597L19.116,25.455L22.026,22.545Z" transform="rotate(0 17.142 24)" fill="#565D6D"/>
<line x1="27.429" y1="21.943" x2="42.857" y2="21.943" stroke="#565D6D" stroke-width="2.057" stroke-miterlimit="10"/>
<path d="M32.831,32.312L34.286,33.766L37.195,30.857L35.74,29.402L32.831,32.312ZM27.429,24L25.974,22.545L24.519,24L25.974,25.455L27.429,24ZM35.74,18.597L37.195,17.143L34.286,14.234L32.831,15.688L35.74,18.597ZM35.74,29.402L28.883,22.545L25.974,25.455L32.831,32.312L35.74,29.402ZM28.883,25.455L35.74,18.597L32.831,15.688L25.974,22.545L28.883,25.455Z" transform="rotate(0 30.857 24)" fill="#565D6D"/>
</svg>
