<svg width="32" height="32" viewBox="0 0 32 32" fill="none" xmlns="http://www.w3.org/2000/svg" xmlns:xlink="http://www.w3.org/1999/xlink">
<path d="M23.97,8.97L24.939,8L23,6.061L22.03,7.03L23.97,8.97ZM6.03,23.03L5.061,24L7,25.939L7.97,24.97L6.03,23.03ZM22.03,7.03L6.03,23.03L7.97,24.97L23.97,8.97L22.03,7.03Z" transform="rotate(0 15 16)" fill="#FFFFFF"/>
<path d="M22.03,24.97L23,25.939L24.939,24L23.97,23.03L22.03,24.97ZM7.97,7.03L7,6.061L5.061,8L6.03,8.97L7.97,7.03ZM23.97,23.03L7.97,7.03L6.03,8.97L22.03,24.97L23.97,23.03Z" transform="rotate(0 15 16)" fill="#FFFFFF"/>
</svg>
