<svg width="32" height="32" viewBox="0 0 32 32" fill="none" xmlns="http://www.w3.org/2000/svg" xmlns:xlink="http://www.w3.org/1999/xlink">
<path d="M27.2,16C27.2,22.186 22.186,27.2 16,27.2L16,29.943C23.701,29.943 29.943,23.701 29.943,16L27.2,16ZM16,27.2C9.815,27.2 4.8,22.186 4.8,16L2.057,16C2.057,23.701 8.3,29.943 16,29.943L16,27.2ZM4.8,16C4.8,9.815 9.815,4.8 16,4.8L16,2.057C8.3,2.057 2.057,8.3 2.057,16L4.8,16ZM16,4.8C22.186,4.8 27.2,9.815 27.2,16L29.943,16C29.943,8.3 23.701,2.057 16,2.057L16,4.8Z" transform="rotate(0 16 16)" fill="#6D31ED"/>
<path d="M22.857,13.714L24.229,13.714L24.229,12.343L22.857,12.343L22.857,13.714ZM18.286,13.714L16.914,13.714L16.914,15.086L18.286,15.086L18.286,13.714ZM18.286,9.143L19.657,9.143L19.657,7.772L18.286,7.772L18.286,9.143ZM13.714,9.143L13.714,7.772L12.343,7.772L12.343,9.143L13.714,9.143ZM13.714,13.714L13.714,15.086L15.086,15.086L15.086,13.714L13.714,13.714ZM9.143,13.714L9.143,12.343L7.772,12.343L7.772,13.714L9.143,13.714ZM9.143,18.286L7.772,18.286L7.772,19.657L9.143,19.657L9.143,18.286ZM13.714,18.286L15.086,18.286L15.086,16.914L13.714,16.914L13.714,18.286ZM13.714,22.857L12.343,22.857L12.343,24.229L13.714,24.229L13.714,22.857ZM18.286,22.857L18.286,24.229L19.657,24.229L19.657,22.857L18.286,22.857ZM18.286,18.286L18.286,16.914L16.914,16.914L16.914,18.286L18.286,18.286ZM22.857,18.286L22.857,19.657L24.229,19.657L24.229,18.286L22.857,18.286ZM22.857,12.343L18.286,12.343L18.286,15.086L22.857,15.086L22.857,12.343ZM19.657,13.714L19.657,9.143L16.914,9.143L16.914,13.714L19.657,13.714ZM18.286,7.772L13.714,7.772L13.714,10.514L18.286,10.514L18.286,7.772ZM12.343,9.143L12.343,13.714L15.086,13.714L15.086,9.143L12.343,9.143ZM13.714,12.343L9.143,12.343L9.143,15.086L13.714,15.086L13.714,12.343ZM7.772,13.714L7.772,18.286L10.514,18.286L10.514,13.714L7.772,13.714ZM9.143,19.657L13.714,19.657L13.714,16.914L9.143,16.914L9.143,19.657ZM12.343,18.286L12.343,22.857L15.086,22.857L15.086,18.286L12.343,18.286ZM13.714,24.229L18.286,24.229L18.286,21.486L13.714,21.486L13.714,24.229ZM19.657,22.857L19.657,18.286L16.914,18.286L16.914,22.857L19.657,22.857ZM18.286,19.657L22.857,19.657L22.857,16.914L18.286,16.914L18.286,19.657ZM24.229,18.286L24.229,13.714L21.486,13.714L21.486,18.286L24.229,18.286Z" transform="rotate(0 16 16)" fill="#6D31ED"/>
</svg>
