<svg width="38" height="38" viewBox="0 0 38 38" fill="none" xmlns="http://www.w3.org/2000/svg" xmlns:xlink="http://www.w3.org/1999/xlink">
<path d="M31.368,19C31.368,26.052 25.652,31.768 18.6,31.768L18.6,34.895C27.379,34.895 34.495,27.779 34.495,19L31.368,19ZM18.6,31.768C11.548,31.768 5.832,26.052 5.832,19L2.705,19C2.705,27.779 9.821,34.895 18.6,34.895L18.6,31.768ZM5.832,19C5.832,11.949 11.548,6.232 18.6,6.232L18.6,3.105C9.821,3.105 2.705,10.222 2.705,19L5.832,19ZM18.6,6.232C25.652,6.232 31.368,11.949 31.368,19L34.495,19C34.495,10.222 27.379,3.105 18.6,3.105L18.6,6.232Z" transform="rotate(0 18.6 19)" fill="#6D31ED"/>
<path d="M26.418,16.394L27.982,16.394L27.982,14.831L26.418,14.831L26.418,16.394ZM21.207,16.394L19.644,16.394L19.644,17.958L21.207,17.958L21.207,16.394ZM21.207,11.183L22.77,11.183L22.77,9.619L21.207,9.619L21.207,11.183ZM15.996,11.183L15.996,9.619L14.432,9.619L14.432,11.183L15.996,11.183ZM15.996,16.394L15.996,17.958L17.559,17.958L17.559,16.394L15.996,16.394ZM10.784,16.394L10.784,14.831L9.221,14.831L9.221,16.394L10.784,16.394ZM10.784,21.606L9.221,21.606L9.221,23.169L10.784,23.169L10.784,21.606ZM15.996,21.606L17.559,21.606L17.559,20.042L15.996,20.042L15.996,21.606ZM15.996,26.817L14.432,26.817L14.432,28.381L15.996,28.381L15.996,26.817ZM21.207,26.817L21.207,28.381L22.77,28.381L22.77,26.817L21.207,26.817ZM21.207,21.606L21.207,20.042L19.644,20.042L19.644,21.606L21.207,21.606ZM26.418,21.606L26.418,23.169L27.982,23.169L27.982,21.606L26.418,21.606ZM26.418,14.831L21.207,14.831L21.207,17.958L26.418,17.958L26.418,14.831ZM22.77,16.394L22.77,11.183L19.644,11.183L19.644,16.394L22.77,16.394ZM21.207,9.619L15.996,9.619L15.996,12.746L21.207,12.746L21.207,9.619ZM14.432,11.183L14.432,16.394L17.559,16.394L17.559,11.183L14.432,11.183ZM15.996,14.831L10.784,14.831L10.784,17.958L15.996,17.958L15.996,14.831ZM9.221,16.394L9.221,21.606L12.348,21.606L12.348,16.394L9.221,16.394ZM10.784,23.169L15.996,23.169L15.996,20.042L10.784,20.042L10.784,23.169ZM14.432,21.606L14.432,26.817L17.559,26.817L17.559,21.606L14.432,21.606ZM15.996,28.381L21.207,28.381L21.207,25.254L15.996,25.254L15.996,28.381ZM22.77,26.817L22.77,21.606L19.644,21.606L19.644,26.817L22.77,26.817ZM21.207,23.169L26.418,23.169L26.418,20.042L21.207,20.042L21.207,23.169ZM27.982,21.606L27.982,16.394L24.855,16.394L24.855,21.606L27.982,21.606Z" transform="rotate(0 18.601 19)" fill="#6D31ED"/>
</svg>
