<svg width="56" height="56" viewBox="0 0 56 56" fill="none" xmlns="http://www.w3.org/2000/svg" xmlns:xlink="http://www.w3.org/1999/xlink">
<path d="M20,38L21.874,36.501L21.154,35.6L20,35.6L20,38ZM28,48L26.126,49.499L28,51.842L29.874,49.499L28,48ZM36,38L36,35.6L34.847,35.6L34.126,36.501L36,38ZM46,5.6L10,5.6L10,10.4L46,10.4L46,5.6ZM10,5.6C6.465,5.6 3.6,8.465 3.6,12L8.4,12C8.4,11.115 9.115,10.4 10,10.4L10,5.6ZM3.6,12L3.6,34L8.4,34L8.4,12L3.6,12ZM3.6,34C3.6,37.535 6.465,40.4 10,40.4L10,35.6C9.115,35.6 8.4,34.885 8.4,34L3.6,34ZM10,40.4L20,40.4L20,35.6L10,35.6L10,40.4ZM18.126,39.499L26.126,49.499L29.874,46.501L21.874,36.501L18.126,39.499ZM29.874,49.499L37.874,39.499L34.126,36.501L26.126,46.501L29.874,49.499ZM36,40.4L46,40.4L46,35.6L36,35.6L36,40.4ZM46,40.4C49.535,40.4 52.4,37.535 52.4,34L47.6,34C47.6,34.885 46.885,35.6 46,35.6L46,40.4ZM52.4,34L52.4,12L47.6,12L47.6,34L52.4,34ZM52.4,12C52.4,8.465 49.535,5.6 46,5.6L46,10.4C46.885,10.4 47.6,11.115 47.6,12L52.4,12Z" transform="rotate(0 28 28)" fill="#8E94A0"/>
<line x1="18" y1="15.6" x2="38" y2="15.6" stroke="#8E94A0" stroke-width="2.4" stroke-miterlimit="10" stroke-linecap="square"/>
<line x1="18" y1="25.6" x2="30" y2="25.6" stroke="#8E94A0" stroke-width="2.4" stroke-miterlimit="10" stroke-linecap="square"/>
</svg>
