<svg width="54" height="52" viewBox="0 0 54 52" fill="none" xmlns="http://www.w3.org/2000/svg" xmlns:xlink="http://www.w3.org/1999/xlink">
<path d="M29.924,19.729L27.676,19.729L27.676,24.224L29.924,24.224L29.924,19.729ZM37.415,21.977L39.662,21.977L39.662,19.729L37.415,19.729L37.415,21.977ZM37.415,36.96L37.415,39.207L39.662,39.207L39.662,36.96L37.415,36.96ZM22.432,36.96L20.185,36.96L20.185,39.207L22.432,39.207L22.432,36.96ZM24.68,29.468L24.68,27.221L20.185,27.221L20.185,29.468L24.68,29.468ZM29.924,24.224L37.415,24.224L37.415,19.729L29.924,19.729L29.924,24.224ZM35.168,21.977L35.168,36.96L39.662,36.96L39.662,21.977L35.168,21.977ZM37.415,34.712L22.432,34.712L22.432,39.207L37.415,39.207L37.415,34.712ZM24.68,36.96L24.68,29.468L20.185,29.468L20.185,36.96L24.68,36.96Z" transform="rotate(0 29.924 29.468)" fill="#565D6D"/>
<path d="M14.941,14.485L14.941,12.238L12.693,12.238L12.693,14.485L14.941,14.485ZM29.924,14.485L32.171,14.485L32.171,12.238L29.924,12.238L29.924,14.485ZM29.924,29.468L29.924,31.716L32.171,31.716L32.171,29.468L29.924,29.468ZM14.941,29.468L12.693,29.468L12.693,31.716L14.941,31.716L14.941,29.468ZM14.941,16.733L29.924,16.733L29.924,12.238L14.941,12.238L14.941,16.733ZM27.676,14.485L27.676,29.468L32.171,29.468L32.171,14.485L27.676,14.485ZM29.924,27.221L14.941,27.221L14.941,31.716L29.924,31.716L29.924,27.221ZM17.188,29.468L17.188,14.485L12.693,14.485L12.693,29.468L17.188,29.468Z" transform="rotate(0 22.432 21.977)" fill="#565D6D"/>
<path d="M5.578,5.121L5.578,2.874L3.331,2.874L3.331,5.121L5.578,5.121ZM46.781,5.121L49.028,5.121L49.028,2.874L46.781,2.874L46.781,5.121ZM46.781,46.324L46.781,48.571L49.028,48.571L49.028,46.324L46.781,46.324ZM5.578,46.324L3.331,46.324L3.331,48.571L5.578,48.571L5.578,46.324ZM5.578,7.368L46.781,7.368L46.781,2.874L5.578,2.874L5.578,7.368ZM44.534,5.121L44.534,46.324L49.028,46.324L49.028,5.121L44.534,5.121ZM46.781,44.076L5.578,44.076L5.578,48.571L46.781,48.571L46.781,44.076ZM7.826,46.324L7.826,5.121L3.331,5.121L3.331,46.324L7.826,46.324Z" transform="rotate(0 26.18 25.722)" fill="#565D6D"/>
</svg>
