<svg width="48" height="48" viewBox="0 0 48 48" fill="none" xmlns="http://www.w3.org/2000/svg" xmlns:xlink="http://www.w3.org/1999/xlink">
<path d="M27.428,18.514L25.371,18.514L25.371,22.629L27.428,22.629L27.428,18.514ZM34.286,20.572L36.343,20.572L36.343,18.514L34.286,18.514L34.286,20.572ZM34.286,34.286L34.286,36.343L36.343,36.343L36.343,34.286L34.286,34.286ZM20.571,34.286L18.514,34.286L18.514,36.343L20.571,36.343L20.571,34.286ZM22.628,27.429L22.628,25.372L18.514,25.372L18.514,27.429L22.628,27.429ZM27.428,22.629L34.286,22.629L34.286,18.514L27.428,18.514L27.428,22.629ZM32.228,20.572L32.228,34.286L36.343,34.286L36.343,20.572L32.228,20.572ZM34.286,32.229L20.571,32.229L20.571,36.343L34.286,36.343L34.286,32.229ZM22.628,34.286L22.628,27.429L18.514,27.429L18.514,34.286L22.628,34.286Z" transform="rotate(0 27.428 27.429)" fill="#565D6D"/>
<path d="M13.714,13.714L13.714,11.657L11.657,11.657L11.657,13.714L13.714,13.714ZM27.429,13.714L29.486,13.714L29.486,11.657L27.429,11.657L27.429,13.714ZM27.429,27.429L27.429,29.486L29.486,29.486L29.486,27.429L27.429,27.429ZM13.714,27.429L11.657,27.429L11.657,29.486L13.714,29.486L13.714,27.429ZM13.714,15.771L27.429,15.771L27.429,11.657L13.714,11.657L13.714,15.771ZM25.371,13.714L25.371,27.429L29.486,27.429L29.486,13.714L25.371,13.714ZM27.429,25.371L13.714,25.371L13.714,29.486L27.429,29.486L27.429,25.371ZM15.771,27.429L15.771,13.714L11.657,13.714L11.657,27.429L15.771,27.429Z" transform="rotate(0 20.571 20.571)" fill="#565D6D"/>
<path d="M5.143,5.143L5.143,3.086L3.086,3.086L3.086,5.143L5.143,5.143ZM42.857,5.143L44.914,5.143L44.914,3.086L42.857,3.086L42.857,5.143ZM42.857,42.857L42.857,44.914L44.914,44.914L44.914,42.857L42.857,42.857ZM5.143,42.857L3.086,42.857L3.086,44.914L5.143,44.914L5.143,42.857ZM5.143,7.2L42.857,7.2L42.857,3.086L5.143,3.086L5.143,7.2ZM40.8,5.143L40.8,42.857L44.914,42.857L44.914,5.143L40.8,5.143ZM42.857,40.8L5.143,40.8L5.143,44.914L42.857,44.914L42.857,40.8ZM7.2,42.857L7.2,5.143L3.086,5.143L3.086,42.857L7.2,42.857Z" transform="rotate(0 24 24)" fill="#565D6D"/>
</svg>
