<svg width="48" height="48" viewBox="0 0 48 48" fill="none" xmlns="http://www.w3.org/2000/svg" xmlns:xlink="http://www.w3.org/1999/xlink">
<path d="M27.095,18.514L25.038,18.514L25.038,22.629L27.095,22.629L27.095,18.514ZM33.953,20.572L36.01,20.572L36.01,18.514L33.953,18.514L33.953,20.572ZM33.953,34.286L33.953,36.343L36.01,36.343L36.01,34.286L33.953,34.286ZM20.238,34.286L18.181,34.286L18.181,36.343L20.238,36.343L20.238,34.286ZM22.295,27.429L22.295,25.372L18.181,25.372L18.181,27.429L22.295,27.429ZM27.095,22.629L33.953,22.629L33.953,18.514L27.095,18.514L27.095,22.629ZM31.895,20.572L31.895,34.286L36.01,34.286L36.01,20.572L31.895,20.572ZM33.953,32.229L20.238,32.229L20.238,36.343L33.953,36.343L33.953,32.229ZM22.295,34.286L22.295,27.429L18.181,27.429L18.181,34.286L22.295,34.286Z" transform="rotate(0 27.095 27.429)" fill="#565D6D"/>
<path d="M13.381,13.714L13.381,11.657L11.324,11.657L11.324,13.714L13.381,13.714ZM27.096,13.714L29.153,13.714L29.153,11.657L27.096,11.657L27.096,13.714ZM27.096,27.429L27.096,29.486L29.153,29.486L29.153,27.429L27.096,27.429ZM13.381,27.429L11.324,27.429L11.324,29.486L13.381,29.486L13.381,27.429ZM13.381,15.771L27.096,15.771L27.096,11.657L13.381,11.657L13.381,15.771ZM25.038,13.714L25.038,27.429L29.153,27.429L29.153,13.714L25.038,13.714ZM27.096,25.371L13.381,25.371L13.381,29.486L27.096,29.486L27.096,25.371ZM15.438,27.429L15.438,13.714L11.324,13.714L11.324,27.429L15.438,27.429Z" transform="rotate(0 20.238 20.571)" fill="#565D6D"/>
<path d="M4.81,5.143L4.81,3.086L2.753,3.086L2.753,5.143L4.81,5.143ZM42.524,5.143L44.581,5.143L44.581,3.086L42.524,3.086L42.524,5.143ZM42.524,42.857L42.524,44.914L44.581,44.914L44.581,42.857L42.524,42.857ZM4.81,42.857L2.753,42.857L2.753,44.914L4.81,44.914L4.81,42.857ZM4.81,7.2L42.524,7.2L42.524,3.086L4.81,3.086L4.81,7.2ZM40.467,5.143L40.467,42.857L44.581,42.857L44.581,5.143L40.467,5.143ZM42.524,40.8L4.81,40.8L4.81,44.914L42.524,44.914L42.524,40.8ZM6.867,42.857L6.867,5.143L2.753,5.143L2.753,42.857L6.867,42.857Z" transform="rotate(0 23.667 24)" fill="#565D6D"/>
</svg>
