<svg width="32" height="32" viewBox="0 0 32 32" fill="none" xmlns="http://www.w3.org/2000/svg" xmlns:xlink="http://www.w3.org/1999/xlink">
<path d="M18.255,12.398L19.225,11.429L17.285,9.489L16.316,10.459L18.255,12.398ZM14.803,13.911L15.773,14.881L15.773,14.881L14.803,13.911ZM11.571,15.249L11.571,16.621L11.571,15.249ZM8.339,13.911L7.369,14.881L7.37,14.881L8.339,13.911ZM8.143,13.714L7.173,12.744L6.203,13.714L7.173,14.684L8.143,13.714ZM13.776,8.081L12.806,7.111L12.806,7.111L13.776,8.081ZM19.49,5.715L19.49,7.086L19.49,5.715ZM25.204,8.081L26.174,7.111L26.174,7.111L25.204,8.081ZM25.251,17.24L24.548,18.417L26.903,19.823L27.606,18.646L25.251,17.24ZM16.316,10.459L13.833,12.941L15.773,14.881L18.255,12.398L16.316,10.459ZM13.834,12.941C13.233,13.541 12.42,13.878 11.571,13.878L11.571,16.621C13.147,16.621 14.658,15.995 15.773,14.881L13.834,12.941ZM11.571,13.878C10.723,13.878 9.909,13.541 9.309,12.941L7.37,14.881C8.484,15.995 9.995,16.621 11.571,16.621L11.571,13.878ZM9.309,12.941L9.112,12.744L7.173,14.684L7.369,14.881L9.309,12.941ZM9.112,14.684L14.745,9.051L12.806,7.111L7.173,12.744L9.112,14.684ZM14.745,9.051C16.004,7.793 17.71,7.086 19.49,7.086L19.49,4.343C16.983,4.343 14.579,5.339 12.806,7.111L14.745,9.051ZM19.49,7.086C21.27,7.086 22.976,7.793 24.235,9.051L26.174,7.111C24.401,5.339 21.997,4.343 19.49,4.343L19.49,7.086ZM24.234,9.051C25.291,10.108 25.965,11.487 26.149,12.971L28.871,12.633C28.612,10.543 27.663,8.6 26.174,7.111L24.234,9.051ZM26.149,12.971C26.333,14.454 26.017,15.956 25.251,17.24L27.606,18.646C28.685,16.838 29.131,14.722 28.871,12.633L26.149,12.971Z" transform="rotate(0 17.857 11.829)" fill="#FFFFFF"/>
<path d="M19.702,14.191L18.732,13.222L16.793,15.161L17.763,16.131L19.702,14.191ZM22.862,19.29L23.831,18.321L23.831,18.32L22.862,19.29ZM22.862,24.138L23.831,25.108L23.831,25.108L22.862,24.138ZM20.992,26.008L20.022,25.038L20.022,25.038L20.992,26.008ZM16.143,28.017L16.143,26.645L16.143,28.017ZM11.293,26.008L12.263,25.038L12.263,25.038L11.293,26.008ZM4.795,19.51L3.825,20.479L3.825,20.479L4.795,19.51ZM2.429,13.795L3.8,13.795L2.429,13.795ZM4.795,8.081L5.765,9.051L5.766,9.049L4.795,8.081ZM10.44,7.086L11.812,7.074L11.788,4.331L10.416,4.343L10.44,7.086ZM17.763,16.131L21.892,20.26L23.831,18.32L19.702,14.191L17.763,16.131ZM21.892,20.26C22.277,20.646 22.494,21.169 22.494,21.714L25.237,21.714C25.237,20.441 24.731,19.221 23.831,18.321L21.892,20.26ZM22.494,21.714C22.494,22.26 22.277,22.783 21.892,23.169L23.831,25.108C24.731,24.208 25.237,22.987 25.237,21.714L22.494,21.714ZM21.892,23.168L20.022,25.038L21.962,26.978L23.831,25.108L21.892,23.168ZM20.022,25.038C19.513,25.548 18.908,25.952 18.242,26.228L19.292,28.762C20.29,28.348 21.197,27.742 21.962,26.978L20.022,25.038ZM18.242,26.228C17.577,26.503 16.863,26.645 16.143,26.645L16.143,29.388C17.223,29.388 18.293,29.175 19.292,28.762L18.242,26.228ZM16.143,26.645C15.422,26.645 14.709,26.503 14.043,26.228L12.993,28.762C13.992,29.175 15.062,29.388 16.143,29.388L16.143,26.645ZM14.043,26.228C13.378,25.952 12.773,25.548 12.263,25.038L10.324,26.978C11.088,27.742 11.995,28.348 12.993,28.762L14.043,26.228ZM12.263,25.038L5.765,18.54L3.825,20.479L10.324,26.978L12.263,25.038ZM5.765,18.54C4.507,17.282 3.8,15.575 3.8,13.795L1.057,13.795C1.057,16.302 2.053,18.706 3.825,20.479L5.765,18.54ZM3.8,13.795C3.8,12.016 4.507,10.309 5.765,9.051L3.825,7.111C2.053,8.884 1.057,11.289 1.057,13.795L3.8,13.795ZM5.766,9.049C7.006,7.806 8.685,7.101 10.44,7.086L10.416,4.343C7.94,4.365 5.572,5.359 3.824,7.113L5.766,9.049Z" transform="rotate(0 13.147 16.866)" fill="#FFFFFF"/>
<path d="M23.274,23.726L18.827,19.28L16.888,21.22L21.335,25.666L23.274,23.726Z" transform="rotate(0 20.081 22.473)" fill="#FFFFFF"/>
<path d="M19.985,26.419L15.836,22.27L13.896,24.21L18.045,28.358L19.985,26.419Z" transform="rotate(0 16.94 25.314)" fill="#FFFFFF"/>
</svg>
