<svg width="52" height="52" viewBox="0 0 52 52" fill="none" xmlns="http://www.w3.org/2000/svg" xmlns:xlink="http://www.w3.org/1999/xlink">
<path d="M25.262,6.994L26.685,5.254L25.262,4.09L23.838,5.254L25.262,6.994ZM6.083,25.589L26.685,8.733L23.838,5.254L3.237,22.11L6.083,25.589ZM23.838,8.733L44.44,25.589L47.286,22.11L26.685,5.254L23.838,8.733Z" transform="rotate(0 25.262 15.422)" fill="#37335B"/>
<path d="M21.516,35.087L21.516,32.839L19.268,32.839L19.268,35.087L21.516,35.087ZM29.007,35.087L31.254,35.087L31.254,32.839L29.007,32.839L29.007,35.087ZM23.763,46.324L23.763,35.087L19.268,35.087L19.268,46.324L23.763,46.324ZM21.516,37.334L29.007,37.334L29.007,32.839L21.516,32.839L21.516,37.334ZM26.76,35.087L26.76,46.324L31.254,46.324L31.254,35.087L26.76,35.087Z" transform="rotate(0 25.261 40.705)" fill="#37335B"/>
<path d="M12.527,27.595L12.527,25.348L8.032,25.348L8.032,27.595L12.527,27.595ZM42.492,27.595L42.492,25.348L37.997,25.348L37.997,27.595L42.492,27.595ZM8.032,27.595L8.032,42.578L12.527,42.578L12.527,27.595L8.032,27.595ZM8.032,42.578C8.032,45.889 10.714,48.571 14.025,48.571L14.025,44.076C13.197,44.076 12.527,43.406 12.527,42.578L8.032,42.578ZM14.025,48.571L36.499,48.571L36.499,44.076L14.025,44.076L14.025,48.571ZM36.499,48.571C39.81,48.571 42.492,45.889 42.492,42.578L37.997,42.578C37.997,43.406 37.327,44.076 36.499,44.076L36.499,48.571ZM42.492,42.578L42.492,27.595L37.997,27.595L37.997,42.578L42.492,42.578Z" transform="rotate(0 25.262 36.96)" fill="#37335B"/>
</svg>
