<svg width="50" height="48" viewBox="0 0 50 48" fill="none" xmlns="http://www.w3.org/2000/svg" xmlns:xlink="http://www.w3.org/1999/xlink">
<path d="M24.334,6.857L25.636,5.265L24.334,4.199L23.031,5.265L24.334,6.857ZM6.779,23.878L25.636,8.449L23.031,5.265L4.174,20.694L6.779,23.878ZM23.031,8.449L41.888,23.878L44.494,20.694L25.636,5.265L23.031,8.449Z" transform="rotate(0 24.334 14.571)" fill="#6D31ED"/>
<path d="M20.905,32.572L20.905,30.514L18.848,30.514L18.848,32.572L20.905,32.572ZM27.762,32.572L29.819,32.572L29.819,30.514L27.762,30.514L27.762,32.572ZM22.962,42.857L22.962,32.572L18.848,32.572L18.848,42.857L22.962,42.857ZM20.905,34.629L27.762,34.629L27.762,30.514L20.905,30.514L20.905,34.629ZM25.705,32.572L25.705,42.857L29.819,42.857L29.819,32.572L25.705,32.572Z" transform="rotate(0 24.333 37.714)" fill="#6D31ED"/>
<path d="M12.676,25.714L12.676,23.657L8.562,23.657L8.562,25.714L12.676,25.714ZM40.105,25.714L40.105,23.657L35.991,23.657L35.991,25.714L40.105,25.714ZM8.562,25.714L8.562,39.429L12.676,39.429L12.676,25.714L8.562,25.714ZM8.562,39.429C8.562,42.459 11.017,44.914 14.048,44.914L14.048,40.8C13.29,40.8 12.676,40.187 12.676,39.429L8.562,39.429ZM14.048,44.914L34.619,44.914L34.619,40.8L14.048,40.8L14.048,44.914ZM34.619,44.914C37.65,44.914 40.105,42.459 40.105,39.429L35.991,39.429C35.991,40.187 35.377,40.8 34.619,40.8L34.619,44.914ZM40.105,39.429L40.105,25.714L35.991,25.714L35.991,39.429L40.105,39.429Z" transform="rotate(0 24.333 34.286)" fill="#6D31ED"/>
</svg>
