<svg width="50" height="48" viewBox="0 0 50 48" fill="none" xmlns="http://www.w3.org/2000/svg" xmlns:xlink="http://www.w3.org/1999/xlink">
<path d="M24.5,6.857L25.802,5.265L24.5,4.199L23.197,5.265L24.5,6.857ZM6.945,23.878L25.802,8.449L23.197,5.265L4.34,20.694L6.945,23.878ZM23.197,8.449L42.054,23.878L44.66,20.694L25.802,5.265L23.197,8.449Z" transform="rotate(0 24.5 14.571)" fill="#565D6D"/>
<path d="M21.071,32.572L21.071,30.514L19.014,30.514L19.014,32.572L21.071,32.572ZM27.928,32.572L29.986,32.572L29.986,30.514L27.928,30.514L27.928,32.572ZM23.128,42.857L23.128,32.572L19.014,32.572L19.014,42.857L23.128,42.857ZM21.071,34.629L27.928,34.629L27.928,30.514L21.071,30.514L21.071,34.629ZM25.871,32.572L25.871,42.857L29.986,42.857L29.986,32.572L25.871,32.572Z" transform="rotate(0 24.5 37.714)" fill="#565D6D"/>
<path d="M12.843,25.714L12.843,23.657L8.729,23.657L8.729,25.714L12.843,25.714ZM40.272,25.714L40.272,23.657L36.158,23.657L36.158,25.714L40.272,25.714ZM8.729,25.714L8.729,39.429L12.843,39.429L12.843,25.714L8.729,25.714ZM8.729,39.429C8.729,42.459 11.184,44.914 14.215,44.914L14.215,40.8C13.457,40.8 12.843,40.187 12.843,39.429L8.729,39.429ZM14.215,44.914L34.786,44.914L34.786,40.8L14.215,40.8L14.215,44.914ZM34.786,44.914C37.817,44.914 40.272,42.459 40.272,39.429L36.158,39.429C36.158,40.187 35.544,40.8 34.786,40.8L34.786,44.914ZM40.272,39.429L40.272,25.714L36.158,25.714L36.158,39.429L40.272,39.429Z" transform="rotate(0 24.5 34.286)" fill="#565D6D"/>
</svg>
