<svg width="56" height="56" viewBox="0 0 56 56" fill="none" xmlns="http://www.w3.org/2000/svg" xmlns:xlink="http://www.w3.org/1999/xlink">
<path d="M28,8L29.52,6.143L28,4.899L26.48,6.143L28,8ZM7.52,27.857L29.52,9.857L26.48,6.143L4.48,24.143L7.52,27.857ZM26.48,9.857L48.48,27.857L51.52,24.143L29.52,6.143L26.48,9.857Z" transform="rotate(0 28 17)" fill="#8E94A0"/>
<path d="M24,38L24,35.6L21.6,35.6L21.6,38L24,38ZM32,38L34.4,38L34.4,35.6L32,35.6L32,38ZM26.4,50L26.4,38L21.6,38L21.6,50L26.4,50ZM24,40.4L32,40.4L32,35.6L24,35.6L24,40.4ZM29.6,38L29.6,50L34.4,50L34.4,38L29.6,38Z" transform="rotate(0 28 44)" fill="#8E94A0"/>
<path d="M14.4,30L14.4,27.6L9.6,27.6L9.6,30L14.4,30ZM46.4,30L46.4,27.6L41.6,27.6L41.6,30L46.4,30ZM9.6,30L9.6,46L14.4,46L14.4,30L9.6,30ZM9.6,46C9.6,49.535 12.465,52.4 16,52.4L16,47.6C15.115,47.6 14.4,46.885 14.4,46L9.6,46ZM16,52.4L40,52.4L40,47.6L16,47.6L16,52.4ZM40,52.4C43.535,52.4 46.4,49.535 46.4,46L41.6,46C41.6,46.885 40.885,47.6 40,47.6L40,52.4ZM46.4,46L46.4,30L41.6,30L41.6,46L46.4,46Z" transform="rotate(0 28 40)" fill="#8E94A0"/>
</svg>
