<svg width="48" height="48" viewBox="0 0 48 48" fill="none" xmlns="http://www.w3.org/2000/svg" xmlns:xlink="http://www.w3.org/1999/xlink">
<path d="M24,6.857L25.302,5.265L24,4.199L22.697,5.265L24,6.857ZM6.445,23.878L25.302,8.449L22.697,5.265L3.84,20.694L6.445,23.878ZM22.697,8.449L41.554,23.878L44.16,20.694L25.302,5.265L22.697,8.449Z" transform="rotate(0 24 14.571)" fill="#565D6D"/>
<path d="M20.571,32.572L20.571,30.514L18.514,30.514L18.514,32.572L20.571,32.572ZM27.428,32.572L29.486,32.572L29.486,30.514L27.428,30.514L27.428,32.572ZM22.628,42.857L22.628,32.572L18.514,32.572L18.514,42.857L22.628,42.857ZM20.571,34.629L27.428,34.629L27.428,30.514L20.571,30.514L20.571,34.629ZM25.371,32.572L25.371,42.857L29.486,42.857L29.486,32.572L25.371,32.572Z" transform="rotate(0 24 37.714)" fill="#565D6D"/>
<path d="M12.343,25.714L12.343,23.657L8.229,23.657L8.229,25.714L12.343,25.714ZM39.772,25.714L39.772,23.657L35.658,23.657L35.658,25.714L39.772,25.714ZM8.229,25.714L8.229,39.429L12.343,39.429L12.343,25.714L8.229,25.714ZM8.229,39.429C8.229,42.459 10.684,44.914 13.715,44.914L13.715,40.8C12.957,40.8 12.343,40.187 12.343,39.429L8.229,39.429ZM13.715,44.914L34.286,44.914L34.286,40.8L13.715,40.8L13.715,44.914ZM34.286,44.914C37.317,44.914 39.772,42.459 39.772,39.429L35.658,39.429C35.658,40.187 35.044,40.8 34.286,40.8L34.286,44.914ZM39.772,39.429L39.772,25.714L35.658,25.714L35.658,39.429L39.772,39.429Z" transform="rotate(0 24 34.286)" fill="#565D6D"/>
</svg>
