<svg width="28" height="28" viewBox="0 0 28 28" fill="none" xmlns="http://www.w3.org/2000/svg" xmlns:xlink="http://www.w3.org/1999/xlink">
<line x1="4" y1="22.8" x2="24" y2="22.8" stroke="#000000" stroke-width="1.2" stroke-miterlimit="10" stroke-linecap="square"/>
<path d="M11,19L11.235,20.177L11.592,20.105L11.849,19.849L11,19ZM6,20L4.823,19.765L4.47,21.53L6.235,21.177L6,20ZM7,15L6.151,14.151L5.895,14.408L5.823,14.765L7,15ZM17.707,4.293L16.858,3.444L17.707,4.293ZM19.121,4.293L18.271,5.14L18.272,5.142L19.121,4.293ZM21.707,6.879L22.556,6.03L22.556,6.03L21.707,6.879ZM21.707,8.293L20.86,7.443L20.858,7.444L21.707,8.293ZM10.765,17.823L5.765,18.823L6.235,21.177L11.235,20.177L10.765,17.823ZM7.177,20.235L8.177,15.235L5.823,14.765L4.823,19.765L7.177,20.235ZM7.849,15.849L18.556,5.142L16.858,3.444L6.151,14.151L7.849,15.849ZM18.556,5.142C18.479,5.219 18.351,5.22 18.271,5.14L19.971,3.446C19.111,2.584 17.717,2.585 16.858,3.444L18.556,5.142ZM18.272,5.142L20.858,7.728L22.556,6.03L19.97,3.444L18.272,5.142ZM20.858,7.728C20.781,7.651 20.78,7.523 20.86,7.443L22.554,9.143C23.416,8.283 23.415,6.89 22.556,6.03L20.858,7.728ZM20.858,7.444L10.151,18.151L11.849,19.849L22.556,9.142L20.858,7.444Z" transform="rotate(0 14 12)" fill="#000000"/>
</svg>
