<svg width="32" height="32" viewBox="0 0 32 32" fill="none" xmlns="http://www.w3.org/2000/svg" xmlns:xlink="http://www.w3.org/1999/xlink">
<path d="M9.143,18.286L10.113,17.316L9.051,16.254L8.089,17.408L9.143,18.286ZM13.714,22.857L12.745,23.827L13.781,24.864L14.747,23.76L13.714,22.857ZM21.714,13.714L22.756,12.822L21.725,11.619L20.682,12.811L21.714,13.714ZM4.482,26.021L10.197,19.164L8.089,17.408L2.375,24.265L4.482,26.021ZM8.173,19.256L12.745,23.827L14.684,21.887L10.113,17.316L8.173,19.256ZM14.747,23.76L22.747,14.617L20.682,12.811L12.682,21.954L14.747,23.76ZM20.673,14.607L27.53,22.607L29.613,20.822L22.756,12.822L20.673,14.607Z" transform="rotate(0 16 19.429)" fill="#6D31ED"/>
<path d="M3.429,5.714L3.429,4.343L2.057,4.343L2.057,5.714L3.429,5.714ZM28.572,5.714L29.943,5.714L29.943,4.343L28.572,4.343L28.572,5.714ZM28.572,26.286L28.572,27.657L29.943,27.657L29.943,26.286L28.572,26.286ZM3.429,26.286L2.057,26.286L2.057,27.657L3.429,27.657L3.429,26.286ZM3.429,7.086L28.572,7.086L28.572,4.343L3.429,4.343L3.429,7.086ZM27.2,5.714L27.2,26.286L29.943,26.286L29.943,5.714L27.2,5.714ZM28.572,24.914L3.429,24.914L3.429,27.657L28.572,27.657L28.572,24.914ZM4.8,26.286L4.8,5.714L2.057,5.714L2.057,26.286L4.8,26.286Z" transform="rotate(0 16 16)" fill="#6D31ED"/>
<path d="M13.486,11.429C13.486,11.934 13.076,12.343 12.571,12.343L12.571,15.086C14.591,15.086 16.229,13.449 16.229,11.429L13.486,11.429ZM12.571,12.343C12.066,12.343 11.657,11.934 11.657,11.429L8.914,11.429C8.914,13.449 10.552,15.086 12.571,15.086L12.571,12.343ZM11.657,11.429C11.657,10.924 12.066,10.514 12.571,10.514L12.571,7.772C10.552,7.772 8.914,9.409 8.914,11.429L11.657,11.429ZM12.571,10.514C13.076,10.514 13.486,10.924 13.486,11.429L16.229,11.429C16.229,9.409 14.591,7.772 12.571,7.772L12.571,10.514Z" transform="rotate(0 12.571 11.429)" fill="#6D31ED"/>
</svg>
