<svg width="38" height="38" viewBox="0 0 38 38" fill="none" xmlns="http://www.w3.org/2000/svg" xmlns:xlink="http://www.w3.org/1999/xlink">
<path d="M10.943,21.606L12.049,20.5L10.838,19.29L9.742,20.605L10.943,21.606ZM16.154,26.817L15.049,27.923L16.231,29.104L17.331,27.847L16.154,26.817ZM25.275,16.394L26.462,15.377L25.287,14.006L24.098,15.365L25.275,16.394ZM5.63,30.424L12.144,22.607L9.742,20.605L3.228,28.422L5.63,30.424ZM9.837,22.711L15.049,27.923L17.26,25.712L12.049,20.5L9.837,22.711ZM17.331,27.847L26.451,17.424L24.098,15.365L14.978,25.788L17.331,27.847ZM24.087,17.412L31.905,26.532L34.279,24.497L26.462,15.377L24.087,17.412Z" transform="rotate(0 18.76 22.909)" fill="#6D31ED"/>
<path d="M4.429,7.274L4.429,5.711L2.865,5.711L2.865,7.274L4.429,7.274ZM33.092,7.274L34.655,7.274L34.655,5.711L33.092,5.711L33.092,7.274ZM33.092,30.726L33.092,32.289L34.655,32.289L34.655,30.726L33.092,30.726ZM4.429,30.726L2.865,30.726L2.865,32.289L4.429,32.289L4.429,30.726ZM4.429,8.838L33.092,8.838L33.092,5.711L4.429,5.711L4.429,8.838ZM31.528,7.274L31.528,30.726L34.655,30.726L34.655,7.274L31.528,7.274ZM33.092,29.162L4.429,29.162L4.429,32.289L33.092,32.289L33.092,29.162ZM5.992,30.726L5.992,7.274L2.865,7.274L2.865,30.726L5.992,30.726Z" transform="rotate(0 18.76 19)" fill="#6D31ED"/>
<path d="M15.893,13.789C15.893,14.364 15.426,14.831 14.851,14.831L14.851,17.958C17.153,17.958 19.02,16.091 19.02,13.789L15.893,13.789ZM14.851,14.831C14.275,14.831 13.809,14.364 13.809,13.789L10.682,13.789C10.682,16.091 12.548,17.958 14.851,17.958L14.851,14.831ZM13.809,13.789C13.809,13.213 14.275,12.746 14.851,12.746L14.851,9.619C12.548,9.619 10.682,11.486 10.682,13.789L13.809,13.789ZM14.851,12.746C15.426,12.746 15.893,13.213 15.893,13.789L19.02,13.789C19.02,11.486 17.153,9.619 14.851,9.619L14.851,12.746Z" transform="rotate(0 14.851 13.789)" fill="#6D31ED"/>
</svg>
