<svg width="32" height="32" viewBox="0 0 32 32" fill="none" xmlns="http://www.w3.org/2000/svg" xmlns:xlink="http://www.w3.org/1999/xlink">
<path d="M8,16.229L24,16.229L24,13.486L8,13.486L8,16.229ZM24,16.229C24.505,16.229 24.914,16.638 24.914,17.143L27.657,17.143C27.657,15.123 26.02,13.486 24,13.486L24,16.229ZM24.914,17.143L24.914,26.286L27.657,26.286L27.657,17.143L24.914,17.143ZM24.914,26.286C24.914,26.791 24.505,27.2 24,27.2L24,29.943C26.02,29.943 27.657,28.305 27.657,26.286L24.914,26.286ZM24,27.2L8,27.2L8,29.943L24,29.943L24,27.2ZM8,27.2C7.495,27.2 7.086,26.791 7.086,26.286L4.343,26.286C4.343,28.305 5.98,29.943 8,29.943L8,27.2ZM7.086,26.286L7.086,17.143L4.343,17.143L4.343,26.286L7.086,26.286ZM7.086,17.143C7.086,16.638 7.495,16.229 8,16.229L8,13.486C5.98,13.486 4.343,15.123 4.343,17.143L7.086,17.143Z" transform="rotate(0 16 21.714)" fill="#171A1F"/>
<path d="M16.914,21.714C16.914,22.219 16.505,22.629 16,22.629L16,25.371C18.02,25.371 19.657,23.734 19.657,21.714L16.914,21.714ZM16,22.629C15.495,22.629 15.086,22.219 15.086,21.714L12.343,21.714C12.343,23.734 13.98,25.371 16,25.371L16,22.629ZM15.086,21.714C15.086,21.209 15.495,20.8 16,20.8L16,18.057C13.98,18.057 12.343,19.695 12.343,21.714L15.086,21.714ZM16,20.8C16.505,20.8 16.914,21.209 16.914,21.714L19.657,21.714C19.657,19.695 18.02,18.057 16,18.057L16,20.8Z" transform="rotate(0 16 21.714)" fill="#171A1F"/>
<path d="M20.343,10.286L20.343,11.657L23.086,11.657L23.086,10.286L20.343,10.286ZM21.714,9.143L20.343,9.129L20.343,9.143L21.714,9.143ZM16.114,3.429L16.128,2.057L16.114,2.057L16.114,3.429ZM16,3.429L15.986,4.8L16,4.8L16,3.429ZM10.286,9.029L8.914,9.015L8.914,9.029L10.286,9.029ZM8.914,10.286L8.914,11.657L11.657,11.657L11.657,10.286L8.914,10.286ZM23.086,10.286L23.086,9.143L20.343,9.143L20.343,10.286L23.086,10.286ZM23.086,9.157C23.104,7.293 22.382,5.498 21.077,4.166L19.118,6.086C19.914,6.898 20.354,7.993 20.343,9.129L23.086,9.157ZM21.077,4.166C19.772,2.835 17.992,2.076 16.128,2.057L16.1,4.8C17.237,4.812 18.322,5.274 19.118,6.086L21.077,4.166ZM16.114,2.057L16,2.057L16,4.8L16.114,4.8L16.114,2.057ZM16.014,2.057C14.15,2.039 12.355,2.761 11.023,4.066L12.943,6.025C13.755,5.229 14.85,4.789 15.986,4.8L16.014,2.057ZM11.023,4.066C9.692,5.371 8.934,7.151 8.914,9.015L11.657,9.043C11.669,7.906 12.131,6.82 12.943,6.025L11.023,4.066ZM8.914,9.029L8.914,10.286L11.657,10.286L11.657,9.029L8.914,9.029Z" transform="rotate(0 16 6.857)" fill="#171A1F"/>
</svg>
