<svg width="28" height="28" viewBox="0 0 28 28" fill="none" xmlns="http://www.w3.org/2000/svg" xmlns:xlink="http://www.w3.org/1999/xlink">
<path d="M22,12L6,12C4.895,12 4,12.895 4,14L4,24C4,25.105 4.895,26 6,26L22,26C23.105,26 24,25.105 24,24L24,14C24,12.895 23.105,12 22,12ZM14,21C12.895,21 12,20.105 12,19C12,17.895 12.895,17 14,17C15.105,17 16,17.895 16,19C16,20.105 15.105,21 14,21Z" transform="rotate(0 14 19)" fill="#171A1F"/>
<path d="M20,10L18,10L18,8C18.023,5.816 16.273,4.026 14.089,4L14.047,4C11.85,3.962 10.038,5.711 10,7.908L10,7.911L10,10L8,10L8,7.9C8.033,4.636 10.685,2.006 13.949,2L14.01,2C17.312,1.994 19.994,4.666 20,7.968C20,7.982 20,7.996 20,8.01L20,10Z" transform="rotate(0 14 6)" fill="#171A1F"/>
</svg>
