<svg width="48" height="48" viewBox="0 0 48 48" fill="none" xmlns="http://www.w3.org/2000/svg" xmlns:xlink="http://www.w3.org/1999/xlink">
<line x1="18.857" y1="21.943" x2="39.429" y2="21.943" stroke="#565D6D" stroke-width="2.057" stroke-miterlimit="10"/>
<path d="M31.117,29.402L29.662,30.857L32.571,33.766L34.026,32.312L31.117,29.402ZM39.428,24L40.883,25.455L42.338,24L40.883,22.545L39.428,24ZM34.026,15.688L32.571,14.234L29.662,17.143L31.117,18.597L34.026,15.688ZM34.026,32.312L40.883,25.455L37.974,22.545L31.117,29.402L34.026,32.312ZM40.883,22.545L34.026,15.688L31.117,18.597L37.974,25.455L40.883,22.545Z" transform="rotate(0 36 24)" fill="#565D6D"/>
<path d="M33.943,10.286L33.943,12.343L38.057,12.343L38.057,10.286L33.943,10.286ZM15.429,5.143L15.429,3.086L15.429,5.143ZM12,8.571L9.943,8.571L12,8.571ZM12,39.429L9.943,39.429L12,39.429ZM38.057,37.714L38.057,35.657L33.943,35.657L33.943,37.714L38.057,37.714ZM38.057,10.286L38.057,8.571L33.943,8.571L33.943,10.286L38.057,10.286ZM38.057,8.571C38.057,7.116 37.479,5.721 36.45,4.692L33.541,7.602C33.798,7.859 33.943,8.208 33.943,8.571L38.057,8.571ZM36.45,4.692C35.422,3.664 34.026,3.086 32.571,3.086L32.571,7.2C32.935,7.2 33.284,7.344 33.541,7.602L36.45,4.692ZM32.571,3.086L15.429,3.086L15.429,7.2L32.571,7.2L32.571,3.086ZM15.429,3.086C13.974,3.086 12.578,3.664 11.55,4.692L14.459,7.602C14.716,7.344 15.065,7.2 15.429,7.2L15.429,3.086ZM11.55,4.692C10.521,5.721 9.943,7.116 9.943,8.571L14.057,8.571C14.057,8.208 14.202,7.859 14.459,7.602L11.55,4.692ZM9.943,8.571L9.943,39.429L14.057,39.429L14.057,8.571L9.943,8.571ZM9.943,39.429C9.943,40.883 10.521,42.279 11.55,43.307L14.459,40.398C14.202,40.141 14.057,39.792 14.057,39.429L9.943,39.429ZM11.55,43.307C12.578,44.336 13.974,44.914 15.429,44.914L15.429,40.8C15.065,40.8 14.716,40.655 14.459,40.398L11.55,43.307ZM15.429,44.914L32.571,44.914L32.571,40.8L15.429,40.8L15.429,44.914ZM32.571,44.914C34.026,44.914 35.422,44.336 36.45,43.307L33.541,40.398C33.284,40.655 32.935,40.8 32.571,40.8L32.571,44.914ZM36.45,43.307C37.479,42.279 38.057,40.883 38.057,39.429L33.943,39.429C33.943,39.792 33.798,40.141 33.541,40.398L36.45,43.307ZM38.057,39.429L38.057,37.714L33.943,37.714L33.943,39.429L38.057,39.429Z" transform="rotate(0 24 24)" fill="#565D6D"/>
</svg>
