<svg width="32" height="32" viewBox="0 0 32 32" fill="none" xmlns="http://www.w3.org/2000/svg" xmlns:xlink="http://www.w3.org/1999/xlink">
<path d="M16,17.143L15.077,18.158L16,18.996L16.922,18.158L16,17.143ZM3.208,7.367L15.077,18.158L16.922,16.128L5.053,5.337L3.208,7.367ZM16.922,18.158L28.791,7.368L26.946,5.338L15.077,16.128L16.922,18.158Z" transform="rotate(0 15.999 11.747)" fill="#171A1F"/>
<path d="M5.714,7.086L26.286,7.086L26.286,4.343L5.714,4.343L5.714,7.086ZM26.286,7.086C26.791,7.086 27.2,7.495 27.2,8L29.943,8C29.943,5.98 28.306,4.343 26.286,4.343L26.286,7.086ZM27.2,8L27.2,24L29.943,24L29.943,8L27.2,8ZM27.2,24C27.2,24.505 26.791,24.914 26.286,24.914L26.286,27.657C28.306,27.657 29.943,26.02 29.943,24L27.2,24ZM26.286,24.914L5.714,24.914L5.714,27.657L26.286,27.657L26.286,24.914ZM5.714,24.914C5.209,24.914 4.8,24.505 4.8,24L2.057,24C2.057,26.02 3.695,27.657 5.714,27.657L5.714,24.914ZM4.8,24L4.8,8L2.057,8L2.057,24L4.8,24ZM4.8,8C4.8,7.495 5.209,7.086 5.714,7.086L5.714,4.343C3.695,4.343 2.057,5.98 2.057,8L4.8,8Z" transform="rotate(0 16 16)" fill="#171A1F"/>
</svg>
