<svg width="32" height="32" viewBox="0 0 32 32" fill="none" xmlns="http://www.w3.org/2000/svg" xmlns:xlink="http://www.w3.org/1999/xlink">
<line x1="14.629" y1="25.143" x2="14.629" y2="28.571" stroke="#6D31ED" stroke-width="1.371" stroke-miterlimit="10" stroke-linecap="square"/>
<path d="M28.8,13.714L28.8,12.343L26.057,12.343L26.057,13.714L28.8,13.714ZM5.943,13.714L5.943,12.343L3.2,12.343L3.2,13.714L5.943,13.714ZM26.057,13.714C26.057,19.269 21.554,23.771 16,23.771L16,26.514C23.069,26.514 28.8,20.784 28.8,13.714L26.057,13.714ZM16,23.771C10.445,23.771 5.943,19.269 5.943,13.714L3.2,13.714C3.2,20.784 8.93,26.514 16,26.514L16,23.771Z" transform="rotate(0 16 19.429)" fill="#6D31ED"/>
<path d="M16,4.8C19.029,4.8 21.485,7.256 21.485,10.286L24.228,10.286C24.228,5.741 20.544,2.057 16,2.057L16,4.8ZM21.485,10.286L21.485,13.714L24.228,13.714L24.228,10.286L21.485,10.286ZM21.485,13.714C21.485,16.744 19.029,19.2 16,19.2L16,21.943C20.544,21.943 24.228,18.259 24.228,13.714L21.485,13.714ZM16,19.2C12.97,19.2 10.514,16.744 10.514,13.714L7.771,13.714C7.771,18.259 11.455,21.943 16,21.943L16,19.2ZM10.514,13.714L10.514,10.286L7.771,10.286L7.771,13.714L10.514,13.714ZM10.514,10.286C10.514,7.256 12.97,4.8 16,4.8L16,2.057C11.455,2.057 7.771,5.741 7.771,10.286L10.514,10.286Z" transform="rotate(0 16 12)" fill="#6D31ED"/>
</svg>
