<svg width="38" height="38" viewBox="0 0 38 38" fill="none" xmlns="http://www.w3.org/2000/svg" xmlns:xlink="http://www.w3.org/1999/xlink">
<line x1="17.356" y1="29.423" x2="17.356" y2="33.331" stroke="#6D31ED" stroke-width="1.563" stroke-miterlimit="10" stroke-linecap="square"/>
<path d="M33.512,16.394L33.512,14.831L30.385,14.831L30.385,16.394L33.512,16.394ZM7.455,16.394L7.455,14.831L4.328,14.831L4.328,16.394L7.455,16.394ZM30.385,16.394C30.385,22.727 25.252,27.859 18.92,27.859L18.92,30.986C26.979,30.986 33.512,24.453 33.512,16.394L30.385,16.394ZM18.92,27.859C12.588,27.859 7.455,22.727 7.455,16.394L4.328,16.394C4.328,24.453 10.861,30.986 18.92,30.986L18.92,27.859Z" transform="rotate(0 18.92 22.909)" fill="#6D31ED"/>
<path d="M18.92,6.232C22.374,6.232 25.173,9.032 25.173,12.486L28.3,12.486C28.3,7.305 24.1,3.105 18.92,3.105L18.92,6.232ZM25.173,12.486L25.173,16.394L28.3,16.394L28.3,12.486L25.173,12.486ZM25.173,16.394C25.173,19.848 22.374,22.648 18.92,22.648L18.92,25.775C24.1,25.775 28.3,21.575 28.3,16.394L25.173,16.394ZM18.92,22.648C15.466,22.648 12.666,19.848 12.666,16.394L9.539,16.394C9.539,21.575 13.739,25.775 18.92,25.775L18.92,22.648ZM12.666,16.394L12.666,12.486L9.539,12.486L9.539,16.394L12.666,16.394ZM12.666,12.486C12.666,9.032 15.466,6.232 18.92,6.232L18.92,3.105C13.739,3.105 9.539,7.305 9.539,12.486L12.666,12.486Z" transform="rotate(0 18.92 14.44)" fill="#6D31ED"/>
</svg>
