<svg width="48" height="48" viewBox="0 0 48 48" fill="none" xmlns="http://www.w3.org/2000/svg" xmlns:xlink="http://www.w3.org/1999/xlink">
<line x1="21.943" y1="5.143" x2="21.943" y2="34.286" stroke="#6D31ED" stroke-width="2.057" stroke-miterlimit="10"/>
<path d="M32.311,28.883L33.766,27.428L30.857,24.519L29.402,25.974L32.311,28.883ZM24,34.286L22.545,35.74L24,37.195L25.454,35.74L24,34.286ZM18.597,25.974L17.143,24.519L14.233,27.428L15.688,28.883L18.597,25.974ZM29.402,25.974L22.545,32.831L25.454,35.74L32.311,28.883L29.402,25.974ZM25.454,32.831L18.597,25.974L15.688,28.883L22.545,35.74L25.454,32.831Z" transform="rotate(0 24 30.857)" fill="#6D31ED"/>
<path d="M32.572,18.514L30.515,18.514L30.515,22.629L32.572,22.629L32.572,18.514ZM6.857,37.714L4.8,37.714L6.857,37.714ZM10.286,20.572L10.286,22.629L10.286,20.572ZM15.429,22.629L17.486,22.629L17.486,18.514L15.429,18.514L15.429,22.629ZM32.572,22.629L37.715,22.629L37.715,18.514L32.572,18.514L32.572,22.629ZM37.715,22.629C38.078,22.629 38.427,22.773 38.684,23.03L41.594,20.121C40.565,19.092 39.169,18.514 37.715,18.514L37.715,22.629ZM38.684,23.03C38.941,23.288 39.086,23.636 39.086,24L43.2,24C43.2,22.545 42.622,21.15 41.594,20.121L38.684,23.03ZM39.086,24L39.086,37.714L43.2,37.714L43.2,24L39.086,24ZM39.086,37.714C39.086,38.078 38.941,38.427 38.684,38.684L41.594,41.593C42.622,40.565 43.2,39.169 43.2,37.714L39.086,37.714ZM38.684,38.684C38.427,38.941 38.078,39.086 37.715,39.086L37.715,43.2C39.169,43.2 40.565,42.622 41.594,41.593L38.684,38.684ZM37.715,39.086L10.286,39.086L10.286,43.2L37.715,43.2L37.715,39.086ZM10.286,39.086C9.922,39.086 9.573,38.941 9.316,38.684L6.407,41.593C7.436,42.622 8.831,43.2 10.286,43.2L10.286,39.086ZM9.316,38.684C9.059,38.427 8.915,38.078 8.915,37.714L4.8,37.714C4.8,39.169 5.378,40.565 6.407,41.593L9.316,38.684ZM8.915,37.714L8.915,24L4.8,24L4.8,37.714L8.915,37.714ZM8.915,24C8.915,23.636 9.059,23.288 9.316,23.03L6.407,20.121C5.378,21.15 4.8,22.545 4.8,24L8.915,24ZM9.316,23.03C9.573,22.773 9.922,22.629 10.286,22.629L10.286,18.514C8.831,18.514 7.436,19.092 6.407,20.121L9.316,23.03ZM10.286,22.629L15.429,22.629L15.429,18.514L10.286,18.514L10.286,22.629Z" transform="rotate(0 24 30.857)" fill="#6D31ED"/>
</svg>
