<svg width="1366" height="1160" viewBox="0 0 1366 1160" fill="none" xmlns="http://www.w3.org/2000/svg" xmlns:xlink="http://www.w3.org/1999/xlink">
<g opacity="0.1">
<path d="M1202.951,468.626C1174.233,357.079 1069.405,364.017 970.083,384.715C916.655,395.849 841.841,411.254 763.769,388.504C595.725,339.533 402.507,327.305 307.285,388.504C212.066,449.704 154.823,523.445 182.283,626.466C209.739,729.488 279.492,822.112 220.171,877.25C160.851,932.386 161.848,1141.206 405.777,1157.466C649.705,1173.728 625.513,939.642 786.605,950.51C947.699,961.378 1278.385,1119.844 1292.355,1004.958C1306.323,890.07 1126.905,808.122 1191.225,617.348C1203.987,579.482 1216.077,519.607 1202.951,468.626Z" fill="#2C2A40"/>
</g>
<g opacity="0.1">
<path d="M642.055,286.07C642.055,286.07 648.285,246.065 665.825,247.623C670.679,248.056 673.981,252.974 676.145,258.258C677.478,261.512 682.14,261.284 683.105,257.902C687.747,241.647 697.237,216.836 711.946,216.836C727.159,216.836 727.662,245.222 726.559,262.512C726.392,265.115 729.768,266.273 731.234,264.115C735.247,258.209 741.102,252.538 748.225,254.183C762.098,257.382 758.363,286.07 758.363,286.07L642.055,286.07Z" fill="#2C2A40"/>
</g>
<g opacity="0.1">
<path d="M0.557,662.287C0.557,662.287 6.786,622.283 24.326,623.841C29.18,624.274 32.483,629.192 34.647,634.475C35.98,637.729 40.642,637.502 41.607,634.119C46.246,617.865 55.739,593.054 70.448,593.054C85.66,593.054 86.164,621.443 85.061,638.73C84.894,641.333 88.27,642.49 89.735,640.333C93.749,634.427 99.603,628.756 106.727,630.4C120.599,633.603 116.864,662.287 116.864,662.287L0.557,662.287Z" fill="#2C2A40"/>
</g>
<g opacity="0.1">
<path d="M1234.752,502.455C1234.752,502.455 1240.981,462.451 1258.521,464.009C1263.375,464.442 1266.677,469.36 1268.841,474.643C1270.175,477.897 1274.833,477.67 1275.801,474.287C1280.444,458.033 1289.933,433.222 1304.643,433.222C1319.855,433.222 1320.358,461.608 1319.256,478.898C1319.089,481.501 1322.465,482.658 1323.93,480.501C1327.944,474.595 1333.798,468.924 1340.918,470.568C1354.791,473.768 1351.056,502.455 1351.056,502.455L1234.752,502.455Z" fill="#2C2A40"/>
</g>
<path d="M1188.794,1155.46C1188.794,1155.46 1208.376,1152.004 1207.225,1126.083C1206.074,1100.163 1197.434,1064.451 1180.154,1054.083C1162.873,1043.715 1150.261,1058.69 1150.261,1058.69L1188.794,1155.46Z" fill="#7B7B9A"/>
<path d="M1111.609,1054.089C1112.19,1062.73 1120.249,1075.396 1137.53,1084.614C1154.81,1093.831 1164.027,1126.664 1171.795,1141.059C1175.364,1147.676 1179.243,1151.254 1182.398,1153.196C1186.104,1155.46 1188.8,1155.46 1188.8,1155.46C1188.8,1155.46 1188.896,1153.187 1188.912,1149.256C1188.964,1139.908 1188.55,1121.185 1185.222,1101.314C1180.497,1073.095 1163.771,1063.297 1163.771,1063.297C1160.722,1058.097 1154.146,1054.391 1146.654,1052.047C1134.404,1048.219 1119.714,1048.046 1114.02,1050.931C1112.411,1051.739 1111.523,1052.801 1111.609,1054.089Z" fill="#B0B1CA"/>
<path d="M1178.56,1096.71C1182.648,1114 1184.494,1142.527 1182.398,1153.196C1186.104,1155.46 1188.8,1155.46 1188.8,1155.46C1188.8,1155.46 1189.948,1129.539 1185.222,1101.314C1180.497,1073.094 1163.771,1063.297 1163.771,1063.297C1160.722,1058.097 1154.147,1054.391 1146.654,1052.047C1156.554,1061.966 1175.094,1082.074 1178.56,1096.71Z" fill="#2C2A40"/>
<g opacity="0.2">
<path d="M1111.609,1054.089C1112.19,1062.729 1120.249,1075.396 1137.53,1084.613C1154.81,1093.831 1164.028,1126.663 1171.796,1141.058C1175.364,1147.676 1179.243,1151.253 1182.398,1153.196C1186.104,1155.46 1188.8,1155.46 1188.8,1155.46C1188.8,1155.46 1188.896,1153.187 1188.912,1149.256C1188.525,1148.9 1188.101,1148.66 1187.643,1148.548C1181.888,1147.105 1174.114,1144.883 1169.5,1123.493C1164.896,1102.099 1157.119,1086.627 1143.875,1080.006C1131.788,1073.966 1116.607,1054.346 1114.023,1050.934C1112.411,1051.739 1111.523,1052.8 1111.609,1054.089Z" fill="#2C2A40"/>
</g>
<path d="M972.44,512.772C972.44,512.772 1105.826,492.738 1142.037,549.378C1178.249,606.019 1129.608,795.339 1090.354,824.007C1051.103,852.675 985.883,837.815 961.476,819.795C937.071,801.777 925.748,540.123 972.44,512.772Z" fill="#2C2A40"/>
<path d="M1126.96,748.522C1126.96,748.522 1143.865,744.489 1149.914,724.618L1129.755,715.689C1129.755,715.689 1121.862,736.137 1126.96,748.522Z" fill="#00497B"/>
<path d="M1126.963,713.676C1154.611,755.726 1217.016,766.665 1217.016,766.665C1229.933,762.888 1247.153,744.919 1264.183,722.999L1264.192,722.999C1296.541,681.337 1328.187,625.402 1328.187,625.402L1302.267,616.762C1302.267,616.762 1256.761,667.019 1237.182,677.958C1217.596,688.907 1211.832,699.272 1211.832,699.272C1209.793,697.05 1207.433,694.883 1204.894,692.792C1190.974,681.312 1171.796,672.332 1171.796,672.332C1149.616,666.131 1126.963,713.676 1126.963,713.676Z" fill="#F9B587"/>
<path d="M1126.963,713.676C1154.611,755.726 1217.016,766.665 1217.016,766.665C1229.933,762.888 1247.153,744.919 1264.183,722.999C1264.183,722.999 1233.771,755.313 1214.426,758.025C1195.09,760.737 1158.455,734.413 1154.759,724.33C1151.069,714.247 1156.522,688.596 1171.796,672.335C1149.616,666.131 1126.963,713.676 1126.963,713.676Z" fill="#F39568"/>
<path d="M861.686,824.007C861.686,824.007 860.23,909.008 872.163,962.683C884.095,1016.358 935.071,874.81 935.071,874.81C935.071,874.81 889.385,834.696 861.686,824.007Z" fill="#2C2A40"/>
<path d="M1039.856,873.8C1039.856,873.8 1038.75,923.91 1005.917,959.336C973.084,994.759 958.985,1036.232 958.985,1036.232C958.985,1036.232 1008.129,1013.767 1039.856,1019.817C1039.856,1019.817 1056.46,1020.683 1062.51,1013.771C1068.56,1006.859 1070.284,998.651 1079.79,1001.242C1089.292,1003.835 1102.688,1000.809 1106.144,1000.376C1109.6,999.943 1131.632,1034.937 1127.31,1057.831C1127.31,1057.831 1110.03,1062.583 1107.872,1065.609C1105.71,1068.633 1093.184,1081.593 1085.408,1081.161C1077.632,1080.729 1056.896,1092.825 1056.896,1092.825C1056.896,1092.825 950.04,1133.483 940.258,1140.343C923.783,1151.901 846.082,1164.537 839.173,1120.903C832.261,1077.273 900.084,869.914 909.59,847.45C919.086,824.985 1028.433,846.584 1039.856,873.8Z" fill="#2C2A40"/>
<path d="M942.695,1017.608L945.705,1018.708C946.798,1015.713 948.138,1012.527 949.687,1009.234L946.786,1007.868C945.199,1011.248 943.82,1014.524 942.695,1017.608Z" fill="#5B5B6C"/>
<path d="M1100.674,1013.258L1101.36,1016.39C1104.534,1015.694 1107.958,1015.024 1111.539,1014.402L1110.987,1011.244C1107.361,1011.873 1103.889,1012.552 1100.674,1013.258Z" fill="#5B5B6C"/>
<path d="M941.848,1042.285L938.662,1042.638L938.703,1042.997C939.252,1047.421 940.582,1050.723 942.778,1053.096L945.131,1050.919C943.432,1049.082 942.342,1046.286 941.884,1042.593L941.848,1042.285Z" fill="#5B5B6C"/>
<path d="M967.163,1051.71L968.025,1054.798C971.318,1053.878 974.784,1052.765 978.051,1051.707L977.06,1048.658C973.825,1049.707 970.395,1050.806 967.163,1051.71Z" fill="#5B5B6C"/>
<path d="M964.633,977.19C962.607,980.233 960.693,983.192 958.949,985.981L961.668,987.683C963.399,984.917 965.294,981.986 967.304,978.966L964.633,977.19Z" fill="#5B5B6C"/>
<path d="M957.933,993.813L955.173,992.185C953.304,995.349 951.579,998.433 950.043,1001.347L952.88,1002.841C954.39,999.972 956.09,996.933 957.933,993.813Z" fill="#5B5B6C"/>
<path d="M1024.384,870.385L1021.226,869.837C1020.639,873.219 1019.95,876.631 1019.18,879.975L1022.306,880.696C1023.085,877.294 1023.787,873.825 1024.384,870.385Z" fill="#5B5B6C"/>
<path d="M977.307,964.488L974.694,962.629C972.511,965.693 970.548,968.499 968.695,971.192L971.334,973.013C973.181,970.329 975.133,967.543 977.307,964.488Z" fill="#5B5B6C"/>
<path d="M985.043,948.327C983.01,951.106 980.958,953.921 978.907,956.762L981.503,958.637C983.552,955.803 985.601,952.995 987.63,950.218L985.043,948.327Z" fill="#5B5B6C"/>
<path d="M943.551,1025.444L940.457,1024.607C939.457,1028.31 938.822,1031.853 938.565,1035.135L941.762,1035.386C942.002,1032.298 942.605,1028.954 943.551,1025.444Z" fill="#5B5B6C"/>
<path d="M950.524,1053.737L949.921,1056.885C951.13,1057.119 952.464,1057.234 953.887,1057.234C955.958,1057.234 958.241,1056.997 960.87,1056.507L960.28,1053.355C956.259,1054.105 953.082,1054.227 950.524,1053.737Z" fill="#5B5B6C"/>
<path d="M1036.355,1039.826L1036.89,1042.987C1040.382,1042.397 1043.857,1041.64 1047.217,1040.74L1046.386,1037.643C1043.123,1038.518 1039.747,1039.252 1036.355,1039.826Z" fill="#5B5B6C"/>
<path d="M1053.174,1035.558L1054.225,1038.588C1057.752,1037.363 1061.051,1035.985 1064.029,1034.494L1062.593,1031.628C1059.739,1033.058 1056.572,1034.379 1053.174,1035.558Z" fill="#5B5B6C"/>
<path d="M983.94,1046.437L984.908,1049.495C988.913,1048.229 991.971,1047.338 994.831,1046.61L994.039,1043.503C991.118,1044.244 988.002,1045.151 983.94,1046.437Z" fill="#5B5B6C"/>
<path d="M1019.059,1041.371L1019.087,1044.577C1022.566,1044.545 1026.115,1044.346 1029.642,1043.978L1029.311,1040.788C1025.884,1041.147 1022.434,1041.342 1019.059,1041.371Z" fill="#5B5B6C"/>
<path d="M1083.464,1018.172L1084.624,1021.16C1087.362,1020.096 1090.652,1019.054 1094.399,1018.063L1093.579,1014.963C1089.716,1015.989 1086.314,1017.066 1083.464,1018.172Z" fill="#5B5B6C"/>
<path d="M1073.436,1024.084C1072.208,1025.421 1070.595,1026.777 1068.643,1028.114L1070.454,1030.762C1072.608,1029.291 1074.407,1027.771 1075.802,1026.252C1076.433,1025.562 1077.312,1024.86 1078.411,1024.164L1076.696,1021.455C1075.353,1022.302 1074.256,1023.187 1073.436,1024.084Z" fill="#5B5B6C"/>
<path d="M1017.436,886.916C1016.523,890.272 1015.516,893.597 1014.436,896.8L1017.475,897.822C1018.574,894.559 1019.604,891.173 1020.53,887.756L1017.436,886.916Z" fill="#5B5B6C"/>
<path d="M989.307,942.501L991.894,944.393C993.988,941.53 996.043,938.715 998.037,935.958L995.44,934.079C993.449,936.833 991.397,939.641 989.307,942.501Z" fill="#5B5B6C"/>
<path d="M1007.575,920.886L1004.75,919.37C1003.099,922.438 1001.339,925.416 999.512,928.219L1002.198,929.969C1004.074,927.093 1005.885,924.038 1007.575,920.886Z" fill="#5B5B6C"/>
<path d="M1007.956,913L1010.858,914.362C1012.319,911.255 1013.711,907.995 1014.996,904.677L1012.005,903.519C1010.745,906.77 1009.383,909.96 1007.956,913Z" fill="#5B5B6C"/>
<path d="M1001.217,1041.951L1001.756,1045.112C1005.516,1044.471 1008.735,1044.234 1011.778,1044.388L1011.941,1041.185C1008.661,1041.018 1005.218,1041.272 1001.217,1041.951Z" fill="#5B5B6C"/>
<path d="M857.742,255.183L870.771,310.711L870.848,311.057C870.848,311.057 871.704,321.339 874.513,334.919C877.639,350.048 883.195,369.281 892.691,382.948C894.143,385.048 895.688,387.017 897.34,388.815C897.34,388.815 905.592,420.516 914.482,447.896L914.492,447.896C919.727,464.024 925.18,478.664 929.31,484.424C929.31,484.424 981.962,474.53 969.346,443.048C969.346,443.048 951.434,402.002 937.328,371.743C937.318,371.727 937.318,371.718 937.318,371.718C934.587,365.86 931.996,360.407 929.707,355.733L913.568,318.902L905.835,301.25L882.371,247.69L857.742,255.183Z" fill="#F9B587"/>
<path d="M914.492,447.899C919.727,464.028 925.18,478.667 929.31,484.428C929.31,484.428 981.962,474.534 969.346,443.051C969.346,443.051 951.434,402.005 937.328,371.747C937.665,372.923 949.995,416.172 946.305,428.329C942.56,440.656 931.621,452.268 914.492,447.899Z" fill="#F39568"/>
<path d="M914.809,486.473C915.588,509.361 925.014,536.628 935.933,552.879C942.515,559.817 950.751,559.791 959.167,556.172C980.567,546.987 1003.205,514.622 1003.205,514.622L972.37,449.434L969.346,443.048C951.928,447.799 934.285,460.197 924.049,468.311C918.512,472.7 915.139,475.836 915.139,475.836C914.783,479.225 914.687,482.793 914.809,486.473Z" fill="#E03641"/>
<g opacity="0.2">
<path d="M914.809,486.473C915.588,509.361 925.014,536.628 935.933,552.879C942.515,559.817 950.751,559.791 959.167,556.172C940.688,537.821 928.047,486.457 924.046,468.311C918.509,472.7 915.136,475.836 915.136,475.836C914.783,479.225 914.687,482.793 914.809,486.473Z" fill="#2C2A40"/>
</g>
<path d="M914.809,486.473C929.23,472.158 962.226,454.644 972.366,449.434L969.343,443.048C942.509,450.374 915.136,475.836 915.136,475.836C914.783,479.225 914.687,482.793 914.809,486.473Z" fill="#2C2A40"/>
<path d="M844.784,834.921C884.907,886.871 1052.478,890.215 1052.478,890.215C1052.478,890.215 1046.544,821.449 1052.478,787.401C1059.008,749.965 1064.67,694.953 1064.67,694.953C1079.998,706.159 1103.412,727.017 1116.742,739.129C1122.946,744.771 1126.964,748.519 1126.964,748.519C1131.172,729.215 1136.994,714.599 1143.06,703.6C1156.814,678.647 1171.796,672.332 1171.796,672.332L1164.782,663.166L1113.918,596.744L1059.262,551.462L1049.852,543.668L1006.844,516.116L989.236,504.831C989.236,504.831 943.714,523.881 930.753,543.668C917.794,563.446 888.02,655.131 878.915,700.137C867.104,758.509 852.927,807.919 847.284,826.755L847.268,826.791C845.691,832.051 844.784,834.921 844.784,834.921Z" fill="#E03641"/>
<g opacity="0.2">
<path d="M844.784,834.921C884.907,886.871 1052.478,890.215 1052.478,890.215C1052.478,890.215 1046.544,821.449 1052.478,787.401C1059.008,749.965 1064.67,694.953 1064.67,694.953C1079.998,706.158 1103.412,727.016 1116.742,739.129C1122.946,744.771 1126.964,748.519 1126.964,748.519C1131.172,729.216 1136.994,714.6 1143.06,703.6C1143.06,703.6 1084.324,671.774 1059.224,643.975C1059.224,643.975 1027.926,730.533 1017.151,774.148C1003.208,830.596 955.91,853.637 912.514,850.753C869.124,847.877 847.281,826.752 847.281,826.752L847.265,826.787C845.691,832.051 844.784,834.921 844.784,834.921Z" fill="#2C2A40"/>
</g>
<path d="M1032.511,561.587C1042.446,559.634 1047.496,554.104 1055.039,547.968L1049.852,543.672L1003.974,507.255C997.893,511.118 990.291,514.911 989.236,530.367C987.637,553.694 1012.236,565.572 1032.511,561.587Z" fill="#2C2A40"/>
<path d="M1116.742,739.129C1122.946,744.771 1126.963,748.519 1126.963,748.519C1140.701,685.447 1171.796,672.332 1171.796,672.332L1164.781,663.166C1151.966,672.335 1125.296,696.043 1116.742,739.129Z" fill="#2C2A40"/>
<path d="M1084.32,490.311C1084.32,490.311 1085.218,515.343 1056.367,520.479C1056.367,520.479 1063.583,487.721 1084.32,490.311Z" fill="#2C2A40"/>
<path d="M1037.025,436.655C1054.453,464.666 1082.618,488.237 1082.618,488.237C1082.618,488.237 1142.733,459.206 1122.975,411.514C1117.669,398.709 1111.164,389.36 1104.104,382.631L1104.104,382.621L1104.095,382.621C1074.029,353.912 1033.957,372.462 1033.957,372.462C1016.462,390.588 1023.512,414.954 1037.025,436.655Z" fill="#E03641"/>
<path d="M1104.098,382.621L1104.104,382.63L1104.104,382.621L1104.098,382.621Z" fill="#3E86AA"/>
<g opacity="0.2">
<path d="M1037.025,436.655C1054.453,464.666 1082.618,488.237 1082.618,488.237C1082.618,488.237 1142.733,459.206 1122.975,411.514C1117.669,398.709 1111.164,389.36 1104.104,382.631C1104.45,383.186 1121.029,409.735 1104.095,427.403C1086.981,445.263 1057.338,451.663 1037.025,436.655Z" fill="#2C2A40"/>
</g>
<path d="M1082.29,423.931C1082.29,423.931 1066.578,342.646 1016.288,346.336C969.202,349.792 1005.891,412.107 1005.891,412.107C1005.891,412.107 1073.862,431.516 1082.29,423.931Z" fill="#2C2A40"/>
<path d="M1020.133,395.176C1020.133,395.176 998.563,399.472 1000.579,419.343C1000.579,419.343 1018.85,408.513 1020.133,395.176Z" fill="#2C2A40"/>
<path d="M1057.755,515.533L1049.849,543.665C1049.031,547.496 1046.059,550.526 1042.235,551.369C1009.223,558.631 993.497,534.422 996.819,525.936C1001.089,524.42 1074.577,500.907 1087.946,472.665C1087.946,472.665 1083.262,497.906 1057.755,515.533Z" fill="#F9B587"/>
<path d="M1000.592,514.311C1011.159,518.379 1026.044,522.069 1041.545,519.322C1070.784,514.128 1086.006,479.526 1086.006,479.526C1086.006,479.526 1090.889,456.016 1084.323,434.296C1082.55,428.403 1079.924,422.632 1076.132,417.509C1062.378,398.917 1039.516,395.599 1026.936,394.397C1020.681,393.801 1014.631,396.798 1011.348,402.156L1005.837,411.177L1002.157,417.192C1001.361,418.487 1000.653,419.811 1000.015,421.167C997.864,425.739 996.559,430.663 996.177,435.725L995.745,441.618C992.901,445.263 990.708,449.335 989.24,453.653C987.954,457.385 987.201,461.309 987.027,465.301L985.886,491.843C985.463,501.705 991.372,510.762 1000.592,514.311Z" fill="#F9B587"/>
<path d="M1030.831,426.037C1030.831,426.037 1054.225,417.195 1059.22,436.553L1055.565,439.348C1055.565,439.348 1048.493,424.428 1029.885,431.083L1030.831,426.037Z" fill="#2C2A40"/>
<path d="M995.745,441.618C992.904,445.263 990.708,449.329 989.236,453.65C993.843,452.692 1001.833,453.698 1015.237,461.854C1015.237,461.854 1010.303,452.307 1002.734,448.838C1000.701,447.905 1000.146,445.276 1001.634,443.606L1011.592,432.42C1011.592,432.42 1011.197,429.147 1008.379,426.749C1006.661,425.287 1003.057,422.857 1000.008,421.167C997.857,425.729 996.556,430.66 996.177,435.726L995.745,441.618Z" fill="#F39568"/>
<path d="M1002.448,417.554C1007.821,420.334 1011.576,423.854 1011.576,423.854L1010.226,428.329C1006.866,425.274 1003.583,423.306 1000.505,422.087C998.982,421.485 998.242,419.821 998.899,418.519C998.909,418.503 998.915,418.487 998.922,418.471C999.528,417.272 1001.108,416.861 1002.448,417.554Z" fill="#2C2A40"/>
<path d="M993.385,464.798L1033.957,478.128C1033.957,478.128 1020.299,497.204 999.813,487.618C983.748,480.097 993.385,464.798 993.385,464.798Z" fill="#FFFFFF"/>
<path d="M1003.205,514.625C1003.205,514.625 1028.676,522.169 1056.363,494.203C1056.363,494.203 1056.966,509.23 1042.113,523.964C1031.305,534.692 1010.886,532.915 1000.573,531.152C997.466,530.623 995.841,527.161 997.437,524.445L1003.205,514.625Z" fill="#F39568"/>
<path d="M1078.469,469.446C1078.469,469.446 1091.921,458.658 1099.885,469.629C1107.849,480.6 1087.93,509.925 1075,497.153C1062.067,484.377 1078.469,469.446 1078.469,469.446Z" fill="#F9B587"/>
<path d="M1030.279,440.487C1030.279,440.487 1035.595,434.533 1041.834,437.22C1050.929,441.137 1049.32,449.579 1049.32,449.579C1049.32,449.579 1045.803,433.603 1030.279,440.487Z" fill="#2C2A40"/>
<path d="M1007.725,436.412C1007.725,436.412 1004.725,426.236 997.065,433.648C997.065,433.648 1003.779,429.702 1007.725,436.412Z" fill="#2C2A40"/>
<path d="M1005.539,411.027C1005.555,411.328 1004.843,412.46 1004.862,412.771C1004.862,412.771 1017.994,401.78 1041.113,410.703C1064.225,419.628 1075.558,441.512 1075.558,441.512L1084.32,434.299C1082.547,428.406 1079.921,422.635 1076.129,417.512C1062.375,398.921 1039.513,395.602 1026.932,394.4C1020.678,393.804 1014.628,396.801 1011.345,402.159L1005.539,411.027Z" fill="#F39568"/>
<path d="M1071.429,471.181L1079.024,474.637L1090.1,464.702C1091.844,455.154 1084.105,429.666 1082.29,423.931C1081.316,422.998 1079.713,422.081 1078.581,421.167C1078.581,421.167 1070.957,447.537 1079.206,457.299L1071.429,471.181Z" fill="#2C2A40"/>
<path d="M870.771,310.714L870.848,311.06C870.848,311.06 871.704,321.342 874.513,334.923L913.565,318.905L905.832,301.253L870.771,310.714Z" fill="#F39568"/>
<g opacity="0.2">
<path d="M928.072,578.361L958.984,605.961C958.984,605.961 947.927,649.335 924.27,639.656C895.759,627.996 928.072,578.361 928.072,578.361Z" fill="#2C2A40"/>
</g>
<path d="M954.665,220.06L807.795,220.06L807.795,317.311L954.665,317.311L954.665,220.06Z" transform="rotate(319.049 881.23 268.685)" fill="#2C2A40"/>
<path d="M795.402,248.771L829.417,339.879L967.009,288.509L961.828,287.041L799.31,240.884L796.674,246.196L796.678,246.203L795.402,248.771Z" fill="#2C2A40"/>
<path d="M796.674,246.196L829.158,333.553C831.046,332.848 830.212,333.159 833.325,331.998L882.717,262.037L799.31,240.887L796.674,246.196Z" fill="#FFFFFF"/>
<path d="M952.357,213.301L811.905,213.301L811.905,310.552L952.357,310.552L952.357,213.301Z" transform="rotate(319.049 882.131 261.926)" fill="#2C2A40"/>
<path d="M843.806,216.73C843.815,216.717 843.825,216.711 843.825,216.711C845.409,214.848 848.297,213.572 850.089,213.684C850.484,211.873 852.596,210.539 854.975,210.052C856.36,209.767 857.793,210.029 859.05,210.671C860.134,208.584 862.862,207.343 864.347,208.17C864.347,208.17 864.712,208.324 865.324,208.609C865.831,207.054 866.998,206.25 866.998,206.25L867.004,206.253C868.537,204.092 872.913,202.951 874.583,203.877C874.583,203.877 889.148,209.757 890.536,220.984C891.925,232.212 893.983,245.286 888.78,243.42C887.289,242.888 885.82,241.025 884.522,238.502C885.083,245.244 884.756,250.281 881.39,249.075C879.517,248.405 877.68,245.642 876.174,242.096C876.497,247.812 875.93,251.784 872.903,250.701C870.172,249.723 867.514,244.289 865.844,238.46C866.35,244.965 865.959,249.739 862.673,248.562C858.646,247.12 857.495,238.079 854.68,230.766C851.375,222.199 850.615,226.681 845.765,223.546L841.408,225.171C840.507,220.176 843.53,217.006 843.806,216.73Z" fill="#F9B587"/>
<path d="M1294.794,631.285C1288.67,627.48 1284.236,621.504 1282.319,614.556C1281.768,612.559 1281.12,610.44 1280.379,608.359C1277.5,600.296 1279.802,583.016 1280.379,576.103C1280.956,569.191 1285.852,555.944 1287.292,554.505C1288.731,553.065 1297.371,559.205 1293.915,568.085C1290.459,576.966 1292.944,586.837 1294.726,589.678C1296.509,592.518 1304.572,587.334 1306.589,582.15C1308.605,576.966 1326.171,537.798 1329.627,536.647C1333.083,535.496 1335.962,536.359 1333.66,546.438C1331.355,556.518 1320.413,574.087 1321.852,578.983C1323.292,583.878 1325.886,579.848 1326.748,577.254C1327.61,574.661 1341.723,537.59 1344.028,536.256C1346.333,534.919 1352.957,532.611 1349.501,548.311C1346.045,564.01 1335.318,583.16 1335.965,586.616C1336.613,590.072 1351.303,551.84 1355.406,549.68C1359.51,547.519 1362.533,551.408 1359.295,560.91C1356.057,570.413 1347.401,588.841 1346.676,590.922C1346.064,592.679 1346.407,594.153 1347.917,593.291C1349.43,592.425 1358.567,569.983 1360.658,568.688C1362.748,567.393 1367.932,569.768 1362.315,585.103C1356.698,600.437 1352.957,614.027 1337.69,628.137C1328.268,636.848 1323.651,642.125 1314.796,640.829C1309.487,640.054 1301.417,635.402 1294.794,631.285Z" fill="#F9B587"/>
<path d="M1104.104,588.161C1104.104,588.161 1107.868,546.637 1075.26,537.997C1051.881,531.803 1012.262,574.876 1002.233,623.245C984.501,708.781 1025.602,783.372 1052.478,793.162C1052.478,793.162 1077.01,774.154 1058.31,748.522C1058.31,748.522 1007.722,697.524 1030.276,624.107C1049.06,562.956 1079.065,547.211 1090.35,577.226L1104.104,588.161Z" fill="#2C2A40"/>
<path d="M895.682,636.783L909.657,593.797C909.657,593.797 907.714,518.703 986.938,499.772C986.133,497.258 985.761,494.578 985.883,491.84L986.377,480.392C976.464,481.039 875.471,510.233 895.682,636.783Z" fill="#2C2A40"/>
<path d="M1211.832,724.33C1210.316,710.826 1211.832,699.275 1211.832,699.275C1209.793,697.053 1207.434,694.886 1204.895,692.795C1201.467,719.29 1211.832,724.33 1211.832,724.33Z" fill="#F39568"/>
<path d="M892.691,382.952C894.143,385.052 895.688,387.02 897.34,388.819C897.34,388.819 910.67,381.044 914.517,379.021C914.517,379.021 902.213,379.236 892.691,382.952Z" fill="#F39568"/>
<path d="M1106.14,1002.379C1113.292,1009.134 1119.082,1024.936 1122.84,1037.741C1122.85,1037.757 1122.85,1037.776 1122.856,1037.792C1125.905,1048.177 1127.607,1056.583 1127.607,1056.583C1133.965,1063.495 1148.472,1061.507 1171.792,1064.04C1192.779,1066.319 1207.485,1080.913 1223.13,1087.194C1223.14,1087.194 1223.14,1087.194 1223.146,1087.194C1224.884,1087.902 1226.628,1088.489 1228.391,1088.957C1237.695,1091.403 1244.254,1089.874 1247.823,1085.373C1251.054,1081.304 1251.84,1074.79 1249.99,1066.573C1246.101,1049.257 1202.47,1011.244 1189.941,1006.181C1177.412,1001.109 1169.638,998.153 1154.752,985.903C1139.873,973.653 1124.712,972.813 1121.686,977.401C1121.176,978.171 1120.407,979.389 1119.464,980.873C1114.822,988.26 1106.14,1002.379 1106.14,1002.379Z" fill="#B0B1CA"/>
<path d="M1119.47,980.874C1124.404,980.329 1132.75,980.079 1138.684,983.525C1147.609,988.709 1160.283,1000.805 1173.815,1007.137C1187.354,1013.479 1213.275,1031.33 1226.811,1044.003C1240.34,1056.676 1248.307,1076.618 1244.376,1083.168C1240.446,1089.724 1233.283,1089.493 1223.149,1087.194C1224.887,1087.903 1226.631,1088.49 1228.394,1088.958C1246.104,1093.606 1253.882,1083.886 1249.993,1066.57C1246.104,1049.255 1202.474,1011.241 1189.945,1006.179C1177.416,1001.107 1169.641,998.151 1154.756,985.901C1139.877,973.651 1124.715,972.811 1121.689,977.399C1121.182,978.171 1120.413,979.386 1119.47,980.874Z" fill="#2C2A40"/>
<g opacity="0.2">
<path d="M1122.859,1037.793C1125.908,1048.177 1127.61,1056.584 1127.61,1056.584C1133.968,1063.496 1148.475,1061.508 1171.796,1064.041C1192.782,1066.32 1207.488,1080.914 1223.133,1087.194C1223.143,1087.194 1223.143,1087.194 1223.149,1087.194C1224.887,1087.903 1226.631,1088.49 1228.394,1088.958C1237.698,1091.404 1244.258,1089.875 1247.826,1085.373L1248.983,1078.564C1248.983,1078.564 1233.431,1086.339 1215.58,1075.97C1201.913,1068.039 1195.748,1060.306 1184.773,1057.247C1186.813,1048.947 1182.167,1039.967 1182.167,1039.967C1181.301,1049.187 1178.762,1055.821 1178.762,1055.821C1176.595,1055.51 1174.296,1055.397 1171.799,1055.519C1153.98,1056.388 1126.158,1047.805 1122.859,1037.793Z" fill="#2C2A40"/>
</g>
<path d="M80.906,873.05C86.35,872.742 90.841,869.965 94.698,865.929C94.817,865.807 94.945,865.676 95.063,865.548C95.07,865.548 95.07,865.538 95.079,865.538C101.796,858.308 106.631,847.299 111.395,839.015C112.786,836.578 114.187,834.376 115.617,832.571C120.115,826.909 127.97,811.975 134.805,798.218C135.154,797.526 135.494,796.824 135.837,796.138C142.487,782.685 147.921,770.906 147.921,770.906C147.921,770.906 145.401,763.526 141.368,755.947C140.13,753.623 138.748,751.276 137.248,749.112C134.25,744.774 130.788,741.203 127.095,740.068C115.572,736.519 104.899,744.162 96.035,754.479C87.356,764.581 63.475,807.192 59.583,824.883C59.499,825.258 59.422,825.626 59.361,825.986C55.312,848.222 62.898,874.085 80.906,873.05Z" fill="#B0B1CA"/>
<path d="M80.906,873.05C86.523,872.729 91.123,869.792 95.063,865.548C82.528,871.552 74.891,867.92 70.496,862.947C65.001,856.731 62.933,839.672 64.369,832.465C67.864,814.918 80.848,787.408 87.452,776.459C94.057,765.511 107.156,747.435 119.884,745.669C127.172,744.659 133.324,746.958 137.251,749.112C134.254,744.774 130.791,741.203 127.098,740.068C115.575,736.519 104.903,744.162 96.038,754.479C87.173,764.796 62.449,809.029 59.361,825.982C55.312,848.222 62.898,874.085 80.906,873.05Z" fill="#2C2A40"/>
<g opacity="0.2">
<path d="M80.906,873.05C86.35,872.742 90.841,869.966 94.698,865.929C94.817,865.807 94.945,865.676 95.063,865.548C95.07,865.548 95.07,865.538 95.079,865.538C101.796,858.309 106.631,847.299 111.395,839.015C112.786,836.578 114.187,834.376 115.617,832.571C120.115,826.909 127.97,811.975 134.805,798.218C135.154,797.526 135.494,796.824 135.837,796.138C133.683,793.608 130.842,792.505 127.13,793.544C127.13,793.544 118.195,801.783 109.747,818.734C100.466,837.361 95.586,855.045 78.213,855.199C60.839,855.359 63.969,843.949 61.647,827.518C61.32,825.229 60.596,824.479 59.583,824.886C59.499,825.261 59.422,825.63 59.361,825.989C55.312,848.222 62.898,874.085 80.906,873.05Z" fill="#2C2A40"/>
</g>
<path d="M368.458,1028.938C368.651,1038.569 376.22,1102.301 396.995,1115.192C407.488,1121.704 413.512,1121.447 416.529,1116.581C418.263,1113.804 419.017,1109.527 419.059,1104.154C419.097,1100.31 418.77,1095.895 418.18,1091.08C415.333,1067.711 414.987,1013.62 435.534,1001.876C435.534,1001.876 431.77,973.965 422.156,956.768C419.27,951.584 415.843,947.374 411.826,945.197C411.826,945.197 397.485,945.281 388.46,946.502C384.562,947.031 379.307,946.858 374.386,948.195C367.92,949.962 362.024,954.325 360.495,966.306C357.805,987.411 368.26,1019.307 368.458,1028.938Z" fill="#B0B1CA"/>
<path d="M368.459,1028.938C368.651,1038.569 376.22,1102.301 396.995,1115.192C407.488,1121.704 413.513,1121.447 416.529,1116.581C411.227,1116.805 403.898,1115.045 397.329,1109.402C388.301,1101.647 376.948,1057.895 377.615,1043.779C378.288,1029.659 372.46,1003.979 367.349,984.272C363.476,969.358 370.674,954.52 374.39,948.195C367.923,949.962 362.027,954.325 360.498,966.306C357.805,987.411 368.26,1019.307 368.459,1028.938Z" fill="#2C2A40"/>
<g opacity="0.2">
<path d="M368.458,1028.938C368.651,1038.569 376.22,1102.301 396.995,1115.192C407.488,1121.704 413.512,1121.447 416.529,1116.581C418.264,1113.804 419.017,1109.527 419.059,1104.154C415.09,1105.042 409.133,1103.542 402.214,1099.653C390.041,1092.811 387.614,1055.481 389.362,1030.833C391.109,1006.185 376.381,986.805 384.848,971.291C393.318,955.777 421.313,959.285 421.313,959.285C421.649,958.422 421.931,957.589 422.153,956.768C419.267,951.584 415.84,947.374 411.823,945.197C411.823,945.197 397.482,945.281 388.457,946.502C384.559,947.031 379.304,946.858 374.383,948.195C367.917,949.961 362.021,954.325 360.492,966.306C357.805,987.411 368.26,1019.307 368.458,1028.938Z" fill="#2C2A40"/>
</g>
<path d="M370.26,353.565C370.26,353.565 245.181,356.954 221.316,414.572C197.454,472.191 272.66,637.191 313.168,656.993C353.679,676.793 410.829,652.617 430.189,632.193C449.551,611.767 417.349,370.952 370.26,353.565Z" fill="#2C2A40"/>
<path d="M292.172,507.086C292.172,507.086 291.983,530.348 282.458,555.66C282.458,555.66 279.656,572.539 275.295,593.468L275.295,593.478C270.163,618.122 265.171,636.249 257.781,651.234C251.555,663.846 247.047,675.943 243.976,685.384C243.601,686.532 243.251,687.639 242.924,688.697L242.918,688.703C239.988,698.145 238.686,704.191 238.686,704.191L211.249,695.047C211.249,695.047 209.54,666.142 210.04,650.397C210.653,630.885 208.614,592.747 221.088,561.158C221.088,561.158 221.088,561.158 221.082,561.152C222.079,558.635 223.156,556.327 224.323,554.272C224.323,554.272 227.837,523.129 232.912,502.559C234.598,495.743 236.452,490.091 238.41,487.116C238.417,487.116 279.046,482.864 292.172,507.086Z" fill="#F9B587"/>
<path d="M242.065,557.102C242.065,557.102 226.096,557.268 221.098,561.154C221.098,561.154 221.098,561.154 221.091,561.148C222.089,558.631 223.166,556.322 224.333,554.267C224.333,554.267 236.602,553.546 242.065,557.102Z" fill="#F39568"/>
<path d="M292.172,507.085C292.172,507.085 291.983,530.347 282.457,555.659C282.457,555.659 279.655,572.538 275.295,593.467C276.978,577.716 275.799,549.449 276.126,528.825C276.347,514.744 263.674,511.442 252.597,507.466C247.987,505.812 238.939,504.097 233.598,502.337C233.367,502.26 233.143,502.487 232.922,502.555C234.608,495.739 236.461,490.087 238.42,487.111C238.42,487.111 279.046,482.863 292.172,507.085Z" fill="#F39568"/>
<path d="M234.637,682.822L260.923,701.461C263.706,703.436 265.382,706.613 265.443,710.025L265.873,735.349C265.924,738.366 263.517,740.85 260.5,740.895C257.973,740.934 255.752,739.231 255.13,736.782L249.07,712.916L242.867,710.65L246.759,724.897L251.549,737.817L263.533,752.809C265.277,754.989 264.841,758.182 262.58,759.82C260.605,761.247 257.884,761.006 256.194,759.249L240.404,742.844L229.841,729.879L238.16,746.159L254.197,770.105C255.258,771.689 255.251,773.76 254.184,775.34C252.536,777.771 249.086,778.104 247.002,776.036L229.626,758.759L219.745,743.357L228.427,770.525L236.118,787.905C236.968,789.825 236.275,792.076 234.493,793.188C232.511,794.422 229.908,793.81 228.68,791.829L217.517,773.776L209.457,752.834L214.651,770.868L217.507,777.017C218.104,778.299 217.546,779.822 216.263,780.415C215.151,780.932 213.83,780.589 213.112,779.595L208.854,773.712L202.526,758.781L211.384,694.79C211.381,694.78 215.064,686.005 234.637,682.822Z" fill="#F9B587"/>
<path d="M242.924,688.701C242.924,688.701 234.829,683.87 225.288,685.085C225.288,685.085 235.541,681.215 243.979,685.383L242.924,688.701Z" fill="#F39568"/>
<path d="M493.409,304.894C521.385,249.726 510.003,177.267 508.019,158.945C507.846,157.339 507.14,155.108 505.98,152.373C505.98,152.363 505.98,152.363 505.98,152.363C495.374,127.164 447.345,59.213 436.41,43.866C435.669,42.824 435.095,42.029 434.714,41.506C434.371,41.016 434.185,40.762 434.185,40.762L400.49,56.456C400.49,56.456 423.143,80.142 432.046,109.877C440.949,139.613 462.263,178.582 462.263,178.582C452.882,213.069 452.173,258.196 452.173,258.196C468.466,296.438 493.409,304.894 493.409,304.894Z" fill="#F9B587"/>
<path d="M493.409,304.895C521.384,249.726 510.003,177.268 508.019,158.945C507.846,157.339 507.14,155.108 505.98,152.373C505.964,153.283 505.153,211.623 501.357,230.471C497.525,249.467 491.418,269.411 480.341,272.082C469.255,274.752 458.175,268.459 452.177,258.193C468.466,296.438 493.409,304.895 493.409,304.895Z" fill="#F39568"/>
<path d="M434.089,43.465C429.581,48.245 410.002,61.518 407.149,62.791C406.152,63.233 404.805,62.602 403.484,61.589C402.173,61.621 393.565,61.759 388.897,59.505C386.332,58.264 386.46,54.596 387.23,50.724C381.032,49.063 369.125,39.243 369.52,30.192C369.949,20.331 380.564,19.866 380.564,19.866C381.029,8.542 391.763,10.639 391.763,10.639C392.436,5.721 401.442,3.752 401.442,3.752C402.461,-0.428 408.325,-1.012 411.756,0.72C415.186,2.451 435.233,26.9 436.038,31.308C436.839,35.719 434.089,43.465 434.089,43.465Z" fill="#F9B587"/>
<path d="M403.356,45.668C404.712,51.368 399.929,51.98 399.929,51.98C400.913,51.265 400.9,48.845 400.682,46.758C400.682,46.758 400.682,45.337 400.198,43.629C400.191,43.622 400.191,43.622 400.191,43.613C399.659,41.75 398.537,39.541 396.19,38.416C391.962,36.402 389.993,37.653 389.993,37.653L381.789,25.931C386.108,28.685 391.798,35.139 391.798,35.139C399.355,35.02 402.038,40.653 402.939,43.725C404.427,43.645 406.084,43.042 406.728,40.996C408.014,36.912 405.382,32.876 405.382,32.876L393.985,16.913C393.985,16.913 409.688,32.295 409.909,38.153C410.194,45.924 403.356,45.668 403.356,45.668Z" fill="#F39568"/>
<path d="M405.892,12.274C405.892,12.274 416.093,25.091 417.401,28.557C418.828,32.34 416.359,36.027 413.599,36.687C410.839,37.351 409.313,35.912 409.313,35.912L409.223,39.868C409.223,39.868 419.809,41.779 419.953,31.689C420.027,26.649 405.892,12.274 405.892,12.274Z" fill="#F39568"/>
<path d="M419.341,29.346C419.341,29.346 421.854,31.869 424.983,30.942C428.116,30.016 428.808,27.929 428.122,25.992C428.122,25.992 429.962,27.893 428.282,30.567C426.093,34.046 420.886,33.28 419.251,32.808L419.341,29.346Z" fill="#F39568"/>
<path d="M430.049,48.05C430.049,48.05 433.893,47.354 436.406,43.863C435.666,42.821 435.092,42.026 434.71,41.503C434.71,41.503 433.181,44.847 430.049,48.05Z" fill="#F39568"/>
<path d="M406.055,62.903C406.055,62.903 410.983,62.486 413.778,60.726C413.778,60.726 411.178,64.124 407.677,64.939L406.055,62.903Z" fill="#F39568"/>
<path d="M462.26,178.579C462.26,178.579 477.007,176.338 482.028,172.151C482.028,172.151 476.651,184.831 460.57,185.302L462.26,178.579Z" fill="#F39568"/>
<path d="M124.334,816.166C130.278,820.587 127.544,821.597 133.411,824.771C139.095,827.845 154.012,840.067 154.939,840.823C154.965,840.845 154.981,840.861 154.981,840.861C193.985,882.277 259.733,946.723 295.359,951.619C328.945,956.235 378.997,862.031 410.971,792.877C410.971,792.877 410.971,792.877 410.977,792.868C411.317,792.361 424.351,773.141 443.823,778.803C463.549,784.542 536.239,852.775 569.699,870.035C569.699,870.035 524.861,872.331 510.209,891.129C495.557,909.921 454.719,927.889 447.307,930.859C439.897,933.831 436.029,930.511 429.139,935.051C422.249,939.593 411.823,945.203 411.823,945.203C411.545,966.135 419.351,984.259 434.633,1002.433C434.633,1002.433 441.001,998.993 447.111,997.189C455.601,994.679 473.491,989.965 476.665,984.099C479.839,978.231 590.343,954.985 590.343,954.985C590.343,954.985 675.235,938.157 681.825,897.871C688.417,857.583 516.051,676.538 516.051,676.538L502.713,618.477L440.491,628.772L440.487,628.746L326.921,637.354C326.921,637.354 307.503,689.561 302.027,736.641C298.363,768.156 277.514,843.025 277.514,843.025C277.514,843.025 258.3,823.273 220.918,807.282C211.365,803.191 201.519,798.728 192.151,794.358L192.157,794.349C192.157,794.349 177.987,787.231 173.043,780.374C168.103,773.513 165.089,776.155 159.742,774.548C154.394,772.945 149.883,766.453 146.318,767.127C142.753,767.8 141.695,769.55 141.695,769.55C132.6,778.12 128.486,783.75 122.44,804.704C122.446,804.701 118.391,811.744 124.334,816.166Z" fill="#2C2A40"/>
<path d="M225.923,827.97L224.628,829.996C227.276,831.692 230.126,833.683 233.101,835.918L234.544,833.994C231.521,831.721 228.619,829.695 225.923,827.97Z" fill="#5B5B6C"/>
<path d="M210.323,819.529L209.197,821.654C211.762,823.01 214.234,824.27 216.545,825.399C217.187,825.713 217.834,826.043 218.485,826.386L219.61,824.261C218.937,823.902 218.264,823.562 217.597,823.235C215.314,822.119 212.865,820.872 210.323,819.529Z" fill="#5B5B6C"/>
<path d="M193.754,813.004C196.838,814.819 199.894,816.566 202.83,818.198L203.997,816.095C201.077,814.473 198.041,812.735 194.972,810.93L193.754,813.004Z" fill="#5B5B6C"/>
<path d="M238.757,840.326C241.26,842.346 243.864,844.526 246.72,846.994L248.294,845.177C245.415,842.689 242.793,840.489 240.267,838.454L238.757,840.326Z" fill="#5B5B6C"/>
<path d="M266.86,861.745L265.273,863.553C268.72,866.58 270.993,868.407 272.644,869.475C273.022,869.719 273.407,869.933 273.788,870.113L274.808,867.936C274.523,867.801 274.234,867.641 273.949,867.455C272.4,866.452 270.217,864.692 266.86,861.745Z" fill="#5B5B6C"/>
<path d="M280.608,867.516L281.775,869.616C284.311,868.205 286.885,865.609 289.427,861.893L287.443,860.534C285.115,863.941 282.817,866.288 280.608,867.516Z" fill="#5B5B6C"/>
<path d="M253.732,849.957L252.132,851.752C254.405,853.775 256.582,855.744 258.627,857.593L259.878,858.722L261.49,856.939L260.24,855.808C258.188,853.955 256.008,851.986 253.732,849.957Z" fill="#5B5B6C"/>
<path d="M178.673,803.755C181.529,805.583 184.514,807.445 187.544,809.289L188.794,807.234C185.781,805.4 182.812,803.547 179.968,801.729L178.673,803.755Z" fill="#5B5B6C"/>
<path d="M137.043,778.736C136.434,779.447 135.834,780.169 135.251,780.906C137.13,781.166 139.884,781.611 142.884,782.313L143.433,779.973C141.034,779.409 138.816,779.011 137.043,778.736Z" fill="#5B5B6C"/>
<path d="M150.499,782.051L149.668,784.308C153.198,785.606 155.894,787.116 157.687,788.79C157.857,788.947 158.036,789.113 158.228,789.283L159.828,787.488C159.652,787.331 159.485,787.18 159.328,787.033C157.302,785.138 154.333,783.461 150.499,782.051Z" fill="#5B5B6C"/>
<path d="M165.413,791.88L163.996,793.823C166.436,795.605 169.334,797.616 172.607,799.799L173.941,797.798C170.696,795.634 167.827,793.643 165.413,791.88Z" fill="#5B5B6C"/>
<path d="M323.26,717.684L325.585,718.296C326.469,714.936 327.37,711.573 328.284,708.22L325.963,707.588C325.049,710.948 324.145,714.317 323.26,717.684Z" fill="#5B5B6C"/>
<path d="M327.887,700.618L330.201,701.263C331.144,697.887 332.093,694.536 333.045,691.231L330.733,690.567C329.781,693.876 328.829,697.233 327.887,700.618Z" fill="#5B5B6C"/>
<path d="M314.867,752.03L317.214,752.552C317.942,749.272 318.727,745.855 319.548,742.396L317.207,741.841C316.387,745.313 315.598,748.74 314.867,752.03Z" fill="#5B5B6C"/>
<path d="M318.903,734.81L321.24,735.384C322.045,732.104 322.898,728.703 323.776,725.272L321.446,724.676C320.564,728.11 319.708,731.521 318.903,734.81Z" fill="#5B5B6C"/>
<path d="M332.756,683.62L335.062,684.3C336.065,680.898 337.062,677.561 338.053,674.31L335.754,673.611C334.763,676.865 333.763,680.212 332.756,683.62Z" fill="#5B5B6C"/>
<path d="M291.05,854.455L293.182,855.567C294.666,852.72 296.131,849.489 297.532,845.962L295.298,845.074C293.925,848.52 292.495,851.678 291.05,854.455Z" fill="#5B5B6C"/>
<path d="M343.343,649.861L345.622,650.63C346.834,647.043 347.991,643.734 349.062,640.801L346.802,639.977C345.725,642.933 344.561,646.257 343.343,649.861Z" fill="#5B5B6C"/>
<path d="M337.886,666.695L340.182,667.414C341.252,663.98 342.32,660.639 343.349,657.481L341.063,656.738C340.031,659.902 338.96,663.255 337.886,666.695Z" fill="#5B5B6C"/>
<path d="M297.779,838.354L300.052,839.133C301.142,835.956 302.187,832.583 303.162,829.111L300.847,828.464C299.885,831.891 298.853,835.219 297.779,838.354Z" fill="#5B5B6C"/>
<path d="M311.283,769.368L313.645,769.813C314.245,766.62 314.931,763.183 315.684,759.602L313.331,759.108C312.578,762.706 311.885,766.158 311.283,769.368Z" fill="#5B5B6C"/>
<path d="M302.668,821.52L305.002,822.093C305.82,818.753 306.583,815.31 307.266,811.863L304.906,811.395C304.229,814.81 303.476,818.214 302.668,821.52Z" fill="#5B5B6C"/>
<path d="M306.198,804.329L308.57,804.727C309.147,801.28 309.657,797.789 310.077,794.358L307.692,794.063C307.272,797.462 306.769,800.915 306.198,804.329Z" fill="#5B5B6C"/>
<path d="M308.497,786.892L310.885,787.177C311.254,784.106 311.757,780.65 312.382,776.902L310.01,776.507C309.382,780.294 308.872,783.785 308.497,786.892Z" fill="#5B5B6C"/>
<path d="M455.335,766.953C451.76,766.864 448.163,767.367 444.675,768.441L445.383,770.74C448.618,769.74 451.956,769.271 455.271,769.358L455.335,766.953Z" fill="#5B5B6C"/>
<path d="M471.474,774.084L472.66,771.993C471.704,771.452 470.791,770.974 469.951,770.576C467.562,769.451 465.132,768.573 462.728,767.973L462.144,770.307C464.398,770.871 466.681,771.692 468.925,772.753C469.71,773.122 470.57,773.571 471.474,774.084Z" fill="#5B5B6C"/>
<path d="M477.709,927.834L478.78,929.988C481.916,928.43 485.051,926.827 488.1,925.227L486.984,923.098C483.948,924.689 480.829,926.282 477.709,927.834Z" fill="#5B5B6C"/>
<path d="M493.339,919.7L494.49,921.81C497.731,920.04 500.799,918.309 503.607,916.661L502.389,914.587C499.603,916.222 496.557,917.94 493.339,919.7Z" fill="#5B5B6C"/>
<path d="M508.532,910.855L509.817,912.887C513.421,910.608 516.338,908.575 518.49,906.844L516.983,904.969C514.902,906.645 512.058,908.627 508.532,910.855Z" fill="#5B5B6C"/>
<path d="M417.568,958.195C419.732,956.694 421.842,955.306 423.865,954.052L422.598,952.007C420.816,953.113 418.959,954.331 417.068,955.623C417.228,956.483 417.398,957.339 417.568,958.195Z" fill="#5B5B6C"/>
<path d="M428.927,948.359L430.052,950.484C433.527,948.647 436.676,947.298 439.41,946.474L438.718,944.172C435.833,945.04 432.54,946.448 428.927,948.359Z" fill="#5B5B6C"/>
<path d="M491.319,788.703C493.749,790.729 496.416,793.002 499.241,795.458L500.818,793.643C497.981,791.175 495.304,788.892 492.858,786.856L491.319,788.703Z" fill="#5B5B6C"/>
<path d="M445.569,942.084L446.377,944.351C449.147,943.367 452.433,942.065 456.149,940.488L455.21,938.276C451.536,939.834 448.291,941.116 445.569,942.084Z" fill="#5B5B6C"/>
<path d="M461.801,935.387L462.789,937.58C465.837,936.208 469.031,934.72 472.275,933.165L471.236,930.998C468.008,932.543 464.834,934.021 461.801,935.387Z" fill="#5B5B6C"/>
<path d="M436.394,775.039C437.179,774.516 438.045,773.987 438.984,773.471L437.827,771.365C436.134,772.298 434.666,773.266 433.447,774.167C434.425,774.462 435.406,774.757 436.394,775.039Z" fill="#5B5B6C"/>
<path d="M478.835,775.953L477.456,777.921C479.909,779.64 482.695,781.736 485.737,784.154L487.234,782.272C484.153,779.826 481.329,777.697 478.835,775.953Z" fill="#5B5B6C"/>
<path d="M582.51,882.703C581.359,883.559 578.615,884.572 574.127,885.794L574.758,888.115C579.676,886.775 582.507,885.701 583.947,884.633C584.242,884.415 584.53,884.181 584.812,883.934L583.228,882.126C582.991,882.331 582.754,882.523 582.51,882.703Z" fill="#5B5B6C"/>
<path d="M559.065,845.234L557.561,847.11C560.78,849.694 563.531,851.765 565.97,853.442L567.333,851.46C564.938,849.816 562.235,847.78 559.065,845.234Z" fill="#5B5B6C"/>
<path d="M573.434,855.109L573.357,855.074L572.325,857.244L572.405,857.283C575.79,858.87 578.65,860.636 580.907,862.531L582.453,860.687C580.038,858.661 577.002,856.782 573.434,855.109Z" fill="#5B5B6C"/>
<path d="M587.441,866.407L585.367,867.625C586.168,868.991 586.704,870.401 586.954,871.815C587.246,873.46 587.159,875.105 586.697,876.698L589.006,877.368C589.573,875.416 589.679,873.405 589.32,871.392C589.022,869.696 588.39,868.019 587.441,866.407Z" fill="#5B5B6C"/>
<path d="M562.001,888.791C560.376,889.176 558.703,889.573 557.003,889.981L557.564,892.318C559.26,891.911 560.931,891.513 562.553,891.128C564.335,890.705 566.063,890.295 567.715,889.897L567.15,887.56C565.506,887.961 563.781,888.368 562.001,888.791Z" fill="#5B5B6C"/>
<path d="M539.871,894.498L540.56,896.803C543.535,895.912 546.808,895.011 550.572,894.049L549.976,891.718C546.183,892.686 542.878,893.597 539.871,894.498Z" fill="#5B5B6C"/>
<path d="M523.196,900.887L524.312,903.019C526.889,901.673 530.067,900.326 533.753,899.015L532.949,896.748C529.098,898.114 525.912,899.47 523.196,900.887Z" fill="#5B5B6C"/>
<path d="M524.889,815.207C523.061,813.546 521.228,811.882 519.397,810.222L517.781,812.004C519.612,813.662 521.442,815.329 523.27,816.986L525.504,819.016L527.12,817.236L524.889,815.207Z" fill="#5B5B6C"/>
<path d="M530.862,823.873C533.487,826.252 536.081,828.589 538.623,830.859L540.226,829.067C537.687,826.8 535.097,824.463 532.474,822.09L530.862,823.873Z" fill="#5B5B6C"/>
<path d="M553.509,840.653C551.098,838.617 548.517,836.392 545.625,833.853L544.038,835.661C546.943,838.213 549.533,840.448 551.96,842.493L553.509,840.653Z" fill="#5B5B6C"/>
<path d="M514.04,805.377C511.42,803.018 508.817,800.687 506.256,798.417L504.662,800.216C507.221,802.482 509.817,804.807 512.434,807.163L514.04,805.377Z" fill="#5B5B6C"/>
<path d="M525.763,672.451C525.763,672.451 411.951,709.511 350.492,692.905C345.907,691.655 308.525,684.087 308.525,684.087C308.525,684.087 329.621,604.003 323.722,550.815C322.183,536.709 318.849,508.88 308.878,483.617C305.319,474.576 301.665,465.375 298.074,456.43C287.398,429.948 277.459,405.807 273.067,395.227C282.204,388.912 289.674,387.277 291.405,386.956C291.662,386.924 291.758,386.924 291.758,386.924C301.857,385.225 314.745,382.564 328.499,378.428L328.531,378.428C346.228,373.042 365.368,365.219 381.943,353.806L397.332,345.246L413.49,336.237C413.49,336.237 433.367,343.418 454.014,372.914C448.692,379.229 442.985,385.064 436.862,390.098C445.967,395.804 453.565,398.498 453.565,398.498C457.508,396.285 461.227,393.56 464.754,390.386C477.835,414.624 489.825,449.184 495.691,498.076C500.981,542.479 510.311,594.287 517.203,629.843C522.109,655.331 525.763,672.451 525.763,672.451Z" fill="#84519E"/>
<path d="M358.988,397.151C337.892,395.356 333.051,385.289 328.531,378.428C346.228,373.042 365.368,365.219 381.943,353.806L392.032,348.138C394.921,348.138 402.048,353.45 402.048,364.116C402.048,378.45 387.04,399.555 358.988,397.151Z" fill="#2C2A40"/>
<g opacity="0.2">
<path d="M426.484,427.656L463.504,411.081C463.504,411.081 492.281,454.317 468.819,462.778C443.607,471.873 426.484,427.656 426.484,427.656Z" fill="#2C2A40"/>
</g>
<path d="M386.938,248.8C386.938,248.8 402.484,237.031 396.114,213.399C396.114,213.399 390.897,222.37 386.156,223.264C386.156,223.264 398.172,190.736 361.431,172.622C361.431,172.622 365.734,190.515 361.364,196.475C361.364,196.475 351.666,175.777 337.287,171.506C337.287,171.506 339.448,207.782 316.961,215.111C300.921,220.34 280.188,238.97 274.468,269.594C274.468,269.594 265.155,266.904 261.68,270.562C261.68,270.562 273.622,272.576 275.27,280.19C275.27,280.19 270.256,277.651 266.479,280.857C266.479,280.857 274.917,282.601 276.222,289.199C277.527,295.797 309.471,346.253 328.736,354.659C347.998,363.065 386.938,248.8 386.938,248.8Z" fill="#2C2A40"/>
<path d="M337.097,362.315L339.665,377.113C340.32,380.874 343.099,383.936 346.792,384.898C378.663,393.201 392.712,373.398 394.296,365.729C390.195,364.094 317.191,334.557 305.23,306.559C305.23,306.559 312.924,344.201 337.097,362.315Z" fill="#F9B587"/>
<path d="M396.161,279.773C398.79,283.428 400.775,287.47 402.048,291.734C403.16,295.415 403.747,299.265 403.763,303.157L403.882,329.04C403.926,338.667 397.832,347.256 388.724,350.372C378.285,353.944 363.656,356.977 348.671,353.719C320.391,347.57 306.862,313.311 306.862,313.311C306.862,313.311 295.08,277.795 318.798,253.301C335.228,236.332 357.276,233.001 369.273,232.558C374.415,232.366 379.237,235.049 381.754,239.541L390.84,255.76C391.561,257.046 392.205,258.363 392.776,259.71C394.7,264.233 395.783,269.084 395.963,274.028L396.161,279.773Z" fill="#F9B587"/>
<path d="M362.582,263.291C362.582,263.291 340.134,253.808 334.549,272.467L338.001,275.326C338.001,275.326 345.446,261.063 363.316,268.241L362.582,263.291Z" fill="#2C2A40"/>
<path d="M396.162,279.773C398.79,283.428 400.775,287.471 402.048,291.735C397.598,290.628 389.782,291.311 376.425,298.752C376.425,298.752 381.587,289.641 389.086,286.547C391.099,285.717 391.737,283.175 390.352,281.495L381.074,270.229C381.074,270.229 381.581,267.055 384.415,264.827C386.143,263.467 389.743,261.236 392.773,259.707C394.696,264.23 395.78,269.081 395.96,274.025L396.162,279.773Z" fill="#F39568"/>
<path d="M390.535,256.093C385.2,258.6 381.411,261.887 381.411,261.887L382.559,266.295C385.944,263.445 389.214,261.649 392.257,260.579C393.76,260.05 394.546,258.456 393.953,257.164C393.946,257.148 393.937,257.132 393.93,257.116C393.388,255.93 391.866,255.468 390.535,256.093Z" fill="#2C2A40"/>
<path d="M397.595,302.43L357.593,313.891C357.593,313.891 370.177,332.977 390.484,324.407C406.405,317.69 397.595,302.43 397.595,302.43Z" fill="#FFFFFF"/>
<path d="M386.168,350.581C386.168,350.581 361.085,356.973 335.174,328.709C335.174,328.709 334.026,343.316 347.934,358.221C361.841,373.125 394.292,365.729 394.292,365.729L386.168,350.581Z" fill="#F39568"/>
<path d="M314.575,303.779C314.575,303.779 301.883,292.773 293.717,303.154C285.551,313.535 303.851,342.838 316.919,330.883C329.986,318.928 314.575,303.779 314.575,303.779Z" fill="#F9B587"/>
<path d="M362.579,277.381C362.579,277.381 357.625,271.386 351.451,273.768C342.448,277.243 343.699,285.521 343.699,285.521C343.699,285.521 347.719,270.097 362.579,277.381Z" fill="#2C2A40"/>
<path d="M384.69,274.259C384.69,274.259 387.993,264.461 395.174,271.966C395.174,271.966 388.785,267.869 384.69,274.259Z" fill="#2C2A40"/>
<path d="M309.67,263.906C309.67,263.906 319.404,275.676 311.494,287.964L319.686,306.803L311.212,308.976L304.169,298.528L298.728,271.521C298.728,271.521 305.294,259.165 309.67,263.906Z" fill="#2C2A40"/>
<path d="M515.505,282.537C515.505,282.537 514.479,287.666 512.363,295.809C505.47,322.099 486.971,379.775 453.565,398.498C453.565,398.498 445.967,395.805 436.862,390.098C422.787,381.281 405.154,365.348 406.757,341.238C406.757,341.238 435.419,293.629 447.57,260.127C448.692,257.081 449.654,254.131 450.455,251.342L503.739,276.894L515.505,282.537Z" fill="#84519E"/>
<path d="M515.505,282.537C515.505,282.537 514.479,287.666 512.363,295.809C499.86,286.127 460.137,266.314 447.57,260.127C448.692,257.081 449.654,254.131 450.455,251.342L503.739,276.894L515.505,282.537Z" fill="#2C2A40"/>
<g opacity="0.2">
<path d="M515.515,282.536C515.515,282.536 500.453,358.297 464.751,390.383C461.218,383.83 457.608,378.033 454.011,372.91C481.172,340.546 497.811,295.014 503.726,276.891L515.515,282.536Z" fill="#2C2A40"/>
</g>
<path d="M314.264,436.937C313.27,443.221 312.052,447.517 312.052,447.517L308.878,483.617L305.288,518.37L304.262,528.437C298.202,536.933 277.684,537.702 258.288,536.291L258.288,536.259C237.929,534.785 218.79,530.873 218.79,530.873C218.79,530.873 219.303,526.962 220.457,520.261C223.214,504.103 229.722,471.658 241.969,438.38C250.561,415.105 262.84,402.249 273.067,395.227C282.204,388.912 289.674,387.277 291.406,386.956C291.662,386.924 291.758,386.924 291.758,386.924C318.111,389.392 316.893,420.234 314.264,436.937Z" fill="#84519E"/>
<path d="M305.287,518.37L304.262,528.437C298.202,536.933 277.684,537.702 258.288,536.291L258.288,536.259C237.929,534.785 218.79,530.873 218.79,530.873C218.79,530.873 219.303,526.962 220.457,520.261C228.953,522.506 249.186,525.42 267.181,525.657C287.388,525.926 299.132,521.127 305.287,518.37Z" fill="#2C2A40"/>
<path d="M386.467,351.273C386.467,351.273 428.08,344.912 454.508,368.438C480.941,391.954 507.189,441.298 491.21,470.905L497.683,513.788C497.683,513.788 541.204,445.424 494.506,379.191C463.084,334.631 422.925,333.544 402.631,336.535C400.419,342.883 395.44,347.666 388.836,349.949L386.467,351.273Z" fill="#2C2A40"/>
<path d="M286.106,388.45C286.106,388.45 298.026,361.228 320.234,364.366C342.442,367.505 408.934,457.85 394.866,524.291C380.795,590.733 323.318,597.799 323.318,597.799C323.318,597.799 312.19,580.929 324.696,565.243C324.696,565.243 362.466,555.98 372.661,512.724C382.856,469.469 331.464,381.733 312.581,379.04C305.784,378.072 300.671,385.299 300.671,385.299C300.671,385.299 292.678,387.475 286.106,388.45Z" fill="#2C2A40"/>
<g opacity="0.2">
<path d="M525.774,672.453C525.774,672.453 411.938,709.525 350.492,692.895C345.908,691.657 308.513,684.097 308.513,684.097C308.513,684.097 329.631,603.986 323.738,550.802C322.177,536.711 318.843,508.877 308.891,483.601L304.265,528.446C298.199,536.916 277.693,537.702 258.294,536.282L258.294,536.275C258.294,536.275 289.254,519.793 292.592,482.77C293.56,471.998 295.634,463.329 298.08,456.446C304.031,439.679 312.229,433.539 312.229,433.539C312.229,433.539 312.988,434.754 314.255,436.931C320.288,447.238 337.771,479.071 339.819,504.699C342.304,535.73 352.127,601.825 400.028,640.963C426.676,662.739 515.708,659.319 517.128,630.714C517.136,630.413 517.16,630.121 517.192,629.849C522.112,655.339 525.774,672.453 525.774,672.453Z" fill="#2C2A40"/>
</g>
</svg>
