<svg width="32" height="32" viewBox="0 0 32 32" fill="none" xmlns="http://www.w3.org/2000/svg" xmlns:xlink="http://www.w3.org/1999/xlink">
<path d="M5.714,27.429L4.343,27.429L4.343,28.43L5.296,28.735L5.714,27.429ZM26.286,27.429L26.704,28.735L27.657,28.43L27.657,27.429L26.286,27.429ZM19.429,18.057L12.571,18.057L12.571,20.8L19.429,20.8L19.429,18.057ZM12.571,18.057C8.027,18.057 4.343,21.741 4.343,26.286L7.086,26.286C7.086,23.256 9.541,20.8 12.571,20.8L12.571,18.057ZM4.343,26.286L4.343,27.429L7.086,27.429L7.086,26.286L4.343,26.286ZM5.714,27.429C5.296,28.735 5.297,28.735 5.297,28.735C5.297,28.735 5.298,28.735 5.298,28.735C5.298,28.735 5.299,28.736 5.3,28.736C5.301,28.736 5.303,28.737 5.304,28.737C5.308,28.738 5.313,28.74 5.318,28.742C5.329,28.745 5.343,28.749 5.361,28.755C5.396,28.765 5.445,28.78 5.508,28.798C5.635,28.833 5.816,28.882 6.053,28.94C6.525,29.055 7.215,29.204 8.116,29.353C9.919,29.65 12.565,29.943 16,29.943L16,27.2C12.721,27.2 10.224,26.921 8.562,26.647C7.731,26.51 7.109,26.374 6.702,26.275C6.498,26.225 6.348,26.185 6.253,26.158C6.206,26.144 6.172,26.134 6.151,26.128C6.141,26.125 6.135,26.123 6.131,26.122C6.13,26.122 6.129,26.121 6.129,26.121C6.129,26.121 6.13,26.122 6.13,26.122C6.13,26.122 6.131,26.122 6.131,26.122C6.131,26.122 6.131,26.122 6.132,26.122C6.132,26.122 6.132,26.122 5.714,27.429ZM16,29.943C19.435,29.943 22.081,29.65 23.884,29.353C24.785,29.204 25.475,29.055 25.947,28.94C26.183,28.882 26.365,28.833 26.491,28.798C26.555,28.78 26.604,28.765 26.639,28.755C26.657,28.749 26.671,28.745 26.682,28.742C26.687,28.74 26.692,28.738 26.695,28.737C26.697,28.737 26.699,28.736 26.7,28.736C26.701,28.736 26.701,28.735 26.702,28.735C26.702,28.735 26.703,28.735 26.703,28.735C26.703,28.735 26.704,28.735 26.286,27.429C25.868,26.122 25.868,26.122 25.868,26.122C25.868,26.122 25.869,26.122 25.869,26.122C25.869,26.122 25.87,26.122 25.87,26.122C25.87,26.122 25.871,26.121 25.871,26.121C25.871,26.121 25.87,26.122 25.868,26.122C25.865,26.123 25.859,26.125 25.848,26.128C25.828,26.134 25.794,26.144 25.747,26.158C25.652,26.185 25.502,26.225 25.298,26.275C24.891,26.374 24.268,26.51 23.437,26.647C21.776,26.921 19.279,27.2 16,27.2L16,29.943ZM27.657,27.429L27.657,26.286L24.914,26.286L24.914,27.429L27.657,27.429ZM27.657,26.286C27.657,21.741 23.973,18.057 19.429,18.057L19.429,20.8C22.459,20.8 24.914,23.256 24.914,26.286L27.657,26.286Z" transform="rotate(0 16 24)" fill="#171A1F"/>
<path d="M11.657,9.143C11.657,6.745 13.602,4.8 16,4.8L16,2.057C12.087,2.057 8.914,5.23 8.914,9.143L11.657,9.143ZM16,4.8C18.398,4.8 20.343,6.745 20.343,9.143L23.086,9.143C23.086,5.23 19.913,2.057 16,2.057L16,4.8ZM20.343,9.143C20.343,10.379 19.828,11.802 18.961,12.909C18.089,14.021 17.02,14.629 16,14.629L16,17.371C18.135,17.371 19.923,16.128 21.12,14.601C22.321,13.068 23.086,11.062 23.086,9.143L20.343,9.143ZM16,14.629C14.98,14.629 13.911,14.021 13.039,12.909C12.172,11.802 11.657,10.379 11.657,9.143L8.914,9.143C8.914,11.062 9.679,13.068 10.88,14.601C12.077,16.128 13.865,17.371 16,17.371L16,14.629Z" transform="rotate(0 16 9.714)" fill="#171A1F"/>
</svg>
