<svg width="48" height="48" viewBox="0 0 48 48" fill="none" xmlns="http://www.w3.org/2000/svg" xmlns:xlink="http://www.w3.org/1999/xlink">
<path d="M8.571,41.143L6.514,41.143L6.514,42.644L7.944,43.102L8.571,41.143ZM39.428,41.143L40.055,43.102L41.485,42.644L41.485,41.143L39.428,41.143ZM29.143,27.086L18.857,27.086L18.857,31.2L29.143,31.2L29.143,27.086ZM18.857,27.086C12.04,27.086 6.514,32.611 6.514,39.429L10.628,39.429C10.628,34.884 14.312,31.2 18.857,31.2L18.857,27.086ZM6.514,39.429L6.514,41.143L10.628,41.143L10.628,39.429L6.514,39.429ZM8.571,41.143C7.944,43.102 7.945,43.102 7.945,43.102C7.946,43.103 7.946,43.103 7.947,43.103C7.948,43.103 7.948,43.103 7.949,43.104C7.952,43.104 7.954,43.105 7.957,43.106C7.962,43.108 7.969,43.11 7.977,43.112C7.993,43.117 8.014,43.124 8.041,43.132C8.094,43.148 8.168,43.17 8.263,43.196C8.452,43.25 8.725,43.323 9.079,43.409C9.787,43.582 10.822,43.807 12.174,44.03C14.878,44.476 18.847,44.914 24,44.914L24,40.8C19.081,40.8 15.336,40.381 12.844,39.97C11.597,39.765 10.664,39.561 10.053,39.412C9.747,39.338 9.523,39.277 9.38,39.237C9.308,39.216 9.257,39.201 9.227,39.192C9.212,39.188 9.202,39.185 9.197,39.183C9.195,39.182 9.194,39.182 9.194,39.182C9.194,39.182 9.194,39.182 9.195,39.183C9.195,39.183 9.196,39.183 9.196,39.183C9.197,39.183 9.197,39.183 9.197,39.183C9.198,39.183 9.198,39.184 8.571,41.143ZM24,44.914C29.153,44.914 33.122,44.476 35.826,44.03C37.177,43.807 38.213,43.582 38.921,43.409C39.275,43.323 39.548,43.25 39.737,43.196C39.832,43.17 39.906,43.148 39.959,43.132C39.985,43.124 40.007,43.117 40.023,43.112C40.031,43.11 40.038,43.108 40.043,43.106C40.046,43.105 40.048,43.104 40.05,43.104C40.051,43.103 40.052,43.103 40.053,43.103C40.053,43.103 40.054,43.103 40.054,43.102C40.055,43.102 40.055,43.102 39.428,41.143C38.801,39.184 38.802,39.183 38.802,39.183C38.802,39.183 38.803,39.183 38.803,39.183C38.804,39.183 38.804,39.183 38.805,39.183C38.805,39.182 38.806,39.182 38.806,39.182C38.806,39.182 38.805,39.182 38.803,39.183C38.798,39.185 38.788,39.188 38.773,39.192C38.742,39.201 38.691,39.216 38.62,39.237C38.477,39.277 38.252,39.338 37.947,39.412C37.336,39.561 36.402,39.765 35.156,39.97C32.663,40.381 28.918,40.8 24,40.8L24,44.914ZM41.485,41.143L41.485,39.429L37.371,39.429L37.371,41.143L41.485,41.143ZM41.485,39.429C41.485,32.611 35.96,27.086 29.143,27.086L29.143,31.2C33.688,31.2 37.371,34.884 37.371,39.429L41.485,39.429Z" transform="rotate(0 24 36)" fill="#565D6D"/>
<path d="M17.486,13.714C17.486,10.117 20.403,7.2 24,7.2L24,3.086C18.131,3.086 13.372,7.845 13.372,13.714L17.486,13.714ZM24,7.2C27.597,7.2 30.514,10.117 30.514,13.714L34.629,13.714C34.629,7.845 29.869,3.086 24,3.086L24,7.2ZM30.514,13.714C30.514,15.569 29.743,17.703 28.441,19.363C27.134,21.032 25.53,21.943 24,21.943L24,26.057C27.203,26.057 29.885,24.192 31.68,21.901C33.481,19.602 34.629,16.592 34.629,13.714L30.514,13.714ZM24,21.943C22.47,21.943 20.866,21.032 19.559,19.363C18.258,17.703 17.486,15.569 17.486,13.714L13.372,13.714C13.372,16.592 14.519,19.602 16.32,21.901C18.115,24.192 20.797,26.057 24,26.057L24,21.943Z" transform="rotate(0 24 14.571)" fill="#565D6D"/>
</svg>
