<svg width="32" height="24" viewBox="0 0 32 24" fill="none" xmlns="http://www.w3.org/2000/svg" xmlns:xlink="http://www.w3.org/1999/xlink">
<path d="M29.199,10.114L2.801,10.114C1.759,10.114 0.915,10.959 0.915,12L0.915,12C0.915,13.041 1.759,13.886 2.801,13.886L29.199,13.886C30.241,13.886 31.085,13.041 31.085,12C31.085,10.959 30.241,10.114 29.199,10.114Z" transform="rotate(-90 16 12)" fill="#BDC1CA"/>
<path d="M26.99,15.448L15.676,15.448C14.634,15.448 13.79,16.292 13.79,17.333L13.79,17.333C13.79,18.375 14.634,19.219 15.676,19.219L26.99,19.219C28.031,19.219 28.875,18.375 28.875,17.333C28.875,16.292 28.031,15.448 26.99,15.448Z" transform="rotate(-90 21.333 17.333)" fill="#BDC1CA"/>
</svg>
