<svg width="32" height="32" viewBox="0 0 32 32" fill="none" xmlns="http://www.w3.org/2000/svg" xmlns:xlink="http://www.w3.org/1999/xlink">
<path d="M6.4,23.36L7.36,23.36L7.36,21.44L6.4,21.44L6.4,23.36ZM4,22.4L3.04,22.4L3.04,23.36L4,23.36L4,22.4ZM4,6.4L4,5.44L3.04,5.44L3.04,6.4L4,6.4ZM16.8,7.36L17.76,7.36L17.76,5.44L16.8,5.44L16.8,7.36ZM6.4,21.44L4,21.44L4,23.36L6.4,23.36L6.4,21.44ZM4.96,22.4L4.96,6.4L3.04,6.4L3.04,22.4L4.96,22.4ZM4,7.36L16.8,7.36L16.8,5.44L4,5.44L4,7.36Z" transform="rotate(0 10.4 14.4)" fill="#FFFFFF"/>
<path d="M25.6,5.44L24.64,5.44L24.64,7.36L25.6,7.36L25.6,5.44ZM28,6.4L28.96,6.4L28.96,5.44L28,5.44L28,6.4ZM28,22.4L28,23.36L28.96,23.36L28.96,22.4L28,22.4ZM12,21.44L11.04,21.44L11.04,23.36L12,23.36L12,21.44ZM25.6,7.36L28,7.36L28,5.44L25.6,5.44L25.6,7.36ZM27.04,6.4L27.04,22.4L28.96,22.4L28.96,6.4L27.04,6.4ZM28,21.44L12,21.44L12,23.36L28,23.36L28,21.44Z" transform="rotate(0 20 14.4)" fill="#FFFFFF"/>
<line x1="12" y1="26.24" x2="20" y2="26.24" stroke="#FFFFFF" stroke-width="0.96" stroke-miterlimit="10" stroke-linecap="square"/>
<path d="M24.8,15.04L17.6,15.04L17.6,16.96L24.8,16.96L24.8,15.04ZM17.6,15.04C17.688,15.04 17.76,15.111 17.76,15.2L15.84,15.2C15.84,16.172 16.628,16.96 17.6,16.96L17.6,15.04ZM17.76,15.2L17.76,4.8L15.84,4.8L15.84,15.2L17.76,15.2ZM17.76,4.8C17.76,4.889 17.688,4.96 17.6,4.96L17.6,3.04C16.628,3.04 15.84,3.828 15.84,4.8L17.76,4.8ZM17.6,4.96L24.8,4.96L24.8,3.04L17.6,3.04L17.6,4.96ZM24.8,4.96C24.711,4.96 24.64,4.889 24.64,4.8L26.56,4.8C26.56,3.828 25.772,3.04 24.8,3.04L24.8,4.96ZM24.64,4.8L24.64,15.2L26.56,15.2L26.56,4.8L24.64,4.8ZM24.64,15.2C24.64,15.111 24.711,15.04 24.8,15.04L24.8,16.96C25.772,16.96 26.56,16.172 26.56,15.2L24.64,15.2Z" transform="rotate(0 21.2 10)" fill="#FFFFFF"/>
<line x1="20.8" y1="12.64" x2="21.6" y2="12.64" stroke="#FFFFFF" stroke-width="0.96" stroke-miterlimit="10" stroke-linecap="square"/>
<path d="M11.2,23.84L7.2,23.84L7.2,25.76L11.2,25.76L11.2,23.84ZM7.2,23.84C7.289,23.84 7.36,23.911 7.36,24L5.44,24C5.44,24.972 6.229,25.76 7.2,25.76L7.2,23.84ZM7.36,24L7.36,16L5.44,16L5.44,24L7.36,24ZM7.36,16C7.36,16.089 7.289,16.16 7.2,16.16L7.2,14.24C6.229,14.24 5.44,15.028 5.44,16L7.36,16ZM7.2,16.16L11.2,16.16L11.2,14.24L7.2,14.24L7.2,16.16ZM11.2,16.16C11.112,16.16 11.04,16.089 11.04,16L12.96,16C12.96,15.028 12.172,14.24 11.2,14.24L11.2,16.16ZM11.04,16L11.04,24L12.96,24L12.96,16L11.04,16ZM11.04,24C11.04,23.911 11.112,23.84 11.2,23.84L11.2,25.76C12.172,25.76 12.96,24.972 12.96,24L11.04,24Z" transform="rotate(0 9.2 20)" fill="#FFFFFF"/>
<line x1="8.8" y1="21.44" x2="9.6" y2="21.44" stroke="#FFFFFF" stroke-width="0.96" stroke-miterlimit="10" stroke-linecap="square"/>
<path d="M16.64,27.2L16.64,28.16L18.56,28.16L18.56,27.2L16.64,27.2ZM17.6,25.6L18.56,25.6L18.56,24.64L17.6,24.64L17.6,25.6ZM14.4,25.6L14.4,24.64L13.44,24.64L13.44,25.6L14.4,25.6ZM13.44,27.2L13.44,28.16L15.36,28.16L15.36,27.2L13.44,27.2ZM18.56,27.2L18.56,25.6L16.64,25.6L16.64,27.2L18.56,27.2ZM17.6,24.64L14.4,24.64L14.4,26.56L17.6,26.56L17.6,24.64ZM13.44,25.6L13.44,27.2L15.36,27.2L15.36,25.6L13.44,25.6Z" transform="rotate(0 16 26.4)" fill="#FFFFFF"/>
</svg>
