<svg width="56" height="56" viewBox="0 0 56 56" fill="none" xmlns="http://www.w3.org/2000/svg" xmlns:xlink="http://www.w3.org/1999/xlink">
<path d="M46.303,49.697L48,51.394L51.394,48L49.697,46.303L46.303,49.697ZM41.697,38.303L40,36.606L36.606,40L38.303,41.697L41.697,38.303ZM49.697,46.303L41.697,38.303L38.303,41.697L46.303,49.697L49.697,46.303Z" transform="rotate(0 44 44)" fill="#8E94A0"/>
<path d="M37.6,24C37.6,31.511 31.511,37.6 24,37.6L24,42.4C34.162,42.4 42.4,34.162 42.4,24L37.6,24ZM24,37.6C16.489,37.6 10.4,31.511 10.4,24L5.6,24C5.6,34.162 13.838,42.4 24,42.4L24,37.6ZM10.4,24C10.4,16.489 16.489,10.4 24,10.4L24,5.6C13.838,5.6 5.6,13.838 5.6,24L10.4,24ZM24,10.4C31.511,10.4 37.6,16.489 37.6,24L42.4,24C42.4,13.838 34.162,5.6 24,5.6L24,10.4Z" transform="rotate(0 24 24)" fill="#8E94A0"/>
<path d="M18.4,24C18.4,22.515 18.99,21.09 20.04,20.04L16.646,16.646C14.696,18.596 13.6,21.242 13.6,24L18.4,24ZM20.04,20.04C21.09,18.99 22.515,18.4 24,18.4L24,13.6C21.242,13.6 18.596,14.696 16.646,16.646L20.04,20.04Z" transform="rotate(0 20 20)" fill="#8E94A0"/>
</svg>
