<svg width="32" height="32" viewBox="0 0 32 32" fill="none" xmlns="http://www.w3.org/2000/svg" xmlns:xlink="http://www.w3.org/1999/xlink">
<path d="M26.459,28.398L27.428,29.368L29.368,27.429L28.398,26.459L26.459,28.398ZM23.827,21.887L22.857,20.918L20.917,22.857L21.887,23.827L23.827,21.887ZM28.398,26.459L23.827,21.887L21.887,23.827L26.459,28.398L28.398,26.459Z" transform="rotate(0 25.143 25.143)" fill="#171A1F"/>
<path d="M21.486,13.714C21.486,18.006 18.006,21.486 13.714,21.486L13.714,24.229C19.521,24.229 24.228,19.521 24.228,13.714L21.486,13.714ZM13.714,21.486C9.422,21.486 5.943,18.006 5.943,13.714L3.2,13.714C3.2,19.521 7.907,24.229 13.714,24.229L13.714,21.486ZM5.943,13.714C5.943,9.422 9.422,5.943 13.714,5.943L13.714,3.2C7.907,3.2 3.2,7.907 3.2,13.714L5.943,13.714ZM13.714,5.943C18.006,5.943 21.486,9.422 21.486,13.714L24.228,13.714C24.228,7.907 19.521,3.2 13.714,3.2L13.714,5.943Z" transform="rotate(0 13.714 13.714)" fill="#171A1F"/>
<path d="M10.514,13.714C10.514,12.866 10.852,12.052 11.452,11.452L9.512,9.512C8.398,10.627 7.772,12.138 7.772,13.714L10.514,13.714ZM11.452,11.452C12.052,10.851 12.866,10.514 13.714,10.514L13.714,7.771C12.138,7.771 10.627,8.398 9.512,9.512L11.452,11.452Z" transform="rotate(0 11.429 11.429)" fill="#171A1F"/>
</svg>
