<svg width="40" height="40" viewBox="0 0 40 40" fill="none" xmlns="http://www.w3.org/2000/svg" xmlns:xlink="http://www.w3.org/1999/xlink">
<path d="M33.074,35.498L34.287,36.71L36.711,34.286L35.499,33.074L33.074,35.498ZM29.784,27.359L28.572,26.147L26.148,28.571L27.36,29.784L29.784,27.359ZM35.499,33.074L29.784,27.359L27.36,29.784L33.074,35.498L35.499,33.074Z" transform="rotate(0 31.429 31.429)" fill="#171A1F"/>
<path d="M26.858,17.143C26.858,22.508 22.508,26.857 17.143,26.857L17.143,30.286C24.402,30.286 30.286,24.401 30.286,17.143L26.858,17.143ZM17.143,26.857C11.778,26.857 7.429,22.508 7.429,17.143L4.001,17.143C4.001,24.401 9.885,30.286 17.143,30.286L17.143,26.857ZM7.429,17.143C7.429,11.778 11.778,7.429 17.143,7.429L17.143,4C9.885,4 4.001,9.884 4.001,17.143L7.429,17.143ZM17.143,7.429C22.508,7.429 26.858,11.778 26.858,17.143L30.286,17.143C30.286,9.884 24.402,4 17.143,4L17.143,7.429Z" transform="rotate(0 17.143 17.143)" fill="#171A1F"/>
<path d="M13.142,17.143C13.142,16.082 13.563,15.065 14.314,14.314L11.889,11.89C10.496,13.283 9.713,15.173 9.713,17.143L13.142,17.143ZM14.314,14.314C15.064,13.564 16.081,13.143 17.142,13.143L17.142,9.714C15.172,9.714 13.282,10.497 11.889,11.89L14.314,14.314Z" transform="rotate(0 14.285 14.286)" fill="#171A1F"/>
</svg>
