<svg width="32" height="32" viewBox="0 0 32 32" fill="none" xmlns="http://www.w3.org/2000/svg" xmlns:xlink="http://www.w3.org/1999/xlink">
<path d="M10.286,18.286L9.429,17.215L8.914,17.626L8.914,18.286L10.286,18.286ZM10.286,26.285L8.914,26.285L8.914,30.06L11.337,27.166L10.286,26.285ZM26.572,3.5L9.429,17.215L11.142,19.356L28.285,5.642L26.572,3.5ZM8.914,18.286L8.914,26.285L11.657,26.285L11.657,18.286L8.914,18.286ZM11.337,27.166L15.451,22.252L13.348,20.491L9.234,25.405L11.337,27.166Z" transform="rotate(0 18.857 15.428)" fill="#6D31ED"/>
<path d="M4.571,13.714L4.062,12.441L1.796,13.347L3.748,14.811L4.571,13.714ZM27.428,4.571L28.773,4.84L29.27,2.358L26.919,3.298L27.428,4.571ZM22.857,27.428L22.034,28.525L23.775,29.831L24.202,27.697L22.857,27.428ZM5.081,14.987L27.938,5.845L26.919,3.298L4.062,12.441L5.081,14.987ZM26.084,4.302L21.512,27.159L24.202,27.697L28.773,4.84L26.084,4.302ZM23.68,26.331L5.394,12.617L3.748,14.811L22.034,28.525L23.68,26.331Z" transform="rotate(0 16 16)" fill="#6D31ED"/>
</svg>
