<svg width="36" height="38" viewBox="0 0 36 38" fill="none" xmlns="http://www.w3.org/2000/svg" xmlns:xlink="http://www.w3.org/1999/xlink">
<path d="M10.885,21.606L9.908,20.385L9.321,20.854L9.321,21.606L10.885,21.606ZM10.885,30.726L9.321,30.726L9.321,35.029L12.084,31.729L10.885,30.726ZM29.451,4.751L9.908,20.385L11.861,22.827L31.404,7.192L29.451,4.751ZM9.321,21.606L9.321,30.726L12.448,30.726L12.448,21.606L9.321,21.606ZM12.084,31.729L16.774,26.127L14.376,24.12L9.686,29.722L12.084,31.729Z" transform="rotate(0 20.656 18.349)" fill="#6D31ED"/>
<path d="M4.372,16.394L3.791,14.943L1.208,15.976L3.434,17.645L4.372,16.394ZM30.429,5.971L31.962,6.278L32.528,3.448L29.848,4.52L30.429,5.971ZM25.218,32.029L24.28,33.279L26.264,34.768L26.751,32.335L25.218,32.029ZM4.953,17.846L31.01,7.423L29.848,4.52L3.791,14.943L4.953,17.846ZM28.896,5.665L23.685,31.722L26.751,32.335L31.962,6.278L28.896,5.665ZM26.156,30.778L5.31,15.144L3.434,17.645L24.28,33.279L26.156,30.778Z" transform="rotate(0 17.401 19)" fill="#6D31ED"/>
</svg>
