<svg width="32" height="32" viewBox="0 0 32 32" fill="none" xmlns="http://www.w3.org/2000/svg" xmlns:xlink="http://www.w3.org/1999/xlink">
<path d="M10.286,18.286L9.429,17.215L8.915,17.627L8.915,18.286L10.286,18.286ZM10.286,26.286L8.915,26.286L8.915,30.06L11.338,27.166L10.286,26.286ZM26.572,3.501L9.429,17.215L11.143,19.357L28.286,5.642L26.572,3.501ZM8.915,18.286L8.915,26.286L11.658,26.286L11.658,18.286L8.915,18.286ZM11.338,27.166L15.452,22.252L13.349,20.491L9.235,25.406L11.338,27.166Z" transform="rotate(0 18.858 15.429)" fill="#6D31ED"/>
<path d="M4.571,13.714L4.062,12.441L1.796,13.347L3.748,14.812L4.571,13.714ZM27.428,4.572L28.773,4.84L29.27,2.358L26.919,3.298L27.428,4.572ZM22.857,27.429L22.034,28.526L23.775,29.832L24.202,27.698L22.857,27.429ZM5.081,14.988L27.938,5.845L26.919,3.298L4.062,12.441L5.081,14.988ZM26.084,4.303L21.512,27.16L24.202,27.698L28.773,4.84L26.084,4.303ZM23.68,26.332L5.394,12.617L3.748,14.812L22.034,28.526L23.68,26.332Z" transform="rotate(0 16 16)" fill="#6D31ED"/>
</svg>
