<svg width="32" height="32" viewBox="0 0 32 32" fill="none" xmlns="http://www.w3.org/2000/svg" xmlns:xlink="http://www.w3.org/1999/xlink">
<path d="M9.286,18.286L8.429,17.215L7.915,17.627L7.915,18.286L9.286,18.286ZM9.286,26.286L7.915,26.286L7.915,30.06L10.338,27.166L9.286,26.286ZM25.572,3.501L8.429,17.215L10.143,19.357L27.286,5.642L25.572,3.501ZM7.915,18.286L7.915,26.286L10.658,26.286L10.658,18.286L7.915,18.286ZM10.338,27.166L14.452,22.252L12.349,20.491L8.235,25.405L10.338,27.166Z" transform="rotate(0 17.858 15.429)" fill="#FFFFFF"/>
<path d="M3.571,13.714L3.062,12.441L0.796,13.347L2.748,14.811L3.571,13.714ZM26.428,4.571L27.773,4.84L28.27,2.358L25.919,3.298L26.428,4.571ZM21.857,27.429L21.034,28.526L22.775,29.831L23.202,27.698L21.857,27.429ZM4.081,14.988L26.938,5.845L25.919,3.298L3.062,12.441L4.081,14.988ZM25.084,4.302L20.512,27.16L23.202,27.698L27.773,4.84L25.084,4.302ZM22.68,26.331L4.394,12.617L2.748,14.811L21.034,28.526L22.68,26.331Z" transform="rotate(0 15 16)" fill="#FFFFFF"/>
</svg>
