<svg width="48" height="48" viewBox="0 0 48 48" fill="none" xmlns="http://www.w3.org/2000/svg" xmlns:xlink="http://www.w3.org/1999/xlink">
<path d="M27.086,24C27.086,25.704 25.704,27.086 24,27.086L24,31.2C27.977,31.2 31.2,27.976 31.2,24L27.086,24ZM24,27.086C22.296,27.086 20.915,25.704 20.915,24L16.8,24C16.8,27.976 20.024,31.2 24,31.2L24,27.086ZM20.915,24C20.915,22.296 22.296,20.914 24,20.914L24,16.8C20.024,16.8 16.8,20.024 16.8,24L20.915,24ZM24,20.914C25.704,20.914 27.086,22.296 27.086,24L31.2,24C31.2,20.024 27.977,16.8 24,16.8L24,20.914Z" transform="rotate(0 24 24)" fill="#565D6D"/>
<path d="M37.714,24L39.771,24.004L39.771,23.996L37.714,24ZM37.392,21.063L36.15,19.423L35.099,20.219L35.382,21.505L37.392,21.063ZM42.044,17.541L43.286,19.181L44.734,18.084L43.826,16.512L42.044,17.541ZM38.616,11.602L40.397,10.574L39.489,9.001L37.816,9.707L38.616,11.602ZM33.228,13.875L31.837,15.392L32.811,16.284L34.027,15.771L33.228,13.875ZM28.152,10.929L26.11,11.184L26.273,12.487L27.524,12.888L28.152,10.929ZM27.428,5.143L29.469,4.888L29.244,3.086L27.428,3.086L27.428,5.143ZM20.571,5.143L20.571,3.086L18.755,3.086L18.53,4.888L20.571,5.143ZM19.848,10.929L20.475,12.888L21.726,12.487L21.889,11.184L19.848,10.929ZM14.772,13.875L13.972,15.771L15.189,16.284L16.162,15.392L14.772,13.875ZM9.384,11.602L10.183,9.707L8.51,9.001L7.602,10.574L9.384,11.602ZM5.955,17.541L4.174,16.512L3.266,18.084L4.713,19.181L5.955,17.541ZM10.608,21.063L12.616,21.509L12.902,20.22L11.849,19.423L10.608,21.063ZM10.608,26.937L11.849,28.577L12.902,27.779L12.616,26.49L10.608,26.937ZM5.955,30.459L4.713,28.819L3.266,29.915L4.174,31.488L5.955,30.459ZM9.384,36.398L7.602,37.426L8.51,38.999L10.183,38.293L9.384,36.398ZM14.772,34.125L16.162,32.608L15.189,31.716L13.972,32.229L14.772,34.125ZM19.848,37.071L21.889,36.816L21.726,35.513L20.475,35.112L19.848,37.071ZM20.571,42.857L18.53,43.112L18.755,44.914L20.571,44.914L20.571,42.857ZM27.428,42.857L27.428,44.914L29.244,44.914L29.469,43.112L27.428,42.857ZM28.152,37.071L27.524,35.112L26.273,35.513L26.11,36.816L28.152,37.071ZM33.228,34.125L34.027,32.229L32.811,31.716L31.837,32.608L33.228,34.125ZM38.616,36.398L37.816,38.293L39.489,38.999L40.397,37.426L38.616,36.398ZM42.044,30.459L43.826,31.488L44.734,29.915L43.286,28.819L42.044,30.459ZM37.392,26.937L35.382,26.494L35.099,27.781L36.15,28.577L37.392,26.937ZM39.771,23.996C39.769,22.861 39.645,21.73 39.401,20.621L35.382,21.505C35.563,22.326 35.655,23.164 35.657,24.004L39.771,23.996ZM38.633,22.703L43.286,19.181L40.802,15.901L36.15,19.423L38.633,22.703ZM43.826,16.512L40.397,10.574L36.834,12.631L40.263,18.569L43.826,16.512ZM37.816,9.707L32.428,11.98L34.027,15.771L39.415,13.498L37.816,9.707ZM34.618,12.359C32.939,10.82 30.947,9.664 28.779,8.969L27.524,12.888C29.126,13.401 30.598,14.255 31.837,15.392L34.618,12.359ZM30.193,10.673L29.469,4.888L25.387,5.398L26.11,11.184L30.193,10.673ZM27.428,3.086L20.571,3.086L20.571,7.2L27.428,7.2L27.428,3.086ZM18.53,4.888L17.806,10.673L21.889,11.184L22.612,5.398L18.53,4.888ZM19.22,8.969C17.052,9.664 15.06,10.82 13.381,12.359L16.162,15.392C17.402,14.255 18.873,13.401 20.475,12.888L19.22,8.969ZM15.571,11.98L10.183,9.707L8.584,13.498L13.972,15.771L15.571,11.98ZM7.602,10.574L4.174,16.512L7.737,18.569L11.165,12.631L7.602,10.574ZM4.713,19.181L9.366,22.703L11.849,19.423L7.197,15.901L4.713,19.181ZM8.599,20.617C8.105,22.845 8.105,25.155 8.599,27.383L12.616,26.49C12.251,24.85 12.251,23.15 12.616,21.509L8.599,20.617ZM9.366,25.296L4.713,28.819L7.197,32.099L11.849,28.577L9.366,25.296ZM4.174,31.488L7.602,37.426L11.165,35.369L7.737,29.431L4.174,31.488ZM10.183,38.293L15.571,36.02L13.972,32.229L8.584,34.502L10.183,38.293ZM13.381,35.641C15.06,37.179 17.052,38.336 19.22,39.03L20.475,35.112C18.873,34.599 17.402,33.745 16.162,32.608L13.381,35.641ZM17.806,37.327L18.53,43.112L22.612,42.602L21.889,36.816L17.806,37.327ZM20.571,44.914L27.428,44.914L27.428,40.8L20.571,40.8L20.571,44.914ZM29.469,43.112L30.193,37.327L26.11,36.816L25.387,42.602L29.469,43.112ZM28.779,39.03C30.947,38.336 32.939,37.179 34.618,35.641L31.837,32.608C30.598,33.745 29.126,34.599 27.524,35.112L28.779,39.03ZM32.428,36.02L37.816,38.293L39.415,34.502L34.027,32.229L32.428,36.02ZM40.397,37.426L43.826,31.488L40.263,29.431L36.834,35.369L40.397,37.426ZM43.286,28.819L38.633,25.296L36.15,28.577L40.802,32.099L43.286,28.819ZM39.401,27.379C39.645,26.27 39.769,25.139 39.771,24.004L35.657,23.996C35.655,24.836 35.563,25.674 35.382,26.494L39.401,27.379Z" transform="rotate(0 24 24)" fill="#565D6D"/>
</svg>
