<svg width="54" height="52" viewBox="0 0 54 52" fill="none" xmlns="http://www.w3.org/2000/svg" xmlns:xlink="http://www.w3.org/1999/xlink">
<path d="M29.923,25.722C29.923,27.584 28.414,29.094 26.552,29.094L26.552,33.588C30.896,33.588 34.418,30.067 34.418,25.722L29.923,25.722ZM26.552,29.094C24.69,29.094 23.181,27.584 23.181,25.722L18.686,25.722C18.686,30.067 22.208,33.588 26.552,33.588L26.552,29.094ZM23.181,25.722C23.181,23.861 24.69,22.351 26.552,22.351L26.552,17.856C22.208,17.856 18.686,21.378 18.686,25.722L23.181,25.722ZM26.552,22.351C28.414,22.351 29.923,23.861 29.923,25.722L34.418,25.722C34.418,21.378 30.896,17.856 26.552,17.856L26.552,22.351Z" transform="rotate(0 26.552 25.722)" fill="#565D6D"/>
<path d="M41.535,25.722L43.783,25.727L43.783,25.718L41.535,25.722ZM41.183,22.514L39.827,20.722L38.679,21.591L38.988,22.997L41.183,22.514ZM46.266,18.665L47.623,20.457L49.204,19.26L48.212,17.542L46.266,18.665ZM42.52,12.178L44.467,11.054L43.475,9.336L41.647,10.107L42.52,12.178ZM36.634,14.661L35.115,16.318L36.179,17.293L37.508,16.732L36.634,14.661ZM31.089,11.442L28.858,11.721L29.037,13.144L30.403,13.582L31.089,11.442ZM30.298,5.121L32.528,4.842L32.282,2.874L30.298,2.874L30.298,5.121ZM22.807,5.121L22.807,2.874L20.823,2.874L20.577,4.842L22.807,5.121ZM22.017,11.442L22.702,13.582L24.069,13.144L24.247,11.721L22.017,11.442ZM16.471,14.661L15.597,16.732L16.926,17.293L17.99,16.318L16.471,14.661ZM10.585,12.178L11.458,10.107L9.63,9.336L8.638,11.054L10.585,12.178ZM6.839,18.665L4.893,17.542L3.901,19.26L5.482,20.457L6.839,18.665ZM11.922,22.514L14.116,23.002L14.429,21.593L13.278,20.722L11.922,22.514ZM11.922,28.931L13.278,30.722L14.429,29.852L14.116,28.443L11.922,28.931ZM6.839,32.779L5.482,30.988L3.901,32.185L4.893,33.903L6.839,32.779ZM10.585,39.267L8.638,40.391L9.63,42.109L11.458,41.338L10.585,39.267ZM16.471,36.784L17.99,35.127L16.926,34.152L15.597,34.713L16.471,36.784ZM22.017,40.003L24.247,39.724L24.069,38.3L22.702,37.863L22.017,40.003ZM22.807,46.324L20.577,46.603L20.823,48.571L22.807,48.571L22.807,46.324ZM30.298,46.324L30.298,48.571L32.282,48.571L32.528,46.603L30.298,46.324ZM31.089,40.003L30.403,37.863L29.037,38.3L28.858,39.724L31.089,40.003ZM36.634,36.784L37.508,34.713L36.179,34.152L35.115,35.127L36.634,36.784ZM42.52,39.267L41.647,41.338L43.475,42.109L44.467,40.391L42.52,39.267ZM46.266,32.779L48.212,33.903L49.204,32.185L47.623,30.988L46.266,32.779ZM41.183,28.931L38.988,28.448L38.679,29.853L39.827,30.722L41.183,28.931ZM43.783,25.718C43.78,24.478 43.645,23.242 43.378,22.031L38.988,22.997C39.186,23.894 39.286,24.809 39.288,25.727L43.783,25.718ZM42.54,24.306L47.623,20.457L44.91,16.874L39.827,20.722L42.54,24.306ZM48.212,17.542L44.467,11.054L40.574,13.302L44.32,19.789L48.212,17.542ZM41.647,10.107L35.76,12.591L37.508,16.732L43.394,14.249L41.647,10.107ZM38.153,13.005C36.319,11.324 34.143,10.06 31.774,9.302L30.403,13.582C32.153,14.143 33.761,15.076 35.115,16.318L38.153,13.005ZM33.319,11.163L32.528,4.842L28.068,5.4L28.858,11.721L33.319,11.163ZM30.298,2.874L22.807,2.874L22.807,7.368L30.298,7.368L30.298,2.874ZM20.577,4.842L19.786,11.163L24.247,11.721L25.037,5.4L20.577,4.842ZM21.331,9.302C18.962,10.06 16.786,11.324 14.952,13.005L17.99,16.318C19.344,15.076 20.952,14.143 22.702,13.582L21.331,9.302ZM17.345,12.591L11.458,10.107L9.711,14.249L15.597,16.732L17.345,12.591ZM8.638,11.054L4.893,17.542L8.785,19.789L12.531,13.302L8.638,11.054ZM5.482,20.457L10.565,24.306L13.278,20.722L8.196,16.874L5.482,20.457ZM9.728,22.027C9.187,24.461 9.187,26.984 9.728,29.418L14.116,28.443C13.718,26.651 13.718,24.794 14.116,23.002L9.728,22.027ZM10.565,27.139L5.482,30.988L8.196,34.571L13.278,30.722L10.565,27.139ZM4.893,33.903L8.638,40.391L12.531,38.143L8.785,31.656L4.893,33.903ZM11.458,41.338L17.345,38.854L15.597,34.713L9.711,37.196L11.458,41.338ZM14.952,38.44C16.786,40.121 18.962,41.384 21.331,42.143L22.702,37.863C20.952,37.302 19.344,36.369 17.99,35.127L14.952,38.44ZM19.786,40.282L20.577,46.603L25.037,46.045L24.247,39.724L19.786,40.282ZM22.807,48.571L30.298,48.571L30.298,44.076L22.807,44.076L22.807,48.571ZM32.528,46.603L33.319,40.282L28.858,39.724L28.068,46.045L32.528,46.603ZM31.774,42.143C34.143,41.384 36.319,40.121 38.153,38.44L35.115,35.127C33.761,36.369 32.153,37.302 30.403,37.863L31.774,42.143ZM35.76,38.854L41.647,41.338L43.394,37.196L37.508,34.713L35.76,38.854ZM44.467,40.391L48.212,33.903L44.32,31.656L40.574,38.143L44.467,40.391ZM47.623,30.988L42.54,27.139L39.827,30.722L44.91,34.571L47.623,30.988ZM43.378,29.414C43.645,28.203 43.78,26.967 43.783,25.727L39.288,25.718C39.286,26.636 39.186,27.551 38.988,28.448L43.378,29.414Z" transform="rotate(0 26.553 25.722)" fill="#565D6D"/>
</svg>
