<svg width="56" height="56" viewBox="0 0 56 56" fill="none" xmlns="http://www.w3.org/2000/svg" xmlns:xlink="http://www.w3.org/1999/xlink">
<path d="M31.6,28C31.6,29.988 29.988,31.6 28,31.6L28,36.4C32.639,36.4 36.4,32.639 36.4,28L31.6,28ZM28,31.6C26.012,31.6 24.4,29.988 24.4,28L19.6,28C19.6,32.639 23.361,36.4 28,36.4L28,31.6ZM24.4,28C24.4,26.012 26.012,24.4 28,24.4L28,19.6C23.361,19.6 19.6,23.361 19.6,28L24.4,28ZM28,24.4C29.988,24.4 31.6,26.012 31.6,28L36.4,28C36.4,23.361 32.639,19.6 28,19.6L28,24.4Z" transform="rotate(0 28 28)" fill="#8E94A0"/>
<path d="M44,28L46.4,28.005L46.4,27.995L44,28ZM43.624,24.574L42.175,22.661L40.95,23.588L41.28,25.09L43.624,24.574ZM49.052,20.464L50.501,22.377L52.19,21.099L51.131,19.264L49.052,20.464ZM45.052,13.536L47.131,12.336L46.071,10.501L44.119,11.325L45.052,13.536ZM38.766,16.188L37.144,17.957L38.28,18.998L39.699,18.399L38.766,16.188ZM32.844,12.75L30.463,13.048L30.653,14.568L32.112,15.036L32.844,12.75ZM32,6L34.382,5.702L34.119,3.6L32,3.6L32,6ZM24,6L24,3.6L21.882,3.6L21.619,5.702L24,6ZM23.156,12.75L23.888,15.036L25.348,14.568L25.538,13.048L23.156,12.75ZM17.234,16.188L16.301,18.399L17.721,18.998L18.856,17.957L17.234,16.188ZM10.948,13.536L11.881,11.325L9.929,10.501L8.87,12.336L10.948,13.536ZM6.948,20.464L4.87,19.264L3.811,21.099L5.499,22.377L6.948,20.464ZM12.376,24.574L14.719,25.094L15.053,23.591L13.825,22.661L12.376,24.574ZM12.376,31.426L13.825,33.339L15.053,32.409L14.719,30.906L12.376,31.426ZM6.948,35.536L5.499,33.623L3.811,34.901L4.87,36.736L6.948,35.536ZM10.948,42.464L8.87,43.664L9.929,45.499L11.881,44.675L10.948,42.464ZM17.234,39.812L18.856,38.043L17.721,37.002L16.301,37.601L17.234,39.812ZM23.156,43.25L25.538,42.952L25.348,41.432L23.888,40.964L23.156,43.25ZM24,50L21.619,50.298L21.882,52.4L24,52.4L24,50ZM32,50L32,52.4L34.119,52.4L34.382,50.298L32,50ZM32.844,43.25L32.112,40.964L30.653,41.432L30.463,42.952L32.844,43.25ZM38.766,39.812L39.699,37.601L38.28,37.002L37.144,38.043L38.766,39.812ZM45.052,42.464L44.119,44.675L46.071,45.499L47.131,43.664L45.052,42.464ZM49.052,35.536L51.131,36.736L52.19,34.901L50.501,33.623L49.052,35.536ZM43.624,31.426L41.28,30.91L40.95,32.411L42.175,33.339L43.624,31.426ZM46.4,27.995C46.397,26.671 46.253,25.351 45.968,24.058L41.28,25.09C41.491,26.047 41.598,27.025 41.6,28.005L46.4,27.995ZM45.073,26.487L50.501,22.377L47.603,18.551L42.175,22.661L45.073,26.487ZM51.131,19.264L47.131,12.336L42.974,14.736L46.974,21.664L51.131,19.264ZM44.119,11.325L37.833,13.977L39.699,18.399L45.985,15.747L44.119,11.325ZM40.388,14.419C38.43,12.624 36.106,11.275 33.576,10.464L32.112,15.036C33.981,15.634 35.698,16.631 37.144,17.957L40.388,14.419ZM35.226,12.452L34.382,5.702L29.619,6.298L30.463,13.048L35.226,12.452ZM32,3.6L24,3.6L24,8.4L32,8.4L32,3.6ZM21.619,5.702L20.775,12.452L25.538,13.048L26.382,6.298L21.619,5.702ZM22.424,10.464C19.894,11.275 17.57,12.624 15.612,14.419L18.856,17.957C20.303,16.631 22.019,15.634 23.888,15.036L22.424,10.464ZM18.167,13.977L11.881,11.325L10.015,15.747L16.301,18.399L18.167,13.977ZM8.87,12.336L4.87,19.264L9.027,21.664L13.027,14.736L8.87,12.336ZM5.499,22.377L10.927,26.487L13.825,22.661L8.397,18.551L5.499,22.377ZM10.033,24.054C9.456,26.653 9.456,29.347 10.033,31.946L14.719,30.906C14.294,28.992 14.294,27.008 14.719,25.094L10.033,24.054ZM10.927,29.513L5.499,33.623L8.397,37.449L13.825,33.339L10.927,29.513ZM4.87,36.736L8.87,43.664L13.027,41.264L9.027,34.336L4.87,36.736ZM11.881,44.675L18.167,42.023L16.301,37.601L10.015,40.253L11.881,44.675ZM15.612,41.581C17.57,43.376 19.894,44.725 22.424,45.536L23.888,40.964C22.019,40.366 20.303,39.369 18.856,38.043L15.612,41.581ZM20.775,43.548L21.619,50.298L26.382,49.702L25.538,42.952L20.775,43.548ZM24,52.4L32,52.4L32,47.6L24,47.6L24,52.4ZM34.382,50.298L35.226,43.548L30.463,42.952L29.619,49.702L34.382,50.298ZM33.576,45.536C36.106,44.725 38.43,43.376 40.388,41.581L37.144,38.043C35.698,39.369 33.981,40.366 32.112,40.964L33.576,45.536ZM37.833,42.023L44.119,44.675L45.985,40.253L39.699,37.601L37.833,42.023ZM47.131,43.664L51.131,36.736L46.974,34.336L42.974,41.264L47.131,43.664ZM50.501,33.623L45.073,29.513L42.175,33.339L47.603,37.449L50.501,33.623ZM45.968,31.942C46.253,30.649 46.397,29.329 46.4,28.005L41.6,27.995C41.598,28.975 41.491,29.953 41.28,30.91L45.968,31.942Z" transform="rotate(0 28 28)" fill="#8E94A0"/>
</svg>
