<svg width="48" height="48" viewBox="0 0 48 48" fill="none" xmlns="http://www.w3.org/2000/svg" xmlns:xlink="http://www.w3.org/1999/xlink">
<path d="M26.753,24C26.753,25.704 25.371,27.086 23.667,27.086L23.667,31.2C27.643,31.2 30.867,27.976 30.867,24L26.753,24ZM23.667,27.086C21.963,27.086 20.581,25.704 20.581,24L16.467,24C16.467,27.976 19.69,31.2 23.667,31.2L23.667,27.086ZM20.581,24C20.581,22.296 21.963,20.914 23.667,20.914L23.667,16.8C19.69,16.8 16.467,20.024 16.467,24L20.581,24ZM23.667,20.914C25.371,20.914 26.753,22.296 26.753,24L30.867,24C30.867,20.024 27.643,16.8 23.667,16.8L23.667,20.914Z" transform="rotate(0 23.667 24)" fill="#565D6D"/>
<path d="M37.381,24L39.439,24.004L39.439,23.996L37.381,24ZM37.059,21.063L35.817,19.423L34.767,20.219L35.05,21.505L37.059,21.063ZM41.712,17.541L42.954,19.181L44.401,18.084L43.493,16.512L41.712,17.541ZM38.283,11.602L40.065,10.574L39.157,9.001L37.484,9.707L38.283,11.602ZM32.895,13.875L31.505,15.392L32.478,16.284L33.695,15.771L32.895,13.875ZM27.819,10.929L25.778,11.184L25.941,12.487L27.192,12.888L27.819,10.929ZM27.096,5.143L29.137,4.888L28.912,3.086L27.096,3.086L27.096,5.143ZM20.239,5.143L20.239,3.086L18.423,3.086L18.197,4.888L20.239,5.143ZM19.515,10.929L20.143,12.888L21.393,12.487L21.556,11.184L19.515,10.929ZM14.439,13.875L13.639,15.771L14.856,16.284L15.829,15.392L14.439,13.875ZM9.051,11.602L9.851,9.707L8.178,9.001L7.27,10.574L9.051,11.602ZM5.623,17.541L3.841,16.512L2.933,18.084L4.381,19.181L5.623,17.541ZM10.275,21.063L12.283,21.509L12.57,20.22L11.517,19.423L10.275,21.063ZM10.275,26.937L11.517,28.577L12.57,27.779L12.283,26.49L10.275,26.937ZM5.623,30.459L4.381,28.819L2.933,29.915L3.841,31.488L5.623,30.459ZM9.051,36.398L7.27,37.426L8.178,38.999L9.851,38.293L9.051,36.398ZM14.439,34.125L15.829,32.608L14.856,31.716L13.639,32.229L14.439,34.125ZM19.515,37.071L21.556,36.816L21.393,35.513L20.143,35.112L19.515,37.071ZM20.239,42.857L18.197,43.112L18.423,44.914L20.239,44.914L20.239,42.857ZM27.096,42.857L27.096,44.914L28.912,44.914L29.137,43.112L27.096,42.857ZM27.819,37.071L27.192,35.112L25.941,35.513L25.778,36.816L27.819,37.071ZM32.895,34.125L33.695,32.229L32.478,31.716L31.505,32.608L32.895,34.125ZM38.283,36.398L37.484,38.293L39.157,38.999L40.065,37.426L38.283,36.398ZM41.712,30.459L43.493,31.488L44.401,29.915L42.954,28.819L41.712,30.459ZM37.059,26.937L35.05,26.494L34.767,27.781L35.817,28.577L37.059,26.937ZM39.439,23.996C39.436,22.861 39.312,21.73 39.068,20.621L35.05,21.505C35.231,22.326 35.323,23.164 35.324,24.004L39.439,23.996ZM38.301,22.703L42.954,19.181L40.47,15.901L35.817,19.423L38.301,22.703ZM43.493,16.512L40.065,10.574L36.502,12.631L39.93,18.569L43.493,16.512ZM37.484,9.707L32.096,11.98L33.695,15.771L39.083,13.498L37.484,9.707ZM34.285,12.359C32.607,10.82 30.615,9.664 28.447,8.969L27.192,12.888C28.794,13.401 30.265,14.255 31.505,15.392L34.285,12.359ZM29.86,10.673L29.137,4.888L25.054,5.398L25.778,11.184L29.86,10.673ZM27.096,3.086L20.239,3.086L20.239,7.2L27.096,7.2L27.096,3.086ZM18.197,4.888L17.474,10.673L21.556,11.184L22.28,5.398L18.197,4.888ZM18.888,8.969C16.719,9.664 14.727,10.82 13.049,12.359L15.829,15.392C17.069,14.255 18.541,13.401 20.143,12.888L18.888,8.969ZM15.239,11.98L9.851,9.707L8.251,13.498L13.639,15.771L15.239,11.98ZM7.27,10.574L3.841,16.512L7.404,18.569L10.833,12.631L7.27,10.574ZM4.381,19.181L9.033,22.703L11.517,19.423L6.864,15.901L4.381,19.181ZM8.267,20.617C7.772,22.845 7.772,25.155 8.267,27.383L12.283,26.49C11.919,24.85 11.919,23.15 12.283,21.509L8.267,20.617ZM9.033,25.296L4.381,28.819L6.864,32.099L11.517,28.577L9.033,25.296ZM3.841,31.488L7.27,37.426L10.833,35.369L7.404,29.431L3.841,31.488ZM9.851,38.293L15.239,36.02L13.639,32.229L8.251,34.502L9.851,38.293ZM13.049,35.641C14.727,37.179 16.719,38.336 18.888,39.03L20.143,35.112C18.541,34.599 17.069,33.745 15.829,32.608L13.049,35.641ZM17.474,37.327L18.197,43.112L22.28,42.602L21.556,36.816L17.474,37.327ZM20.239,44.914L27.096,44.914L27.096,40.8L20.239,40.8L20.239,44.914ZM29.137,43.112L29.86,37.327L25.778,36.816L25.054,42.602L29.137,43.112ZM28.447,39.03C30.615,38.336 32.607,37.179 34.285,35.641L31.505,32.608C30.265,33.745 28.794,34.599 27.192,35.112L28.447,39.03ZM32.096,36.02L37.484,38.293L39.083,34.502L33.695,32.229L32.096,36.02ZM40.065,37.426L43.493,31.488L39.93,29.431L36.502,35.369L40.065,37.426ZM42.954,28.819L38.301,25.296L35.817,28.577L40.47,32.099L42.954,28.819ZM39.068,27.379C39.312,26.27 39.436,25.139 39.439,24.004L35.324,23.996C35.323,24.836 35.231,25.674 35.05,26.494L39.068,27.379Z" transform="rotate(0 23.667 24)" fill="#565D6D"/>
</svg>
