<svg width="56" height="56" viewBox="0 0 56 56" fill="none" xmlns="http://www.w3.org/2000/svg" xmlns:xlink="http://www.w3.org/1999/xlink">
<path d="M42.4,34L42.4,31.6L37.6,31.6L37.6,34L42.4,34ZM8,44L5.6,44L8,44ZM12,20L12,22.4L12,20ZM18,22.4L20.4,22.4L20.4,17.6L18,17.6L18,22.4ZM37.6,34L37.6,44L42.4,44L42.4,34L37.6,34ZM37.6,44C37.6,44.424 37.431,44.831 37.131,45.131L40.525,48.525C41.726,47.325 42.4,45.697 42.4,44L37.6,44ZM37.131,45.131C36.831,45.431 36.424,45.6 36,45.6L36,50.4C37.697,50.4 39.325,49.726 40.525,48.525L37.131,45.131ZM36,45.6L12,45.6L12,50.4L36,50.4L36,45.6ZM12,45.6C11.576,45.6 11.169,45.431 10.869,45.131L7.475,48.525C8.675,49.726 10.303,50.4 12,50.4L12,45.6ZM10.869,45.131C10.569,44.831 10.4,44.424 10.4,44L5.6,44C5.6,45.697 6.274,47.325 7.475,48.525L10.869,45.131ZM10.4,44L10.4,24L5.6,24L5.6,44L10.4,44ZM10.4,24C10.4,23.576 10.569,23.169 10.869,22.869L7.475,19.475C6.274,20.675 5.6,22.303 5.6,24L10.4,24ZM10.869,22.869C11.169,22.569 11.576,22.4 12,22.4L12,17.6C10.303,17.6 8.675,18.274 7.475,19.475L10.869,22.869ZM12,22.4L18,22.4L18,17.6L12,17.6L12,22.4Z" transform="rotate(0 24 34)" fill="#8E94A0"/>
<path d="M42,16L42,13.6L42,16ZM24.4,36C24.4,31.332 26.254,26.856 29.555,23.555L26.161,20.161C21.96,24.362 19.6,30.059 19.6,36L24.4,36ZM29.555,23.555C32.856,20.254 37.332,18.4 42,18.4L42,13.6C36.059,13.6 30.362,15.96 26.161,20.161L29.555,23.555ZM42,18.4L48,18.4L48,13.6L42,13.6L42,18.4Z" transform="rotate(0 35 26)" fill="#8E94A0"/>
<path d="M38.303,22.303L36.606,24L40,27.394L41.697,25.697L38.303,22.303ZM48,16L49.697,17.697L51.394,16L49.697,14.303L48,16ZM41.697,6.303L40,4.606L36.606,8L38.303,9.697L41.697,6.303ZM41.697,25.697L49.697,17.697L46.303,14.303L38.303,22.303L41.697,25.697ZM49.697,14.303L41.697,6.303L38.303,9.697L46.303,17.697L49.697,14.303Z" transform="rotate(0 44 16)" fill="#8E94A0"/>
</svg>
