<svg width="48" height="48" viewBox="0 0 48 48" fill="none" xmlns="http://www.w3.org/2000/svg" xmlns:xlink="http://www.w3.org/1999/xlink">
<path d="M24,21.943C20.403,21.943 17.486,19.026 17.486,15.429L13.372,15.429C13.372,21.298 18.131,26.057 24,26.057L24,21.943ZM17.486,15.429L17.486,13.714L13.372,13.714L13.372,15.429L17.486,15.429ZM17.486,13.714C17.486,10.117 20.403,7.2 24,7.2L24,3.086C18.131,3.086 13.372,7.845 13.372,13.714L17.486,13.714ZM24,7.2C27.597,7.2 30.514,10.117 30.514,13.714L34.629,13.714C34.629,7.845 29.869,3.086 24,3.086L24,7.2ZM30.514,13.714L30.514,15.429L34.629,15.429L34.629,13.714L30.514,13.714ZM30.514,15.429C30.514,19.026 27.597,21.943 24,21.943L24,26.057C29.869,26.057 34.629,21.298 34.629,15.429L30.514,15.429Z" transform="rotate(0 24 14.571)" fill="#6D31ED"/>
<path d="M36.113,32.661L35.571,34.645L35.573,34.645L36.113,32.661ZM11.887,32.661L12.427,34.645L12.428,34.645L11.887,32.661ZM6.857,42.857L4.8,42.857L4.8,44.914L6.857,44.914L6.857,42.857ZM41.143,42.857L41.143,44.914L43.2,44.914L43.2,42.857L41.143,42.857ZM43.2,39.271C43.2,35.267 40.536,31.733 36.653,30.676L35.573,34.645C37.645,35.21 39.086,37.103 39.086,39.271L43.2,39.271ZM36.655,30.676C33.319,29.766 28.689,28.8 24,28.8L24,32.914C28.177,32.914 32.413,33.783 35.571,34.645L36.655,30.676ZM24,28.8C19.311,28.8 14.68,29.766 11.345,30.676L12.428,34.645C15.587,33.783 19.823,32.914 24,32.914L24,28.8ZM11.346,30.676C7.463,31.733 4.8,35.267 4.8,39.271L8.914,39.271C8.914,37.103 10.354,35.21 12.427,34.645L11.346,30.676ZM4.8,39.271L4.8,42.857L8.914,42.857L8.914,39.271L4.8,39.271ZM6.857,44.914L41.143,44.914L41.143,40.8L6.857,40.8L6.857,44.914ZM43.2,42.857L43.2,39.271L39.086,39.271L39.086,42.857L43.2,42.857Z" transform="rotate(0 24 36.857)" fill="#6D31ED"/>
</svg>
