<svg width="28" height="28" viewBox="0 0 28 28" fill="none" xmlns="http://www.w3.org/2000/svg" xmlns:xlink="http://www.w3.org/1999/xlink">
<path d="M14,15C17.309,15 20,12.309 20,9L20,8C20,4.691 17.309,2 14,2C10.691,2 8,4.691 8,8L8,9C8,12.309 10.691,15 14,15Z" transform="rotate(0 14 8.5)" fill="#171A1F"/>
<path d="M21.322,17.981C16.618,16.678 11.383,16.678 6.678,17.981C4.513,18.581 3,20.564 3,22.805L3,26L25,26L25,22.805C25,20.564 23.487,18.581 21.322,17.981Z" transform="rotate(0 14 21.502)" fill="#171A1F"/>
</svg>
