<svg width="48" height="48" viewBox="0 0 48 48" fill="none" xmlns="http://www.w3.org/2000/svg" xmlns:xlink="http://www.w3.org/1999/xlink">
<path d="M23.5,21.943C19.903,21.943 16.986,19.026 16.986,15.429L12.872,15.429C12.872,21.298 17.631,26.057 23.5,26.057L23.5,21.943ZM16.986,15.429L16.986,13.714L12.872,13.714L12.872,15.429L16.986,15.429ZM16.986,13.714C16.986,10.117 19.903,7.2 23.5,7.2L23.5,3.086C17.631,3.086 12.872,7.845 12.872,13.714L16.986,13.714ZM23.5,7.2C27.097,7.2 30.014,10.117 30.014,13.714L34.129,13.714C34.129,7.845 29.369,3.086 23.5,3.086L23.5,7.2ZM30.014,13.714L30.014,15.429L34.129,15.429L34.129,13.714L30.014,13.714ZM30.014,15.429C30.014,19.026 27.097,21.943 23.5,21.943L23.5,26.057C29.369,26.057 34.129,21.298 34.129,15.429L30.014,15.429Z" transform="rotate(0 23.5 14.571)" fill="#565D6D"/>
<path d="M35.613,32.661L35.072,34.645L35.073,34.645L35.613,32.661ZM11.387,32.661L11.928,34.645L11.929,34.645L11.387,32.661ZM6.357,42.857L4.3,42.857L4.3,44.914L6.357,44.914L6.357,42.857ZM40.643,42.857L40.643,44.914L42.7,44.914L42.7,42.857L40.643,42.857ZM42.7,39.271C42.7,35.267 40.037,31.733 36.154,30.676L35.073,34.645C37.146,35.21 38.586,37.103 38.586,39.271L42.7,39.271ZM36.155,30.676C32.82,29.766 28.19,28.8 23.5,28.8L23.5,32.914C27.677,32.914 31.913,33.783 35.072,34.645L36.155,30.676ZM23.5,28.8C18.811,28.8 14.181,29.766 10.845,30.676L11.929,34.645C15.087,33.783 19.323,32.914 23.5,32.914L23.5,28.8ZM10.847,30.676C6.964,31.733 4.3,35.267 4.3,39.271L8.415,39.271C8.415,37.103 9.855,35.21 11.928,34.645L10.847,30.676ZM4.3,39.271L4.3,42.857L8.415,42.857L8.415,39.271L4.3,39.271ZM6.357,44.914L40.643,44.914L40.643,40.8L6.357,40.8L6.357,44.914ZM42.7,42.857L42.7,39.271L38.586,39.271L38.586,42.857L42.7,42.857Z" transform="rotate(0 23.5 36.857)" fill="#565D6D"/>
</svg>
