<svg width="32" height="32" viewBox="0 0 32 32" fill="none" xmlns="http://www.w3.org/2000/svg" xmlns:xlink="http://www.w3.org/1999/xlink">
<path d="M16,14.629C13.602,14.629 11.658,12.684 11.658,10.286L8.915,10.286C8.915,14.199 12.088,17.371 16,17.371L16,14.629ZM11.658,10.286L11.658,9.143L8.915,9.143L8.915,10.286L11.658,10.286ZM11.658,9.143C11.658,6.745 13.602,4.8 16,4.8L16,2.057C12.088,2.057 8.915,5.23 8.915,9.143L11.658,9.143ZM16,4.8C18.398,4.8 20.343,6.745 20.343,9.143L23.086,9.143C23.086,5.23 19.913,2.057 16,2.057L16,4.8ZM20.343,9.143L20.343,10.286L23.086,10.286L23.086,9.143L20.343,9.143ZM20.343,10.286C20.343,12.684 18.398,14.629 16,14.629L16,17.371C19.913,17.371 23.086,14.199 23.086,10.286L20.343,10.286Z" transform="rotate(0 16 9.714)" fill="#171A1F"/>
<path d="M24.075,21.774L23.714,23.097L23.715,23.097L24.075,21.774ZM7.924,21.774L8.285,23.097L8.286,23.097L7.924,21.774ZM4.571,28.571L3.2,28.571L3.2,29.943L4.571,29.943L4.571,28.571ZM27.428,28.571L27.428,29.943L28.8,29.943L28.8,28.571L27.428,28.571ZM28.8,26.181C28.8,23.511 27.024,21.155 24.436,20.45L23.715,23.097C25.097,23.473 26.057,24.735 26.057,26.181L28.8,26.181ZM24.436,20.451C22.213,19.844 19.126,19.2 16,19.2L16,21.943C18.785,21.943 21.609,22.522 23.714,23.097L24.436,20.451ZM16,19.2C12.874,19.2 9.787,19.844 7.563,20.451L8.286,23.097C10.391,22.522 13.215,21.943 16,21.943L16,19.2ZM7.564,20.45C4.976,21.155 3.2,23.511 3.2,26.181L5.943,26.181C5.943,24.735 6.903,23.473 8.285,23.097L7.564,20.45ZM3.2,26.181L3.2,28.571L5.943,28.571L5.943,26.181L3.2,26.181ZM4.571,29.943L27.428,29.943L27.428,27.2L4.571,27.2L4.571,29.943ZM28.8,28.571L28.8,26.181L26.057,26.181L26.057,28.571L28.8,28.571Z" transform="rotate(0 16 24.571)" fill="#171A1F"/>
</svg>
