<svg width="36" height="34" viewBox="0 0 36 34" fill="none" xmlns="http://www.w3.org/2000/svg" xmlns:xlink="http://www.w3.org/1999/xlink">
<path d="M16.018,0.247C16.859,-1.346 19.14,-1.346 19.98,0.247L23.805,7.495C24.129,8.109 24.72,8.539 25.404,8.657L33.48,10.054C35.254,10.361 35.959,12.531 34.704,13.822L28.992,19.7C28.508,20.198 28.282,20.892 28.381,21.579L29.548,29.692C29.804,31.474 27.958,32.815 26.342,32.02L18.988,28.404C18.364,28.098 17.634,28.098 17.011,28.404L9.656,32.02C8.04,32.815 6.195,31.474 6.451,29.692L7.618,21.579C7.717,20.892 7.491,20.198 7.007,19.7L1.295,13.822C0.04,12.531 0.745,10.361 2.519,10.054L10.595,8.657C11.279,8.539 11.87,8.109 12.194,7.495L16.018,0.247Z" transform="rotate(0 17.999 15.653)" fill="url(#pf_0_1_1035)"/>
<defs>
<linearGradient id="pf_0_1_1035" x1="0.659" y1="-0.948" x2="35.34" y2="-0.948" gradientUnits="userSpaceOnUse">
<stop offset="0.5" stop-color="#F3C63F"/>
<stop offset="0.5" stop-color="#F3C63F"/>
</linearGradient>
</defs>
</svg>
