<svg width="40" height="40" viewBox="0 0 40 40" fill="none" xmlns="http://www.w3.org/2000/svg" xmlns:xlink="http://www.w3.org/1999/xlink">
<path d="M39.2,20C39.199,16.331 38.147,12.739 36.169,9.649C34.19,6.559 31.368,4.101 28.035,2.565C24.703,1.03 21,0.481 17.366,0.985C13.732,1.488 10.317,3.022 7.528,5.405C4.738,7.789 2.69,10.921 1.626,14.433C0.561,17.944 0.525,21.687 1.522,25.218C2.518,28.749 4.506,31.921 7.249,34.358C9.992,36.794 13.376,38.394 17,38.967L17,25.55L12.125,25.55L12.125,20L17,20L17,15.77C17,10.958 19.867,8.3 24.251,8.3C25.691,8.32 27.128,8.445 28.55,8.674L28.55,13.4L26.128,13.4C25.716,13.345 25.296,13.384 24.9,13.513C24.505,13.643 24.143,13.86 23.843,14.148C23.542,14.436 23.31,14.788 23.165,15.178C23.019,15.568 22.962,15.985 23,16.4L23,20L28.325,20L27.473,25.55L23,25.55L23,38.967C27.516,38.253 31.63,35.95 34.599,32.473C37.569,28.996 39.201,24.573 39.2,20Z" transform="rotate(0 20 19.885)" fill="#000000"/>
</svg>
