<svg width="24" height="20" viewBox="0 0 24 20" fill="none" xmlns="http://www.w3.org/2000/svg" xmlns:xlink="http://www.w3.org/1999/xlink">
<path d="M21,0L3,0C2.204,0 1.441,0.316 0.879,0.879C0.316,1.441 0,2.204 0,3L0,17C0,17.796 0.316,18.559 0.879,19.121C1.441,19.684 2.204,20 3,20L21,20C21.796,20 22.559,19.684 23.121,19.121C23.684,18.559 24,17.796 24,17L24,3C24,2.204 23.684,1.441 23.121,0.879C22.559,0.316 21.796,0 21,0ZM20.7,4.8L12.7,11.8C12.482,11.912 12.244,11.98 12,12C11.756,11.98 11.518,11.912 11.3,11.8L3.3,4.8C3.101,4.628 2.979,4.383 2.96,4.121C2.941,3.858 3.028,3.599 3.2,3.4C3.372,3.201 3.617,3.079 3.879,3.06C4.142,3.041 4.401,3.128 4.6,3.3L11.9,9.7L19.2,3.3C19.297,3.212 19.411,3.145 19.535,3.102C19.659,3.059 19.791,3.042 19.921,3.051C20.052,3.061 20.18,3.096 20.296,3.156C20.413,3.216 20.516,3.299 20.6,3.4C20.711,3.477 20.803,3.577 20.87,3.694C20.936,3.811 20.976,3.942 20.986,4.076C20.995,4.21 20.975,4.345 20.925,4.47C20.876,4.596 20.799,4.708 20.7,4.8Z" transform="rotate(0 12 10)" fill="#171A1F"/>
</svg>
