<svg width="36" height="36" viewBox="0 0 36 36" fill="none" xmlns="http://www.w3.org/2000/svg" xmlns:xlink="http://www.w3.org/1999/xlink">
<path d="M33.6,0L2.4,0C1.763,0 1.153,0.253 0.703,0.703C0.253,1.153 0,1.763 0,2.4L0,33.6C0,34.237 0.253,34.847 0.703,35.297C1.153,35.747 1.763,36 2.4,36L33.6,36C34.237,36 34.847,35.747 35.297,35.297C35.747,34.847 36,34.237 36,33.6L36,2.4C36,1.763 35.747,1.153 35.297,0.703C34.847,0.253 34.237,0 33.6,0ZM10.664,30.713L5.249,30.713L5.249,13.5L10.664,13.5L10.664,30.713ZM7.956,11.137C7.333,11.135 6.725,10.949 6.209,10.602C5.692,10.254 5.29,9.762 5.053,9.186C4.816,8.61 4.755,7.977 4.877,7.367C5,6.756 5.301,6.196 5.742,5.756C6.183,5.317 6.744,5.018 7.355,4.897C7.965,4.776 8.598,4.839 9.173,5.078C9.748,5.317 10.24,5.72 10.585,6.238C10.931,6.756 11.116,7.365 11.116,7.987C11.116,8.402 11.034,8.812 10.875,9.195C10.716,9.578 10.484,9.926 10.19,10.218C9.896,10.511 9.548,10.743 9.165,10.901C8.781,11.058 8.371,11.139 7.956,11.137ZM30.745,30.713L25.44,30.713L25.44,22.387C25.44,20.363 25.44,17.887 22.62,17.887C19.8,17.887 19.46,20.026 19.46,22.274L19.46,30.826L14.16,30.826L14.16,13.5L19.123,13.5L19.123,15.863L19.236,15.863C19.748,14.978 20.491,14.249 21.385,13.753C22.279,13.258 23.291,13.015 24.313,13.05C29.729,13.05 30.744,16.65 30.744,21.263L30.745,30.713Z" transform="rotate(0 18 18)" fill="#000000"/>
</svg>
