<svg width="30" height="32" viewBox="0 0 30 32" fill="none" xmlns="http://www.w3.org/2000/svg" xmlns:xlink="http://www.w3.org/1999/xlink">
<path d="M14.679,30.2C6.285,30.2 -0.521,23.395 -0.521,15C-0.521,6.605 6.285,-0.2 14.679,-0.2C23.074,-0.2 29.879,6.605 29.879,15C29.879,23.395 23.074,30.2 14.679,30.2ZM7.079,16.52C7.079,18.536 7.88,20.469 9.305,21.894C10.731,23.319 12.664,24.12 14.679,24.12C16.695,24.12 18.628,23.319 20.053,21.894C21.479,20.469 22.279,18.536 22.279,16.52L19.239,16.52C19.239,17.729 18.759,18.889 17.904,19.744C17.049,20.6 15.889,21.08 14.679,21.08C13.47,21.08 12.31,20.6 11.455,19.744C10.6,18.889 10.119,17.729 10.119,16.52L7.079,16.52ZM8.599,13.48C9.204,13.48 9.784,13.24 10.212,12.812C10.639,12.385 10.879,11.805 10.879,11.2C10.879,10.595 10.639,10.015 10.212,9.588C9.784,9.16 9.204,8.92 8.599,8.92C7.995,8.92 7.415,9.16 6.987,9.588C6.56,10.015 6.319,10.595 6.319,11.2C6.319,11.805 6.56,12.385 6.987,12.812C7.415,13.24 7.995,13.48 8.599,13.48ZM20.759,13.48C21.364,13.48 21.944,13.24 22.372,12.812C22.799,12.385 23.039,11.805 23.039,11.2C23.039,10.595 22.799,10.015 22.372,9.588C21.944,9.16 21.364,8.92 20.759,8.92C20.155,8.92 19.575,9.16 19.147,9.588C18.72,10.015 18.479,10.595 18.479,11.2C18.479,11.805 18.72,12.385 19.147,12.812C19.575,13.24 20.155,13.48 20.759,13.48Z" transform="rotate(0 14.679 15)" fill="#6D31ED"/>
</svg>
