<svg width="42" height="32" viewBox="0 0 42 32" fill="none" xmlns="http://www.w3.org/2000/svg" xmlns:xlink="http://www.w3.org/1999/xlink">
<path d="M8.157,9.371L6.1,9.371L6.1,13.486L8.157,13.486L8.157,9.371ZM37.643,11.429L39.66,11.832L40.152,9.371L37.643,9.371L37.643,11.429ZM34.766,25.815L36.783,26.218L36.783,26.218L34.766,25.815ZM9.818,25.595L11.857,25.325L11.857,25.324L9.818,25.595ZM6.785,2.857L8.825,2.585L8.586,0.8L6.785,0.8L6.785,2.857ZM1.643,0.8L-0.415,0.8L-0.415,4.914L1.643,4.914L1.643,0.8ZM8.157,13.486L37.643,13.486L37.643,9.371L8.157,9.371L8.157,13.486ZM35.625,11.025L32.749,25.412L36.783,26.218L39.66,11.832L35.625,11.025ZM32.749,25.411C32.621,26.053 32.057,26.514 31.404,26.514L31.404,30.629C34.019,30.629 36.27,28.783 36.783,26.218L32.749,25.411ZM31.404,26.514L13.216,26.514L13.216,30.629L31.404,30.629L31.404,26.514ZM13.216,26.514C12.529,26.514 11.948,26.005 11.857,25.325L7.779,25.866C8.141,28.594 10.467,30.629 13.216,30.629L13.216,26.514ZM11.857,25.324L8.825,2.585L4.746,3.129L7.779,25.867L11.857,25.324ZM6.785,0.8L1.643,0.8L1.643,4.914L6.785,4.914L6.785,0.8Z" transform="rotate(0 19.643 15.714)" fill="#565D6D"/>
</svg>
