<svg width="26" height="24" viewBox="0 0 26 24" fill="none" xmlns="http://www.w3.org/2000/svg" xmlns:xlink="http://www.w3.org/1999/xlink">
<path d="M24.506,9.818L13.052,9.818L13.052,14.727L19.544,14.727C18.504,18 15.944,19.091 13,19.091C11.859,19.093 10.735,18.819 9.723,18.293C8.711,17.768 7.84,17.006 7.185,16.072C6.53,15.138 6.11,14.06 5.961,12.929C5.811,11.799 5.937,10.649 6.326,9.577C6.716,8.505 7.359,7.543 8.2,6.772C9.041,6.001 10.055,5.445 11.157,5.15C12.259,4.855 13.415,4.83 14.529,5.078C15.642,5.325 16.68,5.837 17.553,6.571L21.12,3.174C19.684,1.85 17.946,0.898 16.058,0.399C14.17,-0.101 12.188,-0.131 10.286,0.309C8.383,0.749 6.616,1.647 5.139,2.925C3.662,4.202 2.519,5.821 1.81,7.641C1.101,9.46 0.846,11.426 1.068,13.366C1.291,15.306 1.983,17.163 3.086,18.775C4.188,20.387 5.668,21.705 7.395,22.616C9.123,23.527 11.047,24.002 13,24C19.617,24 25.598,19.636 24.506,9.818Z" transform="rotate(0 12.813 12)" fill="#171A1F"/>
</svg>
