<svg width="30" height="28" viewBox="0 0 30 28" fill="none" xmlns="http://www.w3.org/2000/svg" xmlns:xlink="http://www.w3.org/1999/xlink">
<path d="M12.982,0.934C13.359,0.028 14.642,0.028 15.019,0.934L18.117,8.383C18.275,8.764 18.635,9.025 19.047,9.058L27.088,9.703C28.066,9.781 28.462,11.002 27.717,11.64L21.591,16.888C21.277,17.157 21.139,17.579 21.235,17.981L23.107,25.828C23.335,26.782 22.297,27.536 21.46,27.025L14.575,22.82C14.222,22.605 13.779,22.605 13.426,22.82L6.541,27.025C5.704,27.536 4.666,26.782 4.894,25.828L6.765,17.981C6.861,17.579 6.724,17.157 6.41,16.888L0.283,11.64C-0.462,11.002 -0.065,9.781 0.913,9.703L8.954,9.058C9.366,9.025 9.725,8.764 9.884,8.383L12.982,0.934Z" transform="rotate(0 14 13.722)" fill="url(#pf_0_1_907)"/>
<defs>
<linearGradient id="pf_0_1_907" x1="-0.104" y1="0.255" x2="28.104" y2="0.255" gradientUnits="userSpaceOnUse">
<stop offset="0.5" stop-color="#F3C63F"/>
<stop offset="0.5" stop-color="#F3C63F"/>
</linearGradient>
</defs>
</svg>
