<svg width="28" height="28" viewBox="0 0 28 28" fill="none" xmlns="http://www.w3.org/2000/svg" xmlns:xlink="http://www.w3.org/1999/xlink">
<path d="M26.571,11.714L27.942,11.714L27.942,10.343L26.571,10.343L26.571,11.714ZM16.285,11.714L14.913,11.714L14.913,13.086L16.285,13.086L16.285,11.714ZM16.285,1.429L17.656,1.429L17.656,0.057L16.285,0.057L16.285,1.429ZM11.713,1.429L11.713,0.057L10.342,0.057L10.342,1.429L11.713,1.429ZM11.713,11.714L11.713,13.086L13.085,13.086L13.085,11.714L11.713,11.714ZM1.428,11.714L1.428,10.343L0.056,10.343L0.056,11.714L1.428,11.714ZM1.428,16.286L0.056,16.286L0.056,17.657L1.428,17.657L1.428,16.286ZM11.713,16.286L13.085,16.286L13.085,14.914L11.713,14.914L11.713,16.286ZM11.713,26.571L10.342,26.571L10.342,27.943L11.713,27.943L11.713,26.571ZM16.285,26.571L16.285,27.943L17.656,27.943L17.656,26.571L16.285,26.571ZM16.285,16.286L16.285,14.914L14.913,14.914L14.913,16.286L16.285,16.286ZM26.571,16.286L26.571,17.657L27.942,17.657L27.942,16.286L26.571,16.286ZM26.571,10.343L16.285,10.343L16.285,13.086L26.571,13.086L26.571,10.343ZM17.656,11.714L17.656,1.429L14.913,1.429L14.913,11.714L17.656,11.714ZM16.285,0.057L11.713,0.057L11.713,2.8L16.285,2.8L16.285,0.057ZM10.342,1.429L10.342,11.714L13.085,11.714L13.085,1.429L10.342,1.429ZM11.713,10.343L1.428,10.343L1.428,13.086L11.713,13.086L11.713,10.343ZM0.056,11.714L0.056,16.286L2.799,16.286L2.799,11.714L0.056,11.714ZM1.428,17.657L11.713,17.657L11.713,14.914L1.428,14.914L1.428,17.657ZM10.342,16.286L10.342,26.571L13.085,26.571L13.085,16.286L10.342,16.286ZM11.713,27.943L16.285,27.943L16.285,25.2L11.713,25.2L11.713,27.943ZM17.656,26.571L17.656,16.286L14.913,16.286L14.913,26.571L17.656,26.571ZM16.285,17.657L26.571,17.657L26.571,14.914L16.285,14.914L16.285,17.657ZM27.942,16.286L27.942,11.714L25.199,11.714L25.199,16.286L27.942,16.286Z" transform="rotate(0 13.999 14)" fill="#FFFFFF"/>
</svg>
