<svg width="24" height="30" viewBox="0 0 24 30" fill="none" xmlns="http://www.w3.org/2000/svg" xmlns:xlink="http://www.w3.org/1999/xlink">
<path d="M3.03,1.385L0.835,2.355L2.775,6.745L4.97,5.775L3.03,1.385ZM19.296,5.402L21.338,4.141L21.338,4.14L19.296,5.402ZM7.6,26L7.6,28.4L12.4,28.4L12.4,26L7.6,26ZM4.97,5.775C7.416,4.694 10.212,4.231 12.593,4.454C15.032,4.683 16.576,5.566 17.254,6.664L21.338,4.14C19.544,1.238 16.235,-0.025 13.041,-0.325C9.79,-0.63 6.174,-0.005 3.03,1.385L4.97,5.775ZM17.254,6.663C18.816,9.191 18.091,12.574 14.274,15.809L17.378,19.471C22.033,15.526 24.716,9.609 21.338,4.141L17.254,6.663ZM14.274,15.809C10.112,19.337 7.6,21.944 7.6,26L12.4,26C12.4,24.412 13.068,23.123 17.378,19.471L14.274,15.809Z" transform="rotate(0 12.219 14)" fill="#8E94A0"/>
</svg>
