<svg width="28" height="28" viewBox="0 0 28 28" fill="none" xmlns="http://www.w3.org/2000/svg" xmlns:xlink="http://www.w3.org/1999/xlink">
<path d="M10.533,12L16.893,0.987C14.927,0.547 12.886,0.56 10.925,1.025C8.964,1.489 7.134,2.392 5.573,3.667L10.453,12.133L10.533,12ZM26.72,10C25.493,6.107 22.52,2.987 18.72,1.547L13.84,10L26.72,10ZM27.066,11.333L17.08,11.333L17.466,12L23.813,23C26.081,20.552 27.338,17.337 27.333,14C27.333,13.08 27.24,12.2 27.066,11.333ZM9.386,14L4.186,5C2.758,6.547 1.718,8.412 1.152,10.441C0.586,12.469 0.511,14.603 0.933,16.667L10.92,16.667L9.386,14ZM1.28,18C2.506,21.893 5.48,25.013 9.28,26.453L14.16,18L1.28,18ZM16.306,18L11.106,27.013C13.073,27.453 15.114,27.439 17.075,26.975C19.036,26.511 20.865,25.608 22.426,24.333L17.546,15.867L16.306,18Z" transform="rotate(0 13.999 14)" fill="#6D31ED"/>
</svg>
