<svg width="32" height="32" viewBox="0 0 32 32" fill="none" xmlns="http://www.w3.org/2000/svg" xmlns:xlink="http://www.w3.org/1999/xlink">
<path d="M5.999,4L25.999,4L15.979,16.6L5.999,4ZM0.499,3.22C4.539,8.4 11.999,18 11.999,18L11.999,30C11.999,31.1 12.899,32 13.999,32L17.999,32C19.099,32 19.999,31.1 19.999,30L19.999,18C19.999,18 27.439,8.4 31.479,3.22C31.709,2.925 31.85,2.571 31.888,2.199C31.926,1.827 31.859,1.452 31.695,1.117C31.53,0.781 31.274,0.499 30.957,0.301C30.64,0.104 30.273,-0.001 29.899,0L2.079,0C0.419,0 -0.521,1.9 0.499,3.22Z" transform="rotate(0 15.987 16)" fill="#6D31ED"/>
</svg>
