<svg width="28" height="28" viewBox="0 0 28 28" fill="none" xmlns="http://www.w3.org/2000/svg" xmlns:xlink="http://www.w3.org/1999/xlink">
<path d="M14,27.333C6.636,27.333 0.667,21.364 0.667,14C0.667,6.636 6.636,0.667 14,0.667C21.364,0.667 27.333,6.636 27.333,14C27.333,21.364 21.364,27.333 14,27.333ZM7.333,15.333C7.333,17.101 8.036,18.797 9.286,20.047C10.536,21.298 12.232,22 14,22C15.768,22 17.464,21.298 18.714,20.047C19.964,18.797 20.667,17.101 20.667,15.333L18,15.333C18,16.394 17.578,17.411 16.828,18.162C16.078,18.912 15.061,19.333 14,19.333C12.939,19.333 11.922,18.912 11.171,18.162C10.421,17.411 10,16.394 10,15.333L7.333,15.333ZM8.667,12.667C9.197,12.667 9.706,12.456 10.081,12.081C10.456,11.706 10.667,11.197 10.667,10.667C10.667,10.136 10.456,9.627 10.081,9.252C9.706,8.877 9.197,8.667 8.667,8.667C8.136,8.667 7.627,8.877 7.252,9.252C6.877,9.627 6.667,10.136 6.667,10.667C6.667,11.197 6.877,11.706 7.252,12.081C7.627,12.456 8.136,12.667 8.667,12.667ZM19.333,12.667C19.864,12.667 20.372,12.456 20.747,12.081C21.123,11.706 21.333,11.197 21.333,10.667C21.333,10.136 21.123,9.627 20.747,9.252C20.372,8.877 19.864,8.667 19.333,8.667C18.803,8.667 18.294,8.877 17.919,9.252C17.544,9.627 17.333,10.136 17.333,10.667C17.333,11.197 17.544,11.706 17.919,12.081C18.294,12.456 18.803,12.667 19.333,12.667Z" transform="rotate(0 14 14)" fill="#6D31ED"/>
</svg>
