<svg width="28" height="28" viewBox="0 0 28 28" fill="none" xmlns="http://www.w3.org/2000/svg" xmlns:xlink="http://www.w3.org/1999/xlink">
<path d="M14,27.333C6.636,27.333 0.667,21.364 0.667,14C0.667,6.636 6.636,0.667 14,0.667C21.364,0.667 27.334,6.636 27.334,14C27.334,21.364 21.364,27.333 14,27.333ZM7.334,15.333C7.334,17.102 8.036,18.797 9.286,20.047C10.537,21.298 12.232,22 14,22C15.768,22 17.464,21.298 18.714,20.047C19.965,18.797 20.667,17.102 20.667,15.333L18,15.333C18,16.394 17.579,17.412 16.829,18.162C16.079,18.912 15.061,19.333 14,19.333C12.939,19.333 11.922,18.912 11.172,18.162C10.422,17.412 10,16.394 10,15.333L7.334,15.333ZM8.667,12.667C9.197,12.667 9.706,12.456 10.081,12.081C10.456,11.706 10.667,11.197 10.667,10.667C10.667,10.136 10.456,9.628 10.081,9.253C9.706,8.877 9.197,8.667 8.667,8.667C8.137,8.667 7.628,8.877 7.253,9.253C6.878,9.628 6.667,10.136 6.667,10.667C6.667,11.197 6.878,11.706 7.253,12.081C7.628,12.456 8.137,12.667 8.667,12.667ZM19.334,12.667C19.864,12.667 20.373,12.456 20.748,12.081C21.123,11.706 21.334,11.197 21.334,10.667C21.334,10.136 21.123,9.628 20.748,9.253C20.373,8.877 19.864,8.667 19.334,8.667C18.803,8.667 18.295,8.877 17.919,9.253C17.544,9.628 17.334,10.136 17.334,10.667C17.334,11.197 17.544,11.706 17.919,12.081C18.295,12.456 18.803,12.667 19.334,12.667Z" transform="rotate(0 14 14)" fill="#6D31ED"/>
</svg>
