<svg width="32" height="32" viewBox="0 0 32 32" fill="none" xmlns="http://www.w3.org/2000/svg" xmlns:xlink="http://www.w3.org/1999/xlink">
<path d="M10.887,12.72L18.138,0.165C15.896,-0.336 13.569,-0.321 11.334,0.208C9.099,0.737 7.013,1.767 5.233,3.22L10.796,12.872L10.887,12.72ZM29.34,10.44C27.942,6.002 24.552,2.445 20.22,0.803L14.657,10.44L29.34,10.44ZM29.736,11.96L18.351,11.96L18.791,12.72L26.027,25.26C28.612,22.469 30.045,18.804 30.04,15C30.04,13.951 29.933,12.948 29.736,11.96ZM9.58,15L3.652,4.74C2.024,6.504 0.838,8.63 0.193,10.942C-0.452,13.255 -0.537,15.688 -0.057,18.04L11.328,18.04L9.58,15ZM0.339,19.56C1.737,23.998 5.127,27.555 9.459,29.197L15.022,19.56L0.339,19.56ZM17.469,19.56L11.541,29.835C13.783,30.336 16.109,30.321 18.345,29.792C20.58,29.263 22.666,28.233 24.446,26.78L18.883,17.128L17.469,19.56Z" transform="rotate(0 14.838 15)" fill="#6D31ED"/>
</svg>
