<svg width="40" height="32" viewBox="0 0 40 32" fill="none" xmlns="http://www.w3.org/2000/svg" xmlns:xlink="http://www.w3.org/1999/xlink">
<path d="M39.2,4.12C37.76,4.72 36.32,5.2 34.64,5.32C36.32,4.36 37.52,2.8 38.12,1C36.56,1.96 34.88,2.56 33.08,2.92C31.64,1.36 29.6,0.4 27.44,0.4C23.12,0.4 19.52,3.88 19.52,8.32C19.52,8.92 19.64,9.52 19.76,10.12C13.16,9.76 7.4,6.64 3.44,1.84C2.72,3.04 2.36,4.36 2.36,5.8C2.36,8.56 3.8,10.96 5.84,12.4C4.52,12.4 3.32,12.04 2.24,11.44L2.24,11.56C2.24,15.4 5,18.52 8.6,19.24C7.88,19.36 7.28,19.48 6.56,19.48C6.08,19.48 5.6,19.48 5.12,19.36C6.08,22.48 9.08,24.76 12.44,24.88C9.8,27.04 6.32,28.24 2.6,28.24C2,28.24 1.28,28.24 0.68,28.12C4.28,30.28 8.48,31.6 12.92,31.6C27.44,31.6 35.36,19.6 35.36,9.16C35.36,8.8 35.36,8.44 35.36,8.2C36.8,7 38.12,5.68 39.2,4.12Z" transform="rotate(0 19.94 16)" fill="#000000"/>
</svg>
