<svg width="8" height="8" viewBox="0 0 8 8" fill="none" xmlns="http://www.w3.org/2000/svg" xmlns:xlink="http://www.w3.org/1999/xlink">
<path d="M3.871,3.143C3.871,2.953 4.025,2.8 4.214,2.8L4.214,6.914C6.297,6.914 7.986,5.226 7.986,3.143L3.871,3.143ZM4.214,2.8C4.404,2.8 4.557,2.953 4.557,3.143L0.443,3.143C0.443,5.226 2.131,6.914 4.214,6.914L4.214,2.8ZM4.557,3.143C4.557,3.332 4.404,3.486 4.214,3.486L4.214,-0.629C2.131,-0.629 0.443,1.06 0.443,3.143L4.557,3.143ZM4.214,3.486C4.025,3.486 3.871,3.332 3.871,3.143L7.986,3.143C7.986,1.06 6.297,-0.629 4.214,-0.629L4.214,3.486Z" transform="rotate(0 4.214 3.143)" fill="#565D6D"/>
</svg>
