<svg width="48" height="48" viewBox="0 0 48 48" fill="none" xmlns="http://www.w3.org/2000/svg" xmlns:xlink="http://www.w3.org/1999/xlink">
<path d="M47.013,19.637L24.104,19.637L24.104,29.454L37.088,29.454C35.008,36 29.888,38.182 24,38.182C21.719,38.185 19.471,37.638 17.446,36.587C15.421,35.536 13.68,34.012 12.37,32.144C11.06,30.276 10.22,28.12 9.921,25.859C9.622,23.597 9.873,21.297 10.653,19.153C11.432,17.009 12.718,15.085 14.399,13.544C16.081,12.003 18.11,10.89 20.314,10.3C22.517,9.71 24.831,9.66 27.058,10.155C29.284,10.65 31.359,11.675 33.106,13.142L40.24,6.347C37.367,3.701 33.891,1.796 30.115,0.797C26.339,-0.201 22.376,-0.263 18.571,0.618C14.765,1.498 11.232,3.294 8.278,5.849C5.324,8.405 3.039,11.643 1.62,15.282C0.201,18.921 -0.308,22.851 0.136,26.732C0.581,30.613 1.966,34.326 4.171,37.55C6.377,40.774 9.335,43.411 12.791,45.232C16.246,47.053 20.094,48.003 24,48C37.234,48 49.195,39.272 47.013,19.637Z" transform="rotate(0 23.626 24)" fill="#000000"/>
</svg>
